<svg version="1.1" xmlns="http://www.w3.org/2000/svg" xmlns:xlink="http://www.w3.org/1999/xlink" x="0px" y="0px" viewBox="0 0 36 36" style="enable-background:new 0 0 36 36;" xml:space="preserve">
	<style type="text/css">
		.st0{fill:#efefef;}
	</style>
	<g transform="translate(-1152.000000, -2044.000000)">
		<g transform="translate(905.000000, 2027.000000)">
			<g transform="translate(230.000000, 0.000000)">
				<g transform="translate(15.000000, 15.000000)">
					<path class="st0" d="M33.7142868,2H6.2857141C3.9200001,2,2,3.9200001,2,6.2857141v27.4285736
						C2,36.0800018,3.9200001,38,6.2857141,38h27.4285736C36.0800018,38,38,36.0800018,38,33.7142868V6.2857141
						C38,3.9200001,36.0800018,2,33.7142868,2z M12.3371429,14.9085712C12.7742853,14.4114285,13.46,14.0857143,14.0685711,14
						c0.0857143,0.6599998-0.1714277,1.3285713-0.5228567,1.7399998c-0.4285717,0.4971428-1.0371428,0.8314285-1.7228575,0.8314285
						C11.6514282,15.9885712,11.9085712,15.4142857,12.3371429,14.9085712z M16.0485706,23.514286
						c-0.5142851,0.6857147-1.2085705,1.6285706-1.9799995,1.6285706c-0.7799997,0-0.9514284-0.514286-1.9028568-0.4285717
						c-1.0371428,0-1.2085714,0.514286-1.9885712,0.4285717c-0.8571434,0-1.4657145-0.7714272-1.8942862-1.5428562
						c-1.2942853-1.9714298-1.465714-4.3714294-0.6085711-5.6571426c0.6085711-0.8571434,1.4657145-1.3714294,2.3314285-1.3714294
						s1.4657145,0.514286,2.1599998,0.514286s1.1228571-0.514286,2.1599998-0.514286
						c0.7799997,0,1.5514288,0.4285717,2.1599998,1.1142864c-1.9028568,1.0285702-1.5599995,3.6857147,0.3428574,4.4571419
						C16.485714,22.742857,16.3142853,23,16.0485706,23.514286z M23.7714291,17.7542858h-2.2285728v4.4742851
						c0,1.0285721,0.257143,1.6285725,1.2000008,1.6285725c0.4285717,0,0.6857147,0,0.8571434-0.0857143l0.0857143,1.1999989
						c-0.257143,0.0857143-0.7714291,0.1714287-1.3714294,0.1714287c-0.6857147,0-1.2857132-0.257143-1.7142849-0.6857128
						C20.1714287,23.9428577,20,23.257143,20,22.2285709v-4.4742851h-1.2857151v-1.1828575H20v-2.1428566L21.5428562,14v2.5714283
						h2.2285728V17.7542858z M29.5228577,25.1428566h-1.4571438l-3.2485714-8.5714283h1.6285725l1.7057133,4.8000011
						c0.257143,0.7714272,0.514286,1.4571419,0.6857147,2.2285709h0.0857143
						c0.1714287-0.6857147,0.4285717-1.3714294,0.6857147-2.2285709l1.6285706-4.8000011h1.6200008L29.5228577,25.1428566z"/>
				</g>
			</g>
		</g>
	</g>
</svg>
