<svg xmlns="http://www.w3.org/2000/svg" xmlns:xlink="http://www.w3.org/1999/xlink" x="0px" y="0px" viewBox="0 0 420.234 421.773" enable-background="new 0 0 420.234 421.773" xml:space="preserve">
<g fill="#fff">
	<path d="M320.749,223.967c-0.529-52.793,43.048-78.113,44.991-79.387c-24.484-35.81-62.636-40.724-76.219-41.278
		c-32.436-3.301-63.332,19.108-79.793,19.108c-16.421,0-41.85-18.628-68.75-18.157c-35.396,0.529-68.014,20.589-86.229,52.271
		c-36.753,63.754-9.397,158.246,26.413,209.996c17.511,25.289,38.391,53.753,65.78,52.711c26.404-1.043,36.373-17.074,68.286-17.074
		c31.914,0,40.882,17.074,68.808,16.536c28.39-0.513,46.391-25.776,63.763-51.171c20.092-29.384,28.373-57.83,28.861-59.278
		C376.048,307.963,321.319,286.993,320.749,223.967z"/>
	<path d="M268.27,69.055c14.526-17.636,24.37-42.146,21.698-66.541c-20.97,0.853-46.349,13.938-61.396,31.558
		c-13.482,15.634-25.278,40.526-22.119,64.481C229.837,100.365,253.694,86.658,268.27,69.055z"/>
</g>
</svg>
