<svg xmlns="http://www.w3.org/2000/svg" xmlns:xlink="http://www.w3.org/1999/xlink" x="0px" y="0px" viewBox="0 0 20 20" enable-background="new 0 0 20 20" xml:space="preserve" fill="#adb8c1" fill-rule="evenodd" clip-rule="evenodd" >
	<path d="M10,0C4.477,0,0,4.478,0,10c0,5.523,4.477,10,10,10 c5.522,0,10-4.478,10-10C20,4.478,15.522,0,10,0z M10,19c-4.971,0-9-4.029-9-9c0-4.97,4.029-9,9-9s9,4.03,9,9 C19,14.971,14.971,19,10,19z M15.5,10H10V4.5C10,4.224,9.776,4,9.5,4S9,4.224,9,4.5v6C9,10.776,9.224,11,9.5,11h6 c0.276,0,0.5-0.224,0.5-0.5S15.776,10,15.5,10z"/>
</svg>
