<svg xmlns="http://www.w3.org/2000/svg" xmlns:xlink="http://www.w3.org/1999/xlink" x="0px" y="0px" viewBox="0 0 420.234 421.773" enable-background="new 0 0 420.234 421.773" xml:space="preserve">
<g fill="#333">
	<path d="M192.415,33.865C267.842,21.55,344.808,10.775,420.234,0v3.079v197.033c-75.427,0-152.393,1.539-227.819,1.539V33.865z"/>
	<path d="M0,60.033c56.955-9.236,113.91-16.933,172.404-23.09V201.65c-58.494,0-115.449,1.54-172.404,1.54V60.033z"/>
	<path d="M0,220.123c56.955,0,113.91,1.539,172.404,0v166.246C113.91,378.673,56.955,370.976,0,363.279V220.123z"/>
	<path d="M192.415,221.662h227.819v190.876v9.235c-75.427-12.314-152.393-21.551-227.819-32.325V221.662z"/>
</g>
</svg>
