<svg version="1.1" xmlns="http://www.w3.org/2000/svg" xmlns:xlink="http://www.w3.org/1999/xlink" x="0px" y="0px" viewBox="0 0 56.7 56.7" enable-background="new 0 0 56.7 56.7" xml:space="preserve" fill="#adb8c1">
	<path  d="M26.4,8.9c8.3-1.4,16.7-2.5,25-3.7v0.3v21.6c-8.3,0-16.7,0.2-25,0.2V8.9z"/>
	<path  d="M5.3,11.8c6.2-1,12.5-1.9,18.9-2.5v18.1c-6.4,0-12.7,0.2-18.9,0.2V11.8z"/>
	<path  d="M5.3,29.4c6.2,0,12.5,0.2,18.9,0v18.2c-6.4-0.8-12.7-1.7-18.9-2.5V29.4z"/>
	<path  d="M26.4,29.5h25v20.9v1c-8.3-1.4-16.7-2.4-25-3.5V29.5z"/>
</svg>
