<svg width="16" height="16" viewBox="0 0 16 16" fill="none" xmlns="http://www.w3.org/2000/svg">
<g clip-path="url(#clip0)">
<path fill-rule="evenodd" clip-rule="evenodd" d="M4.50633 0H11.4937C14.7848 0 16 1.21519 16 4.50633V11.4937C16 14.7848 14.7848 16 11.4937 16H4.50633C1.21519 16 0 14.7848 0 11.4937V4.50633C0 1.21519 1.21519 0 4.50633 0ZM4.65823 9.11392C4.65823 9.46835 4.86076 9.67089 5.16456 9.67089C5.46836 9.67089 5.67089 9.47389 5.67089 9.11392V7.94937H6.07595V9.11392C6.07595 9.72152 5.72152 10.0759 5.16456 10.0759C4.55697 10.0759 4.25317 9.77215 4.25317 9.16456V7.94937H4.65823V9.11392ZM3.18988 8H3.59494V10.0759H3.18988V9.21519H2.22785V10.0759H1.82279V8H2.22785V8.81013H3.18988V8ZM6.63291 10.0759L6.83545 9.62025H7.74684L7.94937 10.0759H8.40507L7.49367 8H7.08861L6.17722 10.0759H6.63291ZM6.98735 9.26582H7.64557L7.34178 8.50633L6.98735 9.26582ZM10.0253 8H9.67089L9.21519 9.41772L8.7595 8H8.3038L9.01266 10.0759H9.36709L9.82279 8.70886L10.2785 10.0759H10.6329L11.3418 8H10.8861L10.481 9.41772L10.0253 8ZM12.8608 9.16456H12.1013V9.67089H13.2658V10.0759H11.6962V8H13.2152V8.40506H12.1013V8.81013H12.8608V9.16456ZM13.7722 10.0759H14.1772V8H13.7722V10.0759ZM5.36709 2.68354C5.36709 4.10126 6.53165 5.31645 8 5.31645C9.46836 5.31645 10.6835 4.15189 10.6329 2.68354H10.2785C10.2785 3.94936 9.26583 4.96202 8 4.96202C6.73418 4.96202 5.72152 3.94936 5.72152 2.68354H5.36709Z" fill="#E30613"/>
</g>
<defs>
<clipPath id="clip0">
<rect width="16" height="16" fill="white"/>
</clipPath>
</defs>
</svg>
