<svg xmlns="http://www.w3.org/2000/svg" viewBox="0 0 22.875 21.69" fill="#e5e5e5">
	<path d="M61.894,2948.79c0.322-.99.848-0.99,1.169,0l1.761,5.41A2.784,2.784,0,0,0,67.3,2956H73c1.041,0,1.2.5,0.356,1.11l-4.6,3.3a2.774,2.774,0,0,0-.95,2.91l1.757,5.39c0.323,0.99-.1,1.3-0.943.68l-4.612-3.36a2.789,2.789,0,0,0-3.061,0l-4.608,3.35c-0.842.61-1.267,0.3-.944-0.69l1.754-5.37a2.756,2.756,0,0,0-.948-2.9l-4.6-3.31c-0.845-.61-0.684-1.11.356-1.11h5.7a2.783,2.783,0,0,0,2.477-1.8Z" transform="translate(-51.031 -2948.03)"/>
</svg>
