<svg width="50" height="50" viewBox="0 0 50 50" fill="none" xmlns="http://www.w3.org/2000/svg">
<path d="M18.6784 41.4646H17.7856V31.1074H0.999847L13.857 7.35742H18.6784V26.6431H17.7856V8.25028H14.3927L2.42842 30.2146H20.9998V31.1074H18.6784V41.4646Z" fill="#E30613" stroke="#E30613" stroke-width="0.7" stroke-linecap="round" stroke-linejoin="round"/>
<path d="M38.6784 42.3571C29.5713 42.3571 24.0356 35.9286 24.0356 25.0357C24.0356 14.1429 29.9284 7 38.857 7C42.0713 7 45.2856 7.89286 47.9641 9.85714L47.7856 10.5714C45.107 8.96429 42.0713 7.89286 39.0356 7.89286C30.4641 7.89286 25.107 14.5 25.107 25.0357C25.107 35.3929 30.2856 41.4643 38.857 41.4643C41.7141 41.4643 44.5713 40.9286 47.2498 39.8571V26.8214H43.4998V25.9286H48.1427V40.3929H47.9641C44.9284 41.8214 41.8927 42.3571 38.6784 42.3571Z" fill="#E30613" stroke="#E30613" stroke-width="0.7" stroke-linecap="round" stroke-linejoin="round"/>
</svg>
