<svg fill="#adb8c1" xmlns="http://www.w3.org/2000/svg" viewBox="0 0 21.517 28.744" width="21.517" height="28.744" x="344.36" y="40"><path d="M10.758 28.744l-.374-.422C9.96 27.844 0 16.548 0 10.759 0 4.826 4.826 0 10.758 0s10.758 4.826 10.758 10.759c0 5.789-9.96 17.085-10.384 17.563l-.374.422zm0-27.744C5.377 1 1 5.378 1 10.759c0 4.812 7.926 14.333 9.758 16.468 1.832-2.136 9.758-11.658 9.758-16.468C20.517 5.378 16.139 1 10.758 1z"/><path d="M10.758 15.426a4.673 4.673 0 0 1-4.667-4.667 4.673 4.673 0 0 1 4.667-4.668 4.672 4.672 0 0 1 4.667 4.668 4.672 4.672 0 0 1-4.667 4.667zm0-8.335a3.672 3.672 0 0 0-3.667 3.668 3.671 3.671 0 0 0 3.667 3.667 3.671 3.671 0 0 0 3.667-3.667 3.67 3.67 0 0 0-3.667-3.668z"/></svg>