<svg id="Layer_1" data-name="Layer 1" xmlns="http://www.w3.org/2000/svg" viewBox="0 0 208.8 36.5"><defs><style>.cls-1{fill:#e30611;}</style></defs><title>business-descriptor-2</title><path class="cls-1" d="M576.9,389.3H557.8V354.5h28.1v8.3H567.7v4.5h9.2c7.7,0,11.5,3.8,11.5,10.6-.1,7.1-3.8,11.4-11.5,11.4M575,374.6h-7.4v6.8H575c1.9,0,3-1,3-2.7v-1.3c0-1.8-1-2.8-3-2.8" transform="translate(-557.8 -353.7)"/><polygon class="cls-1" points="35.1 35.6 35.1 0.8 45.2 0.8 45.2 21.2 56.2 0.8 67.5 0.8 67.5 35.6 57.4 35.6 57.4 15.1 46.4 35.6 35.1 35.6"/><path class="cls-1" d="M651.6,378.8V378c0-2.1-1.7-2.9-3.9-2.9h-5.9v-7.5h5.9c2.2,0,3.1-1.1,3.1-2.6v-.6c0-2.1-1.6-2.9-4.7-2.9-3.3,0-5,1-5.5,3.7H630.2c1-7.9,6.2-11.5,15.9-11.5,10,0,15.1,3.1,15.1,9.6,0,3.6-2.2,6.2-6.4,7.6,4.8,1.2,7.2,4.3,7.2,7.6,0,8-5.5,11.5-15.4,11.5s-15.8-3.4-16.5-11.8h10.3c.2,3.1,2.4,4,6.2,4,3.3,0,5-.8,5-3.4" transform="translate(-557.8 -353.7)"/><polygon class="cls-1" points="130 35.6 130 22.1 118.8 22.1 118.8 35.6 108.7 35.6 108.7 0.8 118.8 0.8 118.8 13.5 130 13.5 130 0.8 140.1 0.8 140.1 35.6 130 35.6"/><polygon class="cls-1" points="146.2 35.6 146.2 0.8 172.6 0.8 172.6 9.1 156.3 9.1 156.3 13.6 168.4 13.6 168.4 21.7 156.3 21.7 156.3 27.3 172.7 27.3 172.7 35.6 146.2 35.6"/><path class="cls-1" d="M733.8,371.7c0-13.6,6.2-18,16.5-18,9.5,0,15.3,3.3,16.2,12.8H756.2c-.4-3.9-2.6-4.7-5.8-4.7-3.5,0-6.2.9-6.2,7V375c0,6.1,2.6,7.1,6.2,7.1,3.2,0,5.3-1,5.9-4.8h10.3c-1,9.4-6.8,12.9-16.2,12.9-10.4-.2-16.6-4.3-16.6-18.5" transform="translate(-557.8 -353.7)"/></svg>