<?xml version="1.0" encoding="UTF-8"?>
<svg width="26px" height="27px" viewBox="0 0 26 27" version="1.1" xmlns="http://www.w3.org/2000/svg" xmlns:xlink="http://www.w3.org/1999/xlink">
    <!-- Generator: sketchtool 51.1 (57501) - http://www.bohemiancoding.com/sketch -->
    <title>27A44DEE-920B-4A3C-B6A3-88ADFB770FCE</title>
    <desc>Created with sketchtool.</desc>
    <defs></defs>
    <g id="Page-1" stroke="none" stroke-width="1" fill="none" fill-rule="evenodd">
        <g id="1680" transform="translate(-735.000000, -628.000000)" fill="#E30613">
            <g id="item-1" transform="translate(446.000000, 470.000000)">
                <g id="hot-label" transform="translate(289.000000, 158.000000)">
                    <path d="M11.992,22.9607938 C12.836,20.5307938 12.371,19.5467938 9.452,17.2057938 C6.599,14.9157938 7.367,10.2117938 9.46,7.72479375 C9.46,7.72479375 9.416,10.2717938 11.878,12.0477938 C10.437,6.69579375 11.635,5.24279375 14.488,3.45379375 C13.906,4.21579375 12.599,8.52279375 16.043,11.8377938 C20.156,15.7947938 16.928,20.4677938 11.992,22.9607938 M12.985,0.22279375 C5.814,0.22279375 0,6.03679375 0,13.2077938 C0,20.3777938 5.814,26.1917938 12.985,26.1917938 C20.156,26.1917938 25.969,20.3777938 25.969,13.2077938 C25.969,6.03679375 20.156,0.22279375 12.985,0.22279375" id="Fill-1"></path>
                </g>
            </g>
        </g>
    </g>
</svg>