<svg width="24" height="24" viewBox="0 0 24 24" fill="none" xmlns="http://www.w3.org/2000/svg">
<path d="M3 3L5.56294 4.33347L4.60085 16.4676H19.1186L20.543 9.79639L5.3617 8.60574" stroke="#9198A0" stroke-width="2" stroke-linecap="round" stroke-linejoin="round"/>
<path fill-rule="evenodd" clip-rule="evenodd" d="M6.5625 23.1858C7.66707 23.1858 8.5625 22.2904 8.5625 21.1858C8.5625 20.0812 7.66707 19.1858 6.5625 19.1858C5.45793 19.1858 4.5625 20.0812 4.5625 21.1858C4.5625 22.2904 5.45793 23.1858 6.5625 23.1858Z" fill="#9198A0"/>
<path fill-rule="evenodd" clip-rule="evenodd" d="M16.6963 23.1858C17.8009 23.1858 18.6963 22.2904 18.6963 21.1858C18.6963 20.0812 17.8009 19.1858 16.6963 19.1858C15.5917 19.1858 14.6963 20.0812 14.6963 21.1858C14.6963 22.2904 15.5917 23.1858 16.6963 23.1858Z" fill="#9198A0"/>
</svg>
