<?xml version="1.0" encoding="utf-8"?>
<!-- Generator: Adobe Illustrator 21.0.0, SVG Export Plug-In . SVG Version: 6.00 Build 0)  -->
<svg version="1.1" id="Layer_1" xmlns="http://www.w3.org/2000/svg" xmlns:xlink="http://www.w3.org/1999/xlink" x="0px" y="0px"
	 viewBox="0 0 2490 2500" style="enable-background:new 0 0 2490 2500;" xml:space="preserve">
<style type="text/css">
	.st0{fill:#EF3F36;}
	.st1{fill:#FCD900;}
	.st2{fill:#61BC5B;}
	.st3{fill:#5AB055;}
	.st4{fill:#FFFFFF;}
	.st5{fill:url(#SVGID_1_);}
	.st6{fill:#EACA05;}
	.st7{fill:#DF3A32;}
</style>
<path class="st0" d="M1242.9,0.3c0,0,732.6-32.9,1121,703.5H1180.6c0,0-223.3-7.2-414.1,263.7c-54.8,113.7-113.7,230.9-47.6,461.7
	c-95.2-161.3-505.5-875.8-505.5-875.8S502.8,29.5,1242.9,0.3L1242.9,0.3z"/>
<path class="st1" d="M2325.9,1869.7c0,0-338.1,651.1-1169.6,618.9c102.8-177.8,591.8-1024.8,591.8-1024.8s118.2-189.7-21.2-490.5
	c-70.9-104.5-143.2-213.7-376.1-272c187.4-1.7,1011.1,0,1011.1,0S2670.5,1214.2,2325.9,1869.7z"/>
<path class="st2" d="M165.1,1874.9c0,0-394.9-618.2,49-1322.4c102.4,177.8,591.5,1024.8,591.5,1024.8s105.5,197.3,435.3,226.7
	c125.7-9.2,256.5-17.1,423.7-189.4c-92.1,163-505.6,875.4-505.6,875.4S560.3,2501,165.1,1874.9L165.1,1874.9z"/>
<path class="st3" d="M1156,2494.8l166.5-694.6c0,0,182.9-14.4,336.3-182.6C1563.5,1785.1,1156,2494.8,1156,2494.8L1156,2494.8z"/>
<path class="st4" d="M685.4,1255.3c0-306.2,248.3-554.5,554.5-554.5s554.5,248.3,554.5,554.5c0,306.2-248.3,554.5-554.5,554.5
	C933.7,1809.4,685.4,1561.5,685.4,1255.3L685.4,1255.3z"/>
<linearGradient id="SVGID_1_" gradientUnits="userSpaceOnUse" x1="-4064.0935" y1="3233.698" x2="-4064.0935" y2="3232.7351" gradientTransform="matrix(923.3912 0 0 -923.3912 3753988 2986768.5)">
	<stop  offset="0" style="stop-color:#86BBE5"/>
	<stop  offset="1" style="stop-color:#1072BA"/>
</linearGradient>
<path class="st5" d="M778.2,1255.3c0-254.8,206.5-461.7,461.7-461.7c254.8,0,461.7,206.5,461.7,461.7
	c0,254.8-206.5,461.7-461.7,461.7C985,1717,778.2,1510.1,778.2,1255.3z"/>
<path class="st6" d="M2361.6,701.8l-685.4,201c0,0-103.4-151.7-325.7-201C1543.3,700.8,2361.6,701.8,2361.6,701.8L2361.6,701.8z"/>
<path class="st7" d="M705.6,1403.9c-96.3-166.8-492.2-850.4-492.2-850.4L721,1055.6c0,0-52.1,107.2-32.5,260.6L705.6,1403.9
	L705.6,1403.9z"/>
</svg>
