<svg width="24" height="24" viewBox="0 0 24 24" fill="none" xmlns="http://www.w3.org/2000/svg">
<path fill-rule="evenodd" clip-rule="evenodd" d="M4.22176 18.364C3.83123 18.7545 3.83123 19.3877 4.22176 19.7782C4.61228 20.1687 5.24544 20.1687 5.63597 19.7782L11.9998 13.4143L18.3637 19.7782C18.7543 20.1687 19.3874 20.1687 19.778 19.7782C20.1685 19.3877 20.1685 18.7545 19.778 18.364L13.4141 12.0001L19.7781 5.63606C20.1686 5.24554 20.1686 4.61237 19.7781 4.22185C19.3876 3.83132 18.7544 3.83132 18.3639 4.22185L11.9998 10.5859L5.63582 4.22186C5.24529 3.83134 4.61213 3.83134 4.2216 4.22186C3.83108 4.61239 3.83108 5.24555 4.2216 5.63608L10.5856 12.0001L4.22176 18.364Z" fill="#9198A0"/>
</svg>
