<svg viewBox="0 0 30 30" fill="none" xmlns="http://www.w3.org/2000/svg">
<path d="M20.6569 7.92898C21.0474 7.53845 21.6805 7.53845 22.0711 7.92898C22.4616 8.3195 22.4616 8.95267 22.0711 9.34319L9.34315 22.0711C8.95262 22.4616 8.31946 22.4616 7.92893 22.0711C7.53841 21.6806 7.53841 21.0474 7.92893 20.6569L20.6569 7.92898Z" fill="black"/>
<path d="M22.0711 20.6569C22.4616 21.0474 22.4616 21.6806 22.0711 22.0711C21.6805 22.4616 21.0474 22.4616 20.6569 22.0711L7.92893 9.34319C7.53841 8.95267 7.53841 8.3195 7.92893 7.92898C8.31946 7.53845 8.95262 7.53845 9.34315 7.92898L22.0711 20.6569Z" fill="black"/>
</svg>
