<?xml version="1.0" standalone="no"?>
<!DOCTYPE svg PUBLIC "-//W3C//DTD SVG 1.1//EN" "http://www.w3.org/Graphics/SVG/1.1/DTD/svg11.dtd" >
<svg>
<metadata>
Created by FontForge 20090622 at Mon Jan 21 09:56:45 2019
 By deploy user
Copyright [c] 1997-2015 Luc(as) de Groot, published by LucasFonts.
</metadata>
<defs>
<font id="CorpidE1sSCd-LightItalic" horiz-adv-x="500" >
  <font-face 
    font-family="Corpid E1s SCd Light"
    font-weight="300"
    font-style="italic"
    font-stretch="normal"
    units-per-em="1000"
    panose-1="2 11 3 3 4 5 2 13 2 4"
    ascent="779"
    descent="-221"
    x-height="506"
    cap-height="698"
    bbox="-144 -221 1334 979"
    underline-thickness="50"
    underline-position="-146"
    slope="-10"
    unicode-range="U+000D-U+FB06"
  />
<missing-glyph horiz-adv-x="550" 
d="M300 150h-150v250h50v-200h100v-50zM500 50h-450v450h450v-450zM400 150h-50v100h-100v50h100v50h-100v50h150v-250zM450 100v350h-350v-350h350z" />
    <glyph glyph-name="f_b" unicode="fb" horiz-adv-x="784" 
d="M319 20l120 682q-48 8 -93 8q-67 0 -99 -40.5t-44 -112.5l-9 -51h115l-8 -46h-115l-87 -492q-17 -92 -55 -140t-118 -48q-32 0 -51 5l8 44h44q32 0 53.5 10.5t33.5 34t17.5 44t12.5 57.5l86 485h-75l8 46h75l9 53q18 96 68 148t145 52q64 0 144 -13l-46 -255
q-9 -50 -25 -116q31 62 77.5 101.5t101.5 39.5q65 0 95.5 -44.5t30.5 -120.5q0 -58 -14.5 -117t-43.5 -114.5t-82.5 -90.5t-122.5 -35q-81 0 -156 26zM408 199l-25 -138q47 -21 97 -21q53 0 93.5 31t62 80t31.5 98.5t10 96.5q0 121 -75 121q-62 0 -119.5 -84t-74.5 -184z
" />
    <glyph glyph-name="f_f" unicode="ff" horiz-adv-x="560" 
d="M143 -215l8 44h44q32 0 53 10.5t33 34t17.5 44t12.5 57.5l85 485h-210l-88 -496q-16 -89 -54 -136.5t-118 -47.5q-32 0 -51 5l8 44h44q32 0 53.5 10.5t33.5 34t17.5 44t12.5 57.5l86 485h-75l8 46h75l12 69q17 90 55 137t117 47q26 0 51 -5l-8 -44h-44q-32 0 -53 -10.5
t-33.5 -35t-18 -43.5t-12.5 -57l-10 -58h211l12 65q17 92 54.5 140t117.5 48q28 0 51 -5l-8 -44h-44q-32 0 -53 -10.5t-33 -34.5t-17.5 -44t-12.5 -57l-11 -58h116l-8 -46h-116l-87 -492q-16 -92 -54 -140t-118 -48q-34 0 -51 5z" />
    <glyph glyph-name="f_h" unicode="fh" horiz-adv-x="799" 
d="M671 0h-56l53 303q8 45 8 75q0 89 -70 89q-62 0 -121.5 -83t-76.5 -182l-36 -202h-57l124 702q-48 8 -93 8q-67 0 -99 -40.5t-44 -112.5l-9 -51h115l-8 -46h-115l-87 -492q-17 -92 -55 -140t-118 -48q-32 0 -51 5l8 44h44q32 0 53.5 10.5t33.5 34t17.5 44t12.5 57.5
l86 485h-75l8 46h75l9 53q18 96 68 148t145 52q64 0 144 -13l-46 -256q-9 -50 -25 -115q30 61 79 101t104 40q118 0 118 -134q0 -23 -7 -67z" />
    <glyph glyph-name="f_i" unicode="fi" 
d="M453 625q-18 0 -30.5 13t-12.5 31q0 21 13.5 35t32.5 14t31 -12.5t12 -30.5q0 -22 -13 -36t-33 -14zM370 0h-57l81 460h-208l-88 -496q-16 -89 -54 -136.5t-118 -47.5q-32 0 -51 5l8 44h44q32 0 53.5 10.5t33.5 34t17.5 44t12.5 57.5l86 485h-75l8 46h75l12 69
q17 90 55 137t117 47q26 0 51 -5l-8 -44h-44q-32 0 -53 -10.5t-33.5 -35t-18 -43.5t-12.5 -57l-10 -58h265z" />
    <glyph glyph-name="f_j" unicode="fj" 
d="M162 -212l10 43h46q34 0 55.5 31t33.5 100l88 498h-209l-88 -496q-16 -89 -54 -136.5t-118 -47.5q-32 0 -51 5l8 44h44q32 0 53.5 10.5t33.5 34t17.5 44t12.5 57.5l86 485h-75l8 46h75l12 69q17 90 55 137t117 47q26 0 51 -5l-8 -44h-44q-32 0 -53 -10.5t-33.5 -35
t-18 -43.5t-12.5 -57l-10 -58h265l-93 -534q-21 -113 -59 -152t-96 -39q-26 0 -49 7zM453 625q-18 0 -30.5 13t-12.5 31q0 21 13.5 35t32.5 14t31 -12.5t12 -30.5q0 -22 -13 -36t-33 -14z" />
    <glyph glyph-name="f_k" unicode="fk" horiz-adv-x="740" 
d="M668 0h-68l-142 274l-45 -37l-41 -237h-57l124 702q-48 8 -93 8q-67 0 -99 -40.5t-44 -112.5l-9 -51h115l-8 -46h-115l-87 -492q-17 -92 -55 -140t-118 -48q-32 0 -51 5l8 44h44q32 0 53.5 10.5t33.5 34t17.5 44t12.5 57.5l86 485h-75l8 46h75l9 53q18 96 68 148t145 52
q65 0 143 -13l-79 -446l230 206h80l-233 -198z" />
    <glyph glyph-name="f_l" unicode="fl" horiz-adv-x="521" 
d="M456 44l-8 -45q-22 -4 -43 -4q-90 0 -73 98l107 609q-48 8 -93 8q-67 0 -99 -40.5t-44 -112.5l-9 -51h115l-8 -46h-115l-87 -492q-17 -92 -55 -140t-118 -48q-32 0 -51 5l8 44h44q32 0 53.5 10.5t33.5 34t17.5 44t12.5 57.5l86 485h-75l8 46h75l9 53q18 96 68 148t145 52
q64 0 144 -13l-114 -643q-10 -59 28 -59h38z" />
    <glyph glyph-name="f_f_b" unicode="ffb" horiz-adv-x="1052" 
d="M586 20l121 682q-48 8 -94 8q-66 0 -98 -40.5t-45 -112.5l-9 -51h116l-8 -46h-116l-87 -492q-16 -92 -54 -140t-118 -48q-34 0 -51 5l8 44h44q32 0 53 10.5t33 34t17.5 44t12.5 57.5l86 485h-211l-88 -496q-16 -89 -54 -136.5t-118 -47.5q-32 0 -51 5l8 44h44
q32 0 53.5 10.5t33.5 34t17.5 44t12.5 57.5l86 485h-75l8 46h75l12 69q17 90 55 137t117 47q26 0 51 -5l-8 -44h-44q-32 0 -53 -10.5t-33.5 -35t-18 -43.5t-12.5 -57l-10 -58h211l10 53q18 96 67.5 148t144.5 52q64 0 144 -13l-46 -255q-12 -66 -24 -116q31 62 77 101.5
t101 39.5q65 0 96 -44.5t31 -120.5q0 -58 -14.5 -117t-44 -114.5t-83 -90.5t-122.5 -35q-80 0 -156 26zM675 199l-24 -138q45 -21 97 -21q53 0 93.5 31t62 80t31.5 98.5t10 96.5q0 121 -76 121q-62 0 -119 -83.5t-75 -184.5z" />
    <glyph glyph-name="f_f_h" unicode="ffh" horiz-adv-x="1066" 
d="M939 0h-57l54 303q7 49 7 75q0 89 -70 89q-62 0 -121.5 -83t-76.5 -182l-35 -202h-57l124 702q-48 8 -94 8q-66 0 -98 -40.5t-45 -112.5l-9 -51h116l-8 -46h-116l-87 -492q-16 -92 -54 -140t-118 -48q-34 0 -51 5l8 44h44q32 0 53 10.5t33 34t17.5 44t12.5 57.5l86 485
h-211l-88 -496q-16 -89 -54 -136.5t-118 -47.5q-32 0 -51 5l8 44h44q32 0 53.5 10.5t33.5 34t17.5 44t12.5 57.5l86 485h-75l8 46h75l12 69q17 90 55 137t117 47q26 0 51 -5l-8 -44h-44q-32 0 -53 -10.5t-33.5 -35t-18 -43.5t-12.5 -57l-10 -58h211l10 53q18 96 67.5 148
t144.5 52q64 0 144 -13l-46 -256q-7 -47 -24 -115q30 61 78.5 101t103.5 40q118 0 118 -134q0 -32 -7 -67z" />
    <glyph glyph-name="f_f_i" unicode="ffi" horiz-adv-x="767" 
d="M721 625q-19 0 -31 13t-12 31q0 22 13 35.5t33 13.5q18 0 30.5 -12.5t12.5 -30.5q0 -22 -13.5 -36t-32.5 -14zM638 0h-57l81 460h-209l-87 -496q-16 -89 -54 -136.5t-118 -47.5q-34 0 -51 5l8 44h44q32 0 53 10.5t33 34t17.5 44t12.5 57.5l86 485h-211l-88 -496
q-16 -89 -54 -136.5t-118 -47.5q-32 0 -51 5l8 44h44q32 0 53.5 10.5t33.5 34t17.5 44t12.5 57.5l86 485h-75l8 46h75l12 69q17 90 55 137t117 47q26 0 51 -5l-8 -44h-44q-32 0 -53 -10.5t-33.5 -35t-18 -43.5t-12.5 -57l-10 -58h211l13 69q16 89 54 136.5t117 47.5
q28 0 51 -5l-8 -44h-44q-32 0 -53 -10.5t-33 -34.5t-17.5 -44t-12.5 -57l-11 -58h266z" />
    <glyph glyph-name="f_f_j" unicode="ffj" horiz-adv-x="767" 
d="M430 -212l9 43h46q35 0 56.5 31t33.5 100l87 498h-209l-87 -496q-16 -89 -54 -136.5t-118 -47.5q-34 0 -51 5l8 44h44q32 0 53 10.5t33 34t17.5 44t12.5 57.5l85 485h-210l-88 -496q-16 -89 -54 -136.5t-118 -47.5q-32 0 -51 5l8 44h44q32 0 53.5 10.5t33.5 34t17.5 44
t12.5 57.5l86 485h-75l8 46h75l12 69q17 90 55 137t117 47q26 0 51 -5l-8 -44h-44q-32 0 -53 -10.5t-33.5 -35t-18 -43.5t-12.5 -57l-10 -58h211l13 69q16 89 54 136.5t117 47.5q28 0 51 -5l-8 -44h-44q-32 0 -53 -10.5t-33 -34.5t-17.5 -44t-12.5 -57l-11 -58h266l-94 -534
q-10 -60 -26.5 -99.5t-37.5 -58.5t-42 -26t-48 -7q-28 0 -49 7zM721 625q-19 0 -31 13t-12 31q0 22 13 35.5t33 13.5q18 0 30.5 -12.5t12.5 -30.5q0 -22 -13.5 -36t-32.5 -14z" />
    <glyph glyph-name="f_f_k" unicode="ffk" horiz-adv-x="1007" 
d="M936 0h-68l-143 274l-44 -37l-41 -237h-57l124 702q-48 8 -94 8q-66 0 -98 -40.5t-45 -112.5l-9 -51h116l-8 -46h-116l-87 -492q-16 -92 -54 -140t-118 -48q-34 0 -51 5l8 44h44q32 0 53 10.5t33 34t17.5 44t12.5 57.5l86 485h-211l-88 -496q-16 -89 -54 -136.5
t-118 -47.5q-32 0 -51 5l8 44h44q32 0 53.5 10.5t33.5 34t17.5 44t12.5 57.5l86 485h-75l8 46h75l12 69q17 90 55 137t117 47q26 0 51 -5l-8 -44h-44q-32 0 -53 -10.5t-33.5 -35t-18 -43.5t-12.5 -57l-10 -58h211l10 53q18 96 67.5 148t144.5 52q64 0 144 -13l-80 -446
l230 206h80l-233 -198z" />
    <glyph glyph-name="f_f_l" unicode="ffl" horiz-adv-x="788" 
d="M724 44l-8 -45q-24 -4 -43 -4q-91 0 -74 98l108 609q-48 8 -94 8q-66 0 -98 -40.5t-45 -112.5l-9 -51h116l-8 -46h-116l-87 -492q-16 -92 -54 -140t-118 -48q-34 0 -51 5l8 44h44q32 0 53 10.5t33 34t17.5 44t12.5 57.5l86 485h-211l-88 -496q-16 -89 -54 -136.5
t-118 -47.5q-32 0 -51 5l8 44h44q32 0 53.5 10.5t33.5 34t17.5 44t12.5 57.5l86 485h-75l8 46h75l12 69q17 90 55 137t117 47q26 0 51 -5l-8 -44h-44q-32 0 -53 -10.5t-33.5 -35t-18 -43.5t-12.5 -57l-10 -58h211l10 53q18 96 67.5 148t144.5 52q64 0 144 -13l-113 -643
q-6 -28 0 -43.5t28 -15.5h38z" />
    <glyph glyph-name=".notdef" horiz-adv-x="550" 
d="M300 150h-150v250h50v-200h100v-50zM500 50h-450v450h450v-450zM400 150h-50v100h-100v50h100v50h-100v50h150v-250zM450 100v350h-350v-350h350z" />
    <glyph glyph-name=".null" horiz-adv-x="0" 
 />
    <glyph glyph-name=".null" horiz-adv-x="0" 
 />
    <glyph glyph-name="nonmarkingreturn" horiz-adv-x="333" 
 />
    <glyph glyph-name="CR" unicode="&#xd;" 
 />
    <glyph glyph-name="space" unicode=" " horiz-adv-x="243" 
 />
    <glyph glyph-name="exclam" unicode="!" horiz-adv-x="317" 
d="M180 171h-48l92 579h66zM131 -11q-20 0 -33.5 14t-13.5 33q0 23 14.5 38t35.5 15q20 0 33 -14t13 -34q0 -22 -14.5 -37t-34.5 -15z" />
    <glyph glyph-name="quotedbl" unicode="&#x22;" horiz-adv-x="370" 
d="M322 473h-44l37 277h67zM159 473h-44l38 277h67z" />
    <glyph glyph-name="numbersign" unicode="#" 
d="M312 0h-53l40 203h-131l-40 -203h-53l40 203h-77l2 50h84l40 203h-79l3 50h86l37 192h54l-38 -192h131l37 192h54l-38 -192h77l-3 -50h-84l-39 -203h76l-2 -50h-84zM308 253l40 203h-131l-39 -203h130z" />
    <glyph glyph-name="dollar" unicode="$" 
d="M208 -116h-50l21 117q-75 0 -147 33l19 53q71 -34 147 -34q63 0 108.5 38.5t45.5 103.5q0 41 -25.5 68t-61.5 42.5l-72 32.5t-61.5 50t-25.5 83q0 71 52 122t135 58l18 104h50l-18 -103q63 -3 106 -25l-19 -50q-53 24 -118 24q-68 0 -105 -36t-37 -87q0 -39 25.5 -64
t62 -40.5l73 -32.5t62 -51.5t25.5 -86.5q0 -78 -53 -130.5t-135 -65.5z" />
    <glyph glyph-name="percent" unicode="%" horiz-adv-x="734" 
d="M188 343q-109 0 -109 116q0 27 4 56.5t16 64.5t30 62.5t50 46t72 18.5q108 0 108 -119q0 -34 -7.5 -72t-25 -79t-53.5 -67.5t-85 -26.5zM111 -29l-37 27l566 729l37 -27zM505 -10q-108 0 -108 117q0 35 7.5 73t25 79.5t53.5 68.5t85 27q109 0 109 -120q0 -26 -4 -55
t-16 -64t-30 -62t-50 -45.5t-72 -18.5zM194 386q31 0 54.5 22.5t34.5 57t16 65.5t5 57q0 76 -59 76q-31 0 -54.5 -23t-34.5 -57.5t-16 -65.5t-5 -57q0 -75 59 -75zM512 34q41 0 67.5 40.5t34 82t7.5 79.5q0 75 -59 75q-31 0 -54 -23t-34.5 -57.5t-16.5 -65.5t-5 -57
q0 -74 60 -74z" />
    <glyph glyph-name="ampersand" unicode="&#x26;" horiz-adv-x="633" 
d="M562 31l-38 -41q-85 80 -104 100q-100 -100 -214 -100q-79 0 -122.5 42t-43.5 109q0 131 154 233q-44 83 -44 148q0 76 49 130.5t124 54.5q58 0 91 -32.5t33 -81.5q0 -63 -38.5 -113t-141.5 -116q57 -95 152 -195q64 96 86 220h60q-28 -151 -109 -258zM244 405
q77 50 110 91t33 92q0 71 -71 71q-46 0 -76 -41.5t-30 -92.5q0 -52 34 -120zM219 332q-116 -84 -116 -186q0 -50 30 -77.5t86 -27.5q86 0 165 86q-106 111 -165 205z" />
    <glyph glyph-name="quotesingle" unicode="'" horiz-adv-x="208" 
d="M159 473h-44l38 277h67z" />
    <glyph glyph-name="parenleft" unicode="(" horiz-adv-x="291" 
d="M147 -173l-45 -16q-47 141 -47 299q0 345 214 659l40 -18q-196 -321 -196 -657q0 -138 34 -267z" />
    <glyph glyph-name="parenright" unicode=")" horiz-adv-x="291" 
d="M24 -189l-40 18q196 321 196 657q0 137 -34 267l45 16q47 -143 47 -300q0 -345 -214 -658z" />
    <glyph glyph-name="asterisk" unicode="*" 
d="M424 444l-108 91l-7 -156h-66l32 156l-129 -91l-27 58l144 63l-128 68l41 56l107 -90l7 156h66l-32 -156l129 90l28 -57l-145 -64l129 -68z" />
    <glyph glyph-name="plus" unicode="+" 
d="M242 81h-57l36 202h-175l10 55h175l36 203h57l-36 -203h175l-10 -55h-175z" />
    <glyph glyph-name="comma" unicode="," horiz-adv-x="238" 
d="M-10 -158l-31 27q78 84 78 130q0 8 -4.5 22t-4.5 24q0 21 13.5 37.5t36.5 16.5q20 0 33 -13t13 -37q0 -81 -134 -207z" />
    <glyph glyph-name="hyphen" unicode="-" horiz-adv-x="258" 
d="M252 250h-223l8 47h223z" />
    <glyph glyph-name="hyphen" unicode="&#xad;" horiz-adv-x="258" 
d="M252 250h-223l8 47h223z" />
    <glyph glyph-name="period" unicode="." horiz-adv-x="238" 
d="M75 -6q-21 0 -34.5 15t-13.5 36q0 24 15 40t37 16q21 0 35 -15t14 -35q0 -24 -15.5 -40.5t-37.5 -16.5z" />
    <glyph glyph-name="slash" unicode="/" horiz-adv-x="353" 
d="M-23 -143l-50 20l463 913l50 -20z" />
    <glyph glyph-name="zero" unicode="0" 
d="M201 -10q-174 0 -174 197q0 51 8.5 104t29 108.5t50.5 98.5t78 70.5t107 27.5q174 0 174 -197q0 -51 -8.5 -104t-29 -108.5t-50.5 -98.5t-78 -70.5t-107 -27.5zM208 40q57 0 99.5 39t64 98.5t31 115.5t9.5 105q0 75 -27.5 111.5t-91.5 36.5q-57 0 -99.5 -39t-64 -99
t-31 -115.5t-9.5 -104.5q0 -75 27.5 -111.5t91.5 -36.5z" />
    <glyph glyph-name="one" unicode="1" 
d="M389 0h-342l8 50h157l83 466l-163 -93l-15 39l195 124h53l-94 -536h126z" />
    <glyph glyph-name="two" unicode="2" 
d="M392 0h-386l8 46l170 135q110 88 148.5 147.5t38.5 119.5q0 45 -26.5 72t-80.5 27q-62 0 -143 -29v49q82 29 152 29q78 0 119 -39.5t41 -105.5q0 -69 -43.5 -135.5t-157.5 -157.5l-139 -108h307z" />
    <glyph glyph-name="three" unicode="3" 
d="M-24 -112l8 44q66 -8 132 -8q104 0 156.5 55t52.5 127q0 60 -42 88t-112 28h-54l9 51h42q98 0 151 54t53 124q0 96 -104 96q-73 0 -147 -29v49q84 29 152 29q79 0 120 -37.5t41 -102.5q0 -71 -45.5 -129t-121.5 -75v-2q56 -5 89 -43.5t33 -94.5q0 -96 -71.5 -167
t-204.5 -71q-74 0 -137 14z" />
    <glyph glyph-name="four" unicode="4" 
d="M301 -117h-59l31 177h-286l8 48l337 478h92l-84 -476h94l-9 -50h-94zM281 110l75 424h-2l-297 -424h224z" />
    <glyph glyph-name="five" unicode="5" 
d="M-17 -112l7 44q64 -8 133 -8q61 0 107 21.5t69.5 56.5t34.5 71t11 72q0 112 -150 112q-20 0 -40.5 -1t-42.5 -3t-34 -3l65 336h298l-9 -51h-242l-45 -230q28 4 70 4q95 0 144 -44t49 -118q0 -47 -16.5 -93.5t-49 -87.5t-90 -66.5t-130.5 -25.5q-77 0 -139 14z" />
    <glyph glyph-name="six" unicode="6" 
d="M497 685l-18 -47q-46 20 -107 20q-92 0 -152 -81.5t-87 -206.5h1q78 55 159 55q77 0 115.5 -43.5t38.5 -116.5q0 -104 -68.5 -189.5t-175.5 -85.5q-152 0 -152 201q0 30 3.5 67.5t13 88t24.5 99t41 96.5t59 84t81.5 58.5t105.5 22.5q70 0 118 -22zM125 322
q-13 -79 -13 -137q0 -77 25.5 -111.5t75.5 -34.5q74 0 123 72.5t49 152.5q0 51 -25.5 81t-78.5 30q-76 0 -156 -53z" />
    <glyph glyph-name="seven" unicode="7" 
d="M107 -127l-36 21q51 68 128 210l231 431h-331l9 51h392l-9 -53l-265 -486q-50 -93 -119 -174z" />
    <glyph glyph-name="eight" unicode="8" 
d="M209 360q-99 64 -99 152q0 79 58.5 137.5t158.5 58.5q75 0 114 -38t39 -92q0 -72 -46 -123t-125 -94q64 -39 96 -78t32 -91q0 -86 -66.5 -144.5t-174.5 -58.5q-84 0 -131.5 35.5t-47.5 102.5q0 76 48.5 129.5t143.5 103.5zM265 390q77 41 114.5 83t37.5 99q0 42 -25.5 65
t-73.5 23q-70 0 -108 -42.5t-38 -97.5q0 -41 21.5 -70t71.5 -60zM252 331q-85 -44 -128 -86.5t-43 -111.5q0 -95 127 -95q69 0 117 43t48 106q0 41 -27.5 72.5t-93.5 71.5z" />
    <glyph glyph-name="nine" unicode="9" 
d="M365 212h-1q-75 -52 -155 -52q-79 0 -117 43t-38 114q0 112 68.5 195.5t171.5 83.5q155 0 155 -200q-1 -43 -7 -91.5t-19.5 -110t-39 -116t-60 -101.5t-88.5 -74.5t-119 -27.5q-70 0 -132 14l12 48q60 -12 134 -12q90 0 145.5 72.5t89.5 214.5zM373 263q15 82 15 139
q0 76 -25 110t-75 34q-76 0 -124 -70t-48 -154q0 -50 24 -81t77 -31q77 0 156 53z" />
    <glyph glyph-name="colon" unicode=":" horiz-adv-x="255" 
d="M162 383q-21 0 -35 15t-14 36q0 24 15.5 40t37.5 16q20 0 34 -15t14 -35q0 -24 -15.5 -40.5t-36.5 -16.5zM93 -6q-21 0 -34.5 15t-13.5 36q0 24 15 40t37 16q21 0 35 -15t14 -35q0 -24 -15.5 -40.5t-37.5 -16.5z" />
    <glyph glyph-name="semicolon" unicode=";" horiz-adv-x="255" 
d="M162 383q-21 0 -35 15t-14 36q0 24 15.5 40t37.5 16q20 0 34 -15t14 -35q0 -24 -15.5 -40.5t-36.5 -16.5zM9 -158l-30 27q77 85 77 130q0 8 -4 22t-4 24q0 21 13.5 37.5t35.5 16.5q21 0 34 -13t13 -37q0 -80 -135 -207z" />
    <glyph glyph-name="less" unicode="&#x3c;" 
d="M405 54l-365 229l10 54l445 230l-11 -66l-380 -193l312 -193z" />
    <glyph glyph-name="equal" unicode="=" 
d="M463 385h-391l9 54h391zM427 182h-391l10 55h391z" />
    <glyph glyph-name="greater" unicode="&#x3e;" 
d="M459 283l-445 -229l11 65l380 192l-312 194l11 62l365 -230z" />
    <glyph glyph-name="question" unicode="?" horiz-adv-x="406" 
d="M181 171h-51q4 57 27.5 109t54 91l60 76.5t50 81t20.5 88.5q0 88 -103 88q-51 0 -102 -7l9 48q50 11 99 11q162 0 162 -136q0 -51 -21.5 -99t-53.5 -86.5l-64.5 -76.5t-57.5 -87t-29 -101zM131 -11q-20 0 -33 14t-13 33q0 23 14.5 38t35.5 15q19 0 32 -14t13 -34
q0 -22 -14.5 -37t-34.5 -15z" />
    <glyph glyph-name="at" unicode="@" horiz-adv-x="771" 
d="M601 -16l14 -47q-109 -55 -235 -55q-138 0 -219.5 86.5t-81.5 229.5q0 130 54.5 245t157.5 188t230 73q86 0 134.5 -38.5t48.5 -107.5q0 -21 -4 -38l-61 -348h-43l6 75q-22 -36 -66 -60.5t-91 -24.5q-63 0 -96 30t-33 83q0 79 57.5 131t170.5 52h89l10 59q3 17 3 32
q0 105 -135 105q-104 0 -190 -65t-132.5 -169t-46.5 -220q0 -120 64.5 -193t187.5 -73q108 0 207 50zM617 367l8 44h-90q-75 0 -115.5 -34.5t-40.5 -93.5q0 -33 19 -52.5t56 -19.5q57 0 104.5 46.5t58.5 109.5z" />
    <glyph glyph-name="A" unicode="A" horiz-adv-x="571" 
d="M493 0h-62l-22 200h-278q-26 -53 -90 -200h-63q169 376 349 698h56q70 -324 110 -698zM153 250h249q-25 185 -45 305q-3 15 -7.5 45.5t-5.5 34.5h-1l-40 -80z" />
    <glyph glyph-name="B" unicode="B" horiz-adv-x="505" 
d="M218 0h-120h-58l123 698h58h90q75 0 114 -36.5t39 -98.5q0 -60 -28.5 -112.5t-82.5 -81.5q41 -10 66 -47.5t25 -90.5q0 -91 -59.5 -161t-166.5 -70zM166 387h99q69 0 102.5 51.5t33.5 117.5q0 92 -104 92h-85zM106 50h122q66 0 110 51.5t44 125.5q0 53 -31.5 81.5
t-92.5 28.5h-101z" />
    <glyph glyph-name="C" unicode="C" horiz-adv-x="514" 
d="M434 78l13 -46q-85 -39 -161 -39q-109 0 -169.5 64.5t-60.5 185.5q0 76 21.5 154.5t62 148.5t109.5 114.5t154 44.5q82 0 148 -36l-26 -46q-62 31 -130 31q-70 0 -126 -42.5t-87 -107t-47 -131t-16 -125.5q0 -98 45 -150.5t131 -52.5q63 0 139 33z" />
    <glyph glyph-name="D" unicode="D" horiz-adv-x="610" 
d="M212 0h-115h-57l123 698h58h117q117 0 178 -67t61 -185q0 -32 -4 -68t-15.5 -80t-29 -85t-46.5 -80.5t-65.5 -68.5t-89.5 -46.5t-115 -17.5zM106 50h116q59 0 107.5 21t79 56.5t53 77t33.5 88t16 83t5 68.5q0 93 -46 148t-140 55h-118z" />
    <glyph glyph-name="E" unicode="E" horiz-adv-x="479" 
d="M365 0h-267h-58l123 698h58h263l-9 -51h-263l-45 -258h230l-9 -50h-231l-51 -289h268z" />
    <glyph glyph-name="F" unicode="F" horiz-adv-x="443" 
d="M98 0h-58l123 698h58h255l-9 -51h-255l-49 -274h229l-8 -50h-229z" />
    <glyph glyph-name="G" unicode="G" horiz-adv-x="597" 
d="M420 62l52 295h58l-59 -330q-88 -36 -179 -36q-116 0 -176.5 68.5t-60.5 188.5q0 60 13 122.5t42 122.5t70 107t101.5 76t132.5 29q98 0 172 -56l-28 -47q-68 52 -153 52q-74 0 -132 -41.5t-90.5 -105.5t-49 -129.5t-16.5 -124.5q0 -100 46 -155.5t133 -55.5q61 0 124 20
z" />
    <glyph glyph-name="H" unicode="H" horiz-adv-x="602" 
d="M462 0h-57l59 340h-307l-59 -340h-58l123 698h58l-54 -307h307l54 307h57z" />
    <glyph glyph-name="I" unicode="I" horiz-adv-x="240" 
d="M99 0h-59l123 698h60z" />
    <glyph glyph-name="J" unicode="J" horiz-adv-x="289" 
d="M-29 -2l8 45h42q45 0 66.5 30.5t36.5 112.5l90 512h60l-90 -508q-18 -99 -51.5 -148t-106.5 -49q-39 0 -55 5z" />
    <glyph glyph-name="K" unicode="K" horiz-adv-x="521" 
d="M444 0h-67l-172 364l-52 -46l-55 -318h-58l120 698h58l-53 -310l320 310h82l-319 -296z" />
    <glyph glyph-name="L" unicode="L" horiz-adv-x="408" 
d="M345 0h-247h-58l123 698h58l-115 -648h247z" />
    <glyph glyph-name="M" unicode="M" horiz-adv-x="796" 
d="M665 0h-59q55 341 69 621h-1l-299 -621h-58l-80 621h-2q-87 -311 -145 -621h-59q69 363 176 698h81l76 -601h2l286 601h86q-15 -332 -73 -698z" />
    <glyph glyph-name="N" unicode="N" horiz-adv-x="614" 
d="M474 0h-73l-194 624h-1l-110 -624h-56l123 698h83l187 -605h1l107 605h56z" />
    <glyph glyph-name="O" unicode="O" horiz-adv-x="671" 
d="M284 -10q-113 0 -170.5 69t-57.5 187q0 55 11.5 115t38.5 122.5t66 112t100.5 81t136.5 31.5q112 0 169.5 -70t57.5 -186q0 -57 -11 -117t-37.5 -123t-65.5 -111.5t-101 -79.5t-137 -31zM297 40q86 0 151 64t95 155t30 189t-43 153.5t-134 55.5q-59 0 -107.5 -29t-79 -73
t-52 -100.5t-30 -108.5t-8.5 -98q0 -97 43.5 -152.5t134.5 -55.5z" />
    <glyph glyph-name="P" unicode="P" horiz-adv-x="494" 
d="M98 0h-58l123 698h58h88q41 0 73 -9q49 -14 76 -53t27 -99q0 -104 -66 -179t-171 -75h-101zM157 334h100q78 0 121.5 62t43.5 136q0 88 -68 108q-22 7 -52 7h-90z" />
    <glyph glyph-name="Q" unicode="Q" horiz-adv-x="671" 
d="M606 -26l-44 -37l-89 116q-81 -63 -189 -63q-113 0 -170.5 69t-57.5 187q0 55 11.5 115t38.5 122.5t66 112t100.5 81t136.5 31.5q112 0 169.5 -70t57.5 -186q0 -104 -33 -202t-88 -157zM440 95l-104 135l44 37l100 -129q40 50 66.5 132.5t26.5 177.5q0 98 -43 153.5
t-134 55.5q-59 0 -107.5 -29t-79 -73t-52 -100.5t-30 -108.5t-8.5 -98q0 -97 43.5 -152.5t134.5 -55.5q80 0 143 55z" />
    <glyph glyph-name="R" unicode="R" horiz-adv-x="501" 
d="M413 0h-67l-105 329h-85l-58 -329h-58l123 698h58h79q84 0 127 -39t43 -106q0 -81 -47.5 -139t-125.5 -77zM164 379h80q74 0 118.5 48.5t44.5 117.5q0 45 -27.5 73.5t-89.5 28.5h-78z" />
    <glyph glyph-name="S" unicode="S" horiz-adv-x="423" 
d="M1 9l18 54q61 -22 121 -22q73 0 117.5 48t44.5 115q0 41 -24 70t-78 67q-105 71 -105 163q0 82 56.5 143t161.5 61q57 0 99 -16l-18 -50q-42 15 -90 15q-73 0 -109.5 -43.5t-36.5 -102.5q0 -41 23.5 -70.5t75.5 -64.5q109 -75 109 -164q0 -91 -63 -156.5t-177 -65.5
q-63 0 -125 19z" />
    <glyph glyph-name="T" unicode="T" horiz-adv-x="466" 
d="M213 0h-60l115 647h-192l9 51h444l-9 -51h-192z" />
    <glyph glyph-name="U" unicode="U" horiz-adv-x="617" 
d="M467 250l79 448h56l-80 -452q-22 -125 -91.5 -190.5t-172.5 -65.5q-85 0 -134 48t-49 139q0 39 6 70l80 451h58l-79 -450q-6 -38 -6 -64q0 -70 34 -107t97 -37q78 0 131 53.5t71 156.5z" />
    <glyph glyph-name="V" unicode="V" horiz-adv-x="553" 
d="M255 0h-57q-70 320 -109 698h62q19 -243 73 -556q1 -6 5.5 -35t6.5 -44h1q7 13 40 79q176 348 264 556h64q-163 -363 -350 -698z" />
    <glyph glyph-name="W" unicode="W" horiz-adv-x="884" 
d="M609 0h-70l-37 537l-2 95h-2l-35 -95l-218 -537h-68q-53 325 -74 698h62q9 -250 45 -554q3 -21 8 -83h1l40 107l213 530h75l37 -530q4 -48 4 -107h2q5 11 17.5 41.5t18.5 43.5q151 329 232 552h64q-144 -359 -313 -698z" />
    <glyph glyph-name="X" unicode="X" horiz-adv-x="529" 
d="M464 0h-67l-128 316l-236 -316h-69l283 363l-141 335h66l114 -287l214 287h68l-259 -334z" />
    <glyph glyph-name="Y" unicode="Y" horiz-adv-x="504" 
d="M232 0h-58l52 304q-82 172 -147 394h61q52 -194 124 -347q140 183 235 347h68q-147 -230 -283 -394z" />
    <glyph glyph-name="Z" unicode="Z" horiz-adv-x="454" 
d="M373 0h-394l9 51l428 596h-313l9 51h380l-10 -51l-429 -596h328z" />
    <glyph glyph-name="bracketleft" unicode="[" horiz-adv-x="289" 
d="M164 -167h-144l162 917h144l-8 -44h-91l-146 -829h91z" />
    <glyph glyph-name="backslash" unicode="\" horiz-adv-x="353" 
d="M280 -133l-54 -9l-139 922l54 9z" />
    <glyph glyph-name="bracketright" unicode="]" horiz-adv-x="289" 
d="M110 -167h-144l8 44h91l146 829h-91l8 44h144z" />
    <glyph glyph-name="asciicircum" unicode="^" 
d="M462 351h-62l-80 301l-173 -301h-66l210 347h75z" />
    <glyph glyph-name="underscore" unicode="_" 
d="M411 -221h-500l8 46h500z" />
    <glyph glyph-name="grave" unicode="`" horiz-adv-x="220" 
d="M205 617l-36 -28l-99 124l48 36z" />
    <glyph glyph-name="a" unicode="a" horiz-adv-x="498" 
d="M369 0h-50l20 130q-31 -62 -77.5 -101t-100.5 -39q-65 0 -95.5 44t-30.5 120q0 46 8.5 93t28.5 95t49.5 85t75 60.5t101.5 23.5q83 0 156 -25zM366 309l24 135q-46 22 -97 22q-53 0 -93.5 -31t-62 -80t-31.5 -98.5t-10 -96.5q0 -122 75 -122q60 0 118.5 84t76.5 187z" />
    <glyph glyph-name="b" unicode="b" horiz-adv-x="498" 
d="M33 20l129 730h57l-47 -259q-9 -50 -25 -116q31 62 78 101.5t101 39.5q65 0 95.5 -44t30.5 -121q0 -58 -14.5 -117t-43.5 -114.5t-82.5 -90.5t-122.5 -35q-80 0 -156 26zM121 197l-24 -136q47 -21 97 -21q53 0 93.5 31t62 80t31.5 98.5t10 96.5q0 121 -75 121
q-60 0 -118.5 -84t-76.5 -186z" />
    <glyph glyph-name="c" unicode="c" horiz-adv-x="404" 
d="M319 64l4 -48q-57 -24 -124 -24q-165 0 -165 177q0 55 14.5 112t43.5 110.5t81 87.5t118 34q65 0 112 -27l-21 -44q-50 24 -93 24q-54 0 -94.5 -32t-60.5 -80.5t-29.5 -94.5t-9.5 -86q0 -133 114 -133q54 0 110 24z" />
    <glyph glyph-name="d" unicode="d" horiz-adv-x="498" 
d="M369 0h-50l20 130q-31 -62 -77.5 -101t-100.5 -39q-65 0 -95.5 44t-30.5 120q0 46 8.5 93t28.5 95t49.5 85t75 60.5t101.5 23.5q59 0 102 -12l44 251h57zM366 309l24 135q-46 22 -97 22q-53 0 -93.5 -31t-62 -80t-31.5 -98.5t-10 -96.5q0 -122 75 -122q60 0 118.5 84
t76.5 187z" />
    <glyph glyph-name="e" unicode="e" horiz-adv-x="466" 
d="M354 65l3 -48q-73 -27 -156 -27q-166 0 -166 170q0 56 13 113.5t40.5 114t79.5 92.5t120 36q62 0 98 -31t36 -82q0 -36 -13.5 -63.5t-47 -51.5t-99 -37.5t-161.5 -14.5q-5 -42 -5 -68q0 -65 27.5 -97t92.5 -32t138 26zM111 284q74 0 124.5 8.5t77 24.5t37.5 35.5t11 46.5
q0 32 -21.5 50.5t-58.5 18.5q-64 0 -107.5 -51t-62.5 -133z" />
    <glyph glyph-name="f" unicode="f" horiz-adv-x="293" 
d="M-125 -215l8 44h44q32 0 53.5 10.5t33.5 34t17.5 44t12.5 57.5l86 485h-75l8 46h75l12 69q16 89 54 136.5t118 47.5q26 0 51 -5l-8 -44h-44q-32 0 -53 -10.5t-33.5 -35t-18 -43.5t-12.5 -57l-10 -58h116l-8 -46h-116l-88 -496q-16 -89 -54 -136.5t-118 -47.5q-32 0 -51 5
z" />
    <glyph glyph-name="g" unicode="g" horiz-adv-x="498" 
d="M21 -210l10 44q55 -3 108 -3q82 0 119.5 37t55.5 141q11 66 26 123q-31 -62 -77.5 -101t-100.5 -39q-65 0 -96 44t-31 121q0 45 8.5 91.5t28.5 94.5t49.5 84.5t75 60t101.5 23.5q83 0 156 -25l-84 -479q-22 -124 -72.5 -175.5t-161.5 -51.5q-60 0 -115 10zM367 311
l23 133q-46 22 -97 22q-53 0 -93.5 -31t-62 -79.5t-31.5 -97.5t-10 -95q0 -123 76 -123q60 0 118.5 84t76.5 187z" />
    <glyph glyph-name="h" unicode="h" horiz-adv-x="513" 
d="M385 0h-56l53 303q8 45 8 75q0 89 -70 89q-62 0 -121.5 -83t-76.5 -182l-36 -202h-57l133 750h57l-47 -260q-9 -50 -25 -115q30 61 79 101t104 40q118 0 118 -134q0 -23 -7 -67z" />
    <glyph glyph-name="i" unicode="i" horiz-adv-x="236" 
d="M189 625q-18 0 -30.5 13t-12.5 31q0 21 13.5 35t32.5 14t31 -12.5t12 -30.5q0 -22 -13 -36t-33 -14zM106 0h-57l81 460h-78l8 46h135z" />
    <glyph glyph-name="j" unicode="j" horiz-adv-x="225" 
d="M184 625q-18 0 -30.5 13t-12.5 31q0 21 13.5 35t32.5 14t31 -12.5t12 -30.5q0 -22 -13 -36t-33 -14zM-112 -212l10 43h45q35 0 56.5 31t33.5 100l95 544h57l-94 -534q-10 -60 -26.5 -99.5t-37.5 -58.5t-42 -26t-48 -7q-28 0 -49 7z" />
    <glyph glyph-name="k" unicode="k" horiz-adv-x="454" 
d="M382 0h-68l-142 274l-44 -37l-42 -237h-57l133 750h57l-80 -450l229 206h80l-233 -198z" />
    <glyph glyph-name="l" unicode="l" horiz-adv-x="235" 
d="M170 44l-8 -45q-22 -4 -43 -4q-90 0 -73 98l116 657h56l-114 -647q-10 -59 28 -59h38z" />
    <glyph glyph-name="m" unicode="m" horiz-adv-x="778" 
d="M650 0h-57l54 303q8 54 8 75q0 44 -13.5 66.5t-47.5 22.5q-57 0 -115 -83.5t-75 -180.5l-36 -203h-57l54 303q8 54 8 75q0 44 -13.5 66.5t-47.5 22.5q-57 0 -115 -83.5t-75 -180.5l-36 -203h-57l89 506h48l-18 -131q30 61 77 101t97 40q59 0 85 -38.5t23 -102.5
q30 61 77 101t97 40q109 0 109 -134q0 -27 -8 -67z" />
    <glyph glyph-name="n" unicode="n" horiz-adv-x="513" 
d="M385 0h-56l53 303q8 45 8 75q0 89 -70 89q-62 0 -121.5 -83t-76.5 -181l-36 -203h-57l89 506h48l-18 -131q30 61 78.5 101t103.5 40q118 0 118 -134q0 -23 -7 -67z" />
    <glyph glyph-name="o" unicode="o" horiz-adv-x="508" 
d="M202 -10q-83 0 -125.5 50t-42.5 139q0 61 17.5 120.5t49.5 108t82.5 78.5t110.5 30q83 0 125.5 -50.5t42.5 -139.5q0 -82 -29 -157.5t-90 -127t-141 -51.5zM210 39q87 0 138 84.5t51 196.5q0 147 -112 147q-88 0 -139 -85.5t-51 -198.5q0 -144 113 -144z" />
    <glyph glyph-name="p" unicode="p" horiz-adv-x="498" 
d="M49 -211h-57l126 717h45l-15 -131q31 62 77.5 101.5t100.5 39.5q65 0 95.5 -44t30.5 -121q0 -58 -14.5 -117t-43.5 -114.5t-82.5 -90.5t-122.5 -35q-51 0 -102 12zM121 197l-24 -136q47 -21 97 -21q53 0 93.5 31t62 80t31.5 98.5t10 96.5q0 121 -75 121q-60 0 -118.5 -84
t-76.5 -186z" />
    <glyph glyph-name="q" unicode="q" horiz-adv-x="498" 
d="M332 -211h-57l40 226q10 57 25 115q-31 -62 -78 -101t-101 -39q-65 0 -95.5 44t-30.5 120q0 46 8.5 93t28.5 95t49.5 85t75 60.5t101.5 23.5q83 0 156 -25zM366 309l24 135q-46 22 -97 22q-53 0 -93.5 -31t-62 -80t-31.5 -98.5t-10 -96.5q0 -122 75 -122q60 0 118.5 84
t76.5 187z" />
    <glyph glyph-name="r" unicode="r" horiz-adv-x="333" 
d="M86 0h-57l89 506h46l-16 -131q31 57 71.5 99t76.5 42q28 0 59 -10l-19 -52q-23 9 -41 9q-40 0 -98.5 -84t-72.5 -164z" />
    <glyph glyph-name="s" unicode="s" horiz-adv-x="371" 
d="M4 10l16 53q54 -23 109 -23q51 0 81 26.5t30 69.5q0 30 -15.5 51t-63.5 52q-45 29 -65.5 58.5t-20.5 69.5q0 63 46 106t121 43q50 0 95 -16l-15 -49q-43 16 -87 16q-46 0 -73.5 -26.5t-27.5 -66.5q0 -30 15.5 -50.5t60.5 -47.5q50 -32 71 -61t21 -70q0 -68 -51 -111.5
t-131 -43.5q-65 0 -116 20z" />
    <glyph glyph-name="t" unicode="t" horiz-adv-x="307" 
d="M228 43l-8 -42q-28 -7 -60 -7q-56 0 -80.5 28.5t-11.5 99.5l60 338h-74l8 46h73l39 148h44l-26 -148h117l-8 -46h-117l-59 -335q-9 -53 5.5 -67.5t56.5 -14.5h41z" />
    <glyph glyph-name="u" unicode="u" horiz-adv-x="513" 
d="M383 0h-49l20 130q-30 -61 -78.5 -100.5t-103.5 -39.5q-118 0 -118 133q0 33 7 68l55 315h57l-54 -304q-7 -47 -7 -75q0 -89 70 -89q62 0 121.5 83.5t76.5 181.5l36 203h56z" />
    <glyph glyph-name="v" unicode="v" horiz-adv-x="429" 
d="M192 0h-53q-51 245 -75 506h57q19 -217 44 -363q5 -32 11 -79h1l18 37t21 42q83 162 166 363h59q-107 -251 -249 -506z" />
    <glyph glyph-name="w" unicode="w" horiz-adv-x="700" 
d="M477 0h-61l-36 369l-5 74h-1l-30 -74l-158 -369h-65q-41 248 -53 506h57q4 -143 26 -360q1 -13 2.5 -28.5l3.5 -35l3 -29.5h1l38 92l158 361h61l35 -362l6 -91h1l18.5 44l20.5 48q89 195 150 361h59q-114 -277 -231 -506z" />
    <glyph glyph-name="x" unicode="x" horiz-adv-x="448" 
d="M366 0h-64l-91 218l-165 -218h-68l212 260l-110 246h64l82 -203l153 203h66l-197 -244z" />
    <glyph glyph-name="y" unicode="y" horiz-adv-x="430" 
d="M-59 -212l10 43h44q27 0 58.5 35t90.5 134q-63 300 -78 506h56q15 -174 49 -364q5 -26 12 -79h1l39 79q87 174 160 364h59q-132 -318 -244 -506q-77 -130 -120 -175t-89 -45q-26 0 -48 8z" />
    <glyph glyph-name="z" unicode="z" horiz-adv-x="410" 
d="M321 0h-326l9 50l318 406h-232l9 50h295l-8 -50l-318 -407h262z" />
    <glyph glyph-name="braceleft" unicode="{" horiz-adv-x="291" 
d="M178 -123l-8 -43q-11 -1 -34 -1q-55 0 -68 41.5t5 127.5l25 146q24 135 -57 135l7 41q82 0 105 135l21 122q16 89 43 129t81 40q23 0 34 -1l-8 -43h-33q-24 0 -38 -26t-28 -105l-19 -109q-26 -146 -106 -161q75 -16 49 -163l-24 -134q-13 -82 -8.5 -106.5t28.5 -24.5h33z
" />
    <glyph glyph-name="bar" unicode="|" 
d="M189 -211h-53l172 975h52z" />
    <glyph glyph-name="braceright" unicode="}" horiz-adv-x="289" 
d="M-40 -166l8 43h32q24 0 38 26t28 105l24 134q25 145 106 161q-75 15 -49 163l19 109q13 83 8.5 107t-28.5 24h-32l8 43q10 1 34 1q55 0 68 -42t-5 -127l-21 -122q-23 -135 56 -135l-7 -41q-81 0 -104 -135l-26 -146q-16 -90 -42.5 -129.5t-80.5 -39.5q-24 0 -34 1z" />
    <glyph glyph-name="asciitilde" unicode="~" 
d="M515 575l-1 -3q-8 -71 -44 -115t-92 -44q-42 0 -65.5 20.5t-41.5 55.5q-11 21 -19 32t-23 21t-33 10q-69 0 -81 -114h-49v3q8 71 44 114t92 43q41 0 64.5 -19.5t43.5 -54.5q13 -23 19 -32.5t21.5 -20.5t34.5 -11q66 0 80 115h50z" />
    <glyph glyph-name="uni00A0" unicode="&#xa0;" horiz-adv-x="243" 
 />
    <glyph glyph-name="exclamdown" unicode="&#xa1;" horiz-adv-x="317" 
d="M185 497q-20 0 -33 13.5t-13 33.5q0 22 14.5 37t34.5 15t33.5 -14t13.5 -33q0 -22 -14.5 -37t-35.5 -15zM95 -164h-66l110 578h48z" />
    <glyph glyph-name="cent" unicode="&#xa2;" 
d="M263 0h-50l17 97q-153 16 -153 184q0 54 14.5 107t43 100t76.5 79t108 38l17 93h49l-16 -92q56 -2 113 -33l-24 -45q-56 31 -110 31t-95.5 -26.5t-65 -68.5t-35 -87.5t-11.5 -90.5q0 -142 130 -142q60 0 129 28l6 -46q-72 -26 -127 -29z" />
    <glyph glyph-name="sterling" unicode="&#xa3;" 
d="M395 0h-376l9 51q52 56 82 119t35 159h-86l8 46h80q6 107 15 153q15 87 70 132t138 45q53 0 111 -13l-9 -49q-61 11 -105 11q-125 0 -147 -127q-10 -55 -16 -152h195l-9 -46h-187q-15 -183 -117 -278h317z" />
    <glyph glyph-name="currency" unicode="&#xa4;" 
d="M408 52l-46 -29l-50 111q-44 -25 -96 -25q-47 0 -81 21l-86 -107l-38 31l89 109q-25 35 -25 94q0 57 20.5 112.5t57.5 94.5l-52 109l46 29l48 -106q44 25 96 25q53 0 86 -24l84 104l39 -30l-89 -108q23 -38 23 -92q0 -55 -20.5 -110.5t-60.5 -94.5zM228 156
q66 0 107.5 61.5t41.5 145.5q0 112 -95 112q-70 0 -110.5 -63t-40.5 -147q0 -109 97 -109z" />
    <glyph glyph-name="yen" unicode="&#xa5;" 
d="M402 122h-151l-21 -122h-59l21 122h-151l9 47h151l18 105h-151l8 47h152l5 33q-78 163 -133 344h66q41 -162 107 -298q95 122 197 298h75q-135 -201 -252 -344l-6 -33h150l-8 -47h-151l-18 -105h151z" />
    <glyph glyph-name="brokenbar" unicode="&#xa6;" 
d="M296 396h-54l67 383h54zM189 -211h-54l69 391h54z" />
    <glyph glyph-name="section" unicode="&#xa7;" horiz-adv-x="490" 
d="M44 -178l7 45q25 -7 72 -7q52 0 84.5 33t32.5 83q0 38 -22.5 85.5t-50 86.5t-50 97.5t-22.5 115.5q0 70 37.5 151t98.5 139q58 53 134 53q29 0 66 -7l-8 -44q-38 7 -70 7q-57 0 -87.5 -36.5t-30.5 -89.5q0 -37 23 -81.5t51 -82t51 -95t23 -116.5q0 -72 -37 -155.5
t-100 -140.5q-56 -49 -137 -49q-35 0 -65 8zM189 532q-42 -93 -42 -163q0 -45 15 -88.5t36 -77l42 -67.5t34 -73.5t10 -80.5q47 89 47 168q0 45 -15.5 88.5t-37.5 77.5l-43.5 67.5t-35 72t-10.5 76.5z" />
    <glyph glyph-name="dieresis" unicode="&#xa8;" horiz-adv-x="308" 
d="M270 633q-16 0 -27 11.5t-11 27.5q0 18 12 30t29 12q16 0 26.5 -11t10.5 -27q0 -19 -11.5 -31t-28.5 -12zM106 633q-16 0 -27 11.5t-11 27.5q0 18 12 30t29 12q16 0 26.5 -11t10.5 -27q0 -19 -11.5 -31t-28.5 -12z" />
    <glyph glyph-name="copyright" unicode="&#xa9;" horiz-adv-x="666" 
d="M325 1q-122 0 -202 90t-80 223q0 146 91 249.5t221 103.5q121 0 201.5 -89.5t80.5 -222.5q0 -145 -91 -249.5t-221 -104.5zM327 44q110 0 186.5 91t76.5 216q0 114 -67.5 194t-168.5 80q-111 0 -187.5 -91t-76.5 -216q0 -114 68 -194t169 -80zM404 222l3 -45
q-44 -19 -90 -19q-120 0 -120 122q0 58 19 109t63 87.5t105 36.5q36 0 72 -17l-20 -45q-32 15 -62 15q-41 0 -70 -31t-40 -69.5t-11 -77.5q0 -82 74 -82q32 0 77 16z" />
    <glyph glyph-name="ordfeminine" unicode="&#xaa;" horiz-adv-x="393" 
d="M336 340h-43l9 85q-53 -92 -132 -92q-45 0 -68 30.5t-23 85.5q0 102 51 177.5t149 75.5q55 0 120 -15zM316 194h-272l9 48h272zM322 561l15 85q-36 12 -68 12q-45 0 -76.5 -35.5t-43.5 -79.5t-12 -87q0 -76 46 -76q40 0 83 56t56 125z" />
    <glyph glyph-name="guillemotleft" unicode="&#xab;" horiz-adv-x="490" 
d="M364 94l-49 -21l-92 209l161 204l45 -25l-141 -183zM195 84l-48 -21l-90 219l163 214l44 -25l-142 -193z" />
    <glyph glyph-name="logicalnot" unicode="&#xac;" 
d="M428 182h-57l17 98h-349l10 55h407z" />
    <glyph glyph-name="registered" unicode="&#xae;" horiz-adv-x="506" 
d="M286 336q-77 0 -127 54t-50 131q0 88 58.5 148.5t137.5 60.5q77 0 127 -53.5t50 -131.5q0 -87 -58.5 -148t-137.5 -61zM288 372q64 0 108 50.5t44 119.5q0 64 -39.5 107.5t-97.5 43.5q-64 0 -108 -49.5t-44 -118.5q0 -64 40 -108.5t97 -44.5zM359 422h-44l-27 97h-18
l-18 -97h-39l41 228h64q30 0 45.5 -15t15.5 -36q0 -26 -15 -46.5t-38 -27.5zM276 551h16q46 0 46 43q0 24 -32 24h-19z" />
    <glyph glyph-name="macron" unicode="&#xaf;" horiz-adv-x="255" 
d="M302 648h-239l9 45h238z" />
    <glyph glyph-name="macron" unicode="&#x2c9;" horiz-adv-x="255" 
d="M302 648h-239l9 45h238z" />
    <glyph glyph-name="degree" unicode="&#xb0;" horiz-adv-x="328" 
d="M216 500q-46 0 -75 29t-29 75q0 52 34 85.5t81 33.5q46 0 75 -29t29 -74q0 -52 -33.5 -86t-81.5 -34zM220 541q26 0 44.5 21t18.5 53q0 29 -16.5 48t-43.5 19q-26 0 -44.5 -20.5t-18.5 -52.5q0 -30 17 -49t43 -19z" />
    <glyph glyph-name="plusminus" unicode="&#xb1;" 
d="M253 145h-57l36 202h-176l10 54h176l36 203h57l-36 -203h175l-10 -54h-175zM402 0h-405l9 54h405z" />
    <glyph glyph-name="twosuperior" unicode="&#xb2;" horiz-adv-x="342" 
d="M315 386h-258l7 39l125 114q57 53 83.5 95.5t26.5 87.5q0 57 -68 57q-48 0 -92 -19v42q48 21 103 21q56 0 85 -25t29 -71q0 -59 -31.5 -106.5t-105.5 -114.5l-80 -74h184z" />
    <glyph glyph-name="threesuperior" unicode="&#xb3;" horiz-adv-x="338" 
d="M62 385l7 41q35 -5 85 -5q54 0 86 26t32 73q0 67 -102 67h-32l8 44h35q53 0 85 28t32 69q0 51 -60 51q-50 0 -98 -17v42q55 19 109 19q50 0 77.5 -22t27.5 -64q0 -47 -28.5 -80.5t-70.5 -45.5q33 -5 53 -28t20 -57q0 -68 -51.5 -108.5t-126.5 -40.5q-51 0 -88 8z" />
    <glyph glyph-name="acute" unicode="&#xb4;" horiz-adv-x="248" 
d="M97 589l-34 28l106 132l47 -36z" />
    <glyph glyph-name="mu" unicode="&#xb5;" horiz-adv-x="539" 
d="M476 44l-8 -45q-24 -4 -42 -4q-74 0 -74 75q0 30 10 60q-31 -61 -79.5 -100.5t-104.5 -39.5q-64 0 -86 45q-10 -58 -16 -88l-28 -158h-56l126 717h57l-54 -304q-30 -164 69 -164q62 0 121.5 83.5t76.5 181.5l36 203h56l-69 -395q-7 -36 0.5 -51.5t34.5 -15.5h30z" />
    <glyph glyph-name="mu" unicode="&#x3bc;" horiz-adv-x="539" 
d="M476 44l-8 -45q-24 -4 -42 -4q-74 0 -74 75q0 30 10 60q-31 -61 -79.5 -100.5t-104.5 -39.5q-64 0 -86 45q-10 -58 -16 -88l-28 -158h-56l126 717h57l-54 -304q-30 -164 69 -164q62 0 121.5 83.5t76.5 181.5l36 203h56l-69 -395q-7 -36 0.5 -51.5t34.5 -15.5h30z" />
    <glyph glyph-name="paragraph" unicode="&#xb6;" horiz-adv-x="516" 
d="M364 -118h-59l134 760h-96l-134 -760h-61l74 416q-75 -3 -121.5 42.5t-46.5 121.5q0 96 62.5 166t166.5 70h226z" />
    <glyph glyph-name="periodcentered" unicode="&#xb7;" horiz-adv-x="238" 
d="M121 257q-21 0 -34.5 15t-13.5 36q0 23 15 39t37 16q21 0 35 -15t14 -35q0 -24 -15.5 -40t-37.5 -16z" />
    <glyph glyph-name="periodcentered" unicode="&#x2219;" horiz-adv-x="238" 
d="M121 257q-21 0 -34.5 15t-13.5 36q0 23 15 39t37 16q21 0 35 -15t14 -35q0 -24 -15.5 -40t-37.5 -16z" />
    <glyph glyph-name="cedilla" unicode="&#xb8;" horiz-adv-x="245" 
d="M84 -60l-12 60h51l11 -49q8 -31 8 -44q0 -28 -25 -46.5t-78 -18.5q-47 0 -78 11l7 38h89q32 0 32 20q0 9 -5 29z" />
    <glyph glyph-name="onesuperior" unicode="&#xb9;" horiz-adv-x="266" 
d="M197 386h-55l65 369l-87 -47l-16 34l118 72h51z" />
    <glyph glyph-name="ordmasculine" unicode="&#xba;" horiz-adv-x="405" 
d="M210 331q-63 0 -95.5 36t-32.5 100q0 58 19.5 110.5t64.5 89.5t108 37q62 0 94.5 -35.5t32.5 -100.5q0 -94 -51.5 -165.5t-139.5 -71.5zM318 194h-260l9 48h260zM218 379q55 0 90 56t35 127q0 96 -76 96q-44 0 -74 -32.5t-41.5 -72.5t-11.5 -81q0 -93 78 -93z" />
    <glyph glyph-name="guillemotright" unicode="&#xbb;" horiz-adv-x="490" 
d="M269 63l-44 26l141 193l-73 193l48 21l91 -218zM105 73l-45 25l141 184l-76 184l48 20l93 -208z" />
    <glyph glyph-name="onequarter" unicode="&#xbc;" horiz-adv-x="619" 
d="M190 349h-55l51 290l-87 -46l-14 35l116 71h51zM48 -29l-37 27l566 729l36 -27zM491 0h-53l13 73h-164l7 41l178 235h80l-41 -231h61l-8 -45h-61zM459 118l33 188h-1l-141 -188h109z" />
    <glyph glyph-name="onehalf" unicode="&#xbd;" horiz-adv-x="671" 
d="M190 349h-55l51 290l-87 -46l-14 35l116 71h51zM48 -29l-37 27l566 729l36 -27zM577 0h-238l7 38l114 95q89 73 89 135q0 46 -57 46q-41 0 -85 -19v42q48 21 96 21q47 0 74.5 -21.5t27.5 -61.5q0 -48 -25.5 -87t-97.5 -94l-61 -48h164z" />
    <glyph glyph-name="threequarters" unicode="&#xbe;" horiz-adv-x="666" 
d="M53 348l7 40q21 -4 77 -4q45 0 71 18.5t26 55.5q0 51 -78 51h-36l8 44h35q41 0 66 21.5t25 50.5q0 38 -49 38q-46 0 -88 -17v43q56 18 99 18q44 0 68.5 -20t24.5 -54q0 -39 -22 -65t-61 -35q33 -4 48.5 -23t15.5 -46q0 -56 -41.5 -90.5t-113.5 -34.5q-44 0 -82 9zM92 -29
l-37 27l566 729l36 -27zM537 0h-53l13 73h-164l7 41l178 235h80l-41 -231h61l-8 -45h-61zM505 118l33 188h-1l-141 -188h109z" />
    <glyph glyph-name="questiondown" unicode="&#xbf;" horiz-adv-x="406" 
d="M274 497q-19 0 -32 13.5t-13 33.5q0 22 14.5 37t34.5 15t33 -14t13 -33q0 -22 -14.5 -37t-35.5 -15zM272 -113l-9 -47q-54 -12 -99 -12q-162 0 -162 137q0 51 21.5 98.5t53.5 86l64.5 77t57.5 87t29 100.5h51q-4 -57 -27.5 -108.5t-54 -90.5l-60 -76.5t-50 -81
t-20.5 -88.5q0 -89 103 -89q51 0 102 7z" />
    <glyph glyph-name="Agrave" unicode="&#xc0;" horiz-adv-x="571" 
d="M493 0h-62l-22 200h-278q-26 -53 -90 -200h-63q169 376 349 698h56q70 -324 110 -698zM153 250h249q-25 185 -45 305q-3 15 -7.5 45.5t-5.5 34.5h-1l-40 -80zM387 757l-151 85l32 50l143 -97z" />
    <glyph glyph-name="Aacute" unicode="&#xc1;" horiz-adv-x="571" 
d="M493 0h-62l-22 200h-278q-26 -53 -90 -200h-63q169 376 349 698h56q70 -324 110 -698zM153 250h249q-25 185 -45 305q-3 15 -7.5 45.5t-5.5 34.5h-1l-40 -80zM504 842l-157 -85l-23 38l149 97z" />
    <glyph glyph-name="Acircumflex" unicode="&#xc2;" horiz-adv-x="571" 
d="M493 0h-62l-22 200h-278q-26 -53 -90 -200h-63q169 376 349 698h56q70 -324 110 -698zM153 250h249q-25 185 -45 305q-3 15 -7.5 45.5t-5.5 34.5h-1l-40 -80zM456 759l-79 68l-102 -68l-24 34l134 96l101 -94z" />
    <glyph glyph-name="Atilde" unicode="&#xc3;" horiz-adv-x="571" 
d="M493 0h-62l-22 200h-278q-26 -53 -90 -200h-63q169 376 349 698h56q70 -324 110 -698zM153 250h249q-25 185 -45 305q-3 15 -7.5 45.5t-5.5 34.5h-1l-40 -80zM486 857l34 -28q-15 -31 -41.5 -49.5t-56.5 -18.5q-32 0 -62 21.5t-49 21.5q-36 0 -60 -49l-33 29
q16 31 42 49.5t56 18.5q32 0 62 -21.5t48 -21.5q36 0 60 48z" />
    <glyph glyph-name="Adieresis" unicode="&#xc4;" horiz-adv-x="571" 
d="M493 0h-62l-22 200h-278q-26 -53 -90 -200h-63q169 376 349 698h56q70 -324 110 -698zM153 250h249q-25 185 -45 305q-3 15 -7.5 45.5t-5.5 34.5h-1l-40 -80zM461 763q-16 0 -27 11.5t-11 27.5q0 18 12.5 31t28.5 13q17 0 27.5 -11.5t10.5 -28.5q0 -18 -12 -30.5
t-29 -12.5zM273 763q-16 0 -27 11.5t-11 27.5q0 18 12.5 31t28.5 13q17 0 27.5 -11.5t10.5 -28.5q0 -18 -12 -30.5t-29 -12.5z" />
    <glyph glyph-name="Aring" unicode="&#xc5;" horiz-adv-x="571" 
d="M493 0h-62l-22 200h-278q-26 -53 -90 -200h-63q169 376 349 698h56q70 -324 110 -698zM153 250h249q-25 185 -45 305q-3 15 -7.5 45.5t-5.5 34.5h-1l-40 -80zM360 732q-35 0 -53 19.5t-18 49.5q0 49 29.5 80t73.5 31q34 0 52 -19t18 -49q0 -50 -29 -81t-73 -31zM367 768
q25 0 39.5 21.5t14.5 47.5q0 39 -36 39q-25 0 -40 -21.5t-15 -48.5q0 -38 37 -38z" />
    <glyph glyph-name="AE" unicode="&#xc6;" horiz-adv-x="762" 
d="M651 0h-264h-58l30 173h-239l-108 -173h-65q211 337 479 698h26h58h253l-10 -52h-252l-45 -257h227l-9 -51h-228l-51 -287h264zM368 222l75 424h-2q-161 -228 -287 -424h214z" />
    <glyph glyph-name="Ccedilla" unicode="&#xc7;" horiz-adv-x="514" 
d="M434 78l13 -46q-79 -36 -150 -39l10 -42q7 -27 7 -44q0 -28 -24.5 -46.5t-78.5 -18.5q-46 0 -77 11l7 38h89q31 0 31 20q0 5 -4 29l-12 55q-92 12 -140.5 75.5t-48.5 172.5q0 76 21.5 154.5t62 148.5t109.5 114.5t154 44.5q82 0 148 -36l-26 -46q-62 31 -130 31
q-70 0 -126 -42.5t-87 -107t-47 -131t-16 -125.5q0 -98 45 -150.5t131 -52.5q63 0 139 33z" />
    <glyph glyph-name="Egrave" unicode="&#xc8;" horiz-adv-x="479" 
d="M365 0h-267h-58l123 698h58h263l-9 -51h-263l-45 -258h230l-9 -50h-231l-51 -289h268zM348 757l-151 85l32 50l143 -97z" />
    <glyph glyph-name="Eacute" unicode="&#xc9;" horiz-adv-x="479" 
d="M365 0h-267h-58l123 698h58h263l-9 -51h-263l-45 -258h230l-9 -50h-231l-51 -289h268zM460 842l-157 -85l-23 38l149 97z" />
    <glyph glyph-name="Ecircumflex" unicode="&#xca;" horiz-adv-x="479" 
d="M365 0h-267h-58l123 698h58h263l-9 -51h-263l-45 -258h230l-9 -50h-231l-51 -289h268zM422 759l-79 68l-102 -68l-24 34l134 96l101 -94z" />
    <glyph glyph-name="Edieresis" unicode="&#xcb;" horiz-adv-x="479" 
d="M365 0h-267h-58l123 698h58h263l-9 -51h-263l-45 -258h230l-9 -50h-231l-51 -289h268zM431 763q-16 0 -27 11.5t-11 27.5q0 18 12.5 31t28.5 13q17 0 27.5 -11.5t10.5 -28.5q0 -18 -12 -30.5t-29 -12.5zM243 763q-16 0 -27 11.5t-11 27.5q0 18 12.5 31t28.5 13
q17 0 27.5 -11.5t10.5 -28.5q0 -18 -12 -30.5t-29 -12.5z" />
    <glyph glyph-name="Igrave" unicode="&#xcc;" horiz-adv-x="240" 
d="M99 0h-59l123 698h60zM233 757l-151 85l32 50l143 -97z" />
    <glyph glyph-name="Iacute" unicode="&#xcd;" horiz-adv-x="240" 
d="M99 0h-59l123 698h60zM331 842l-157 -85l-23 38l149 97z" />
    <glyph glyph-name="Icircumflex" unicode="&#xce;" horiz-adv-x="240" 
d="M99 0h-59l123 698h60zM293 759l-79 68l-102 -68l-24 34l134 96l101 -94z" />
    <glyph glyph-name="Idieresis" unicode="&#xcf;" horiz-adv-x="240" 
d="M99 0h-59l123 698h60zM292 763q-16 0 -27 11.5t-11 27.5q0 19 12 31.5t29 12.5q16 0 27 -11.5t11 -28.5q0 -18 -12 -30.5t-29 -12.5zM119 763q-16 0 -27 11.5t-11 27.5q0 18 12.5 31t28.5 13q17 0 27.5 -11.5t10.5 -28.5q0 -18 -12 -30.5t-29 -12.5z" />
    <glyph glyph-name="Eth" unicode="&#xd0;" horiz-adv-x="620" 
d="M222 0h-115h-57l58 333h-81l9 50h81l56 315h57h118q117 0 178.5 -67t61.5 -185q0 -48 -8.5 -100.5t-34 -116t-64 -113t-106 -83t-153.5 -33.5zM116 50h115q59 0 107.5 21t79 56.5t53 77t34 88t16.5 83t5 68.5q0 94 -45.5 148.5t-140.5 54.5h-119l-46 -264h133l-9 -50
h-134z" />
    <glyph glyph-name="Ntilde" unicode="&#xd1;" horiz-adv-x="614" 
d="M474 0h-73l-194 624h-1l-110 -624h-56l123 698h83l187 -605h1l107 605h56zM511 857l34 -28q-15 -31 -41.5 -49.5t-56.5 -18.5q-32 0 -62 21.5t-49 21.5q-36 0 -60 -49l-33 29q16 31 42 49.5t56 18.5q32 0 62 -21.5t48 -21.5q36 0 60 48z" />
    <glyph glyph-name="Ograve" unicode="&#xd2;" horiz-adv-x="671" 
d="M284 -10q-113 0 -170.5 69t-57.5 187q0 55 11.5 115t38.5 122.5t66 112t100.5 81t136.5 31.5q112 0 169.5 -70t57.5 -186q0 -57 -11 -117t-37.5 -123t-65.5 -111.5t-101 -79.5t-137 -31zM297 40q86 0 151 64t95 155t30 189t-43 153.5t-134 55.5q-59 0 -107.5 -29t-79 -73
t-52 -100.5t-30 -108.5t-8.5 -98q0 -97 43.5 -152.5t134.5 -55.5zM441 757l-151 85l32 50l143 -97z" />
    <glyph glyph-name="Oacute" unicode="&#xd3;" horiz-adv-x="671" 
d="M284 -10q-113 0 -170.5 69t-57.5 187q0 55 11.5 115t38.5 122.5t66 112t100.5 81t136.5 31.5q112 0 169.5 -70t57.5 -186q0 -57 -11 -117t-37.5 -123t-65.5 -111.5t-101 -79.5t-137 -31zM297 40q86 0 151 64t95 155t30 189t-43 153.5t-134 55.5q-59 0 -107.5 -29t-79 -73
t-52 -100.5t-30 -108.5t-8.5 -98q0 -97 43.5 -152.5t134.5 -55.5zM570 842l-157 -85l-23 38l149 97z" />
    <glyph glyph-name="Ocircumflex" unicode="&#xd4;" horiz-adv-x="671" 
d="M284 -10q-113 0 -170.5 69t-57.5 187q0 55 11.5 115t38.5 122.5t66 112t100.5 81t136.5 31.5q112 0 169.5 -70t57.5 -186q0 -57 -11 -117t-37.5 -123t-65.5 -111.5t-101 -79.5t-137 -31zM297 40q86 0 151 64t95 155t30 189t-43 153.5t-134 55.5q-59 0 -107.5 -29t-79 -73
t-52 -100.5t-30 -108.5t-8.5 -98q0 -97 43.5 -152.5t134.5 -55.5zM512 759l-79 68l-102 -68l-24 34l134 96l101 -94z" />
    <glyph glyph-name="Otilde" unicode="&#xd5;" horiz-adv-x="671" 
d="M284 -10q-113 0 -170.5 69t-57.5 187q0 55 11.5 115t38.5 122.5t66 112t100.5 81t136.5 31.5q112 0 169.5 -70t57.5 -186q0 -57 -11 -117t-37.5 -123t-65.5 -111.5t-101 -79.5t-137 -31zM297 40q86 0 151 64t95 155t30 189t-43 153.5t-134 55.5q-59 0 -107.5 -29t-79 -73
t-52 -100.5t-30 -108.5t-8.5 -98q0 -97 43.5 -152.5t134.5 -55.5zM543 857l34 -28q-15 -31 -41.5 -49.5t-56.5 -18.5q-32 0 -62 21.5t-49 21.5q-36 0 -60 -49l-33 29q16 31 42 49.5t56 18.5q32 0 62 -21.5t48 -21.5q36 0 60 48z" />
    <glyph glyph-name="Odieresis" unicode="&#xd6;" horiz-adv-x="671" 
d="M284 -10q-113 0 -170.5 69t-57.5 187q0 55 11.5 115t38.5 122.5t66 112t100.5 81t136.5 31.5q112 0 169.5 -70t57.5 -186q0 -57 -11 -117t-37.5 -123t-65.5 -111.5t-101 -79.5t-137 -31zM297 40q86 0 151 64t95 155t30 189t-43 153.5t-134 55.5q-59 0 -107.5 -29t-79 -73
t-52 -100.5t-30 -108.5t-8.5 -98q0 -97 43.5 -152.5t134.5 -55.5zM518 763q-16 0 -27 11.5t-11 27.5q0 18 12.5 31t28.5 13q17 0 27.5 -11.5t10.5 -28.5q0 -18 -12 -30.5t-29 -12.5zM330 763q-16 0 -27 11.5t-11 27.5q0 18 12.5 31t28.5 13q17 0 27.5 -11.5t10.5 -28.5
q0 -18 -12 -30.5t-29 -12.5z" />
    <glyph glyph-name="multiply" unicode="&#xd7;" 
d="M425 131l-45 -36l-132 175l-192 -175l-34 40l195 177l-133 178l45 36l131 -176l193 175l34 -39l-195 -178z" />
    <glyph glyph-name="Oslash" unicode="&#xd8;" horiz-adv-x="671" 
d="M85 -87l-41 25l74 111q-62 63 -62 189q0 58 11.5 119t38.5 125t66 113.5t100.5 81t136.5 31.5q79 0 131 -33l63 96l42 -26l-67 -101q59 -63 59 -184q0 -58 -11 -118.5t-37.5 -124.5t-65 -113.5t-101 -81.5t-138.5 -32q-74 0 -127 29zM542 591l-352 -524q39 -27 107 -27
q86 0 150.5 64t95 156.5t30.5 194.5q0 92 -31 136zM154 102l353 526q-41 29 -111 29q-71 0 -126.5 -40.5t-86.5 -105t-47 -134t-16 -136.5q0 -93 34 -139z" />
    <glyph glyph-name="Ugrave" unicode="&#xd9;" horiz-adv-x="617" 
d="M467 250l79 448h56l-80 -452q-22 -125 -91.5 -190.5t-172.5 -65.5q-85 0 -134 48t-49 139q0 39 6 70l80 451h58l-79 -450q-6 -38 -6 -64q0 -70 34 -107t97 -37q78 0 131 53.5t71 156.5zM407 757l-151 85l32 50l143 -97z" />
    <glyph glyph-name="Uacute" unicode="&#xda;" horiz-adv-x="617" 
d="M467 250l79 448h56l-80 -452q-22 -125 -91.5 -190.5t-172.5 -65.5q-85 0 -134 48t-49 139q0 39 6 70l80 451h58l-79 -450q-6 -38 -6 -64q0 -70 34 -107t97 -37q78 0 131 53.5t71 156.5zM552 842l-157 -85l-23 38l149 97z" />
    <glyph glyph-name="Ucircumflex" unicode="&#xdb;" horiz-adv-x="617" 
d="M467 250l79 448h56l-80 -452q-22 -125 -91.5 -190.5t-172.5 -65.5q-85 0 -134 48t-49 139q0 39 6 70l80 451h58l-79 -450q-6 -38 -6 -64q0 -70 34 -107t97 -37q78 0 131 53.5t71 156.5zM484 759l-79 68l-102 -68l-24 34l134 96l101 -94z" />
    <glyph glyph-name="Udieresis" unicode="&#xdc;" horiz-adv-x="617" 
d="M467 250l79 448h56l-80 -452q-22 -125 -91.5 -190.5t-172.5 -65.5q-85 0 -134 48t-49 139q0 39 6 70l80 451h58l-79 -450q-6 -38 -6 -64q0 -70 34 -107t97 -37q78 0 131 53.5t71 156.5zM492 763q-16 0 -27 11.5t-11 27.5q0 18 12.5 31t28.5 13q17 0 27.5 -11.5
t10.5 -28.5q0 -18 -12 -30.5t-29 -12.5zM304 763q-16 0 -27 11.5t-11 27.5q0 18 12.5 31t28.5 13q17 0 27.5 -11.5t10.5 -28.5q0 -18 -12 -30.5t-29 -12.5z" />
    <glyph glyph-name="Yacute" unicode="&#xdd;" horiz-adv-x="504" 
d="M232 0h-58l52 304q-82 172 -147 394h61q52 -194 124 -347q140 183 235 347h68q-147 -230 -283 -394zM483 842l-157 -85l-23 38l149 97z" />
    <glyph glyph-name="Thorn" unicode="&#xde;" horiz-adv-x="485" 
d="M98 0h-58l123 698h58l-22 -123h88q45 0 73 -8q49 -14 76.5 -53.5t27.5 -98.5q0 -104 -66 -179.5t-171 -75.5h-101zM135 210h102q53 0 91.5 32.5t55.5 77t17 90.5q0 87 -68 108q-22 7 -52 7h-91z" />
    <glyph glyph-name="germandbls" unicode="&#xdf;" horiz-adv-x="499" 
d="M187 4l19 51q33 -15 74 -15q45 0 74.5 29.5t29.5 77.5q0 29 -13.5 52t-33 39l-39.5 32t-33.5 40.5t-13.5 56.5q0 40 17.5 71t42 51l49 39t42 45.5t17.5 60.5t-21 54.5t-64 20.5q-62 0 -101.5 -51t-55.5 -141l-97 -549q-17 -92 -55 -140t-118 -48q-32 0 -51 5l8 44h44
q32 0 53.5 10.5t33.5 34t17.5 44t12.5 57.5l95 545q20 108 77 172.5t145 64.5q68 0 100.5 -36t32.5 -84q0 -42 -17 -74t-41.5 -51.5l-49 -38t-41.5 -43t-17 -56.5q0 -25 14 -44.5t33.5 -34.5t39.5 -32.5t34 -45t14 -64.5q0 -66 -48.5 -114.5t-128.5 -48.5q-46 0 -80 14z" />
    <glyph glyph-name="agrave" unicode="&#xe0;" horiz-adv-x="498" 
d="M369 0h-50l20 130q-31 -62 -77.5 -101t-100.5 -39q-65 0 -95.5 44t-30.5 120q0 46 8.5 93t28.5 95t49.5 85t75 60.5t101.5 23.5q83 0 156 -25zM366 309l24 135q-46 22 -97 22q-53 0 -93.5 -31t-62 -80t-31.5 -98.5t-10 -96.5q0 -122 75 -122q60 0 118.5 84t76.5 187z
M352 617l-36 -28l-99 124l48 36z" />
    <glyph glyph-name="aacute" unicode="&#xe1;" horiz-adv-x="498" 
d="M369 0h-50l20 130q-31 -62 -77.5 -101t-100.5 -39q-65 0 -95.5 44t-30.5 120q0 46 8.5 93t28.5 95t49.5 85t75 60.5t101.5 23.5q83 0 156 -25zM366 309l24 135q-46 22 -97 22q-53 0 -93.5 -31t-62 -80t-31.5 -98.5t-10 -96.5q0 -122 75 -122q60 0 118.5 84t76.5 187z
M309 589l-34 28l106 132l47 -36z" />
    <glyph glyph-name="acircumflex" unicode="&#xe2;" horiz-adv-x="498" 
d="M369 0h-50l20 130q-31 -62 -77.5 -101t-100.5 -39q-65 0 -95.5 44t-30.5 120q0 46 8.5 93t28.5 95t49.5 85t75 60.5t101.5 23.5q83 0 156 -25zM366 309l24 135q-46 22 -97 22q-53 0 -93.5 -31t-62 -80t-31.5 -98.5t-10 -96.5q0 -122 75 -122q60 0 118.5 84t76.5 187z
M432 622l-33 -32l-72 90l-104 -90l-26 32l140 131z" />
    <glyph glyph-name="atilde" unicode="&#xe3;" horiz-adv-x="498" 
d="M369 0h-50l20 130q-31 -62 -77.5 -101t-100.5 -39q-65 0 -95.5 44t-30.5 120q0 46 8.5 93t28.5 95t49.5 85t75 60.5t101.5 23.5q83 0 156 -25zM366 309l24 135q-46 22 -97 22q-53 0 -93.5 -31t-62 -80t-31.5 -98.5t-10 -96.5q0 -122 75 -122q60 0 118.5 84t76.5 187z
M439 721l31 -28q-38 -68 -99 -68q-31 0 -59 21.5t-46 21.5q-33 0 -62 -49l-31 29q40 68 99 68q31 0 58.5 -21.5t45.5 -21.5q34 0 63 48z" />
    <glyph glyph-name="adieresis" unicode="&#xe4;" horiz-adv-x="498" 
d="M369 0h-50l20 130q-31 -62 -77.5 -101t-100.5 -39q-65 0 -95.5 44t-30.5 120q0 46 8.5 93t28.5 95t49.5 85t75 60.5t101.5 23.5q83 0 156 -25zM366 309l24 135q-46 22 -97 22q-53 0 -93.5 -31t-62 -80t-31.5 -98.5t-10 -96.5q0 -122 75 -122q60 0 118.5 84t76.5 187z
M402 633q-16 0 -27 11.5t-11 27.5q0 18 12 30t29 12q16 0 26.5 -11t10.5 -27q0 -19 -11.5 -31t-28.5 -12zM238 633q-16 0 -27 11.5t-11 27.5q0 18 12 30t29 12q16 0 26.5 -11t10.5 -27q0 -19 -11.5 -31t-28.5 -12z" />
    <glyph glyph-name="aring" unicode="&#xe5;" horiz-adv-x="498" 
d="M369 0h-50l20 130q-31 -62 -77.5 -101t-100.5 -39q-65 0 -95.5 44t-30.5 120q0 46 8.5 93t28.5 95t49.5 85t75 60.5t101.5 23.5q83 0 156 -25zM366 309l24 135q-46 22 -97 22q-53 0 -93.5 -31t-62 -80t-31.5 -98.5t-10 -96.5q0 -122 75 -122q60 0 118.5 84t76.5 187z
M306 574q-35 0 -54 19.5t-19 52.5q0 47 27.5 78.5t72.5 31.5q34 0 53 -19.5t19 -52.5q0 -47 -28.5 -78.5t-70.5 -31.5zM312 610q23 0 37.5 20.5t14.5 49.5q0 40 -36 40q-23 0 -38 -20t-15 -49q0 -41 37 -41z" />
    <glyph glyph-name="ae" unicode="&#xe6;" horiz-adv-x="746" 
d="M634 65l4 -48q-73 -27 -156 -27q-134 0 -157 107q-25 -47 -73.5 -77t-106.5 -30q-61 0 -95 30.5t-34 84.5q0 82 66 131.5t211 49.5h41l8 46q4 24 4 48q0 44 -22 65t-71 21q-64 0 -136 -29l-5 48q78 31 159 31q112 0 128 -88q67 88 170 88q62 0 98 -31t36 -82
q0 -38 -15 -66.5t-50.5 -51.5t-99.5 -34.5t-156 -11.5q-6 -35 -6 -70q0 -65 28 -97.5t92 -32.5q66 0 138 26zM392 286q99 0 156 15.5t75.5 38.5t18.5 59q0 32 -21.5 50.5t-58.5 18.5q-63 0 -107 -50.5t-63 -131.5zM320 210l5 29h-39q-206 0 -206 -126q0 -35 19.5 -55
t53.5 -20q66 0 110.5 50.5t56.5 121.5z" />
    <glyph glyph-name="ccedilla" unicode="&#xe7;" horiz-adv-x="404" 
d="M177 -60l-11 54q-132 16 -132 175q0 55 14.5 112t43.5 110.5t81 87.5t118 34q65 0 112 -27l-21 -44q-50 24 -93 24q-54 0 -94.5 -32t-60.5 -80.5t-29.5 -94.5t-9.5 -86q0 -133 114 -133q54 0 110 24l4 -48q-48 -20 -106 -24l10 -41q8 -31 8 -44q0 -28 -25 -46.5
t-78 -18.5q-47 0 -78 11l7 38h89q32 0 32 20q0 9 -5 29z" />
    <glyph glyph-name="egrave" unicode="&#xe8;" horiz-adv-x="466" 
d="M354 65l3 -48q-73 -27 -156 -27q-166 0 -166 170q0 56 13 113.5t40.5 114t79.5 92.5t120 36q62 0 98 -31t36 -82q0 -36 -13.5 -63.5t-47 -51.5t-99 -37.5t-161.5 -14.5q-5 -42 -5 -68q0 -65 27.5 -97t92.5 -32t138 26zM111 284q74 0 124.5 8.5t77 24.5t37.5 35.5t11 46.5
q0 32 -21.5 50.5t-58.5 18.5q-64 0 -107.5 -51t-62.5 -133zM337 617l-36 -28l-99 124l48 36z" />
    <glyph glyph-name="eacute" unicode="&#xe9;" horiz-adv-x="466" 
d="M354 65l3 -48q-73 -27 -156 -27q-166 0 -166 170q0 56 13 113.5t40.5 114t79.5 92.5t120 36q62 0 98 -31t36 -82q0 -36 -13.5 -63.5t-47 -51.5t-99 -37.5t-161.5 -14.5q-5 -42 -5 -68q0 -65 27.5 -97t92.5 -32t138 26zM111 284q74 0 124.5 8.5t77 24.5t37.5 35.5t11 46.5
q0 32 -21.5 50.5t-58.5 18.5q-64 0 -107.5 -51t-62.5 -133zM304 589l-34 28l106 132l47 -36z" />
    <glyph glyph-name="ecircumflex" unicode="&#xea;" horiz-adv-x="466" 
d="M354 65l3 -48q-73 -27 -156 -27q-166 0 -166 170q0 56 13 113.5t40.5 114t79.5 92.5t120 36q62 0 98 -31t36 -82q0 -36 -13.5 -63.5t-47 -51.5t-99 -37.5t-161.5 -14.5q-5 -42 -5 -68q0 -65 27.5 -97t92.5 -32t138 26zM111 284q74 0 124.5 8.5t77 24.5t37.5 35.5t11 46.5
q0 32 -21.5 50.5t-58.5 18.5q-64 0 -107.5 -51t-62.5 -133zM424 622l-33 -32l-72 90l-104 -90l-26 32l140 131z" />
    <glyph glyph-name="edieresis" unicode="&#xeb;" horiz-adv-x="466" 
d="M354 65l3 -48q-73 -27 -156 -27q-166 0 -166 170q0 56 13 113.5t40.5 114t79.5 92.5t120 36q62 0 98 -31t36 -82q0 -36 -13.5 -63.5t-47 -51.5t-99 -37.5t-161.5 -14.5q-5 -42 -5 -68q0 -65 27.5 -97t92.5 -32t138 26zM111 284q74 0 124.5 8.5t77 24.5t37.5 35.5t11 46.5
q0 32 -21.5 50.5t-58.5 18.5q-64 0 -107.5 -51t-62.5 -133zM390 633q-16 0 -27 11.5t-11 27.5q0 18 12 30t29 12q16 0 26.5 -11t10.5 -27q0 -19 -11.5 -31t-28.5 -12zM226 633q-16 0 -27 11.5t-11 27.5q0 18 12 30t29 12q16 0 26.5 -11t10.5 -27q0 -19 -11.5 -31t-28.5 -12z
" />
    <glyph glyph-name="igrave" unicode="&#xec;" horiz-adv-x="236" 
d="M106 0h-57l81 460h-78l8 46h135zM224 617l-36 -28l-99 124l48 36z" />
    <glyph glyph-name="iacute" unicode="&#xed;" horiz-adv-x="236" 
d="M106 0h-57l81 460h-78l8 46h135zM167 589l-34 28l106 132l47 -36z" />
    <glyph glyph-name="icircumflex" unicode="&#xee;" horiz-adv-x="236" 
d="M106 0h-57l81 460h-78l8 46h135zM290 622l-33 -32l-72 90l-104 -90l-26 32l140 131z" />
    <glyph glyph-name="idieresis" unicode="&#xef;" horiz-adv-x="236" 
d="M106 0h-57l81 460h-78l8 46h135zM260 633q-16 0 -26.5 11.5t-10.5 27.5q0 18 12 30t29 12q16 0 26.5 -11t10.5 -27q0 -19 -12 -31t-29 -12zM106 633q-16 0 -27 11.5t-11 27.5q0 18 12 30t29 12q16 0 26.5 -11t10.5 -27q0 -19 -11.5 -31t-28.5 -12z" />
    <glyph glyph-name="eth" unicode="&#xf0;" horiz-adv-x="526" 
d="M521 686l-118 -48q69 -141 69 -283q0 -94 -28 -174.5t-90.5 -135.5t-149.5 -55q-81 0 -124 51t-43 140q0 133 72.5 231.5t186.5 98.5q80 0 114 -62q-16 82 -64 166l-114 -47l-20 43l110 45q-23 37 -62 81l61 23q31 -32 60 -81l120 49zM212 38q66 0 112.5 48.5t65 109
t18.5 120.5q0 64 -31.5 106t-88.5 42q-59 0 -103.5 -44t-65.5 -107.5t-21 -132.5q0 -142 114 -142z" />
    <glyph glyph-name="ntilde" unicode="&#xf1;" horiz-adv-x="513" 
d="M385 0h-56l53 303q8 45 8 75q0 89 -70 89q-62 0 -121.5 -83t-76.5 -181l-36 -203h-57l89 506h48l-18 -131q30 61 78.5 101t103.5 40q118 0 118 -134q0 -23 -7 -67zM446 721l31 -28q-38 -68 -99 -68q-31 0 -59 21.5t-46 21.5q-33 0 -62 -49l-31 29q40 68 99 68
q31 0 58.5 -21.5t45.5 -21.5q34 0 63 48z" />
    <glyph glyph-name="ograve" unicode="&#xf2;" horiz-adv-x="508" 
d="M202 -10q-83 0 -125.5 50t-42.5 139q0 61 17.5 120.5t49.5 108t82.5 78.5t110.5 30q83 0 125.5 -50.5t42.5 -139.5q0 -82 -29 -157.5t-90 -127t-141 -51.5zM210 39q87 0 138 84.5t51 196.5q0 147 -112 147q-88 0 -139 -85.5t-51 -198.5q0 -144 113 -144zM350 617l-36 -28
l-99 124l48 36z" />
    <glyph glyph-name="oacute" unicode="&#xf3;" horiz-adv-x="508" 
d="M202 -10q-83 0 -125.5 50t-42.5 139q0 61 17.5 120.5t49.5 108t82.5 78.5t110.5 30q83 0 125.5 -50.5t42.5 -139.5q0 -82 -29 -157.5t-90 -127t-141 -51.5zM210 39q87 0 138 84.5t51 196.5q0 147 -112 147q-88 0 -139 -85.5t-51 -198.5q0 -144 113 -144zM312 589l-34 28
l106 132l47 -36z" />
    <glyph glyph-name="ocircumflex" unicode="&#xf4;" horiz-adv-x="508" 
d="M202 -10q-83 0 -125.5 50t-42.5 139q0 61 17.5 120.5t49.5 108t82.5 78.5t110.5 30q83 0 125.5 -50.5t42.5 -139.5q0 -82 -29 -157.5t-90 -127t-141 -51.5zM210 39q87 0 138 84.5t51 196.5q0 147 -112 147q-88 0 -139 -85.5t-51 -198.5q0 -144 113 -144zM435 622l-33 -32
l-72 90l-104 -90l-26 32l140 131z" />
    <glyph glyph-name="otilde" unicode="&#xf5;" horiz-adv-x="508" 
d="M202 -10q-83 0 -125.5 50t-42.5 139q0 61 17.5 120.5t49.5 108t82.5 78.5t110.5 30q83 0 125.5 -50.5t42.5 -139.5q0 -82 -29 -157.5t-90 -127t-141 -51.5zM210 39q87 0 138 84.5t51 196.5q0 147 -112 147q-88 0 -139 -85.5t-51 -198.5q0 -144 113 -144zM442 721l31 -28
q-38 -68 -99 -68q-31 0 -59 21.5t-46 21.5q-33 0 -62 -49l-31 29q40 68 99 68q31 0 58.5 -21.5t45.5 -21.5q34 0 63 48z" />
    <glyph glyph-name="odieresis" unicode="&#xf6;" horiz-adv-x="508" 
d="M202 -10q-83 0 -125.5 50t-42.5 139q0 61 17.5 120.5t49.5 108t82.5 78.5t110.5 30q83 0 125.5 -50.5t42.5 -139.5q0 -82 -29 -157.5t-90 -127t-141 -51.5zM210 39q87 0 138 84.5t51 196.5q0 147 -112 147q-88 0 -139 -85.5t-51 -198.5q0 -144 113 -144zM403 633
q-16 0 -27 11.5t-11 27.5q0 18 12 30t29 12q16 0 26.5 -11t10.5 -27q0 -19 -11.5 -31t-28.5 -12zM239 633q-16 0 -27 11.5t-11 27.5q0 18 12 30t29 12q16 0 26.5 -11t10.5 -27q0 -19 -11.5 -31t-28.5 -12z" />
    <glyph glyph-name="divide" unicode="&#xf7;" 
d="M285 454q-21 0 -34.5 15t-13.5 35q0 23 15 38.5t37 15.5q21 0 34.5 -14.5t13.5 -34.5q0 -23 -15.5 -39t-36.5 -16zM454 283h-415l10 55h415zM215 64q-21 0 -34 14.5t-13 35.5q0 23 15 38.5t37 15.5q20 0 33.5 -15t13.5 -34q0 -24 -15.5 -39.5t-36.5 -15.5z" />
    <glyph glyph-name="oslash" unicode="&#xf8;" horiz-adv-x="508" 
d="M61 -91l-39 22l63 97q-51 46 -51 146q0 86 29 162.5t91 128t144 51.5q53 0 88 -19l67 102l39 -22l-70 -106q46 -46 46 -140q0 -85 -29.5 -161.5t-91 -128t-143.5 -51.5q-50 0 -81 14zM119 80l237 371q-25 16 -66 16q-90 0 -141.5 -85.5t-51.5 -200.5q0 -72 22 -101z
M387 418l-234 -368q26 -11 58 -11q90 0 142 84t52 197q0 65 -18 98z" />
    <glyph glyph-name="ugrave" unicode="&#xf9;" horiz-adv-x="513" 
d="M383 0h-49l20 130q-30 -61 -78.5 -100.5t-103.5 -39.5q-118 0 -118 133q0 33 7 68l55 315h57l-54 -304q-7 -47 -7 -75q0 -89 70 -89q62 0 121.5 83.5t76.5 181.5l36 203h56zM337 617l-36 -28l-99 124l48 36z" />
    <glyph glyph-name="uacute" unicode="&#xfa;" horiz-adv-x="513" 
d="M383 0h-49l20 130q-30 -61 -78.5 -100.5t-103.5 -39.5q-118 0 -118 133q0 33 7 68l55 315h57l-54 -304q-7 -47 -7 -75q0 -89 70 -89q62 0 121.5 83.5t76.5 181.5l36 203h56zM310 589l-34 28l106 132l47 -36z" />
    <glyph glyph-name="ucircumflex" unicode="&#xfb;" horiz-adv-x="513" 
d="M383 0h-49l20 130q-30 -61 -78.5 -100.5t-103.5 -39.5q-118 0 -118 133q0 33 7 68l55 315h57l-54 -304q-7 -47 -7 -75q0 -89 70 -89q62 0 121.5 83.5t76.5 181.5l36 203h56zM427 622l-33 -32l-72 90l-104 -90l-26 32l140 131z" />
    <glyph glyph-name="udieresis" unicode="&#xfc;" horiz-adv-x="513" 
d="M383 0h-49l20 130q-30 -61 -78.5 -100.5t-103.5 -39.5q-118 0 -118 133q0 33 7 68l55 315h57l-54 -304q-7 -47 -7 -75q0 -89 70 -89q62 0 121.5 83.5t76.5 181.5l36 203h56zM396 633q-16 0 -27 11.5t-11 27.5q0 18 12 30t29 12q16 0 26.5 -11t10.5 -27q0 -19 -11.5 -31
t-28.5 -12zM232 633q-16 0 -27 11.5t-11 27.5q0 18 12 30t29 12q16 0 26.5 -11t10.5 -27q0 -19 -11.5 -31t-28.5 -12z" />
    <glyph glyph-name="yacute" unicode="&#xfd;" horiz-adv-x="430" 
d="M-59 -212l10 43h44q27 0 58.5 35t90.5 134q-63 300 -78 506h56q15 -174 49 -364q5 -26 12 -79h1l39 79q87 174 160 364h59q-132 -318 -244 -506q-77 -130 -120 -175t-89 -45q-26 0 -48 8zM280 589l-34 28l106 132l47 -36z" />
    <glyph glyph-name="thorn" unicode="&#xfe;" horiz-adv-x="498" 
d="M49 -211h-57l170 961h57l-47 -259q-9 -50 -25 -116q30 62 77.5 101.5t101.5 39.5q65 0 95.5 -44.5t30.5 -120.5q0 -58 -14.5 -117t-43.5 -114.5t-82.5 -90.5t-122.5 -35q-54 0 -102 12zM121 199l-24 -138q45 -21 97 -21q53 0 93.5 31t62 80t31.5 98.5t10 96.5
q0 121 -75 121q-61 0 -119.5 -84.5t-75.5 -183.5z" />
    <glyph glyph-name="ydieresis" unicode="&#xff;" horiz-adv-x="430" 
d="M-59 -212l10 43h44q27 0 58.5 35t90.5 134q-63 300 -78 506h56q15 -174 49 -364q5 -26 12 -79h1l39 79q87 174 160 364h59q-132 -318 -244 -506q-77 -130 -120 -175t-89 -45q-26 0 -48 8zM358 633q-16 0 -27 11.5t-11 27.5q0 18 12 30t29 12q16 0 26.5 -11t10.5 -27
q0 -19 -11.5 -31t-28.5 -12zM194 633q-16 0 -27 11.5t-11 27.5q0 18 12 30t29 12q16 0 26.5 -11t10.5 -27q0 -19 -11.5 -31t-28.5 -12z" />
    <glyph glyph-name="Amacron" unicode="&#x100;" horiz-adv-x="571" 
d="M493 0h-62l-22 200h-278q-26 -53 -90 -200h-63q169 376 349 698h56q70 -324 110 -698zM153 250h249q-25 185 -45 305q-3 15 -7.5 45.5t-5.5 34.5h-1l-40 -80zM492 762h-265l9 46h265z" />
    <glyph glyph-name="amacron" unicode="&#x101;" horiz-adv-x="498" 
d="M369 0h-50l20 130q-31 -62 -77.5 -101t-100.5 -39q-65 0 -95.5 44t-30.5 120q0 46 8.5 93t28.5 95t49.5 85t75 60.5t101.5 23.5q83 0 156 -25zM366 309l24 135q-46 22 -97 22q-53 0 -93.5 -31t-62 -80t-31.5 -98.5t-10 -96.5q0 -122 75 -122q60 0 118.5 84t76.5 187z
M439 648h-239l9 45h238z" />
    <glyph glyph-name="Abreve" unicode="&#x102;" horiz-adv-x="571" 
d="M493 0h-62l-22 200h-278q-26 -53 -90 -200h-63q169 376 349 698h56q70 -324 110 -698zM153 250h249q-25 185 -45 305q-3 15 -7.5 45.5t-5.5 34.5h-1l-40 -80zM451 886h43q-25 -136 -136 -136q-45 0 -69 23t-24.5 53.5t2.5 59.5h43q-7 -39 5.5 -65t47.5 -26q34 0 57 23.5
t31 67.5z" />
    <glyph glyph-name="abreve" unicode="&#x103;" horiz-adv-x="498" 
d="M369 0h-50l20 130q-31 -62 -77.5 -101t-100.5 -39q-65 0 -95.5 44t-30.5 120q0 46 8.5 93t28.5 95t49.5 85t75 60.5t101.5 23.5q83 0 156 -25zM366 309l24 135q-46 22 -97 22q-53 0 -93.5 -31t-62 -80t-31.5 -98.5t-10 -96.5q0 -122 75 -122q60 0 118.5 84t76.5 187z
M391 746h43q-26 -137 -136 -137q-45 0 -69 23t-24.5 53.5t2.5 60.5h43q-7 -39 5.5 -65.5t47.5 -26.5q34 0 57 24t31 68z" />
    <glyph glyph-name="Aogonek" unicode="&#x104;" horiz-adv-x="571" 
d="M153 250h249q-20 146 -45 305q-3 15 -7.5 45.5t-5.5 34.5h-1l-40 -80zM493 -148v-43q-30 -11 -68 -11q-87 0 -87 69q0 65 95 133h-2l-22 200h-278l-90 -200h-63q169 376 349 698h56q70 -324 110 -698q-46 -30 -71 -63t-25 -61q0 -33 36 -33q33 0 60 9z" />
    <glyph glyph-name="aogonek" unicode="&#x105;" horiz-adv-x="498" 
d="M366 309l24 135q-46 22 -97 22q-53 0 -93.5 -31t-62 -80t-31.5 -98.5t-10 -96.5q0 -122 75 -122q60 0 118.5 84t76.5 187zM376 -149v-41q-28 -11 -64 -11q-83 0 -83 67q0 64 91 137l19 127q-31 -62 -77.5 -101t-100.5 -39q-65 0 -95.5 44t-30.5 120q0 46 8.5 93t28.5 95
t49.5 85t75 60.5t101.5 23.5q83 0 156 -25l-85 -486q-83 -66 -83 -123q0 -34 35 -34q29 0 55 8z" />
    <glyph glyph-name="Cacute" unicode="&#x106;" horiz-adv-x="514" 
d="M434 78l13 -46q-85 -39 -161 -39q-109 0 -169.5 64.5t-60.5 185.5q0 76 21.5 154.5t62 148.5t109.5 114.5t154 44.5q82 0 148 -36l-26 -46q-62 31 -130 31q-70 0 -126 -42.5t-87 -107t-47 -131t-16 -125.5q0 -98 45 -150.5t131 -52.5q63 0 139 33zM537 842l-157 -85
l-23 38l149 97z" />
    <glyph glyph-name="cacute" unicode="&#x107;" horiz-adv-x="404" 
d="M319 64l4 -48q-57 -24 -124 -24q-165 0 -165 177q0 55 14.5 112t43.5 110.5t81 87.5t118 34q65 0 112 -27l-21 -44q-50 24 -93 24q-54 0 -94.5 -32t-60.5 -80.5t-29.5 -94.5t-9.5 -86q0 -133 114 -133q54 0 110 24zM296 589l-34 28l106 132l47 -36z" />
    <glyph glyph-name="Ccircumflex" unicode="&#x108;" horiz-adv-x="514" 
d="M434 78l13 -46q-85 -39 -161 -39q-109 0 -169.5 64.5t-60.5 185.5q0 76 21.5 154.5t62 148.5t109.5 114.5t154 44.5q82 0 148 -36l-26 -46q-62 31 -130 31q-70 0 -126 -42.5t-87 -107t-47 -131t-16 -125.5q0 -98 45 -150.5t131 -52.5q63 0 139 33zM505 759l-79 68
l-102 -68l-24 34l134 96l101 -94z" />
    <glyph glyph-name="ccircumflex" unicode="&#x109;" horiz-adv-x="404" 
d="M319 64l4 -48q-57 -24 -124 -24q-165 0 -165 177q0 55 14.5 112t43.5 110.5t81 87.5t118 34q65 0 112 -27l-21 -44q-50 24 -93 24q-54 0 -94.5 -32t-60.5 -80.5t-29.5 -94.5t-9.5 -86q0 -133 114 -133q54 0 110 24zM418 622l-33 -32l-72 90l-104 -90l-26 32l140 131z" />
    <glyph glyph-name="Cdotaccent" unicode="&#x10a;" horiz-adv-x="514" 
d="M434 78l13 -46q-85 -39 -161 -39q-109 0 -169.5 64.5t-60.5 185.5q0 76 21.5 154.5t62 148.5t109.5 114.5t154 44.5q82 0 148 -36l-26 -46q-62 31 -130 31q-70 0 -126 -42.5t-87 -107t-47 -131t-16 -125.5q0 -98 45 -150.5t131 -52.5q63 0 139 33zM425 755q-19 0 -31 13
t-12 31q0 22 13 35.5t33 13.5q18 0 30.5 -12.5t12.5 -30.5q0 -22 -13.5 -36t-32.5 -14z" />
    <glyph glyph-name="cdotaccent" unicode="&#x10b;" horiz-adv-x="404" 
d="M319 64l4 -48q-57 -24 -124 -24q-165 0 -165 177q0 55 14.5 112t43.5 110.5t81 87.5t118 34q65 0 112 -27l-21 -44q-50 24 -93 24q-54 0 -94.5 -32t-60.5 -80.5t-29.5 -94.5t-9.5 -86q0 -133 114 -133q54 0 110 24zM306 625q-19 0 -31 13t-12 31q0 22 13 35.5t33 13.5
q18 0 30.5 -12.5t12.5 -30.5q0 -22 -13.5 -36t-32.5 -14z" />
    <glyph glyph-name="Ccaron" unicode="&#x10c;" horiz-adv-x="514" 
d="M434 78l13 -46q-85 -39 -161 -39q-109 0 -169.5 64.5t-60.5 185.5q0 76 21.5 154.5t62 148.5t109.5 114.5t154 44.5q82 0 148 -36l-26 -46q-62 31 -130 31q-70 0 -126 -42.5t-87 -107t-47 -131t-16 -125.5q0 -98 45 -150.5t131 -52.5q63 0 139 33zM533 855l-134 -96
l-102 94l30 36l80 -68l102 68z" />
    <glyph glyph-name="ccaron" unicode="&#x10d;" horiz-adv-x="404" 
d="M319 64l4 -48q-57 -24 -124 -24q-165 0 -165 177q0 55 14.5 112t43.5 110.5t81 87.5t118 34q65 0 112 -27l-21 -44q-50 24 -93 24q-54 0 -94.5 -32t-60.5 -80.5t-29.5 -94.5t-9.5 -86q0 -133 114 -133q54 0 110 24zM292 590l-95 131l33 32l72 -90l104 90l26 -32z" />
    <glyph glyph-name="Dcaron" unicode="&#x10e;" horiz-adv-x="610" 
d="M212 0h-115h-57l123 698h58h117q117 0 178 -67t61 -185q0 -32 -4 -68t-15.5 -80t-29 -85t-46.5 -80.5t-65.5 -68.5t-89.5 -46.5t-115 -17.5zM106 50h116q59 0 107.5 21t79 56.5t53 77t33.5 88t16 83t5 68.5q0 93 -46 148t-140 55h-118zM500 855l-134 -96l-102 94l30 36
l80 -68l102 68z" />
    <glyph glyph-name="dcaron" unicode="&#x10f;" horiz-adv-x="546" 
d="M369 0h-50l20 130q-31 -62 -77.5 -101t-100.5 -39q-65 0 -95.5 44t-30.5 120q0 46 8.5 93t28.5 95t49.5 85t75 60.5t101.5 23.5q59 0 102 -12l44 251h57zM366 309l24 135q-46 22 -97 22q-53 0 -93.5 -31t-62 -80t-31.5 -98.5t-10 -96.5q0 -122 75 -122q60 0 118.5 84
t76.5 187zM561 563l-43 15l78 182l59 -17z" />
    <glyph glyph-name="Dcroat" unicode="&#x110;" horiz-adv-x="620" 
d="M222 0h-115h-57l58 333h-81l9 50h81l56 315h57h118q117 0 178.5 -67t61.5 -185q0 -48 -8.5 -100.5t-34 -116t-64 -113t-106 -83t-153.5 -33.5zM116 50h115q59 0 107.5 21t79 56.5t53 77t34 88t16.5 83t5 68.5q0 94 -45.5 148.5t-140.5 54.5h-119l-46 -264h133l-9 -50
h-134z" />
    <glyph glyph-name="dcroat" unicode="&#x111;" horiz-adv-x="498" 
d="M369 0h-50l20 130q-31 -62 -77.5 -101t-100.5 -39q-65 0 -95.5 44t-30.5 120q0 46 8.5 93t28.5 95t49.5 85t75 60.5t101.5 23.5q59 0 102 -12l17 99h-113l8 46h114l18 106h57l-18 -106h71l-8 -46h-72zM366 309l24 135q-46 22 -97 22q-53 0 -93.5 -31t-62 -80t-31.5 -98.5
t-10 -96.5q0 -122 75 -122q60 0 118.5 84t76.5 187z" />
    <glyph glyph-name="Emacron" unicode="&#x112;" horiz-adv-x="479" 
d="M365 0h-267h-58l123 698h58h263l-9 -51h-263l-45 -258h230l-9 -50h-231l-51 -289h268zM458 762h-265l9 46h265z" />
    <glyph glyph-name="emacron" unicode="&#x113;" horiz-adv-x="466" 
d="M354 65l3 -48q-73 -27 -156 -27q-166 0 -166 170q0 56 13 113.5t40.5 114t79.5 92.5t120 36q62 0 98 -31t36 -82q0 -36 -13.5 -63.5t-47 -51.5t-99 -37.5t-161.5 -14.5q-5 -42 -5 -68q0 -65 27.5 -97t92.5 -32t138 26zM111 284q74 0 124.5 8.5t77 24.5t37.5 35.5t11 46.5
q0 32 -21.5 50.5t-58.5 18.5q-64 0 -107.5 -51t-62.5 -133zM416 648h-239l9 45h238z" />
    <glyph glyph-name="Ebreve" unicode="&#x114;" horiz-adv-x="479" 
d="M365 0h-267h-58l123 698h58h263l-9 -51h-263l-45 -258h230l-9 -50h-231l-51 -289h268zM429 886h43q-25 -136 -136 -136q-45 0 -69 23t-24.5 53.5t2.5 59.5h43q-7 -39 5.5 -65t47.5 -26q34 0 57 23.5t31 67.5z" />
    <glyph glyph-name="ebreve" unicode="&#x115;" horiz-adv-x="466" 
d="M354 65l3 -48q-73 -27 -156 -27q-166 0 -166 170q0 56 13 113.5t40.5 114t79.5 92.5t120 36q62 0 98 -31t36 -82q0 -36 -13.5 -63.5t-47 -51.5t-99 -37.5t-161.5 -14.5q-5 -42 -5 -68q0 -65 27.5 -97t92.5 -32t138 26zM111 284q74 0 124.5 8.5t77 24.5t37.5 35.5t11 46.5
q0 32 -21.5 50.5t-58.5 18.5q-64 0 -107.5 -51t-62.5 -133zM387 746h43q-26 -137 -136 -137q-45 0 -69 23t-24.5 53.5t2.5 60.5h43q-7 -39 5.5 -65.5t47.5 -26.5q34 0 57 24t31 68z" />
    <glyph glyph-name="Edotaccent" unicode="&#x116;" horiz-adv-x="479" 
d="M365 0h-267h-58l123 698h58h263l-9 -51h-263l-45 -258h230l-9 -50h-231l-51 -289h268zM335 755q-19 0 -31 13t-12 31q0 22 13 35.5t33 13.5q18 0 30.5 -12.5t12.5 -30.5q0 -22 -13.5 -36t-32.5 -14z" />
    <glyph glyph-name="edotaccent" unicode="&#x117;" horiz-adv-x="466" 
d="M354 65l3 -48q-73 -27 -156 -27q-166 0 -166 170q0 56 13 113.5t40.5 114t79.5 92.5t120 36q62 0 98 -31t36 -82q0 -36 -13.5 -63.5t-47 -51.5t-99 -37.5t-161.5 -14.5q-5 -42 -5 -68q0 -65 27.5 -97t92.5 -32t138 26zM111 284q74 0 124.5 8.5t77 24.5t37.5 35.5t11 46.5
q0 32 -21.5 50.5t-58.5 18.5q-64 0 -107.5 -51t-62.5 -133zM303 625q-19 0 -31 13t-12 31q0 22 13 35.5t33 13.5q18 0 30.5 -12.5t12.5 -30.5q0 -22 -13.5 -36t-32.5 -14z" />
    <glyph glyph-name="Eogonek" unicode="&#x118;" horiz-adv-x="479" 
d="M368 -148v-43q-28 -11 -68 -11q-87 0 -87 69q0 63 93 133h-208h-58l123 698h58h263l-9 -51h-263l-45 -258h230l-9 -50h-231l-51 -289h268l-9 -50q-93 -64 -93 -124q0 -33 37 -33q32 0 59 9z" />
    <glyph glyph-name="eogonek" unicode="&#x119;" horiz-adv-x="466" 
d="M111 284q74 0 124.5 8.5t77 24.5t37.5 35.5t11 46.5q0 32 -21.5 50.5t-58.5 18.5q-64 0 -107.5 -51t-62.5 -133zM322 -149v-41q-28 -11 -64 -11q-83 0 -83 67q0 65 80 127q-21 -3 -54 -3q-166 0 -166 170q0 56 13 113.5t40.5 114t79.5 92.5t120 36q62 0 98 -31t36 -82
q0 -36 -13.5 -63.5t-47 -51.5t-99 -37.5t-161.5 -14.5q-5 -42 -5 -68q0 -65 27.5 -97t92.5 -32t138 26l3 -48q-61 -29 -93 -68t-32 -72q0 -34 35 -34q29 0 55 8z" />
    <glyph glyph-name="Ecaron" unicode="&#x11a;" horiz-adv-x="479" 
d="M365 0h-267h-58l123 698h58h263l-9 -51h-263l-45 -258h230l-9 -50h-231l-51 -289h268zM468 855l-134 -96l-102 94l30 36l80 -68l102 68z" />
    <glyph glyph-name="ecaron" unicode="&#x11b;" horiz-adv-x="466" 
d="M354 65l3 -48q-73 -27 -156 -27q-166 0 -166 170q0 56 13 113.5t40.5 114t79.5 92.5t120 36q62 0 98 -31t36 -82q0 -36 -13.5 -63.5t-47 -51.5t-99 -37.5t-161.5 -14.5q-5 -42 -5 -68q0 -65 27.5 -97t92.5 -32t138 26zM111 284q74 0 124.5 8.5t77 24.5t37.5 35.5t11 46.5
q0 32 -21.5 50.5t-58.5 18.5q-64 0 -107.5 -51t-62.5 -133zM285 590l-95 131l33 32l72 -90l104 90l26 -32z" />
    <glyph glyph-name="Gcircumflex" unicode="&#x11c;" horiz-adv-x="597" 
d="M420 62l52 295h58l-59 -330q-88 -36 -179 -36q-116 0 -176.5 68.5t-60.5 188.5q0 60 13 122.5t42 122.5t70 107t101.5 76t132.5 29q98 0 172 -56l-28 -47q-68 52 -153 52q-74 0 -132 -41.5t-90.5 -105.5t-49 -129.5t-16.5 -124.5q0 -100 46 -155.5t133 -55.5q61 0 124 20
zM504 759l-79 68l-102 -68l-24 34l134 96l101 -94z" />
    <glyph glyph-name="gcircumflex" unicode="&#x11d;" horiz-adv-x="498" 
d="M21 -210l10 44q55 -3 108 -3q82 0 119.5 37t55.5 141q11 66 26 123q-31 -62 -77.5 -101t-100.5 -39q-65 0 -96 44t-31 121q0 45 8.5 91.5t28.5 94.5t49.5 84.5t75 60t101.5 23.5q83 0 156 -25l-84 -479q-22 -124 -72.5 -175.5t-161.5 -51.5q-60 0 -115 10zM367 311
l23 133q-46 22 -97 22q-53 0 -93.5 -31t-62 -79.5t-31.5 -97.5t-10 -95q0 -123 76 -123q60 0 118.5 84t76.5 187zM431 622l-33 -32l-72 90l-104 -90l-26 32l140 131z" />
    <glyph glyph-name="Gbreve" unicode="&#x11e;" horiz-adv-x="597" 
d="M420 62l52 295h58l-59 -330q-88 -36 -179 -36q-116 0 -176.5 68.5t-60.5 188.5q0 60 13 122.5t42 122.5t70 107t101.5 76t132.5 29q98 0 172 -56l-28 -47q-68 52 -153 52q-74 0 -132 -41.5t-90.5 -105.5t-49 -129.5t-16.5 -124.5q0 -100 46 -155.5t133 -55.5q61 0 124 20
zM482 886h43q-25 -136 -136 -136q-45 0 -69 23t-24.5 53.5t2.5 59.5h43q-7 -39 5.5 -65t47.5 -26q34 0 57 23.5t31 67.5z" />
    <glyph glyph-name="gbreve" unicode="&#x11f;" horiz-adv-x="498" 
d="M21 -210l10 44q55 -3 108 -3q82 0 119.5 37t55.5 141q11 66 26 123q-31 -62 -77.5 -101t-100.5 -39q-65 0 -96 44t-31 121q0 45 8.5 91.5t28.5 94.5t49.5 84.5t75 60t101.5 23.5q83 0 156 -25l-84 -479q-22 -124 -72.5 -175.5t-161.5 -51.5q-60 0 -115 10zM367 311
l23 133q-46 22 -97 22q-53 0 -93.5 -31t-62 -79.5t-31.5 -97.5t-10 -95q0 -123 76 -123q60 0 118.5 84t76.5 187zM383 746h43q-26 -137 -136 -137q-45 0 -69 23t-24.5 53.5t2.5 60.5h43q-7 -39 5.5 -65.5t47.5 -26.5q34 0 57 24t31 68z" />
    <glyph glyph-name="Gdotaccent" unicode="&#x120;" horiz-adv-x="597" 
d="M420 62l52 295h58l-59 -330q-88 -36 -179 -36q-116 0 -176.5 68.5t-60.5 188.5q0 60 13 122.5t42 122.5t70 107t101.5 76t132.5 29q98 0 172 -56l-28 -47q-68 52 -153 52q-74 0 -132 -41.5t-90.5 -105.5t-49 -129.5t-16.5 -124.5q0 -100 46 -155.5t133 -55.5q61 0 124 20
zM418 755q-19 0 -31 13t-12 31q0 22 13 35.5t33 13.5q18 0 30.5 -12.5t12.5 -30.5q0 -22 -13.5 -36t-32.5 -14z" />
    <glyph glyph-name="gdotaccent" unicode="&#x121;" horiz-adv-x="498" 
d="M21 -210l10 44q55 -3 108 -3q82 0 119.5 37t55.5 141q11 66 26 123q-31 -62 -77.5 -101t-100.5 -39q-65 0 -96 44t-31 121q0 45 8.5 91.5t28.5 94.5t49.5 84.5t75 60t101.5 23.5q83 0 156 -25l-84 -479q-22 -124 -72.5 -175.5t-161.5 -51.5q-60 0 -115 10zM367 311
l23 133q-46 22 -97 22q-53 0 -93.5 -31t-62 -79.5t-31.5 -97.5t-10 -95q0 -123 76 -123q60 0 118.5 84t76.5 187zM321 625q-19 0 -31 13t-12 31q0 22 13 35.5t33 13.5q18 0 30.5 -12.5t12.5 -30.5q0 -22 -13.5 -36t-32.5 -14z" />
    <glyph glyph-name="Gcommaaccent" unicode="&#x122;" horiz-adv-x="597" 
d="M420 62l52 295h58l-59 -330q-88 -36 -179 -36q-116 0 -176.5 68.5t-60.5 188.5q0 60 13 122.5t42 122.5t70 107t101.5 76t132.5 29q98 0 172 -56l-28 -47q-68 52 -153 52q-74 0 -132 -41.5t-90.5 -105.5t-49 -129.5t-16.5 -124.5q0 -100 46 -155.5t133 -55.5q61 0 124 20
zM103 -210l7 37q38 0 62.5 9.5t34.5 23t17 27t17.5 23t28.5 9.5q34 0 34 -36t-49 -64.5t-134 -28.5h-18z" />
    <glyph glyph-name="gcommaaccent" unicode="&#x123;" horiz-adv-x="498" 
d="M21 -210l10 44q55 -3 108 -3q82 0 119.5 37t55.5 141q11 66 26 123q-31 -62 -77.5 -101t-100.5 -39q-65 0 -96 44t-31 121q0 45 8.5 91.5t28.5 94.5t49.5 84.5t75 60t101.5 23.5q83 0 156 -25l-84 -479q-22 -124 -72.5 -175.5t-161.5 -51.5q-60 0 -115 10zM367 311
l23 133q-46 22 -97 22q-53 0 -93.5 -31t-62 -79.5t-31.5 -97.5t-10 -95q0 -123 76 -123q60 0 118.5 84t76.5 187zM475 725l-6 -37q-38 0 -62.5 -9.5t-35 -23t-17.5 -27t-17 -23t-28 -9.5q-16 0 -25 10t-9 26q0 36 48.5 64.5t133.5 28.5h18z" />
    <glyph glyph-name="Hcircumflex" unicode="&#x124;" horiz-adv-x="602" 
d="M462 0h-57l59 340h-307l-59 -340h-58l123 698h58l-54 -307h307l54 307h57zM475 759l-79 68l-102 -68l-24 34l134 96l101 -94z" />
    <glyph glyph-name="hcircumflex" unicode="&#x125;" horiz-adv-x="513" 
d="M385 0h-56l53 303q8 45 8 75q0 89 -70 89q-62 0 -121.5 -83t-76.5 -182l-36 -202h-57l133 750h57l-47 -260q-9 -50 -25 -115q30 61 79 101t104 40q118 0 118 -134q0 -23 -7 -67zM441 799l-79 68l-102 -68l-24 34l134 96l101 -94z" />
    <glyph glyph-name="Hbar" unicode="&#x126;" horiz-adv-x="622" 
d="M472 0h-58l58 329h-307l-58 -329h-57l93 530h-90l9 50h90l20 118h58l-21 -118h307l21 118h58l-21 -118h90l-9 -50h-90zM481 380l26 150h-307l-26 -150h307z" />
    <glyph glyph-name="hbar" unicode="&#x127;" horiz-adv-x="513" 
d="M386 0h-57l54 303q7 49 7 75q0 89 -70 89q-62 0 -121.5 -83t-76.5 -182l-35 -202h-57l107 608h-79l8 46h79l17 96h57l-17 -96h142l-9 -46h-142l-21 -118q-12 -67 -24 -115q30 61 78.5 101t103.5 40q118 0 118 -134q0 -32 -7 -67z" />
    <glyph glyph-name="Itilde" unicode="&#x128;" horiz-adv-x="240" 
d="M99 0h-59l123 698h60zM326 857l34 -28q-15 -31 -41.5 -49.5t-56.5 -18.5q-32 0 -62 21.5t-49 21.5q-36 0 -60 -49l-33 29q16 31 42 49.5t56 18.5q32 0 62 -21.5t48 -21.5q36 0 60 48z" />
    <glyph glyph-name="itilde" unicode="&#x129;" horiz-adv-x="238" 
d="M106 0h-57l81 460h-78l8 46h135zM301 721l31 -28q-38 -68 -99 -68q-31 0 -59 21.5t-46 21.5q-33 0 -62 -49l-31 29q40 68 99 68q31 0 58.5 -21.5t45.5 -21.5q34 0 63 48z" />
    <glyph glyph-name="Imacron" unicode="&#x12a;" horiz-adv-x="240" 
d="M99 0h-59l123 698h60zM325 762h-265l9 46h265z" />
    <glyph glyph-name="imacron" unicode="&#x12b;" horiz-adv-x="236" 
d="M106 0h-57l81 460h-78l8 46h135zM302 648h-239l9 45h238z" />
    <glyph glyph-name="Ibreve" unicode="&#x12c;" horiz-adv-x="240" 
d="M99 0h-59l123 698h60zM295 886h43q-25 -136 -136 -136q-45 0 -69 23t-24.5 53.5t2.5 59.5h43q-7 -39 5.5 -65t47.5 -26q34 0 57 23.5t31 67.5z" />
    <glyph glyph-name="ibreve" unicode="&#x12d;" horiz-adv-x="236" 
d="M106 0h-57l81 460h-78l8 46h135zM266 746h43q-26 -137 -136 -137q-45 0 -69 23t-24.5 53.5t2.5 60.5h43q-7 -39 5.5 -65.5t47.5 -26.5q34 0 57 24t31 68z" />
    <glyph glyph-name="Iogonek" unicode="&#x12e;" horiz-adv-x="240" 
d="M107 -148v-43q-28 -11 -68 -11q-87 0 -87 69q0 62 88 133l123 698h60l-124 -698q-88 -63 -88 -124q0 -33 37 -33q32 0 59 9z" />
    <glyph glyph-name="iogonek" unicode="&#x12f;" horiz-adv-x="236" 
d="M114 -149v-41q-28 -11 -64 -11q-83 0 -83 67q0 63 87 134h-5l81 460h-78l8 46h135l-89 -506q-82 -65 -82 -123q0 -34 35 -34q29 0 55 8zM189 625q-18 0 -30.5 13t-12.5 31q0 21 13.5 35t32.5 14t31 -12.5t12 -30.5q0 -22 -13 -36t-33 -14z" />
    <glyph glyph-name="Idotaccent" unicode="&#x130;" horiz-adv-x="240" 
d="M99 0h-59l123 698h60zM214 755q-19 0 -31 13t-12 31q0 22 13 35.5t33 13.5q18 0 30.5 -12.5t12.5 -30.5q0 -22 -13.5 -36t-32.5 -14z" />
    <glyph glyph-name="dotlessi" unicode="&#x131;" horiz-adv-x="236" 
d="M106 0h-57l81 460h-78l8 46h135z" />
    <glyph glyph-name="IJ" unicode="&#x132;" horiz-adv-x="529" 
d="M99 0h-59l123 698h60zM211 -2l8 45h42q45 0 66.5 30.5t36.5 112.5l90 512h60l-90 -508q-18 -99 -51.5 -148t-106.5 -49q-39 0 -55 5z" />
    <glyph glyph-name="ij" unicode="&#x133;" horiz-adv-x="446" 
d="M189 625q-18 0 -30.5 13t-12.5 31q0 21 13.5 35t32.5 14t31 -12.5t12 -30.5q0 -22 -13 -36t-33 -14zM106 0h-57l81 460h-78l8 46h135zM404 625q-18 0 -30.5 13t-12.5 31q0 21 13.5 35t32.5 14t31 -12.5t12 -30.5q0 -22 -13 -36t-33 -14zM108 -212l10 43h45q35 0 56.5 31
t33.5 100l95 544h57l-94 -534q-10 -60 -26.5 -99.5t-37.5 -58.5t-42 -26t-48 -7q-28 0 -49 7z" />
    <glyph glyph-name="Jcircumflex" unicode="&#x134;" horiz-adv-x="289" 
d="M-29 -2l8 45h42q45 0 66.5 30.5t36.5 112.5l90 512h60l-90 -508q-18 -99 -51.5 -148t-106.5 -49q-39 0 -55 5zM345 759l-79 68l-102 -68l-24 34l134 96l101 -94z" />
    <glyph glyph-name="jcircumflex" unicode="&#x135;" horiz-adv-x="225" 
d="M-112 -212l10 43h45q35 0 56.5 31t33.5 100l95 544h57l-94 -534q-10 -60 -26.5 -99.5t-37.5 -58.5t-42 -26t-48 -7q-28 0 -49 7zM289 622l-33 -32l-72 90l-104 -90l-26 32l140 131z" />
    <glyph glyph-name="Kcommaaccent" unicode="&#x136;" horiz-adv-x="521" 
d="M444 0h-67l-172 364l-52 -46l-55 -318h-58l120 698h58l-53 -310l320 310h82l-319 -296zM53 -210l7 37q38 0 62.5 9.5t34.5 23t17 27t17.5 23t28.5 9.5q34 0 34 -36t-49 -64.5t-134 -28.5h-18z" />
    <glyph glyph-name="kcommaaccent" unicode="&#x137;" horiz-adv-x="452" 
d="M406 0h-68l-142 274l-44 -37l-42 -237h-57l133 750h57l-80 -450l229 206h80l-233 -198zM5 -210l7 37q38 0 62.5 9.5t34.5 23t17 27t17.5 23t28.5 9.5q34 0 34 -36t-49 -64.5t-134 -28.5h-18z" />
    <glyph glyph-name="kgreenlandic" unicode="&#x138;" horiz-adv-x="453" 
d="M377 0h-67l-140 264l-45 -37l-39 -227h-57l87 506h57l-38 -215q68 58 238 215h82l-243 -207z" />
    <glyph glyph-name="Lacute" unicode="&#x139;" horiz-adv-x="408" 
d="M345 0h-247h-58l123 698h58l-115 -648h247zM407 842l-157 -85l-23 38l149 97z" />
    <glyph glyph-name="lacute" unicode="&#x13a;" horiz-adv-x="235" 
d="M170 44l-8 -45q-22 -4 -43 -4q-90 0 -73 98l116 657h56l-114 -647q-10 -59 28 -59h38zM337 887l-157 -85l-23 38l149 97z" />
    <glyph glyph-name="Lcommaaccent" unicode="&#x13b;" horiz-adv-x="408" 
d="M345 0h-247h-58l123 698h58l-115 -648h247zM15 -210l7 37q38 0 62.5 9.5t34.5 23t17 27t17.5 23t28.5 9.5q34 0 34 -36t-49 -64.5t-134 -28.5h-18z" />
    <glyph glyph-name="lcommaaccent" unicode="&#x13c;" horiz-adv-x="235" 
d="M170 44l-8 -45q-22 -4 -43 -4q-90 0 -73 98l116 657h56l-114 -647q-10 -59 28 -59h38zM-76 -210l7 37q38 0 62.5 9.5t34.5 23t17 27t17.5 23t28.5 9.5q34 0 34 -36t-49 -64.5t-134 -28.5h-18z" />
    <glyph glyph-name="Lcaron" unicode="&#x13d;" horiz-adv-x="415" 
d="M345 0h-247h-58l123 698h58l-115 -648h247zM350 563l-43 15l78 182l59 -17z" />
    <glyph glyph-name="lcaron" unicode="&#x13e;" horiz-adv-x="260" 
d="M170 44l-8 -45q-22 -4 -43 -4q-90 0 -73 98l116 657h56l-114 -647q-10 -59 28 -59h38zM278 563l-43 15l78 182l59 -17z" />
    <glyph glyph-name="Ldot" unicode="&#x13f;" horiz-adv-x="483" 
d="M345 0h-247h-58l123 698h58l-115 -648h247zM397 297q-21 0 -34.5 15t-13.5 36q0 23 15 39t37 16q21 0 35 -15t14 -35q0 -24 -15.5 -40t-37.5 -16z" />
    <glyph glyph-name="ldot" unicode="&#x140;" horiz-adv-x="235" 
d="M170 44l-8 -45q-22 -4 -43 -4q-90 0 -73 98l116 657h56l-114 -647q-10 -59 28 -59h38zM306 257q-21 0 -34.5 15t-13.5 36q0 23 15 39t37 16q21 0 35 -15t14 -35q0 -24 -15.5 -40t-37.5 -16z" />
    <glyph glyph-name="Lslash" unicode="&#x141;" horiz-adv-x="417" 
d="M354 0h-248h-57l67 379l-76 -47l-16 42l102 63l46 261h57l-39 -222l129 81l16 -41l-155 -97l-65 -369h247z" />
    <glyph glyph-name="lslash" unicode="&#x142;" horiz-adv-x="250" 
d="M179 44l-8 -45q-24 -4 -43 -4q-91 0 -74 98l63 355l-62 -38l-15 41l87 54l43 245h57l-36 -206l66 42l15 -41l-91 -57l-68 -385q-11 -59 28 -59h38z" />
    <glyph glyph-name="Nacute" unicode="&#x143;" horiz-adv-x="614" 
d="M474 0h-73l-194 624h-1l-110 -624h-56l123 698h83l187 -605h1l107 605h56zM545 842l-157 -85l-23 38l149 97z" />
    <glyph glyph-name="nacute" unicode="&#x144;" horiz-adv-x="513" 
d="M385 0h-56l53 303q8 45 8 75q0 89 -70 89q-62 0 -121.5 -83t-76.5 -181l-36 -203h-57l89 506h48l-18 -131q30 61 78.5 101t103.5 40q118 0 118 -134q0 -23 -7 -67zM325 589l-34 28l106 132l47 -36z" />
    <glyph glyph-name="Ncommaaccent" unicode="&#x145;" horiz-adv-x="614" 
d="M474 0h-73l-194 624h-1l-110 -624h-56l123 698h83l187 -605h1l107 605h56zM75 -210l7 37q38 0 62.5 9.5t34.5 23t17 27t17.5 23t28.5 9.5q34 0 34 -36t-49 -64.5t-134 -28.5h-18z" />
    <glyph glyph-name="ncommaaccent" unicode="&#x146;" horiz-adv-x="513" 
d="M385 0h-56l53 303q8 45 8 75q0 89 -70 89q-62 0 -121.5 -83t-76.5 -181l-36 -203h-57l89 506h48l-18 -131q30 61 78.5 101t103.5 40q118 0 118 -134q0 -23 -7 -67zM25 -210l7 37q38 0 62.5 9.5t34.5 23t17 27t17.5 23t28.5 9.5q34 0 34 -36t-49 -64.5t-134 -28.5h-18z
" />
    <glyph glyph-name="Ncaron" unicode="&#x147;" horiz-adv-x="614" 
d="M474 0h-73l-194 624h-1l-110 -624h-56l123 698h83l187 -605h1l107 605h56zM527 855l-134 -96l-102 94l30 36l80 -68l102 68z" />
    <glyph glyph-name="ncaron" unicode="&#x148;" horiz-adv-x="513" 
d="M385 0h-56l53 303q8 45 8 75q0 89 -70 89q-62 0 -121.5 -83t-76.5 -181l-36 -203h-57l89 506h48l-18 -131q30 61 78.5 101t103.5 40q118 0 118 -134q0 -23 -7 -67zM311 590l-95 131l33 32l72 -90l104 90l26 -32z" />
    <glyph glyph-name="napostrophe" unicode="&#x149;" horiz-adv-x="513" 
d="M434 0h-56l53 303q8 45 8 75q0 89 -70 89q-62 0 -121.5 -83t-76.5 -181l-36 -203h-57l89 506h48l-18 -131q30 61 78.5 101t103.5 40q118 0 118 -134q0 -23 -7 -67zM73 544l-25 23q66 71 66 106q0 7 -4 18.5t-4 19.5q0 18 11 31.5t30 13.5q18 0 28.5 -11t10.5 -31
q0 -67 -113 -170z" />
    <glyph glyph-name="Eng" unicode="&#x14a;" horiz-adv-x="614" 
d="M256 -215l8 45h46q41 0 63 30t36 112l5 28h-13l-194 624h-1l-110 -624h-56l123 698h83l187 -605h1l107 605h56l-127 -718q-20 -113 -56.5 -156.5t-99.5 -43.5q-38 0 -58 5z" />
    <glyph glyph-name="eng" unicode="&#x14b;" horiz-adv-x="513" 
d="M179 -212l9 43h46q34 0 55 31t33 100l60 341q8 43 8 75q0 89 -70 89q-62 0 -121.5 -83t-76.5 -181l-36 -203h-57l89 506h48l-18 -131q30 61 78.5 101t103.5 40q118 0 118 -134q0 -23 -7 -67l-61 -344q-10 -59 -25.5 -98t-36.5 -58.5t-42 -26.5t-48 -7q-28 0 -49 7z" />
    <glyph glyph-name="Omacron" unicode="&#x14c;" horiz-adv-x="671" 
d="M284 -10q-113 0 -170.5 69t-57.5 187q0 55 11.5 115t38.5 122.5t66 112t100.5 81t136.5 31.5q112 0 169.5 -70t57.5 -186q0 -57 -11 -117t-37.5 -123t-65.5 -111.5t-101 -79.5t-137 -31zM297 40q86 0 151 64t95 155t30 189t-43 153.5t-134 55.5q-59 0 -107.5 -29t-79 -73
t-52 -100.5t-30 -108.5t-8.5 -98q0 -97 43.5 -152.5t134.5 -55.5zM541 762h-265l9 46h265z" />
    <glyph glyph-name="omacron" unicode="&#x14d;" horiz-adv-x="508" 
d="M202 -10q-83 0 -125.5 50t-42.5 139q0 61 17.5 120.5t49.5 108t82.5 78.5t110.5 30q83 0 125.5 -50.5t42.5 -139.5q0 -82 -29 -157.5t-90 -127t-141 -51.5zM210 39q87 0 138 84.5t51 196.5q0 147 -112 147q-88 0 -139 -85.5t-51 -198.5q0 -144 113 -144zM437 648h-239
l9 45h238z" />
    <glyph glyph-name="Obreve" unicode="&#x14e;" horiz-adv-x="671" 
d="M284 -10q-113 0 -170.5 69t-57.5 187q0 55 11.5 115t38.5 122.5t66 112t100.5 81t136.5 31.5q112 0 169.5 -70t57.5 -186q0 -57 -11 -117t-37.5 -123t-65.5 -111.5t-101 -79.5t-137 -31zM297 40q86 0 151 64t95 155t30 189t-43 153.5t-134 55.5q-59 0 -107.5 -29t-79 -73
t-52 -100.5t-30 -108.5t-8.5 -98q0 -97 43.5 -152.5t134.5 -55.5zM512 886h43q-25 -136 -136 -136q-45 0 -69 23t-24.5 53.5t2.5 59.5h43q-7 -39 5.5 -65t47.5 -26q34 0 57 23.5t31 67.5z" />
    <glyph glyph-name="obreve" unicode="&#x14f;" horiz-adv-x="508" 
d="M202 -10q-83 0 -125.5 50t-42.5 139q0 61 17.5 120.5t49.5 108t82.5 78.5t110.5 30q83 0 125.5 -50.5t42.5 -139.5q0 -82 -29 -157.5t-90 -127t-141 -51.5zM210 39q87 0 138 84.5t51 196.5q0 147 -112 147q-88 0 -139 -85.5t-51 -198.5q0 -144 113 -144zM405 746h43
q-26 -137 -136 -137q-45 0 -69 23t-24.5 53.5t2.5 60.5h43q-7 -39 5.5 -65.5t47.5 -26.5q34 0 57 24t31 68z" />
    <glyph glyph-name="Ohungarumlaut" unicode="&#x150;" horiz-adv-x="671" 
d="M284 -10q-113 0 -170.5 69t-57.5 187q0 55 11.5 115t38.5 122.5t66 112t100.5 81t136.5 31.5q112 0 169.5 -70t57.5 -186q0 -57 -11 -117t-37.5 -123t-65.5 -111.5t-101 -79.5t-137 -31zM297 40q86 0 151 64t95 155t30 189t-43 153.5t-134 55.5q-59 0 -107.5 -29t-79 -73
t-52 -100.5t-30 -108.5t-8.5 -98q0 -97 43.5 -152.5t134.5 -55.5zM663 862l-142 -121l-32 30l130 132zM473 862l-138 -121l-33 30l127 132z" />
    <glyph glyph-name="ohungarumlaut" unicode="&#x151;" horiz-adv-x="508" 
d="M202 -10q-83 0 -125.5 50t-42.5 139q0 61 17.5 120.5t49.5 108t82.5 78.5t110.5 30q83 0 125.5 -50.5t42.5 -139.5q0 -82 -29 -157.5t-90 -127t-141 -51.5zM210 39q87 0 138 84.5t51 196.5q0 147 -112 147q-88 0 -139 -85.5t-51 -198.5q0 -144 113 -144zM415 589l-35 30
l108 131l47 -38zM248 589l-34 29l105 132l48 -38z" />
    <glyph glyph-name="OE" unicode="&#x152;" horiz-adv-x="813" 
d="M699 0h-328q-48 -9 -87 -9q-113 0 -170.5 68.5t-57.5 186.5q0 55 11.5 115t38.5 122.5t66 111.5t100.5 80.5t136.5 31.5q42 0 83 -9h326l-9 -51h-264l-45 -259h232l-9 -50h-232l-51 -288h268zM383 56l103 584q-40 16 -90 16q-59 0 -107.5 -28.5t-79 -73t-52 -100.5
t-30 -108t-8.5 -98q0 -97 43.5 -152t134.5 -55q46 0 86 15z" />
    <glyph glyph-name="oe" unicode="&#x153;" horiz-adv-x="815" 
d="M703 65l4 -48q-73 -27 -156 -27q-131 0 -157 109q-73 -109 -192 -109q-83 0 -125.5 50t-42.5 139q0 61 17.5 120.5t49.5 108t82.5 78.5t110.5 30q122 0 156 -112q69 112 188 112q62 0 98 -31t36 -82q0 -36 -13.5 -63.5t-47 -51.5t-99 -37.5t-161.5 -14.5q-6 -37 -6 -68
q0 -65 27.5 -97t92.5 -32q67 0 138 26zM460 284q142 0 196.5 30t54.5 85q0 32 -21.5 50.5t-58.5 18.5q-64 0 -108 -51t-63 -133zM210 39q87 0 138 84.5t51 196.5q0 147 -112 147q-88 0 -139 -85.5t-51 -198.5q0 -144 113 -144z" />
    <glyph glyph-name="Racute" unicode="&#x154;" horiz-adv-x="501" 
d="M413 0h-67l-105 329h-85l-58 -329h-58l123 698h58h79q84 0 127 -39t43 -106q0 -81 -47.5 -139t-125.5 -77zM164 379h80q74 0 118.5 48.5t44.5 117.5q0 45 -27.5 73.5t-89.5 28.5h-78zM456 842l-157 -85l-23 38l149 97z" />
    <glyph glyph-name="racute" unicode="&#x155;" horiz-adv-x="333" 
d="M86 0h-57l89 506h46l-16 -131q31 57 71.5 99t76.5 42q28 0 59 -10l-19 -52q-23 9 -41 9q-40 0 -98.5 -84t-72.5 -164zM241 589l-34 28l106 132l47 -36z" />
    <glyph glyph-name="Rcommaaccent" unicode="&#x156;" horiz-adv-x="501" 
d="M413 0h-67l-105 329h-85l-58 -329h-58l123 698h58h79q84 0 127 -39t43 -106q0 -81 -47.5 -139t-125.5 -77zM164 379h80q74 0 118.5 48.5t44.5 117.5q0 45 -27.5 73.5t-89.5 28.5h-78zM30 -210l7 37q38 0 62.5 9.5t34.5 23t17 27t17.5 23t28.5 9.5q34 0 34 -36t-49 -64.5
t-134 -28.5h-18z" />
    <glyph glyph-name="rcommaaccent" unicode="&#x157;" horiz-adv-x="333" 
d="M86 0h-57l89 506h46l-16 -131q31 57 71.5 99t76.5 42q28 0 59 -10l-19 -52q-23 9 -41 9q-40 0 -98.5 -84t-72.5 -164zM-111 -210l7 37q38 0 62.5 9.5t34.5 23t17 27t17.5 23t28.5 9.5q34 0 34 -36t-49 -64.5t-134 -28.5h-18z" />
    <glyph glyph-name="Rcaron" unicode="&#x158;" horiz-adv-x="501" 
d="M413 0h-67l-105 329h-85l-58 -329h-58l123 698h58h79q84 0 127 -39t43 -106q0 -81 -47.5 -139t-125.5 -77zM164 379h80q74 0 118.5 48.5t44.5 117.5q0 45 -27.5 73.5t-89.5 28.5h-78zM447 855l-134 -96l-102 94l30 36l80 -68l102 68z" />
    <glyph glyph-name="rcaron" unicode="&#x159;" horiz-adv-x="333" 
d="M86 0h-57l89 506h46l-16 -131q31 57 71.5 99t76.5 42q28 0 59 -10l-19 -52q-23 9 -41 9q-40 0 -98.5 -84t-72.5 -164zM239 590l-95 131l33 32l72 -90l104 90l26 -32z" />
    <glyph glyph-name="Sacute" unicode="&#x15a;" horiz-adv-x="423" 
d="M1 9l18 54q61 -22 121 -22q73 0 117.5 48t44.5 115q0 41 -24 70t-78 67q-105 71 -105 163q0 82 56.5 143t161.5 61q57 0 99 -16l-18 -50q-42 15 -90 15q-73 0 -109.5 -43.5t-36.5 -102.5q0 -41 23.5 -70.5t75.5 -64.5q109 -75 109 -164q0 -91 -63 -156.5t-177 -65.5
q-63 0 -125 19zM442 842l-157 -85l-23 38l149 97z" />
    <glyph glyph-name="sacute" unicode="&#x15b;" horiz-adv-x="371" 
d="M4 10l16 53q54 -23 109 -23q51 0 81 26.5t30 69.5q0 30 -15.5 51t-63.5 52q-45 29 -65.5 58.5t-20.5 69.5q0 63 46 106t121 43q50 0 95 -16l-15 -49q-43 16 -87 16q-46 0 -73.5 -26.5t-27.5 -66.5q0 -30 15.5 -50.5t60.5 -47.5q50 -32 71 -61t21 -70q0 -68 -51 -111.5
t-131 -43.5q-65 0 -116 20zM249 589l-34 28l106 132l47 -36z" />
    <glyph glyph-name="Scircumflex" unicode="&#x15c;" horiz-adv-x="423" 
d="M1 9l18 54q61 -22 121 -22q73 0 117.5 48t44.5 115q0 41 -24 70t-78 67q-105 71 -105 163q0 82 56.5 143t161.5 61q57 0 99 -16l-18 -50q-42 15 -90 15q-73 0 -109.5 -43.5t-36.5 -102.5q0 -41 23.5 -70.5t75.5 -64.5q109 -75 109 -164q0 -91 -63 -156.5t-177 -65.5
q-63 0 -125 19zM392 759l-79 68l-102 -68l-24 34l134 96l101 -94z" />
    <glyph glyph-name="scircumflex" unicode="&#x15d;" horiz-adv-x="371" 
d="M4 10l16 53q54 -23 109 -23q51 0 81 26.5t30 69.5q0 30 -15.5 51t-63.5 52q-45 29 -65.5 58.5t-20.5 69.5q0 63 46 106t121 43q50 0 95 -16l-15 -49q-43 16 -87 16q-46 0 -73.5 -26.5t-27.5 -66.5q0 -30 15.5 -50.5t60.5 -47.5q50 -32 71 -61t21 -70q0 -68 -51 -111.5
t-131 -43.5q-65 0 -116 20zM361 622l-33 -32l-72 90l-104 -90l-26 32l140 131z" />
    <glyph glyph-name="Scedilla" unicode="&#x15e;" horiz-adv-x="423" 
d="M151 -61l-11 51q-68 -3 -139 19l18 54q61 -22 121 -22q73 0 117.5 48t44.5 115q0 41 -24 70t-78 67q-105 71 -105 163q0 82 56.5 143t161.5 61q57 0 99 -16l-18 -50q-42 15 -90 15q-73 0 -109.5 -43.5t-36.5 -102.5q0 -41 23.5 -70.5t75.5 -64.5q109 -75 109 -164
q0 -73 -44 -135t-132 -81l11 -45q7 -28 7 -44q0 -65 -103 -65q-46 0 -77 11l7 38h89q31 0 31 20q0 4 -4 28z" />
    <glyph glyph-name="scedilla" unicode="&#x15f;" horiz-adv-x="371" 
d="M132 -60l-10 50q-67 0 -118 20l16 53q54 -23 109 -23q51 0 81 26.5t30 69.5q0 30 -15.5 51t-63.5 52q-45 29 -65.5 58.5t-20.5 69.5q0 63 46 106t121 43q50 0 95 -16l-15 -49q-43 16 -87 16q-46 0 -73.5 -26.5t-27.5 -66.5q0 -30 15.5 -50.5t60.5 -47.5q50 -32 71 -61
t21 -70q0 -54 -34 -94.5t-96 -55.5l10 -44q8 -31 8 -44q0 -28 -25 -46.5t-78 -18.5q-47 0 -78 11l7 38h89q32 0 32 20q0 9 -5 29z" />
    <glyph glyph-name="Scaron" unicode="&#x160;" horiz-adv-x="423" 
d="M1 9l18 54q61 -22 121 -22q73 0 117.5 48t44.5 115q0 41 -24 70t-78 67q-105 71 -105 163q0 82 56.5 143t161.5 61q57 0 99 -16l-18 -50q-42 15 -90 15q-73 0 -109.5 -43.5t-36.5 -102.5q0 -41 23.5 -70.5t75.5 -64.5q109 -75 109 -164q0 -91 -63 -156.5t-177 -65.5
q-63 0 -125 19zM434 855l-134 -96l-102 94l30 36l80 -68l102 68z" />
    <glyph glyph-name="scaron" unicode="&#x161;" horiz-adv-x="371" 
d="M4 10l16 53q54 -23 109 -23q51 0 81 26.5t30 69.5q0 30 -15.5 51t-63.5 52q-45 29 -65.5 58.5t-20.5 69.5q0 63 46 106t121 43q50 0 95 -16l-15 -49q-43 16 -87 16q-46 0 -73.5 -26.5t-27.5 -66.5q0 -30 15.5 -50.5t60.5 -47.5q50 -32 71 -61t21 -70q0 -68 -51 -111.5
t-131 -43.5q-65 0 -116 20zM244 590l-95 131l33 32l72 -90l104 90l26 -32z" />
    <glyph glyph-name="uni0162" unicode="&#x162;" horiz-adv-x="466" 
d="M213 0h-60l115 647h-192l9 51h444l-9 -51h-192zM-5 -210l7 37q38 0 62.5 9.5t34.5 23t17 27t17.5 23t28.5 9.5q34 0 34 -36t-49 -64.5t-134 -28.5h-18z" />
    <glyph glyph-name="uni0163" unicode="&#x163;" horiz-adv-x="307" 
d="M228 43l-8 -42q-28 -7 -60 -7q-56 0 -80.5 28.5t-11.5 99.5l60 338h-74l8 46h73l39 148h44l-26 -148h117l-8 -46h-117l-59 -335q-9 -53 5.5 -67.5t56.5 -14.5h41zM-17 -210l7 37q38 0 62.5 9.5t34.5 23t17 27t17.5 23t28.5 9.5q34 0 34 -36t-49 -64.5t-134 -28.5h-18z
" />
    <glyph glyph-name="Tcaron" unicode="&#x164;" horiz-adv-x="466" 
d="M213 0h-60l115 647h-192l9 51h444l-9 -51h-192zM448 855l-134 -96l-102 94l30 36l80 -68l102 68z" />
    <glyph glyph-name="tcaron" unicode="&#x165;" horiz-adv-x="307" 
d="M228 43l-8 -42q-28 -7 -60 -7q-56 0 -80.5 28.5t-11.5 99.5l60 338h-74l8 46h73l39 148h44l-26 -148h117l-8 -46h-117l-59 -335q-9 -53 5.5 -67.5t56.5 -14.5h41zM309 563l-43 15l78 182l59 -17z" />
    <glyph glyph-name="Tbar" unicode="&#x166;" horiz-adv-x="467" 
d="M212 0h-59l60 340h-111l9 49h111l45 258h-192l9 51h444l-9 -51h-193l-45 -258h112l-9 -49h-112z" />
    <glyph glyph-name="tbar" unicode="&#x167;" horiz-adv-x="307" 
d="M227 43l-7 -42q-30 -7 -61 -7q-55 0 -79.5 28.5t-11.5 99.5l23 132h-66l8 45h66l28 161h-74l8 46h73l40 148h44l-26 -148h117l-8 -46h-117l-29 -161h108l-9 -45h-106l-23 -129q-10 -53 5 -67.5t56 -14.5h41z" />
    <glyph glyph-name="Utilde" unicode="&#x168;" horiz-adv-x="617" 
d="M467 250l79 448h56l-80 -452q-22 -125 -91.5 -190.5t-172.5 -65.5q-85 0 -134 48t-49 139q0 39 6 70l80 451h58l-79 -450q-6 -38 -6 -64q0 -70 34 -107t97 -37q78 0 131 53.5t71 156.5zM516 857l34 -28q-15 -31 -41.5 -49.5t-56.5 -18.5q-32 0 -62 21.5t-49 21.5
q-36 0 -60 -49l-33 29q16 31 42 49.5t56 18.5q32 0 62 -21.5t48 -21.5q36 0 60 48z" />
    <glyph glyph-name="utilde" unicode="&#x169;" horiz-adv-x="513" 
d="M383 0h-49l20 130q-30 -61 -78.5 -100.5t-103.5 -39.5q-118 0 -118 133q0 33 7 68l55 315h57l-54 -304q-7 -47 -7 -75q0 -89 70 -89q62 0 121.5 83.5t76.5 181.5l36 203h56zM442 721l31 -28q-38 -68 -99 -68q-31 0 -59 21.5t-46 21.5q-33 0 -62 -49l-31 29q40 68 99 68
q31 0 58.5 -21.5t45.5 -21.5q34 0 63 48z" />
    <glyph glyph-name="Umacron" unicode="&#x16a;" horiz-adv-x="617" 
d="M467 250l79 448h56l-80 -452q-22 -125 -91.5 -190.5t-172.5 -65.5q-85 0 -134 48t-49 139q0 39 6 70l80 451h58l-79 -450q-6 -38 -6 -64q0 -70 34 -107t97 -37q78 0 131 53.5t71 156.5zM514 762h-265l9 46h265z" />
    <glyph glyph-name="umacron" unicode="&#x16b;" horiz-adv-x="513" 
d="M383 0h-49l20 130q-30 -61 -78.5 -100.5t-103.5 -39.5q-118 0 -118 133q0 33 7 68l55 315h57l-54 -304q-7 -47 -7 -75q0 -89 70 -89q62 0 121.5 83.5t76.5 181.5l36 203h56zM438 648h-239l9 45h238z" />
    <glyph glyph-name="Ubreve" unicode="&#x16c;" horiz-adv-x="617" 
d="M467 250l79 448h56l-80 -452q-22 -125 -91.5 -190.5t-172.5 -65.5q-85 0 -134 48t-49 139q0 39 6 70l80 451h58l-79 -450q-6 -38 -6 -64q0 -70 34 -107t97 -37q78 0 131 53.5t71 156.5zM485 886h43q-25 -136 -136 -136q-45 0 -69 23t-24.5 53.5t2.5 59.5h43
q-7 -39 5.5 -65t47.5 -26q34 0 57 23.5t31 67.5z" />
    <glyph glyph-name="ubreve" unicode="&#x16d;" horiz-adv-x="513" 
d="M383 0h-49l20 130q-30 -61 -78.5 -100.5t-103.5 -39.5q-118 0 -118 133q0 33 7 68l55 315h57l-54 -304q-7 -47 -7 -75q0 -89 70 -89q62 0 121.5 83.5t76.5 181.5l36 203h56zM407 746h43q-26 -137 -136 -137q-45 0 -69 23t-24.5 53.5t2.5 60.5h43q-7 -39 5.5 -65.5
t47.5 -26.5q34 0 57 24t31 68z" />
    <glyph glyph-name="Uring" unicode="&#x16e;" horiz-adv-x="617" 
d="M467 250l79 448h56l-80 -452q-22 -125 -91.5 -190.5t-172.5 -65.5q-85 0 -134 48t-49 139q0 39 6 70l80 451h58l-79 -450q-6 -38 -6 -64q0 -70 34 -107t97 -37q78 0 131 53.5t71 156.5zM385 732q-35 0 -53 19.5t-18 49.5q0 49 29.5 80t73.5 31q34 0 52 -19t18 -49
q0 -50 -29 -81t-73 -31zM392 768q25 0 39.5 21.5t14.5 47.5q0 39 -36 39q-25 0 -40 -21.5t-15 -48.5q0 -38 37 -38z" />
    <glyph glyph-name="uring" unicode="&#x16f;" horiz-adv-x="513" 
d="M383 0h-49l20 130q-30 -61 -78.5 -100.5t-103.5 -39.5q-118 0 -118 133q0 33 7 68l55 315h57l-54 -304q-7 -47 -7 -75q0 -89 70 -89q62 0 121.5 83.5t76.5 181.5l36 203h56zM307 574q-35 0 -54 19.5t-19 52.5q0 47 27.5 78.5t72.5 31.5q34 0 53 -19.5t19 -52.5
q0 -47 -28.5 -78.5t-70.5 -31.5zM313 610q23 0 37.5 20.5t14.5 49.5q0 40 -36 40q-23 0 -38 -20t-15 -49q0 -41 37 -41z" />
    <glyph glyph-name="Uhungarumlaut" unicode="&#x170;" horiz-adv-x="617" 
d="M467 250l79 448h56l-80 -452q-22 -125 -91.5 -190.5t-172.5 -65.5q-85 0 -134 48t-49 139q0 39 6 70l80 451h58l-79 -450q-6 -38 -6 -64q0 -70 34 -107t97 -37q78 0 131 53.5t71 156.5zM627 862l-142 -121l-32 30l130 132zM437 862l-138 -121l-33 30l127 132z" />
    <glyph glyph-name="uhungarumlaut" unicode="&#x171;" horiz-adv-x="513" 
d="M383 0h-49l20 130q-30 -61 -78.5 -100.5t-103.5 -39.5q-118 0 -118 133q0 33 7 68l55 315h57l-54 -304q-7 -47 -7 -75q0 -89 70 -89q62 0 121.5 83.5t76.5 181.5l36 203h56zM402 589l-35 30l108 131l47 -38zM235 589l-34 29l105 132l48 -38z" />
    <glyph glyph-name="Uogonek" unicode="&#x172;" horiz-adv-x="617" 
d="M355 -148v-43q-30 -11 -68 -11q-87 0 -87 69q0 61 83 125q-16 -2 -25 -2q-100 0 -149.5 66.5t-27.5 190.5l80 451h58l-79 -451q-18 -100 15 -153.5t110 -53.5q78 0 131 53.5t71 156.5l79 448h56l-80 -452q-22 -120 -86 -184q-19 -19 -66.5 -51.5t-62.5 -46.5
q-48 -43 -48 -88q0 -33 36 -33q33 0 60 9z" />
    <glyph glyph-name="uogonek" unicode="&#x173;" horiz-adv-x="513" 
d="M391 -147l3 -43q-38 -12 -67 -12q-85 0 -85 70q0 36 23.5 68.5t68.5 68.5l20 125q-30 -61 -78.5 -100.5t-103.5 -39.5q-118 0 -118 133q0 33 7 68l55 315h57l-54 -304q-7 -47 -7 -75q0 -89 70 -89q62 0 121.5 83.5t76.5 181.5l36 203h56l-89 -506q-84 -67 -84 -122
q0 -35 37 -35q29 0 55 10z" />
    <glyph glyph-name="Wcircumflex" unicode="&#x174;" horiz-adv-x="884" 
d="M609 0h-70l-37 537l-2 95h-2l-35 -95l-218 -537h-68q-53 325 -74 698h62q9 -250 45 -554q3 -21 8 -83h1l40 107l213 530h75l37 -530q4 -48 4 -107h2q5 11 17.5 41.5t18.5 43.5q151 329 232 552h64q-144 -359 -313 -698zM620 759l-79 68l-102 -68l-24 34l134 96l101 -94z
" />
    <glyph glyph-name="wcircumflex" unicode="&#x175;" horiz-adv-x="700" 
d="M477 0h-61l-36 369l-5 74h-1l-30 -74l-158 -369h-65q-41 248 -53 506h57q4 -143 26 -360q1 -13 2.5 -28.5l3.5 -35l3 -29.5h1l38 92l158 361h61l35 -362l6 -91h1l18.5 44l20.5 48q89 195 150 361h59q-114 -277 -231 -506zM524 622l-33 -32l-72 90l-104 -90l-26 32
l140 131z" />
    <glyph glyph-name="Ycircumflex" unicode="&#x176;" horiz-adv-x="504" 
d="M232 0h-58l52 304q-82 172 -147 394h61q52 -194 124 -347q140 183 235 347h68q-147 -230 -283 -394zM425 759l-79 68l-102 -68l-24 34l134 96l101 -94z" />
    <glyph glyph-name="ycircumflex" unicode="&#x177;" horiz-adv-x="430" 
d="M-59 -212l10 43h44q27 0 58.5 35t90.5 134q-63 300 -78 506h56q15 -174 49 -364q5 -26 12 -79h1l39 79q87 174 160 364h59q-132 -318 -244 -506q-77 -130 -120 -175t-89 -45q-26 0 -48 8zM391 622l-33 -32l-72 90l-104 -90l-26 32l140 131z" />
    <glyph glyph-name="Ydieresis" unicode="&#x178;" horiz-adv-x="504" 
d="M232 0h-58l52 304q-82 172 -147 394h61q52 -194 124 -347q140 183 235 347h68q-147 -230 -283 -394zM433 763q-16 0 -27 11.5t-11 27.5q0 18 12.5 31t28.5 13q17 0 27.5 -11.5t10.5 -28.5q0 -18 -12 -30.5t-29 -12.5zM245 763q-16 0 -27 11.5t-11 27.5q0 18 12.5 31
t28.5 13q17 0 27.5 -11.5t10.5 -28.5q0 -18 -12 -30.5t-29 -12.5z" />
    <glyph glyph-name="Zacute" unicode="&#x179;" horiz-adv-x="454" 
d="M373 0h-394l9 51l428 596h-313l9 51h380l-10 -51l-429 -596h328zM459 842l-157 -85l-23 38l149 97z" />
    <glyph glyph-name="zacute" unicode="&#x17a;" horiz-adv-x="410" 
d="M321 0h-326l9 50l318 406h-232l9 50h295l-8 -50l-318 -407h262zM265 589l-34 28l106 132l47 -36z" />
    <glyph glyph-name="Zdotaccent" unicode="&#x17b;" horiz-adv-x="454" 
d="M373 0h-394l9 51l428 596h-313l9 51h380l-10 -51l-429 -596h328zM316 755q-19 0 -31 13t-12 31q0 22 13 35.5t33 13.5q18 0 30.5 -12.5t12.5 -30.5q0 -22 -13.5 -36t-32.5 -14z" />
    <glyph glyph-name="zdotaccent" unicode="&#x17c;" horiz-adv-x="410" 
d="M321 0h-326l9 50l318 406h-232l9 50h295l-8 -50l-318 -407h262zM271 625q-19 0 -31 13t-12 31q0 22 13 35.5t33 13.5q18 0 30.5 -12.5t12.5 -30.5q0 -22 -13.5 -36t-32.5 -14z" />
    <glyph glyph-name="Zcaron" unicode="&#x17d;" horiz-adv-x="454" 
d="M373 0h-394l9 51l428 596h-313l9 51h380l-10 -51l-429 -596h328zM449 855l-134 -96l-102 94l30 36l80 -68l102 68z" />
    <glyph glyph-name="zcaron" unicode="&#x17e;" horiz-adv-x="410" 
d="M321 0h-326l9 50l318 406h-232l9 50h295l-8 -50l-318 -407h262zM262 590l-95 131l33 32l72 -90l104 90l26 -32z" />
    <glyph glyph-name="longs" unicode="&#x17f;" horiz-adv-x="218" 
d="M-144 -215l8 44h44q32 0 53.5 10.5t33.5 34t17.5 44t12.5 57.5l103 596q16 92 54 140t118 48q28 0 51 -5l-8 -45h-44q-32 0 -53 -10.5t-33 -34t-17.5 -43.5t-12.5 -57l-103 -596q-17 -92 -55 -140t-118 -48q-32 0 -51 5z" />
    <glyph glyph-name="florin" unicode="&#x192;" 
d="M-39 -123l10 46h46q65 0 93.5 37.5t45.5 111.5l59 265h-128l6 46h133l26 114q9 37 17 63t24 56.5t36 49t53.5 31t75.5 12.5q19 0 49 -5l-11 -44h-46q-35 0 -59.5 -11.5t-39.5 -35t-23 -46.5t-16 -59l-29 -125h147l-7 -46h-150l-54 -242q-11 -51 -23 -84t-35.5 -68
t-62.5 -52.5t-95 -17.5q-10 0 -42 4z" />
    <glyph glyph-name="Gcaron" unicode="&#x1e6;" horiz-adv-x="597" 
d="M420 62l52 295h58l-59 -330q-88 -36 -179 -36q-116 0 -176.5 68.5t-60.5 188.5q0 60 13 122.5t42 122.5t70 107t101.5 76t132.5 29q98 0 172 -56l-28 -47q-68 52 -153 52q-74 0 -132 -41.5t-90.5 -105.5t-49 -129.5t-16.5 -124.5q0 -100 46 -155.5t133 -55.5q61 0 124 20
zM541 855l-134 -96l-102 94l30 36l80 -68l102 68z" />
    <glyph glyph-name="gcaron" unicode="&#x1e7;" horiz-adv-x="498" 
d="M21 -210l10 44q55 -3 108 -3q82 0 119.5 37t55.5 141q11 66 26 123q-31 -62 -77.5 -101t-100.5 -39q-65 0 -96 44t-31 121q0 45 8.5 91.5t28.5 94.5t49.5 84.5t75 60t101.5 23.5q83 0 156 -25l-84 -479q-22 -124 -72.5 -175.5t-161.5 -51.5q-60 0 -115 10zM367 311
l23 133q-46 22 -97 22q-53 0 -93.5 -31t-62 -79.5t-31.5 -97.5t-10 -95q0 -123 76 -123q60 0 118.5 84t76.5 187zM318 590l-95 131l33 32l72 -90l104 90l26 -32z" />
    <glyph glyph-name="Aringacute" unicode="&#x1fa;" horiz-adv-x="571" 
d="M493 0h-62l-22 200h-278q-26 -53 -90 -200h-63q169 376 349 698h56q70 -324 110 -698zM153 250h249q-25 185 -45 305q-3 15 -7.5 45.5t-5.5 34.5h-1l-40 -80zM361 717q-33 0 -52.5 17.5t-19.5 48.5q0 43 28.5 72t73.5 29q33 0 52 -17t19 -47q0 -46 -29 -74.5t-72 -28.5z
M368 753q24 0 38.5 18t14.5 43q0 34 -37 34q-24 0 -39 -18t-15 -42q0 -35 38 -35zM522 930l-165 -35l-10 36l166 48z" />
    <glyph glyph-name="aringacute" unicode="&#x1fb;" horiz-adv-x="498" 
d="M369 0h-50l20 130q-31 -62 -77.5 -101t-100.5 -39q-65 0 -95.5 44t-30.5 120q0 46 8.5 93t28.5 95t49.5 85t75 60.5t101.5 23.5q83 0 156 -25zM366 309l24 135q-46 22 -97 22q-53 0 -93.5 -31t-62 -80t-31.5 -98.5t-10 -96.5q0 -122 75 -122q60 0 118.5 84t76.5 187z
M317 567q-35 0 -53.5 19.5t-18.5 52.5q0 47 27.5 79t71.5 32q34 0 53 -19.5t19 -52.5q0 -47 -28.5 -79t-70.5 -32zM323 604q23 0 37.5 20.5t14.5 48.5q0 40 -36 40q-23 0 -38 -20t-15 -49q0 -40 37 -40zM477 843l-157 -56l-16 36l156 70z" />
    <glyph glyph-name="AEacute" unicode="&#x1fc;" horiz-adv-x="762" 
d="M651 0h-264h-58l30 173h-239l-108 -173h-65q211 337 479 698h26h58h253l-10 -52h-252l-45 -257h227l-9 -51h-228l-51 -287h264zM368 222l75 424h-2q-161 -228 -287 -424h214zM694 842l-157 -85l-23 38l149 97z" />
    <glyph glyph-name="aeacute" unicode="&#x1fd;" horiz-adv-x="746" 
d="M634 65l4 -48q-73 -27 -156 -27q-134 0 -157 107q-25 -47 -73.5 -77t-106.5 -30q-61 0 -95 30.5t-34 84.5q0 82 66 131.5t211 49.5h41l8 46q4 24 4 48q0 44 -22 65t-71 21q-64 0 -136 -29l-5 48q78 31 159 31q112 0 128 -88q67 88 170 88q62 0 98 -31t36 -82
q0 -38 -15 -66.5t-50.5 -51.5t-99.5 -34.5t-156 -11.5q-6 -35 -6 -70q0 -65 28 -97.5t92 -32.5q66 0 138 26zM392 286q99 0 156 15.5t75.5 38.5t18.5 59q0 32 -21.5 50.5t-58.5 18.5q-63 0 -107 -50.5t-63 -131.5zM320 210l5 29h-39q-206 0 -206 -126q0 -35 19.5 -55
t53.5 -20q66 0 110.5 50.5t56.5 121.5zM457 589l-34 28l106 132l47 -36z" />
    <glyph glyph-name="Oslashacute" unicode="&#x1fe;" horiz-adv-x="671" 
d="M85 -87l-41 25l74 111q-62 63 -62 189q0 58 11.5 119t38.5 125t66 113.5t100.5 81t136.5 31.5q79 0 131 -33l63 96l42 -26l-67 -101q59 -63 59 -184q0 -58 -11 -118.5t-37.5 -124.5t-65 -113.5t-101 -81.5t-138.5 -32q-74 0 -127 29zM542 591l-352 -524q39 -27 107 -27
q86 0 150.5 64t95 156.5t30.5 194.5q0 92 -31 136zM154 102l353 526q-41 29 -111 29q-71 0 -126.5 -40.5t-86.5 -105t-47 -134t-16 -136.5q0 -93 34 -139zM582 842l-157 -85l-23 38l149 97z" />
    <glyph glyph-name="oslashacute" unicode="&#x1ff;" horiz-adv-x="508" 
d="M61 -91l-39 22l63 97q-51 46 -51 146q0 86 29 162.5t91 128t144 51.5q53 0 88 -19l67 102l39 -22l-70 -106q46 -46 46 -140q0 -85 -29.5 -161.5t-91 -128t-143.5 -51.5q-50 0 -81 14zM119 80l237 371q-25 16 -66 16q-90 0 -141.5 -85.5t-51.5 -200.5q0 -72 22 -101z
M387 418l-234 -368q26 -11 58 -11q90 0 142 84t52 197q0 65 -18 98zM337 589l-34 28l106 132l47 -36z" />
    <glyph glyph-name="Scommaaccent" unicode="&#x218;" horiz-adv-x="423" 
d="M1 9l18 54q61 -22 121 -22q73 0 117.5 48t44.5 115q0 41 -24 70t-78 67q-105 71 -105 163q0 82 56.5 143t161.5 61q57 0 99 -16l-18 -50q-42 15 -90 15q-73 0 -109.5 -43.5t-36.5 -102.5q0 -41 23.5 -70.5t75.5 -64.5q109 -75 109 -164q0 -91 -63 -156.5t-177 -65.5
q-63 0 -125 19zM-26 -210l7 37q38 0 62.5 9.5t34.5 23t17 27t17.5 23t28.5 9.5q34 0 34 -36t-49 -64.5t-134 -28.5h-18z" />
    <glyph glyph-name="scommaaccent" unicode="&#x219;" horiz-adv-x="371" 
d="M4 10l16 53q54 -23 109 -23q51 0 81 26.5t30 69.5q0 30 -15.5 51t-63.5 52q-45 29 -65.5 58.5t-20.5 69.5q0 63 46 106t121 43q50 0 95 -16l-15 -49q-43 16 -87 16q-46 0 -73.5 -26.5t-27.5 -66.5q0 -30 15.5 -50.5t60.5 -47.5q50 -32 71 -61t21 -70q0 -68 -51 -111.5
t-131 -43.5q-65 0 -116 20zM-38 -210l7 37q38 0 62.5 9.5t34.5 23t17 27t17.5 23t28.5 9.5q34 0 34 -36t-49 -64.5t-134 -28.5h-18z" />
    <glyph glyph-name="Tcommaaccent" unicode="&#x21a;" horiz-adv-x="466" 
d="M213 0h-60l115 647h-192l9 51h444l-9 -51h-192zM-5 -210l7 37q38 0 62.5 9.5t34.5 23t17 27t17.5 23t28.5 9.5q34 0 34 -36t-49 -64.5t-134 -28.5h-18z" />
    <glyph glyph-name="tcommaaccent" unicode="&#x21b;" horiz-adv-x="307" 
d="M228 43l-8 -42q-28 -7 -60 -7q-56 0 -80.5 28.5t-11.5 99.5l60 338h-74l8 46h73l39 148h44l-26 -148h117l-8 -46h-117l-59 -335q-9 -53 5.5 -67.5t56.5 -14.5h41zM-17 -210l7 37q38 0 62.5 9.5t34.5 23t17 27t17.5 23t28.5 9.5q34 0 34 -36t-49 -64.5t-134 -28.5h-18z
" />
    <glyph glyph-name="dotlessj" unicode="&#x237;" horiz-adv-x="225" 
d="M-112 -212l10 43h45q35 0 56.5 31t33.5 100l95 544h57l-94 -534q-10 -60 -26.5 -99.5t-37.5 -58.5t-42 -26t-48 -7q-28 0 -49 7z" />
    <glyph glyph-name="apostrophe" unicode="&#x2bc;" horiz-adv-x="49" 
d="M73 544l-25 23q66 71 66 106q0 7 -4 18.5t-4 19.5q0 18 11 31.5t30 13.5q18 0 28.5 -11t10.5 -31q0 -67 -113 -170z" />
    <glyph glyph-name="circumflex" unicode="&#x2c6;" horiz-adv-x="308" 
d="M294 622l-33 -32l-72 90l-104 -90l-26 32l140 131z" />
    <glyph glyph-name="caron" unicode="&#x2c7;" horiz-adv-x="308" 
d="M172 590l-95 131l33 32l72 -90l104 90l26 -32z" />
    <glyph glyph-name="breve" unicode="&#x2d8;" horiz-adv-x="239" 
d="M265 746h43q-26 -137 -136 -137q-45 0 -69 23t-24.5 53.5t2.5 60.5h43q-7 -39 5.5 -65.5t47.5 -26.5q34 0 57 24t31 68z" />
    <glyph glyph-name="dotaccent" unicode="&#x2d9;" horiz-adv-x="238" 
d="M186 625q-19 0 -31 13t-12 31q0 22 13 35.5t33 13.5q18 0 30.5 -12.5t12.5 -30.5q0 -22 -13.5 -36t-32.5 -14z" />
    <glyph glyph-name="ring" unicode="&#x2da;" horiz-adv-x="220" 
d="M137 574q-35 0 -54 19.5t-19 52.5q0 47 27.5 78.5t72.5 31.5q34 0 53 -19.5t19 -52.5q0 -47 -28.5 -78.5t-70.5 -31.5zM143 610q23 0 37.5 20.5t14.5 49.5q0 40 -36 40q-23 0 -38 -20t-15 -49q0 -41 37 -41z" />
    <glyph glyph-name="ogonek" unicode="&#x2db;" horiz-adv-x="245" 
d="M134 -149v-41q-28 -11 -64 -11q-83 0 -83 67q0 64 88 134h52q-83 -66 -83 -123q0 -34 35 -34q29 0 55 8z" />
    <glyph glyph-name="tilde" unicode="&#x2dc;" horiz-adv-x="353" 
d="M330 721l31 -28q-38 -68 -99 -68q-31 0 -59 21.5t-46 21.5q-33 0 -62 -49l-31 29q40 68 99 68q31 0 58.5 -21.5t45.5 -21.5q34 0 63 48z" />
    <glyph glyph-name="hungarumlaut" unicode="&#x2dd;" horiz-adv-x="317" 
d="M263 589l-35 30l108 131l47 -38zM96 589l-34 29l105 132l48 -38z" />
    <glyph glyph-name="commaaccentaboverev" unicode="&#x312;" horiz-adv-x="399" 
d="M420 725l-6 -37q-38 0 -62.5 -9.5t-35 -23t-17.5 -27t-17 -23t-28 -9.5q-16 0 -25 10t-9 26q0 36 48.5 64.5t133.5 28.5h18z" />
    <glyph glyph-name="caroncomma" unicode="&#x315;" horiz-adv-x="343" 
d="M242 563l-43 15l78 182l59 -17z" />
    <glyph glyph-name="commaaccent" unicode="&#x326;" horiz-adv-x="443" 
d="M-19 -210l7 37q38 0 62.5 9.5t34.5 23t17 27t17.5 23t28.5 9.5q34 0 34 -36t-49 -64.5t-134 -28.5h-18z" />
    <glyph glyph-name="tonos" unicode="&#x384;" horiz-adv-x="135" 
d="M124 588l-46 6l53 154l59 -7z" />
    <glyph glyph-name="dieresistonos" unicode="&#x385;" horiz-adv-x="308" 
d="M286 633q-16 0 -26.5 11.5t-10.5 27.5q0 18 12 30t29 12q16 0 26.5 -11t10.5 -27q0 -19 -12 -31t-29 -12zM102 633q-16 0 -26.5 11.5t-10.5 27.5q0 18 12 30t29 12q16 0 26.5 -11t10.5 -27q0 -19 -12 -31t-29 -12zM185 588l-44 6l53 154l56 -7z" />
    <glyph glyph-name="Alphatonos" unicode="&#x386;" horiz-adv-x="571" 
d="M493 0h-62l-22 200h-278q-26 -53 -90 -200h-63q169 376 349 698h56q70 -324 110 -698zM153 250h249q-25 185 -45 305q-3 15 -7.5 45.5t-5.5 34.5h-1l-40 -80zM192 588l-46 6l53 154l59 -7z" />
    <glyph glyph-name="anoteleia" unicode="&#x387;" horiz-adv-x="238" 
d="M156 458q-21 0 -34.5 15t-13.5 36q0 23 15 39t37 16q21 0 35 -15t14 -35q0 -24 -15.5 -40t-37.5 -16z" />
    <glyph glyph-name="Epsilontonos" unicode="&#x388;" horiz-adv-x="479" 
d="M365 0h-267h-58l123 698h58h263l-9 -51h-263l-45 -258h230l-9 -50h-231l-51 -289h268zM53 588l-46 6l53 154l59 -7z" />
    <glyph glyph-name="Etatonos" unicode="&#x389;" horiz-adv-x="602" 
d="M462 0h-57l59 340h-307l-59 -340h-58l123 698h58l-54 -307h307l54 307h57zM52 588l-46 6l53 154l59 -7z" />
    <glyph glyph-name="Iotatonos" unicode="&#x38a;" horiz-adv-x="240" 
d="M99 0h-59l123 698h60zM52 588l-46 6l53 154l59 -7z" />
    <glyph glyph-name="Omicrontonos" unicode="&#x38c;" horiz-adv-x="671" 
d="M284 -10q-113 0 -170.5 69t-57.5 187q0 55 11.5 115t38.5 122.5t66 112t100.5 81t136.5 31.5q112 0 169.5 -70t57.5 -186q0 -57 -11 -117t-37.5 -123t-65.5 -111.5t-101 -79.5t-137 -31zM297 40q86 0 151 64t95 155t30 189t-43 153.5t-134 55.5q-59 0 -107.5 -29t-79 -73
t-52 -100.5t-30 -108.5t-8.5 -98q0 -97 43.5 -152.5t134.5 -55.5zM95 588l-46 6l53 154l59 -7z" />
    <glyph glyph-name="Upsilontonos" unicode="&#x38e;" horiz-adv-x="504" 
d="M232 0h-58l52 304q-82 172 -147 394h61q52 -194 124 -347q140 183 235 347h68q-147 -230 -283 -394zM-6 588l-46 6l53 154l59 -7z" />
    <glyph glyph-name="Omegatonos" unicode="&#x38f;" horiz-adv-x="674" 
d="M582 0h-232l8 50q97 59 156.5 172.5t59.5 237.5q0 90 -41 143.5t-127 53.5q-67 0 -120.5 -34.5t-85.5 -89.5t-49 -118t-17 -126q0 -162 100 -239l-8 -50h-232l8 50h166q-42 36 -69 100.5t-27 145.5q0 55 13.5 112t41.5 111t67.5 96t96.5 67.5t123 25.5q108 0 166.5 -65
t58.5 -179q0 -128 -65 -244.5t-149 -169.5h165zM100 588l-46 6l53 154l59 -7z" />
    <glyph glyph-name="iotadieresistonos" unicode="&#x390;" horiz-adv-x="275" 
d="M211 43l-8 -43q-32 -6 -50 -6q-49 0 -72 28t-10 99l59 339h-78l8 46h135l-67 -383q-8 -49 4 -64.5t47 -15.5h32zM291 633q-16 0 -26.5 11.5t-10.5 27.5q0 18 12 30t29 12q16 0 26.5 -11t10.5 -27q0 -19 -12 -31t-29 -12zM107 633q-16 0 -26.5 11.5t-10.5 27.5q0 18 12 30
t29 12q16 0 26.5 -11t10.5 -27q0 -19 -12 -31t-29 -12zM190 588l-44 6l53 154l56 -7z" />
    <glyph glyph-name="Alpha" unicode="&#x391;" horiz-adv-x="571" 
d="M493 0h-62l-22 200h-278q-26 -53 -90 -200h-63q169 376 349 698h56q70 -324 110 -698zM153 250h249q-25 185 -45 305q-3 15 -7.5 45.5t-5.5 34.5h-1l-40 -80z" />
    <glyph glyph-name="Beta" unicode="&#x392;" horiz-adv-x="505" 
d="M218 0h-120h-58l123 698h58h90q75 0 114 -36.5t39 -98.5q0 -60 -28.5 -112.5t-82.5 -81.5q41 -10 66 -47.5t25 -90.5q0 -91 -59.5 -161t-166.5 -70zM166 387h99q69 0 102.5 51.5t33.5 117.5q0 92 -104 92h-85zM106 50h122q66 0 110 51.5t44 125.5q0 53 -31.5 81.5
t-92.5 28.5h-101z" />
    <glyph glyph-name="Gamma" unicode="&#x393;" horiz-adv-x="408" 
d="M98 0h-58l122 698h296l-9 -51h-238z" />
    <glyph glyph-name="Epsilon" unicode="&#x395;" horiz-adv-x="479" 
d="M365 0h-267h-58l123 698h58h263l-9 -51h-263l-45 -258h230l-9 -50h-231l-51 -289h268z" />
    <glyph glyph-name="Zeta" unicode="&#x396;" horiz-adv-x="454" 
d="M373 0h-394l9 51l428 596h-313l9 51h380l-10 -51l-429 -596h328z" />
    <glyph glyph-name="Eta" unicode="&#x397;" horiz-adv-x="602" 
d="M462 0h-57l59 340h-307l-59 -340h-58l123 698h58l-54 -307h307l54 307h57z" />
    <glyph glyph-name="Theta" unicode="&#x398;" horiz-adv-x="671" 
d="M284 -10q-113 0 -170.5 69t-57.5 187q0 55 11.5 115t38.5 122.5t66 112t100.5 81t136.5 31.5q112 0 169.5 -70t57.5 -186q0 -57 -11 -117t-37.5 -123t-65.5 -111.5t-101 -79.5t-137 -31zM297 40q86 0 151 64t95 155t30 189t-43 153.5t-134 55.5q-59 0 -107.5 -29t-79 -73
t-52 -100.5t-30 -108.5t-8.5 -98q0 -97 43.5 -152.5t134.5 -55.5zM462 321h-244l8 50h245z" />
    <glyph glyph-name="Iota" unicode="&#x399;" horiz-adv-x="240" 
d="M99 0h-59l123 698h60z" />
    <glyph glyph-name="Kappa" unicode="&#x39a;" horiz-adv-x="521" 
d="M444 0h-67l-172 364l-52 -46l-55 -318h-58l120 698h58l-53 -310l320 310h82l-319 -296z" />
    <glyph glyph-name="Lambda" unicode="&#x39b;" horiz-adv-x="572" 
d="M494 0h-62q-19 240 -73 556q-12 75 -12 79h-1l-13 -25.5l-15 -29.5t-12 -25q-171 -336 -264 -555h-64q163 362 350 698h57q70 -319 109 -698z" />
    <glyph glyph-name="Mu" unicode="&#x39c;" horiz-adv-x="796" 
d="M665 0h-59q55 341 69 621h-1l-299 -621h-58l-80 621h-2q-87 -311 -145 -621h-59q69 363 176 698h81l76 -601h2l286 601h86q-15 -332 -73 -698z" />
    <glyph glyph-name="Nu" unicode="&#x39d;" horiz-adv-x="614" 
d="M474 0h-73l-194 624h-1l-110 -624h-56l123 698h83l187 -605h1l107 605h56z" />
    <glyph glyph-name="Xi" unicode="&#x39e;" horiz-adv-x="448" 
d="M470 646h-365l9 52h365zM379 338h-292l9 52h292zM356 0h-365l9 52h365z" />
    <glyph glyph-name="Omicron" unicode="&#x39f;" horiz-adv-x="671" 
d="M284 -10q-113 0 -170.5 69t-57.5 187q0 55 11.5 115t38.5 122.5t66 112t100.5 81t136.5 31.5q112 0 169.5 -70t57.5 -186q0 -57 -11 -117t-37.5 -123t-65.5 -111.5t-101 -79.5t-137 -31zM297 40q86 0 151 64t95 155t30 189t-43 153.5t-134 55.5q-59 0 -107.5 -29t-79 -73
t-52 -100.5t-30 -108.5t-8.5 -98q0 -97 43.5 -152.5t134.5 -55.5z" />
    <glyph glyph-name="Pi" unicode="&#x3a0;" horiz-adv-x="602" 
d="M462 0h-57l113 647h-307l-113 -647h-58l122 698h423z" />
    <glyph glyph-name="Rho" unicode="&#x3a1;" horiz-adv-x="494" 
d="M98 0h-58l123 698h58h88q41 0 73 -9q49 -14 76 -53t27 -99q0 -104 -66 -179t-171 -75h-101zM157 334h100q78 0 121.5 62t43.5 136q0 88 -68 108q-22 7 -52 7h-90z" />
    <glyph glyph-name="Sigma" unicode="&#x3a3;" horiz-adv-x="432" 
d="M348 0h-365l8 51l254 310l-144 286l9 51h360l-9 -51h-295l146 -291l-250 -305h294z" />
    <glyph glyph-name="Tau" unicode="&#x3a4;" horiz-adv-x="466" 
d="M213 0h-60l115 647h-192l9 51h444l-9 -51h-192z" />
    <glyph glyph-name="Upsilon" unicode="&#x3a5;" horiz-adv-x="504" 
d="M232 0h-58l52 304q-82 172 -147 394h61q52 -194 124 -347q140 183 235 347h68q-147 -230 -283 -394z" />
    <glyph glyph-name="Phi" unicode="&#x3a6;" horiz-adv-x="700" 
d="M309 -107h-57l19 107q-60 4 -103 26t-66.5 58t-34 77t-10.5 90q0 193 99.5 315.5t237.5 131.5l18 104h57l-18 -104q60 -4 103 -26.5t66.5 -58t34 -75.5t10.5 -87q0 -193 -99.5 -317.5t-236.5 -133.5zM280 51l105 595q-109 -10 -187 -115.5t-78 -274.5q0 -195 160 -205z
M442 647l-105 -596q109 9 186.5 115.5t77.5 276.5q0 194 -159 204z" />
    <glyph glyph-name="Chi" unicode="&#x3a7;" horiz-adv-x="529" 
d="M464 0h-67l-128 316l-236 -316h-69l283 363l-141 335h66l114 -287l214 287h68l-259 -334z" />
    <glyph glyph-name="Psi" unicode="&#x3a8;" horiz-adv-x="672" 
d="M315 0h-58l29 172q-199 7 -199 170q0 26 7 63l52 293h58l-52 -294q-6 -32 -6 -58q0 -58 34 -89.5t115 -35.5l84 477h58l-84 -477q93 5 143.5 53t69.5 156l47 268h58l-47 -269q-42 -248 -280 -258z" />
    <glyph glyph-name="Omega" unicode="&#x3a9;" horiz-adv-x="674" 
d="M582 0h-232l8 50q97 59 156.5 172.5t59.5 237.5q0 90 -41 143.5t-127 53.5q-67 0 -120.5 -34.5t-85.5 -89.5t-49 -118t-17 -126q0 -162 100 -239l-8 -50h-232l8 50h166q-42 36 -69 100.5t-27 145.5q0 55 13.5 112t41.5 111t67.5 96t96.5 67.5t123 25.5q108 0 166.5 -65
t58.5 -179q0 -128 -65 -244.5t-149 -169.5h165z" />
    <glyph glyph-name="Omega" unicode="&#x2126;" horiz-adv-x="674" 
d="M582 0h-232l8 50q97 59 156.5 172.5t59.5 237.5q0 90 -41 143.5t-127 53.5q-67 0 -120.5 -34.5t-85.5 -89.5t-49 -118t-17 -126q0 -162 100 -239l-8 -50h-232l8 50h166q-42 36 -69 100.5t-27 145.5q0 55 13.5 112t41.5 111t67.5 96t96.5 67.5t123 25.5q108 0 166.5 -65
t58.5 -179q0 -128 -65 -244.5t-149 -169.5h165z" />
    <glyph glyph-name="Iotadieresis" unicode="&#x3aa;" horiz-adv-x="240" 
d="M99 0h-59l123 698h60zM292 763q-16 0 -27 11.5t-11 27.5q0 19 12 31.5t29 12.5q16 0 27 -11.5t11 -28.5q0 -18 -12 -30.5t-29 -12.5zM119 763q-16 0 -27 11.5t-11 27.5q0 18 12.5 31t28.5 13q17 0 27.5 -11.5t10.5 -28.5q0 -18 -12 -30.5t-29 -12.5z" />
    <glyph glyph-name="Upsilondieresis" unicode="&#x3ab;" horiz-adv-x="504" 
d="M232 0h-58l52 304q-82 172 -147 394h61q52 -194 124 -347q140 183 235 347h68q-147 -230 -283 -394zM433 763q-16 0 -27 11.5t-11 27.5q0 18 12.5 31t28.5 13q17 0 27.5 -11.5t10.5 -28.5q0 -18 -12 -30.5t-29 -12.5zM245 763q-16 0 -27 11.5t-11 27.5q0 18 12.5 31
t28.5 13q17 0 27.5 -11.5t10.5 -28.5q0 -18 -12 -30.5t-29 -12.5z" />
    <glyph glyph-name="alphatonos" unicode="&#x3ac;" horiz-adv-x="564" 
d="M479 43l-7 -44q-22 -5 -31 -5q-39 0 -52.5 29.5t-20.5 107.5q-81 -141 -192 -141q-71 0 -106.5 49.5t-35.5 141.5q0 142 70.5 238.5t171.5 96.5q68 0 97.5 -47t39.5 -131q23 65 49 168h59q-40 -140 -101 -278q5 -122 12.5 -153.5t31.5 -31.5h15zM367 231
q-4 121 -24.5 178.5t-74.5 57.5q-70 0 -120.5 -81t-50.5 -199q0 -148 92 -148q46 0 92 50.5t86 141.5zM324 588l-46 6l53 154l59 -7z" />
    <glyph glyph-name="epsilontonos" unicode="&#x3ad;" horiz-adv-x="401" 
d="M324 66v-49q-74 -27 -158 -27q-68 0 -109.5 33.5t-41.5 89.5q0 58 37 98t89 52q-28 10 -44 35.5t-16 57.5q0 71 55.5 115.5t138.5 44.5q73 0 131 -28l-21 -49q-56 28 -121 28q-53 0 -88 -29.5t-35 -78.5q0 -76 92 -76h83l-8 -47h-83q-70 0 -109 -31.5t-39 -83.5
q0 -38 26 -60t73 -22q70 0 148 27zM306 588l-46 6l53 154l59 -7z" />
    <glyph glyph-name="etatonos" unicode="&#x3ae;" horiz-adv-x="513" 
d="M348 -211h-56l90 514q8 45 8 75q0 89 -70 89q-62 0 -121.5 -83t-76.5 -181l-36 -203h-57l89 506h48l-18 -131q30 61 78.5 101t103.5 40q118 0 118 -134q0 -23 -7 -67zM329 588l-46 6l53 154l59 -7z" />
    <glyph glyph-name="iotatonos" unicode="&#x3af;" horiz-adv-x="275" 
d="M211 43l-8 -43q-32 -6 -50 -6q-49 0 -72 28t-10 99l59 339h-78l8 46h135l-67 -383q-8 -49 4 -64.5t47 -15.5h32zM192 588l-46 6l53 154l59 -7z" />
    <glyph glyph-name="upsilondieresistonos" unicode="&#x3b0;" horiz-adv-x="509" 
d="M59 183l57 323h57l-55 -312q-6 -32 -6 -63q0 -48 22 -70t71 -22q71 0 116.5 57t66.5 180q17 104 25 230h56q-9 -132 -25 -228q-26 -151 -88 -219.5t-159 -68.5q-143 0 -143 136q0 22 5 57zM415 633q-16 0 -26.5 11.5t-10.5 27.5q0 18 12 30t29 12q16 0 26.5 -11t10.5 -27
q0 -19 -12 -31t-29 -12zM231 633q-16 0 -26.5 11.5t-10.5 27.5q0 18 12 30t29 12q16 0 26.5 -11t10.5 -27q0 -19 -12 -31t-29 -12zM314 588l-44 6l53 154l56 -7z" />
    <glyph glyph-name="alpha" unicode="&#x3b1;" horiz-adv-x="559" 
d="M479 43l-7 -44q-22 -5 -31 -5q-39 0 -52.5 29.5t-20.5 107.5q-81 -141 -192 -141q-71 0 -106.5 49.5t-35.5 141.5q0 142 70.5 238.5t171.5 96.5q68 0 97.5 -47t39.5 -131q23 65 49 168h59q-40 -140 -101 -278q5 -122 12.5 -153.5t31.5 -31.5h15zM367 231
q-4 121 -24.5 178.5t-74.5 57.5q-70 0 -120.5 -81t-50.5 -199q0 -148 92 -148q46 0 92 50.5t86 141.5z" />
    <glyph glyph-name="beta" unicode="&#x3b2;" horiz-adv-x="506" 
d="M339 431q55 -5 87 -40t32 -98q0 -129 -76.5 -215.5t-186.5 -86.5q-74 0 -107 47t-33 137q0 171 62 338q40 107 105 174t151 67q58 0 88.5 -29.5t30.5 -81.5q0 -72 -45 -127t-108 -85zM141 399q152 44 221 98.5t69 139.5q0 68 -68 68q-73 0 -132 -85.5t-90 -220.5z
M132 345q-18 -97 -18 -169q0 -70 20.5 -103t70.5 -33q80 0 135.5 72t55.5 172q0 102 -98 102q-65 0 -166 -41z" />
    <glyph glyph-name="gamma" unicode="&#x3b3;" horiz-adv-x="429" 
d="M135 -211h-55l16 137q6 50 6.5 110.5t-2.5 112.5t-10.5 124t-13.5 116t-17 117h57q31 -216 39 -372q1 -25 1 -68h1q177 227 214 440h62q-23 -131 -90.5 -250t-183.5 -256q-2 -23 -24 -211z" />
    <glyph glyph-name="delta" unicode="&#x3b4;" horiz-adv-x="494" 
d="M273 468q-80 -32 -130 -110.5t-50 -178.5q0 -67 28.5 -103.5t84.5 -36.5q75 0 129 74.5t54 177.5q0 57 -28 98.5t-88 78.5zM492 730l-22 -49q-63 26 -117 26q-55 0 -86.5 -25.5t-31.5 -68.5q0 -28 22.5 -52.5t54.5 -46.5t63.5 -48t54 -69.5t22.5 -99.5q0 -130 -75 -218.5
t-181 -88.5q-77 0 -121.5 48t-44.5 134q0 109 55 196t147 132q-55 46 -55 104q0 66 52 109.5t134 43.5q64 0 129 -27z" />
    <glyph glyph-name="epsilon" unicode="&#x3b5;" horiz-adv-x="403" 
d="M324 66v-49q-74 -27 -158 -27q-68 0 -109.5 33.5t-41.5 89.5q0 58 37 98t89 52q-28 10 -44 35.5t-16 57.5q0 71 55.5 115.5t138.5 44.5q73 0 131 -28l-21 -49q-56 28 -121 28q-53 0 -88 -29.5t-35 -78.5q0 -76 92 -76h83l-8 -47h-83q-70 0 -109 -31.5t-39 -83.5
q0 -38 26 -60t73 -22q70 0 148 27z" />
    <glyph glyph-name="zeta" unicode="&#x3b6;" horiz-adv-x="337" 
d="M192 -221l-41 23q75 93 75 138q0 21 -21.5 35.5t-77.5 30.5q-55 16 -79 47.5t-24 86.5q0 93 57 213.5t123.5 208.5t123.5 138h-196l8 50h271l-8 -45q-108 -78 -213 -255t-105 -305q0 -37 16 -57t60 -33q69 -20 96 -43t27 -57q0 -71 -92 -176z" />
    <glyph glyph-name="eta" unicode="&#x3b7;" horiz-adv-x="513" 
d="M348 -211h-56l90 514q8 45 8 75q0 89 -70 89q-62 0 -121.5 -83t-76.5 -181l-36 -203h-57l89 506h48l-18 -131q30 61 78.5 101t103.5 40q118 0 118 -134q0 -23 -7 -67z" />
    <glyph glyph-name="theta" unicode="&#x3b8;" horiz-adv-x="515" 
d="M382 506h45q3 51 3 63q0 140 -76 140q-41 0 -66 -31.5t-25 -84.5q0 -87 119 -87zM533 457h-55q-32 -245 -100.5 -356t-177.5 -111q-69 0 -107.5 46t-38.5 139q0 102 61 331h57q-60 -228 -60 -326q0 -74 24 -107.5t73 -33.5q79 0 131.5 98.5t80.5 319.5h-49
q-76 0 -121.5 35.5t-45.5 97.5q0 70 45.5 119t112.5 49q124 0 124 -182q0 -32 -4 -70h59z" />
    <glyph glyph-name="iota" unicode="&#x3b9;" horiz-adv-x="275" 
d="M211 43l-8 -43q-32 -6 -50 -6q-49 0 -72 28t-10 99l59 339h-78l8 46h135l-67 -383q-8 -49 4 -64.5t47 -15.5h32z" />
    <glyph glyph-name="kappa" unicode="&#x3ba;" horiz-adv-x="450" 
d="M377 0h-67l-140 264l-45 -37l-39 -227h-57l87 506h57l-38 -215q68 58 238 215h82l-243 -207z" />
    <glyph glyph-name="lambda" unicode="&#x3bb;" horiz-adv-x="426" 
d="M357 0h-58l-60 431h-1l-52 -102q-91 -180 -159 -329h-61q110 237 263 506l-16 114q-7 52 -21 70t-38 18h-30l8 44q22 5 32 5q44 0 68.5 -25t33.5 -91z" />
    <glyph glyph-name="nu" unicode="&#x3bd;" horiz-adv-x="427" 
d="M188 0h-53q-39 221 -70 506h57q28 -272 55 -443h1q128 193 197 443h59q-37 -138 -94 -254t-152 -252z" />
    <glyph glyph-name="xi" unicode="&#x3be;" horiz-adv-x="361" 
d="M204 -221l-41 23q75 91 75 138q0 21 -21 36t-78 30q-60 18 -89 50.5t-29 87.5q0 91 51 161t111 92q-65 33 -65 122q0 100 64 168t150 68q41 0 83 -11l-17 -49q-44 11 -76 11q-57 0 -100.5 -52.5t-43.5 -131.5q0 -46 22.5 -73t65.5 -27h70l-9 -50h-47q-89 0 -143 -66.5
t-54 -152.5q0 -40 19 -61.5t72 -36.5q69 -20 96 -43.5t27 -56.5q0 -31 -16 -65.5t-33 -57t-44 -53.5z" />
    <glyph glyph-name="omicron" unicode="&#x3bf;" horiz-adv-x="508" 
d="M202 -10q-83 0 -125.5 50t-42.5 139q0 61 17.5 120.5t49.5 108t82.5 78.5t110.5 30q83 0 125.5 -50.5t42.5 -139.5q0 -82 -29 -157.5t-90 -127t-141 -51.5zM210 39q87 0 138 84.5t51 196.5q0 147 -112 147q-88 0 -139 -85.5t-51 -198.5q0 -144 113 -144z" />
    <glyph glyph-name="pi" unicode="&#x3c0;" horiz-adv-x="529" 
d="M461 43l-8 -43q-18 -6 -46 -6q-40 0 -59.5 23.5t-19.5 78.5q0 93 44 364h-172q-50 -273 -127 -460h-58q81 188 130 460h-84l8 46h473l-8 -46h-106q-43 -265 -43 -355q0 -37 10 -49.5t41 -12.5h25z" />
    <glyph glyph-name="rho" unicode="&#x3c1;" horiz-adv-x="499" 
d="M35 -211h-57l83 469q44 258 241 258q71 0 112 -45t41 -129q0 -152 -76 -250t-195 -98q-64 0 -108 24zM116 246l-32 -177q52 -27 110 -27q87 0 143 83.5t56 209.5q0 133 -101 133q-137 0 -176 -222z" />
    <glyph glyph-name="sigma1" unicode="&#x3c2;" horiz-adv-x="390" 
d="M202 -217l-41 23q75 93 75 136q0 21 -21 33.5t-79 28.5q-60 17 -84 53t-24 100q0 84 30.5 164.5t91.5 136t138 55.5q65 0 112 -27l-21 -44q-48 23 -93 23q-47 0 -86.5 -29.5t-63 -76t-36 -98.5t-12.5 -100q0 -44 17 -69.5t66 -39.5q70 -19 97 -40.5t27 -55.5
q0 -31 -16.5 -65.5t-32 -54z" />
    <glyph glyph-name="sigma" unicode="&#x3c3;" horiz-adv-x="519" 
d="M500 455h-78q40 -57 40 -138q0 -136 -74 -231.5t-187 -95.5q-83 0 -125 48t-42 135q0 145 77 239t211 94h187zM352 455h-44q-99 0 -155 -76t-56 -200q0 -140 111 -140q84 0 137.5 76.5t53.5 191.5q0 93 -47 148z" />
    <glyph glyph-name="tau" unicode="&#x3c4;" horiz-adv-x="326" 
d="M227 43l-8 -43q-18 -6 -54 -6q-82 0 -82 87q0 22 4 55t13 84.5t14 77.5l18.5 92t14.5 70h-113l9 46h298l-8 -46h-132q-60 -297 -60 -367q0 -29 10.5 -39.5t42.5 -10.5h33z" />
    <glyph glyph-name="upsilon" unicode="&#x3c5;" horiz-adv-x="509" 
d="M59 183l57 323h57l-55 -312q-6 -32 -6 -63q0 -48 22 -70t71 -22q71 0 116.5 57t66.5 180q17 104 25 230h56q-9 -132 -25 -228q-26 -151 -88 -219.5t-159 -68.5q-143 0 -143 136q0 22 5 57z" />
    <glyph glyph-name="phi" unicode="&#x3c6;" horiz-adv-x="591" 
d="M236 -211h-57l35 201q-85 3 -132.5 54.5t-47.5 138.5q0 108 52 195.5t129 145.5l31 -36q-67 -52 -108.5 -128.5t-41.5 -168.5q0 -144 127 -152l47 266q19 112 51.5 161.5t97.5 49.5q61 0 94.5 -48t33.5 -138q0 -144 -79.5 -239t-195.5 -100zM326 301l-46 -262
q86 5 145.5 86.5t59.5 199.5q0 69 -19.5 105t-54.5 36q-33 0 -51 -38.5t-34 -126.5z" />
    <glyph glyph-name="chi" unicode="&#x3c7;" horiz-adv-x="428" 
d="M344 -170l-8 -41q-20 -5 -37 -5q-34 0 -49.5 15t-23.5 57l-49 248l-195 -315h-68l247 367l-59 265q-6 26 -15.5 34.5t-31.5 8.5h-17l8 41q20 5 37 5q33 0 49.5 -15.5t24.5 -56.5l47 -231l187 299h67l-237 -353l59 -279q6 -27 15.5 -35.5t31.5 -8.5h17z" />
    <glyph glyph-name="psi" unicode="&#x3c8;" horiz-adv-x="645" 
d="M267 -211h-56l35 201q-191 5 -191 148q0 9 5 49l56 319h57l-56 -313q-4 -25 -4 -48q1 -55 34 -79.5t108 -26.5l125 711h56l-125 -711q174 6 213 238q19 111 26 229h56q-12 -152 -26 -229q-48 -280 -278 -287z" />
    <glyph glyph-name="omega" unicode="&#x3c9;" horiz-adv-x="641" 
d="M285 75h-1q-20 -38 -53 -62t-74 -24q-57 0 -89 39t-32 119q0 177 115 358h58q-112 -185 -112 -353q0 -115 67 -115q84 0 113 163l25 141h57l-24 -138q-29 -166 53 -166q58 0 100 87.5t42 221.5q0 74 -19 159h58q22 -85 22 -160q0 -157 -59.5 -256.5t-150.5 -99.5
q-40 0 -65 22.5t-31 63.5z" />
    <glyph glyph-name="iotadieresis" unicode="&#x3ca;" horiz-adv-x="275" 
d="M211 43l-8 -43q-32 -6 -50 -6q-49 0 -72 28t-10 99l59 339h-78l8 46h135l-67 -383q-8 -49 4 -64.5t47 -15.5h32zM267 633q-16 0 -26.5 11.5t-10.5 27.5q0 18 12 30t29 12q16 0 26.5 -11t10.5 -27q0 -19 -12 -31t-29 -12zM113 633q-16 0 -27 11.5t-11 27.5q0 18 12 30
t29 12q16 0 26.5 -11t10.5 -27q0 -19 -11.5 -31t-28.5 -12z" />
    <glyph glyph-name="upsilondieresis" unicode="&#x3cb;" horiz-adv-x="509" 
d="M59 183l57 323h57l-55 -312q-6 -32 -6 -63q0 -48 22 -70t71 -22q71 0 116.5 57t66.5 180q17 104 25 230h56q-9 -132 -25 -228q-26 -151 -88 -219.5t-159 -68.5q-143 0 -143 136q0 22 5 57zM402 633q-16 0 -27 11.5t-11 27.5q0 18 12 30t29 12q16 0 26.5 -11t10.5 -27
q0 -19 -11.5 -31t-28.5 -12zM238 633q-16 0 -27 11.5t-11 27.5q0 18 12 30t29 12q16 0 26.5 -11t10.5 -27q0 -19 -11.5 -31t-28.5 -12z" />
    <glyph glyph-name="omicrontonos" unicode="&#x3cc;" horiz-adv-x="508" 
d="M202 -10q-83 0 -125.5 50t-42.5 139q0 61 17.5 120.5t49.5 108t82.5 78.5t110.5 30q83 0 125.5 -50.5t42.5 -139.5q0 -82 -29 -157.5t-90 -127t-141 -51.5zM210 39q87 0 138 84.5t51 196.5q0 147 -112 147q-88 0 -139 -85.5t-51 -198.5q0 -144 113 -144zM323 588l-46 6
l53 154l59 -7z" />
    <glyph glyph-name="upsilontonos" unicode="&#x3cd;" horiz-adv-x="509" 
d="M59 183l57 323h57l-55 -312q-6 -32 -6 -63q0 -48 22 -70t71 -22q71 0 116.5 57t66.5 180q17 104 25 230h56q-9 -132 -25 -228q-26 -151 -88 -219.5t-159 -68.5q-143 0 -143 136q0 22 5 57zM338 588l-46 6l53 154l59 -7z" />
    <glyph glyph-name="omegatonos" unicode="&#x3ce;" horiz-adv-x="641" 
d="M285 75h-1q-20 -38 -53 -62t-74 -24q-57 0 -89 39t-32 119q0 177 115 358h58q-112 -185 -112 -353q0 -115 67 -115q84 0 113 163l25 141h57l-24 -138q-29 -166 53 -166q58 0 100 87.5t42 221.5q0 74 -19 159h58q22 -85 22 -160q0 -157 -59.5 -256.5t-150.5 -99.5
q-40 0 -65 22.5t-31 63.5zM384 588l-46 6l53 154l59 -7z" />
    <glyph glyph-name="uni0400" unicode="&#x400;" horiz-adv-x="479" 
d="M365 0h-267h-58l123 698h58h263l-9 -51h-263l-45 -258h230l-9 -50h-231l-51 -289h268zM348 757l-151 85l32 50l143 -97z" />
    <glyph glyph-name="uni0401" unicode="&#x401;" horiz-adv-x="479" 
d="M365 0h-267h-58l123 698h58h263l-9 -51h-263l-45 -258h230l-9 -50h-231l-51 -289h268zM430 763q-16 0 -27 11.5t-11 27.5q0 18 12.5 31t28.5 13q17 0 27.5 -11.5t10.5 -28.5q0 -18 -12 -30.5t-29 -12.5zM242 763q-16 0 -27 11.5t-11 27.5q0 18 12.5 31t28.5 13
q17 0 27.5 -11.5t10.5 -28.5q0 -18 -12 -30.5t-29 -12.5z" />
    <glyph glyph-name="uni0402" unicode="&#x402;" horiz-adv-x="587" 
d="M302 -1h-27l9 51h26q67 0 117 49t50 133q0 114 -141 114h-98l-60 -346h-58l113 647h-158l9 51h388l-9 -51h-172l-44 -251h104q96 0 142 -42t46 -111q0 -78 -36.5 -135.5t-89 -83t-111.5 -25.5z" />
    <glyph glyph-name="uni0403" unicode="&#x403;" horiz-adv-x="408" 
d="M98 0h-58l122 698h296l-9 -51h-238zM489 842l-157 -85l-23 38l149 97z" />
    <glyph glyph-name="uni0404" unicode="&#x404;" horiz-adv-x="514" 
d="M435 79l10 -46q-82 -40 -162 -40q-108 0 -167.5 64.5t-59.5 185.5q0 76 21 154.5t61.5 148.5t108.5 114.5t153 44.5q82 0 152 -39l-29 -45q-63 33 -132 33q-94 0 -160 -76.5t-94 -188.5h305l-9 -50h-307q-7 -42 -7 -91q0 -98 44 -151t129 -53q73 0 143 35z" />
    <glyph glyph-name="uni0405" unicode="&#x405;" horiz-adv-x="423" 
d="M1 9l18 54q61 -22 121 -22q73 0 117.5 48t44.5 115q0 41 -24 70t-78 67q-105 71 -105 163q0 82 56.5 143t161.5 61q57 0 99 -16l-18 -50q-42 15 -90 15q-73 0 -109.5 -43.5t-36.5 -102.5q0 -41 23.5 -70.5t75.5 -64.5q109 -75 109 -164q0 -91 -63 -156.5t-177 -65.5
q-63 0 -125 19z" />
    <glyph glyph-name="uni0406" unicode="&#x406;" horiz-adv-x="240" 
d="M99 0h-59l123 698h60z" />
    <glyph glyph-name="uni0407" unicode="&#x407;" horiz-adv-x="293" 
d="M99 0h-59l123 698h60zM295 763q-16 0 -27 11.5t-11 27.5q0 19 12 31.5t29 12.5q16 0 27 -11.5t11 -28.5q0 -18 -12 -30.5t-29 -12.5zM122 763q-16 0 -27 11.5t-11 27.5q0 18 12.5 31t28.5 13q17 0 27.5 -11.5t10.5 -28.5q0 -18 -12 -30.5t-29 -12.5z" />
    <glyph glyph-name="uni0408" unicode="&#x408;" horiz-adv-x="289" 
d="M-29 -2l8 45h42q45 0 66.5 30.5t36.5 112.5l90 512h60l-90 -508q-18 -99 -51.5 -148t-106.5 -49q-39 0 -55 5z" />
    <glyph glyph-name="uni0409" unicode="&#x409;" horiz-adv-x="832" 
d="M534 0h-169l113 647h-179q-45 -174 -79.5 -285.5t-65.5 -188t-63.5 -114t-64.5 -51.5t-77 -13l10 58q50 0 83 35.5t85 177t129 432.5h289l-49 -279h100q92 0 140.5 -43.5t48.5 -118.5q0 -119 -72 -188t-179 -69zM431 50h114q74 0 125.5 52t51.5 144q0 123 -137 123h-98z
" />
    <glyph glyph-name="uni040A" unicode="&#x40a;" horiz-adv-x="866" 
d="M557 0h-173l59 340h-286l-59 -340h-58l123 698h58l-54 -307h286l54 307h57l-49 -279h102q95 0 144.5 -43t49.5 -121q0 -117 -73 -186t-181 -69zM450 50h118q74 0 127 52t53 143q0 60 -31.5 92t-112.5 32h-98z" />
    <glyph glyph-name="uni040B" unicode="&#x40b;" horiz-adv-x="603" 
d="M498 0h-58l31 183q7 37 7 59q0 60 -32 82t-103 22h-105l-60 -346h-58l112 647h-158l9 51h388l-9 -51h-172l-43 -251h108q90 0 136 -32.5t46 -110.5q0 -20 -6 -64z" />
    <glyph glyph-name="uni040C" unicode="&#x40c;" horiz-adv-x="522" 
d="M448 0h-70l-167 339h-54l-59 -339h-58l122 698h58l-54 -309h50q157 158 280 309h70q-148 -176 -302 -333zM509 842l-157 -85l-23 38l149 97z" />
    <glyph glyph-name="uni040D" unicode="&#x40d;" horiz-adv-x="620" 
d="M479 0h-58l81 461l30 141l-94 -140l-344 -462h-54l122 698h58l-81 -459l-30 -143l99 144l339 458h55zM433 757l-151 85l32 50l143 -97z" />
    <glyph glyph-name="uni040E" unicode="&#x40e;" 
d="M24 -2l8 46h46q45 0 73 23.5t73 101.5q-83 245 -144 529h62q45 -229 110 -439l8 -30h1l11 21q131 238 231 448h66q-120 -236 -274 -505q-74 -130 -113 -165.5t-103 -35.5q-25 0 -55 6zM434 889h57q-7 -56 -46.5 -101.5t-111.5 -45.5q-61 0 -87.5 32.5t-26.5 79.5
q0 18 3 35h54q-9 -47 6.5 -74t55.5 -27q38 0 63.5 26.5t32.5 74.5z" />
    <glyph glyph-name="uni040F" unicode="&#x40f;" horiz-adv-x="598" 
d="M458 0h-182l-31 -173h-53l31 173h-183l122 698h58l-114 -648h303l114 648h58z" />
    <glyph glyph-name="uni0410" unicode="&#x410;" horiz-adv-x="571" 
d="M493 0h-62l-22 200h-278q-26 -53 -90 -200h-63q169 376 349 698h56q70 -324 110 -698zM153 250h249q-25 185 -45 305q-3 15 -7.5 45.5t-5.5 34.5h-1l-40 -80z" />
    <glyph glyph-name="uni0411" unicode="&#x411;" horiz-adv-x="507" 
d="M208 0h-168l122 698h330l-9 -51h-272l-43 -247h100q86 0 132.5 -41.5t46.5 -118.5q0 -111 -68.5 -175.5t-170.5 -64.5zM106 50h113q66 0 115 47t49 131q0 57 -28 89.5t-100 32.5h-96z" />
    <glyph glyph-name="uni0412" unicode="&#x412;" horiz-adv-x="505" 
d="M218 0h-120h-58l123 698h58h90q75 0 114 -36.5t39 -98.5q0 -60 -28.5 -112.5t-82.5 -81.5q41 -10 66 -47.5t25 -90.5q0 -91 -59.5 -161t-166.5 -70zM166 387h99q69 0 102.5 51.5t33.5 117.5q0 92 -104 92h-85zM106 50h122q66 0 110 51.5t44 125.5q0 53 -31.5 81.5
t-92.5 28.5h-101z" />
    <glyph glyph-name="uni0413" unicode="&#x413;" horiz-adv-x="399" 
d="M98 0h-58l122 698h296l-9 -51h-238z" />
    <glyph glyph-name="uni0414" unicode="&#x414;" horiz-adv-x="613" 
d="M409 50l105 597h-210q-62 -250 -112 -387t-109 -210h326zM519 -173h-53l31 173h-496l-31 -173h-52l39 223h55q73 79 127.5 223.5t121.5 424.5h319l-114 -648h92z" />
    <glyph glyph-name="uni0415" unicode="&#x415;" horiz-adv-x="479" 
d="M365 0h-267h-58l123 698h58h263l-9 -51h-263l-45 -258h230l-9 -50h-231l-51 -289h268z" />
    <glyph glyph-name="uni0416" unicode="&#x416;" horiz-adv-x="804" 
d="M720 0h-65l-160 339h-55l-59 -339h-57l59 339h-51l-272 -339h-71l295 367q-85 148 -172 331h65q67 -153 160 -309h55l53 309h58l-54 -309h51q156 168 264 309h69q-158 -196 -287 -332z" />
    <glyph glyph-name="uni0417" unicode="&#x417;" horiz-adv-x="456" 
d="M-10 18l19 47q51 -23 126 -23q88 0 142.5 49.5t54.5 131.5q0 61 -43.5 88.5t-110.5 27.5h-56l9 50h46q80 0 139 49t59 127q0 39 -24.5 66t-83.5 27q-69 0 -142 -33l-6 48q76 35 159 35t121.5 -39.5t38.5 -94.5q0 -81 -46.5 -136.5t-111.5 -70.5l-1 -2q56 -7 87 -45.5
t31 -89.5q0 -110 -74 -174.5t-200 -64.5q-75 0 -133 27z" />
    <glyph glyph-name="uni0418" unicode="&#x418;" horiz-adv-x="620" 
d="M479 0h-58l81 461l30 141l-94 -140l-344 -462h-54l122 698h58l-81 -459l-30 -143l99 144l339 458h55z" />
    <glyph glyph-name="uni0419" unicode="&#x419;" horiz-adv-x="620" 
d="M479 0h-58l81 461l30 141l-94 -140l-344 -462h-54l122 698h58l-81 -459l-30 -143l99 144l339 458h55zM492 889h57q-7 -56 -46.5 -101.5t-111.5 -45.5q-61 0 -87.5 32.5t-26.5 79.5q0 18 3 35h54q-9 -47 6.5 -74t55.5 -27q38 0 63.5 26.5t32.5 74.5z" />
    <glyph glyph-name="uni041A" unicode="&#x41a;" horiz-adv-x="521" 
d="M448 0h-70l-167 339h-54l-59 -339h-58l122 698h58l-54 -309h50q157 158 280 309h70q-148 -176 -302 -333z" />
    <glyph glyph-name="uni041B" unicode="&#x41b;" horiz-adv-x="599" 
d="M442 0h-58l114 647h-199q-45 -174 -79.5 -285.5t-65.5 -188t-63.5 -114t-64.5 -51.5t-77 -13l10 58q50 0 83 35.5t85 177t129 432.5h309z" />
    <glyph glyph-name="uni041C" unicode="&#x41c;" horiz-adv-x="796" 
d="M665 0h-59q55 341 69 621h-1l-299 -621h-58l-80 621h-2q-87 -311 -145 -621h-59q69 363 176 698h81l76 -601h2l286 601h86q-15 -332 -73 -698z" />
    <glyph glyph-name="uni041D" unicode="&#x41d;" horiz-adv-x="602" 
d="M462 0h-57l59 340h-307l-59 -340h-58l123 698h58l-54 -307h307l54 307h57z" />
    <glyph glyph-name="uni041E" unicode="&#x41e;" horiz-adv-x="671" 
d="M284 -10q-113 0 -170.5 69t-57.5 187q0 55 11.5 115t38.5 122.5t66 112t100.5 81t136.5 31.5q112 0 169.5 -70t57.5 -186q0 -57 -11 -117t-37.5 -123t-65.5 -111.5t-101 -79.5t-137 -31zM297 40q86 0 151 64t95 155t30 189t-43 153.5t-134 55.5q-59 0 -107.5 -29t-79 -73
t-52 -100.5t-30 -108.5t-8.5 -98q0 -97 43.5 -152.5t134.5 -55.5z" />
    <glyph glyph-name="uni041F" unicode="&#x41f;" horiz-adv-x="602" 
d="M462 0h-57l113 647h-307l-113 -647h-58l122 698h423z" />
    <glyph glyph-name="uni0420" unicode="&#x420;" horiz-adv-x="494" 
d="M98 0h-58l123 698h58h88q41 0 73 -9q49 -14 76 -53t27 -99q0 -104 -66 -179t-171 -75h-101zM157 334h100q78 0 121.5 62t43.5 136q0 88 -68 108q-22 7 -52 7h-90z" />
    <glyph glyph-name="uni0421" unicode="&#x421;" horiz-adv-x="514" 
d="M434 78l13 -46q-85 -39 -161 -39q-109 0 -169.5 64.5t-60.5 185.5q0 76 21.5 154.5t62 148.5t109.5 114.5t154 44.5q82 0 148 -36l-26 -46q-62 31 -130 31q-70 0 -126 -42.5t-87 -107t-47 -131t-16 -125.5q0 -98 45 -150.5t131 -52.5q63 0 139 33z" />
    <glyph glyph-name="uni0422" unicode="&#x422;" horiz-adv-x="466" 
d="M213 0h-60l115 647h-192l9 51h444l-9 -51h-192z" />
    <glyph glyph-name="uni0423" unicode="&#x423;" 
d="M24 -2l8 46h46q45 0 73 23.5t73 101.5q-83 245 -144 529h62q45 -229 110 -439l8 -30h1l11 21q131 238 231 448h66q-120 -236 -274 -505q-74 -130 -113 -165.5t-103 -35.5q-25 0 -55 6z" />
    <glyph glyph-name="uni0424" unicode="&#x424;" horiz-adv-x="691" 
d="M322 0h-58l14 80q-116 6 -171.5 66t-55.5 154q0 159 88 259.5t242 105.5l13 72h57l-12 -72q116 -6 171.5 -65.5t55.5 -154.5q0 -159 -88.5 -259t-242.5 -106zM287 130l85 485q-124 -5 -191 -89t-67 -216q0 -86 41 -130.5t132 -49.5zM430 615l-86 -485q124 5 191.5 89.5
t67.5 216.5q0 86 -41 130t-132 49z" />
    <glyph glyph-name="uni0425" unicode="&#x425;" horiz-adv-x="529" 
d="M464 0h-67l-128 316l-236 -316h-69l283 363l-141 335h66l114 -287l214 287h68l-259 -334z" />
    <glyph glyph-name="uni0426" unicode="&#x426;" horiz-adv-x="613" 
d="M519 -173h-53l31 173h-457l122 698h58l-114 -648h303l114 648h58l-114 -648h92z" />
    <glyph glyph-name="uni0427" unicode="&#x427;" horiz-adv-x="523" 
d="M388 0h-58l50 286q-64 -8 -114 -8q-87 0 -134 33.5t-47 113.5q0 31 7 65l36 208h57l-35 -203q-6 -33 -6 -61q0 -62 32.5 -84t100.5 -22q62 0 112 8l64 362h58z" />
    <glyph glyph-name="uni0428" unicode="&#x428;" horiz-adv-x="865" 
d="M725 0h-685l122 698h58l-114 -648h256l114 648h58l-114 -648h256l114 648h58z" />
    <glyph glyph-name="uni0429" unicode="&#x429;" horiz-adv-x="881" 
d="M786 -173h-53l31 173h-724l122 698h58l-114 -648h256l114 648h58l-114 -648h257l114 648h57l-114 -648h92z" />
    <glyph glyph-name="uni042A" unicode="&#x42a;" horiz-adv-x="597" 
d="M294 0h-166l113 647h-162l9 51h220l-49 -279h99q94 0 144 -43t50 -118q0 -120 -74 -189t-184 -69zM194 50h112q74 0 128.5 52.5t54.5 143.5q0 58 -32 90.5t-111 32.5h-96z" />
    <glyph glyph-name="uni042B" unicode="&#x42b;" horiz-adv-x="728" 
d="M206 0h-166l122 698h58l-49 -279h97q92 0 141 -42t49 -118q0 -119 -72 -189t-180 -70zM106 50h111q77 0 128 52t51 146q0 57 -31.5 89t-108.5 32h-94zM588 0h-58l123 698h57z" />
    <glyph glyph-name="uni042C" unicode="&#x42c;" horiz-adv-x="513" 
d="M212 0h-172l122 698h58l-49 -279h102q96 0 145 -42.5t49 -118.5q0 -119 -73 -188.5t-182 -69.5zM106 50h119q74 0 126.5 52t52.5 144q0 59 -31.5 91t-112.5 32h-98z" />
    <glyph glyph-name="uni042D" unicode="&#x42d;" horiz-adv-x="513" 
d="M405 339h-311l9 51h310q4 40 4 59q0 98 -45.5 151.5t-129.5 53.5q-67 0 -136 -33l-11 44q80 40 157 40q107 0 167.5 -65t60.5 -185q0 -76 -21.5 -154.5t-62.5 -148.5t-109.5 -114.5t-152.5 -44.5q-85 0 -154 40l26 48q63 -37 136 -37q98 0 168.5 84.5t94.5 210.5z" />
    <glyph glyph-name="uni042E" unicode="&#x42e;" horiz-adv-x="869" 
d="M98 0h-58l122 698h58l-54 -308h125q33 139 114 228.5t208 89.5q58 0 102.5 -22.5t69.5 -61t37 -82t12 -91.5q0 -119 -40.5 -223t-120 -171t-180.5 -67q-108 0 -163.5 68.5t-55.5 186.5q0 49 7 94h-124zM502 40q77 0 140 61.5t96 154.5t33 192q0 54 -14 98t-54 77.5
t-102 33.5q-81 0 -143.5 -64.5t-92 -156.5t-29.5 -189q0 -55 13.5 -99t52.5 -76t100 -32z" />
    <glyph glyph-name="uni042F" unicode="&#x42f;" horiz-adv-x="516" 
d="M376 0h-58l56 322h-104l-215 -322h-69l223 331q-51 16 -78.5 54t-27.5 92q0 101 67.5 161t180.5 60h147zM383 372l49 275h-91q-81 0 -127.5 -45.5t-46.5 -118.5q0 -111 127 -111h89z" />
    <glyph glyph-name="uni0430" unicode="&#x430;" horiz-adv-x="498" 
d="M369 0h-50l20 130q-31 -62 -77.5 -101t-100.5 -39q-65 0 -95.5 44t-30.5 120q0 46 8.5 93t28.5 95t49.5 85t75 60.5t101.5 23.5q83 0 156 -25zM366 309l24 135q-46 22 -97 22q-53 0 -93.5 -31t-62 -80t-31.5 -98.5t-10 -96.5q0 -122 75 -122q60 0 118.5 84t76.5 187z" />
    <glyph glyph-name="uni0431" unicode="&#x431;" horiz-adv-x="509" 
d="M465 691l-98 -18q-96 -16 -138 -55q-42 -38 -76 -130l-26 -77h1q28 51 75 78t102 27q83 0 120 -50t37 -131q0 -138 -72.5 -241.5t-185.5 -103.5q-76 0 -115.5 48t-39.5 140q0 135 43 278t107 200q57 51 172 73l98 17q31 7 50 14l-10 -57q-15 -8 -44 -12zM214 39
q78 0 131.5 86.5t53.5 202.5q0 139 -106 139q-80 0 -133 -82.5t-53 -201.5q0 -144 107 -144z" />
    <glyph glyph-name="uni0432" unicode="&#x432;" horiz-adv-x="463" 
d="M296 268q50 -7 79.5 -35.5t29.5 -75.5q0 -73 -59 -119t-143 -46q-85 0 -127 41t-42 129q0 61 13.5 120.5t41.5 113.5t77.5 87t114.5 33q64 0 100.5 -30t36.5 -81q0 -54 -35.5 -90t-86.5 -47zM111 288h82q75 0 119.5 30t44.5 83q0 32 -22 49.5t-61 17.5q-121 0 -163 -180z
M198 243h-97q-7 -35 -7 -72q0 -73 29 -102.5t86 -29.5q55 0 95 31.5t40 81.5q0 91 -146 91z" />
    <glyph glyph-name="uni0433" unicode="&#x433;" horiz-adv-x="381" 
d="M267 61l7 -50q-61 -21 -121 -21q-59 0 -90 26.5t-31 69.5q0 14 3.5 28t7 24.5t14 25t15.5 22t21.5 23l22 20.5l26.5 23.5t26 23.5l58.5 55t34 42.5t16.5 48.5q0 45 -60 45q-45 0 -91 -16l-6 46q54 19 105 19q57 0 84.5 -23t27.5 -60q0 -27 -8.5 -50.5t-33.5 -51.5
t-38.5 -40.5l-53.5 -48.5q-6 -6 -21.5 -19.5t-20.5 -18.5t-17 -16t-16 -16l-11.5 -14.5t-10.5 -16l-7 -15t-5 -17t-1 -17.5q0 -52 69 -52q47 0 105 21z" />
    <glyph glyph-name="uni0434" unicode="&#x434;" horiz-adv-x="522" 
d="M176 713l11 50q285 -57 285 -382q0 -109 -29 -195.5t-90.5 -141t-147.5 -54.5q-81 0 -124.5 51t-43.5 140q0 133 72.5 231.5t186.5 98.5q86 0 119 -71q-1 7 -5 25.5t-5 24.5q-42 182 -229 223zM213 38q50 0 89 28t61.5 71t33.5 89.5t11 89.5q0 64 -31.5 106t-88.5 42
q-59 0 -103.5 -44t-65.5 -107.5t-21 -132.5q0 -142 115 -142z" />
    <glyph glyph-name="uni0435" unicode="&#x435;" horiz-adv-x="466" 
d="M354 65l3 -48q-73 -27 -156 -27q-166 0 -166 170q0 56 13 113.5t40.5 114t79.5 92.5t120 36q62 0 98 -31t36 -82q0 -36 -13.5 -63.5t-47 -51.5t-99 -37.5t-161.5 -14.5q-5 -42 -5 -68q0 -65 27.5 -97t92.5 -32t138 26zM111 284q74 0 124.5 8.5t77 24.5t37.5 35.5t11 46.5
q0 32 -21.5 50.5t-58.5 18.5q-64 0 -107.5 -51t-62.5 -133z" />
    <glyph glyph-name="uni0436" unicode="&#x436;" horiz-adv-x="662" 
d="M586 0h-62l-127 242h-46l-43 -242h-56l43 242h-44l-204 -242h-70l230 271q-67 106 -137 235h63q55 -108 124 -215h47l37 215h56l-37 -215h43q110 112 195 215h67q-102 -121 -219 -238z" />
    <glyph glyph-name="uni0437" unicode="&#x437;" horiz-adv-x="410" 
d="M-11 11l14 46q51 -17 110 -17q72 0 117 33.5t45 88.5q0 44 -37.5 62.5t-89.5 18.5h-48l8 46h41q66 0 109.5 30.5t43.5 81.5q0 29 -22.5 48.5t-74.5 19.5q-56 0 -122 -23l-3 46q67 24 141 24q73 0 107 -30.5t34 -74.5q0 -54 -35.5 -92t-83.5 -50v-1q45 -7 69.5 -34
t24.5 -65q0 -81 -62 -129t-169 -48q-67 0 -117 19z" />
    <glyph glyph-name="uni0438" unicode="&#x438;" horiz-adv-x="513" 
d="M383 0h-49l20 130q-30 -61 -78.5 -100.5t-103.5 -39.5q-118 0 -118 133q0 33 7 68l55 315h57l-54 -304q-7 -47 -7 -75q0 -89 70 -89q62 0 121.5 83.5t76.5 181.5l36 203h56z" />
    <glyph glyph-name="uni0439" unicode="&#x439;" horiz-adv-x="513" 
d="M383 0h-49l20 130q-30 -61 -78.5 -100.5t-103.5 -39.5q-118 0 -118 133q0 33 7 68l55 315h57l-54 -304q-7 -47 -7 -75q0 -89 70 -89q62 0 121.5 83.5t76.5 181.5l36 203h56zM416 734h56q-9 -62 -48 -108t-112 -46q-33 0 -56.5 10.5t-35 28t-16 35.5t-4.5 38t4 42h54
q-19 -108 60 -108q38 0 64 27.5t34 80.5z" />
    <glyph glyph-name="uni043A" unicode="&#x43a;" horiz-adv-x="442" 
d="M378 0h-68l-132 242h-50l-42 -242h-57l89 506h57l-39 -215h46q112 107 202 215h65q-104 -122 -222 -240z" />
    <glyph glyph-name="uni043B" unicode="&#x43b;" horiz-adv-x="480" 
d="M350 0h-57l81 458q-20 2 -36 2q-71 0 -107 -36t-68 -151l-24 -84t-21.5 -66.5t-23.5 -57t-25 -37.5t-32.5 -27t-38.5 -7q-25 0 -48 5l8 46q13 -2 37 -2q31 0 54 55t67 208q33 117 87 160t153 43q31 0 83 -4z" />
    <glyph glyph-name="uni043C" unicode="&#x43c;" horiz-adv-x="648" 
d="M545 0h-56q9 99 26 341l7 116h-1l-52 -118l-169 -339h-50l-51 347l-13 110h-2l-29 -110q-62 -216 -95 -347h-55q65 258 150 506h75l47 -321l12 -112h2l49 112l159 321h73q-5 -255 -27 -506z" />
    <glyph glyph-name="uni043D" unicode="&#x43d;" horiz-adv-x="519" 
d="M389 0h-57l43 245h-246l-43 -245h-57l89 506h57l-37 -213h246l37 213h57z" />
    <glyph glyph-name="uni043E" unicode="&#x43e;" horiz-adv-x="508" 
d="M202 -10q-83 0 -125.5 50t-42.5 139q0 61 17.5 120.5t49.5 108t82.5 78.5t110.5 30q83 0 125.5 -50.5t42.5 -139.5q0 -82 -29 -157.5t-90 -127t-141 -51.5zM210 39q87 0 138 84.5t51 196.5q0 147 -112 147q-88 0 -139 -85.5t-51 -198.5q0 -144 113 -144z" />
    <glyph glyph-name="uni043F" unicode="&#x43f;" horiz-adv-x="513" 
d="M385 0h-56l53 303q8 45 8 75q0 89 -70 89q-62 0 -121.5 -83t-76.5 -181l-36 -203h-57l89 506h48l-18 -131q30 61 78.5 101t103.5 40q118 0 118 -134q0 -23 -7 -67z" />
    <glyph glyph-name="uni0440" unicode="&#x440;" horiz-adv-x="498" 
d="M49 -211h-57l126 717h45l-15 -131q31 62 77.5 101.5t100.5 39.5q65 0 95.5 -44t30.5 -121q0 -58 -14.5 -117t-43.5 -114.5t-82.5 -90.5t-122.5 -35q-51 0 -102 12zM121 197l-24 -136q47 -21 97 -21q53 0 93.5 31t62 80t31.5 98.5t10 96.5q0 121 -75 121q-60 0 -118.5 -84
t-76.5 -186z" />
    <glyph glyph-name="uni0441" unicode="&#x441;" horiz-adv-x="404" 
d="M319 64l4 -48q-57 -24 -124 -24q-165 0 -165 177q0 55 14.5 112t43.5 110.5t81 87.5t118 34q65 0 112 -27l-21 -44q-50 24 -93 24q-54 0 -94.5 -32t-60.5 -80.5t-29.5 -94.5t-9.5 -86q0 -133 114 -133q54 0 110 24z" />
    <glyph glyph-name="uni0442" unicode="&#x442;" horiz-adv-x="778" 
d="M650 0h-57l54 303q8 54 8 75q0 44 -13.5 66.5t-47.5 22.5q-57 0 -115 -83.5t-75 -180.5l-36 -203h-57l54 303q8 54 8 75q0 44 -13.5 66.5t-47.5 22.5q-57 0 -115 -83.5t-75 -180.5l-36 -203h-57l89 506h48l-18 -131q30 61 77 101t97 40q59 0 85 -38.5t23 -102.5
q30 61 77 101t97 40q109 0 109 -134q0 -27 -8 -67z" />
    <glyph glyph-name="uni0443" unicode="&#x443;" horiz-adv-x="430" 
d="M-59 -212l10 43h44q27 0 58.5 35t90.5 134q-63 300 -78 506h56q15 -174 49 -364q5 -26 12 -79h1l39 79q87 174 160 364h59q-132 -318 -244 -506q-77 -130 -120 -175t-89 -45q-26 0 -48 8z" />
    <glyph glyph-name="uni0444" unicode="&#x444;" horiz-adv-x="737" 
d="M310 -211h-57l41 227q10 59 24 114q-31 -63 -74.5 -101.5t-93.5 -38.5q-58 0 -86.5 44.5t-28.5 119.5q0 58 14 117.5t42.5 114.5t79.5 90t116 35q48 0 91 -12l44 251h57l-46 -259q-9 -50 -25 -116q32 63 75 102t93 39q58 0 86.5 -44.5t28.5 -120.5q0 -58 -14 -117.5
t-42.5 -114.5t-79.5 -90t-116 -35q-40 0 -91 12zM344 309l24 135q-46 22 -86 22q-50 0 -88 -31t-58 -80t-30 -98.5t-10 -96.5q0 -122 64 -122q57 0 111.5 84t72.5 187zM382 197l-24 -136q47 -21 86 -21q50 0 88 31t58 80t30 98.5t10 96.5q0 121 -64 121q-56 0 -111 -84
t-73 -186z" />
    <glyph glyph-name="uni0445" unicode="&#x445;" horiz-adv-x="448" 
d="M366 0h-64l-91 218l-165 -218h-68l212 260l-110 246h64l82 -203l153 203h66l-197 -244z" />
    <glyph glyph-name="uni0446" unicode="&#x446;" horiz-adv-x="526" 
d="M436 -164h-51l30 164q-70 0 -70 63q0 29 9 67q-30 -61 -78.5 -100.5t-103.5 -39.5q-118 0 -118 133q0 33 7 68l55 315h57l-54 -304q-7 -47 -7 -75q0 -89 70 -89q62 0 121.5 83.5t76.5 181.5l36 203h56l-68 -390q-7 -39 -0.5 -53.5t31.5 -14.5h38z" />
    <glyph glyph-name="uni0447" unicode="&#x447;" horiz-adv-x="446" 
d="M317 0h-57l45 251q-61 -70 -148 -70q-52 0 -83 29t-31 88q0 30 6 64l26 144h56l-23 -134q-6 -34 -6 -62q0 -80 70 -80q46 0 94.5 39.5t60.5 107.5l22 129h57z" />
    <glyph glyph-name="uni0448" unicode="&#x448;" horiz-adv-x="767" 
d="M637 0h-48l19 129q-30 -61 -76 -100t-96 -39q-110 0 -103 140q-30 -61 -76.5 -100.5t-96.5 -39.5q-106 0 -106 133q0 24 7 68l56 315h56l-53 -304q-8 -48 -8 -75q0 -45 12 -67t45 -22q56 0 113.5 83.5t74.5 181.5l36 203h57l-54 -304q-8 -52 -8 -75q0 -44 12.5 -66.5
t45.5 -22.5q56 0 113.5 84t74.5 181l36 203h56z" />
    <glyph glyph-name="uni0449" unicode="&#x449;" horiz-adv-x="780" 
d="M691 -164h-51l30 164q-70 0 -70 63q0 32 8 66q-30 -61 -76 -100t-96 -39q-110 0 -103 140q-30 -61 -76.5 -100.5t-96.5 -39.5q-106 0 -106 133q0 24 7 68l56 315h56l-53 -304q-8 -48 -8 -74q0 -45 12 -67.5t45 -22.5q56 0 113.5 83.5t74.5 181.5l36 203h57l-54 -304
q-8 -52 -8 -75q0 -44 12.5 -66.5t45.5 -22.5q56 0 113.5 84t74.5 181l36 203h56l-69 -392q-6 -37 1 -51.5t32 -14.5h38z" />
    <glyph glyph-name="uni044A" unicode="&#x44a;" horiz-adv-x="505" 
d="M126 140l56 316h-143l9 50h199l-33 -193q39 12 83 12q88 0 126.5 -36.5t38.5 -91.5q0 -98 -63 -150.5t-145 -52.5q-64 0 -98 30t-34 80q0 10 4 36zM204 264l-20 -117q-3 -22 -3 -34q0 -71 83 -71q52 0 94.5 37t42.5 107q0 91 -115 91q-38 0 -82 -13z" />
    <glyph glyph-name="uni044B" unicode="&#x44b;" horiz-adv-x="632" 
d="M52 140l65 366h56l-33 -193q39 13 81 13q86 0 123.5 -37t37.5 -92q0 -97 -62.5 -150t-141.5 -53q-63 0 -96.5 30t-33.5 80q0 10 4 36zM131 265l-21 -119q-3 -18 -3 -33q0 -71 80 -71q50 0 92 37.5t42 106.5q0 92 -111 92q-39 0 -79 -13zM502 0h-57l89 506h57z" />
    <glyph glyph-name="uni044C" unicode="&#x44c;" horiz-adv-x="433" 
d="M52 140l65 366h56l-33 -192q41 12 87 12q89 0 127 -37.5t38 -92.5q0 -100 -62.5 -151t-147.5 -51q-64 0 -99 30t-35 80q0 14 4 36zM131 265l-21 -122q-3 -13 -3 -30q0 -34 22 -52.5t63 -18.5q54 0 96.5 35.5t42.5 107.5q0 93 -115 93q-45 0 -85 -13z" />
    <glyph glyph-name="uni044D" unicode="&#x44d;" horiz-adv-x="431" 
d="M312 237h-235l8 48h236q3 26 3 49q-3 134 -119 134q-66 0 -125 -30l-7 44q71 34 144 34q92 0 130 -50.5t38 -128.5q0 -87 -30.5 -165t-92.5 -130.5t-142 -52.5q-67 0 -132 39l22 47q61 -37 117 -37q75 0 121 55t64 144z" />
    <glyph glyph-name="uni044E" unicode="&#x44e;" horiz-adv-x="687" 
d="M86 0h-57l87 506h57l-37 -214h105q25 96 87.5 160t151.5 64q78 0 119 -50.5t41 -139.5q0 -82 -28.5 -157.5t-88 -127t-136.5 -51.5t-119 48.5t-42 139.5q0 33 5 66h-103zM395 39q56 0 98.5 42t63 105t20.5 134q0 147 -106 147q-83 0 -132.5 -85.5t-49.5 -198.5
q0 -144 106 -144z" />
    <glyph glyph-name="uni044F" unicode="&#x44f;" horiz-adv-x="440" 
d="M311 0h-57l39 223h-93l-165 -223h-67l173 230q-45 13 -66.5 44t-21.5 68q0 81 58.5 126t156.5 45q57 0 132 -7zM301 270l33 189q-44 6 -78 6q-69 0 -105.5 -32t-36.5 -82q0 -81 105 -81h82z" />
    <glyph glyph-name="uni0450" unicode="&#x450;" horiz-adv-x="466" 
d="M354 65l3 -48q-73 -27 -156 -27q-166 0 -166 170q0 56 13 113.5t40.5 114t79.5 92.5t120 36q62 0 98 -31t36 -82q0 -36 -13.5 -63.5t-47 -51.5t-99 -37.5t-161.5 -14.5q-5 -42 -5 -68q0 -65 27.5 -97t92.5 -32t138 26zM111 284q74 0 124.5 8.5t77 24.5t37.5 35.5t11 46.5
q0 32 -21.5 50.5t-58.5 18.5q-64 0 -107.5 -51t-62.5 -133zM317 617l-36 -28l-99 124l48 36z" />
    <glyph glyph-name="uni0451" unicode="&#x451;" horiz-adv-x="466" 
d="M354 65l3 -48q-73 -27 -156 -27q-166 0 -166 170q0 56 13 113.5t40.5 114t79.5 92.5t120 36q62 0 98 -31t36 -82q0 -36 -13.5 -63.5t-47 -51.5t-99 -37.5t-161.5 -14.5q-5 -42 -5 -68q0 -65 27.5 -97t92.5 -32t138 26zM111 284q74 0 124.5 8.5t77 24.5t37.5 35.5t11 46.5
q0 32 -21.5 50.5t-58.5 18.5q-64 0 -107.5 -51t-62.5 -133zM396 633q-16 0 -27 11.5t-11 27.5q0 18 12 30t29 12q16 0 26.5 -11t10.5 -27q0 -19 -11.5 -31t-28.5 -12zM232 633q-16 0 -27 11.5t-11 27.5q0 18 12 30t29 12q16 0 26.5 -11t10.5 -27q0 -19 -11.5 -31t-28.5 -12z
" />
    <glyph glyph-name="uni0452" unicode="&#x452;" horiz-adv-x="515" 
d="M155 -181l8 42h43q103 0 161 330q23 135 23 186q0 90 -70 90q-62 0 -121.5 -83t-76.5 -182l-36 -202h-57l107 608h-79l8 46h80l16 96h57l-16 -96h142l-9 -46h-142l-21 -118q-8 -47 -25 -115q30 61 79 101t104 40q118 0 118 -134q0 -59 -23 -182q-69 -388 -224 -388
q-23 0 -46 7z" />
    <glyph glyph-name="uni0453" unicode="&#x453;" horiz-adv-x="381" 
d="M267 61l7 -50q-61 -21 -121 -21q-59 0 -90 26.5t-31 69.5q0 14 3.5 28t7 24.5t14 25t15.5 22t21.5 23l22 20.5l26.5 23.5t26 23.5l58.5 55t34 42.5t16.5 48.5q0 45 -60 45q-45 0 -91 -16l-6 46q54 19 105 19q57 0 84.5 -23t27.5 -60q0 -27 -8.5 -50.5t-33.5 -51.5
t-38.5 -40.5l-53.5 -48.5q-6 -6 -21.5 -19.5t-20.5 -18.5t-17 -16t-16 -16l-11.5 -14.5t-10.5 -16l-7 -15t-5 -17t-1 -17.5q0 -52 69 -52q47 0 105 21zM256 589l-34 28l106 132l47 -36z" />
    <glyph glyph-name="uni0454" unicode="&#x454;" horiz-adv-x="431" 
d="M347 68l4 -46q-65 -33 -146 -33q-85 0 -128.5 48t-43.5 132q0 55 14.5 112.5t43.5 111.5t82 88.5t122 34.5q72 0 132 -36l-25 -45q-56 34 -110 34q-69 0 -115.5 -49.5t-67.5 -134.5h235l-8 -48h-237q-4 -29 -4 -59q0 -140 122 -140q67 0 130 30z" />
    <glyph glyph-name="uni0455" unicode="&#x455;" horiz-adv-x="371" 
d="M4 10l16 53q54 -23 109 -23q51 0 81 26.5t30 69.5q0 30 -15.5 51t-63.5 52q-45 29 -65.5 58.5t-20.5 69.5q0 63 46 106t121 43q50 0 95 -16l-15 -49q-43 16 -87 16q-46 0 -73.5 -26.5t-27.5 -66.5q0 -30 15.5 -50.5t60.5 -47.5q50 -32 71 -61t21 -70q0 -68 -51 -111.5
t-131 -43.5q-65 0 -116 20z" />
    <glyph glyph-name="uni0456" unicode="&#x456;" horiz-adv-x="236" 
d="M189 625q-18 0 -30.5 13t-12.5 31q0 21 13.5 35t32.5 14t31 -12.5t12 -30.5q0 -22 -13 -36t-33 -14zM106 0h-57l81 460h-78l8 46h135z" />
    <glyph glyph-name="uni0457" unicode="&#x457;" horiz-adv-x="236" 
d="M106 0h-57l81 460h-78l8 46h135zM258 633q-16 0 -26.5 11.5t-10.5 27.5q0 18 12 30t29 12q16 0 26.5 -11t10.5 -27q0 -19 -12 -31t-29 -12zM104 633q-16 0 -27 11.5t-11 27.5q0 18 12 30t29 12q16 0 26.5 -11t10.5 -27q0 -19 -11.5 -31t-28.5 -12z" />
    <glyph glyph-name="uni0458" unicode="&#x458;" horiz-adv-x="225" 
d="M184 625q-18 0 -30.5 13t-12.5 31q0 21 13.5 35t32.5 14t31 -12.5t12 -30.5q0 -22 -13 -36t-33 -14zM-112 -212l10 43h45q35 0 56.5 31t33.5 100l95 544h57l-94 -534q-10 -60 -26.5 -99.5t-37.5 -58.5t-42 -26t-48 -7q-28 0 -49 7z" />
    <glyph glyph-name="uni0459" unicode="&#x459;" horiz-adv-x="679" 
d="M309 140l55 316q-14 2 -27 2q-71 0 -106.5 -35.5t-67.5 -149.5q-47 -166 -72 -212q-36 -67 -93 -67q-25 0 -48 5l8 46q13 -2 37 -2q31 0 54 54.5t67 208.5q33 116 86.5 158.5t153.5 42.5q25 0 73 -4l-35 -198q41 12 83 12q87 0 125 -35.5t38 -89.5q0 -95 -62.5 -146.5
t-142.5 -51.5q-65 0 -97.5 29.5t-32.5 80.5q0 19 4 36zM386 256l-19 -110q-4 -24 -4 -33q0 -71 82 -71q51 0 92.5 36t41.5 103q0 88 -113 88q-40 0 -80 -13z" />
    <glyph glyph-name="uni045A" unicode="&#x45a;" horiz-adv-x="712" 
d="M416 268l-37 -214q33 -12 86 -12q61 0 103 36.5t42 106.5q0 90 -114 90q-38 0 -80 -7zM314 10l41 235h-226l-43 -245h-57l89 506h57l-37 -213h226l37 213h57l-33 -190q44 8 81 8q91 0 128 -37.5t37 -91.5q0 -95 -63 -148t-158 -53q-76 0 -136 16z" />
    <glyph glyph-name="uni045B" unicode="&#x45b;" horiz-adv-x="513" 
d="M385 0h-56l53 303q8 42 8 75q0 89 -70 89q-62 0 -121.5 -83t-76.5 -182l-36 -202h-57l108 608h-81l8 46h81l17 96h56l-16 -96h141l-9 -46h-140l-22 -118q-9 -50 -25 -115q30 61 79 101t104 40q118 0 118 -134q0 -25 -7 -67z" />
    <glyph glyph-name="uni045C" unicode="&#x45c;" horiz-adv-x="444" 
d="M378 0h-68l-132 242h-50l-42 -242h-57l89 506h57l-39 -215h46q112 107 202 215h65q-104 -122 -222 -240zM292 589l-34 28l106 132l47 -36z" />
    <glyph glyph-name="uni045D" unicode="&#x45d;" horiz-adv-x="513" 
d="M383 0h-49l20 130q-30 -61 -78.5 -100.5t-103.5 -39.5q-118 0 -118 133q0 33 7 68l55 315h57l-54 -304q-7 -47 -7 -75q0 -89 70 -89q62 0 121.5 83.5t76.5 181.5l36 203h56zM337 617l-36 -28l-99 124l48 36z" />
    <glyph glyph-name="uni045E" unicode="&#x45e;" horiz-adv-x="430" 
d="M-59 -212l10 43h44q27 0 58.5 35t90.5 134q-63 300 -78 506h56q15 -174 49 -364q5 -26 12 -79h1l39 79q87 174 160 364h59q-132 -318 -244 -506q-77 -130 -120 -175t-89 -45q-26 0 -48 8zM372 734h56q-9 -62 -48 -108t-112 -46q-33 0 -56.5 10.5t-35 28t-16 35.5t-4.5 38
t4 42h54q-19 -108 60 -108q38 0 64 27.5t34 80.5z" />
    <glyph glyph-name="uni045F" unicode="&#x45f;" horiz-adv-x="513" 
d="M383 0h-49l20 130q-27 -54 -69 -92.5t-90 -46.5l-29 -155h-51l28 156q-89 14 -89 131q0 33 7 68l55 315h57l-54 -304q-7 -47 -7 -75q0 -89 70 -89q62 0 121.5 83.5t76.5 181.5l36 203h56z" />
    <glyph glyph-name="uni0462" unicode="&#x462;" horiz-adv-x="533" 
d="M239 0h-174l97 555h-121l8 51h122l23 127h57l-23 -127h160l-9 -51h-159l-29 -166h100q92 0 143 -40.5t51 -110.5q0 -111 -73 -174.5t-173 -63.5zM131 51h119q67 0 119 46.5t52 129.5q0 50 -33 81t-108 31h-99z" />
    <glyph glyph-name="uni0463" unicode="&#x463;" horiz-adv-x="431" 
d="M53 140l56 317h-80l8 49h79l36 148h48l-26 -148h142l-8 -49h-143l-27 -152q43 12 87 12q88 0 126 -35.5t38 -89.5q0 -96 -62.5 -147t-143.5 -51q-71 0 -107 36t-23 110zM130 256l-19 -113q-17 -101 81 -101q52 0 94 35.5t42 103.5q0 88 -114 88q-44 0 -84 -13z" />
    <glyph glyph-name="uni0472" unicode="&#x472;" horiz-adv-x="671" 
d="M282 -10q-112 0 -169 69t-57 187q0 55 11.5 115t38.5 122.5t66 112t100.5 81t136.5 31.5q112 0 170 -70t58 -186q0 -57 -11 -117t-38 -123t-66 -111.5t-101.5 -79.5t-138.5 -31zM560 322h-436q-5 -43 -5 -75q0 -96 43 -151.5t134 -55.5t161.5 70.5t102.5 211.5zM133 372
h435q5 40 5 76q0 98 -43 153.5t-133 55.5q-94 0 -164 -72t-100 -213z" />
    <glyph glyph-name="uni0473" unicode="&#x473;" horiz-adv-x="508" 
d="M202 -10q-83 0 -125.5 50t-42.5 139q0 61 17.5 120.5t49.5 108t82.5 78.5t110.5 30q83 0 125.5 -50.5t42.5 -139.5q0 -82 -29 -157.5t-90 -127t-141 -51.5zM107 278h290q2 16 2 42q0 147 -112 147q-59 0 -108.5 -45t-71.5 -144zM390 232h-290q-3 -21 -3 -49
q0 -144 113 -144q57 0 107.5 44t72.5 149z" />
    <glyph glyph-name="uni0474" unicode="&#x474;" horiz-adv-x="567" 
d="M255 0h-57q-70 320 -109 698h62q19 -243 73 -556l12 -79h1l40 80l164 342q62 127 102.5 172t104.5 45q13 0 23 -2l-9 -55h-10q-42 0 -70 -33.5t-87 -147.5z" />
    <glyph glyph-name="uni0475" unicode="&#x475;" horiz-adv-x="453" 
d="M191 0h-52q-51 238 -74 506h57q16 -205 42 -363q4 -27 11 -79h1l37 79l97 200q48 100 78.5 136.5t82.5 36.5q13 0 23 -2l-10 -51h-8q-29 0 -51.5 -27t-64.5 -110z" />
    <glyph glyph-name="uni0490" unicode="&#x490;" horiz-adv-x="399" 
d="M98 0h-58l122 698h245l27 150h51l-36 -201h-238z" />
    <glyph glyph-name="uni0491" unicode="&#x491;" horiz-adv-x="330" 
d="M139 311l-55 -311h-57l57 322q17 101 61 142.5t133 41.5h31l23 134h50l-32 -183h-81q-61 0 -88 -30t-42 -116z" />
    <glyph glyph-name="uni0492" unicode="&#x492;" horiz-adv-x="411" 
d="M109 0h-57l60 342h-84l9 50h84l53 306h296l-9 -51h-238l-45 -255h154l-9 -50h-154z" />
    <glyph glyph-name="uni0493" unicode="&#x493;" horiz-adv-x="381" 
d="M267 61l7 -50q-61 -21 -121 -21q-59 0 -90 26.5t-31 69.5q0 40 22.5 75t71.5 79h-71l8 46h116q54 50 76 78.5t22 57.5q0 45 -60 45q-45 0 -91 -16l-6 46q54 19 105 19q57 0 84.5 -23t27.5 -60q0 -67 -84 -147h70l-8 -46h-114q-62 -54 -85 -83.5t-23 -64.5q0 -52 69 -52
q47 0 105 21z" />
    <glyph glyph-name="uni0496" unicode="&#x496;" horiz-adv-x="807" 
d="M741 -173h-53l30 173h-65l-160 339h-55l-59 -339h-57l59 339h-51l-272 -339h-71l295 367q-85 148 -172 331h65q67 -153 160 -309h55l53 309h58l-54 -309h51q156 168 264 309h69q-158 -196 -287 -332l149 -316h87z" />
    <glyph glyph-name="uni0497" unicode="&#x497;" horiz-adv-x="687" 
d="M599 -164h-51l28 164h-54l-126 242h-47l-42 -242h-56l42 242h-44l-204 -242h-69l229 271q-54 85 -137 235h64q52 -103 123 -215h47l38 215h56l-38 -215h43q99 99 196 215h67q-112 -131 -219 -238l115 -220h75z" />
    <glyph glyph-name="uni0498" unicode="&#x498;" horiz-adv-x="456" 
d="M133 -173h-53l30 164q-68 3 -120 27l19 47q53 -23 126 -23q91 0 144 49t53 132q0 62 -43.5 89t-110.5 27h-54l9 51h47q82 0 138.5 48.5t56.5 126.5q0 39 -24.5 66t-83.5 27q-69 0 -142 -33l-6 48q76 35 159 35t121.5 -39.5t38.5 -94.5q0 -81 -47.5 -137t-110.5 -70l-1 -2
q57 -7 87.5 -45t30.5 -90q0 -102 -62 -165t-173 -72z" />
    <glyph glyph-name="uni0499" unicode="&#x499;" horiz-adv-x="411" 
d="M117 -164h-50l28 157q-59 0 -106 18l14 46q49 -17 110 -17q72 0 117 33.5t45 88.5q0 44 -37.5 62.5t-89.5 18.5h-43l8 46h36q66 0 109.5 31t43.5 82q0 67 -97 67q-58 0 -124 -23l1 46q72 24 139 24q73 0 107 -30t34 -74q0 -52 -36 -91t-84 -52v-1q45 -7 70 -33.5
t25 -65.5q0 -76 -52.5 -121.5t-140.5 -53.5z" />
    <glyph glyph-name="uni049A" unicode="&#x49a;" horiz-adv-x="521" 
d="M463 -173h-53l31 173h-63l-167 339h-54l-59 -339h-58l122 698h58l-54 -309h50q157 158 280 309h70q-148 -176 -302 -333l158 -315h80z" />
    <glyph glyph-name="uni049B" unicode="&#x49b;" horiz-adv-x="465" 
d="M384 -164h-51l30 164h-53l-132 242h-50l-42 -242h-57l89 506h57l-39 -215h46q112 107 202 215h65q-104 -122 -222 -240l123 -218h71z" />
    <glyph glyph-name="uni049C" unicode="&#x49c;" horiz-adv-x="592" 
d="M518 0h-69l-162 339h-32l-25 -142h-48l25 142h-50l-59 -339h-58l122 698h58l-54 -309h50l25 145h48l-25 -145h28q152 157 278 309h67q-147 -176 -297 -333z" />
    <glyph glyph-name="uni049D" unicode="&#x49d;" horiz-adv-x="513" 
d="M448 0h-66l-125 242h-35l-19 -112h-47l20 112h-48l-42 -242h-57l89 506h57l-39 -215h48l20 111h47l-20 -111h30q105 108 194 215h65q-158 -184 -214 -240z" />
    <glyph glyph-name="uni04A0" unicode="&#x4a0;" horiz-adv-x="597" 
d="M523 0h-70l-167 339h-53l-60 -339h-58l114 647h-164l9 51h222l-54 -309h49q154 155 281 309h70q-153 -180 -303 -333z" />
    <glyph glyph-name="uni04A1" unicode="&#x4a1;" horiz-adv-x="505" 
d="M441 0h-68l-132 242h-50l-42 -242h-57l81 460h-142l9 46h198l-39 -215h46q112 107 202 215h65q-112 -131 -222 -240z" />
    <glyph glyph-name="uni04A2" unicode="&#x4a2;" horiz-adv-x="617" 
d="M513 -173h-53l31 173h-86l59 340h-307l-59 -340h-58l123 698h58l-54 -307h307l54 307h57l-114 -648h81z" />
    <glyph glyph-name="uni04A3" unicode="&#x4a3;" horiz-adv-x="532" 
d="M440 -164h-51l28 164h-85l43 245h-246l-43 -245h-57l89 506h57l-37 -213h246l37 213h57l-80 -458h79z" />
    <glyph glyph-name="uni04AA" unicode="&#x4aa;" horiz-adv-x="514" 
d="M275 -173h-55l30 167q-96 10 -145 74.5t-49 174.5q0 76 21.5 154.5t62 148.5t109.5 114.5t154 44.5q82 0 148 -36l-26 -46q-62 31 -130 31q-70 0 -126 -42.5t-87 -107t-47 -131t-16 -125.5q0 -98 45 -150.5t131 -52.5q63 0 139 33l13 -46q-71 -33 -143 -39z" />
    <glyph glyph-name="uni04AB" unicode="&#x4ab;" horiz-adv-x="404" 
d="M184 -164h-50l27 158q-127 20 -127 175q0 55 14.5 112t43.5 110.5t81 87.5t118 34q65 0 112 -27l-21 -44q-50 24 -93 24q-54 0 -94.5 -32t-60.5 -80.5t-29.5 -94.5t-9.5 -86q0 -133 114 -133q54 0 110 24l4 -48q-50 -21 -113 -24z" />
    <glyph glyph-name="uni04AE" unicode="&#x4ae;" horiz-adv-x="504" 
d="M232 0h-58l52 304q-82 172 -147 394h61q52 -194 124 -347q140 183 235 347h68q-147 -230 -283 -394z" />
    <glyph glyph-name="uni04AF" unicode="&#x4af;" horiz-adv-x="429" 
d="M155 -211h-56l37 212q-47 226 -71 505h57q21 -248 42 -367q5 -33 11 -79h2q17 39 38 79q85 165 168 367h60q-106 -246 -251 -506z" />
    <glyph glyph-name="uni04B0" unicode="&#x4b0;" horiz-adv-x="504" 
d="M232 0h-58l29 172h-119l9 50h119l14 82q-82 172 -147 394h61q52 -194 124 -347q140 183 235 347h68q-147 -230 -283 -394l-14 -82h120l-9 -50h-120z" />
    <glyph glyph-name="uni04B1" unicode="&#x4b1;" horiz-adv-x="436" 
d="M157 -211h-55l37 211h-101l7 46h94q-48 216 -74 460h55q21 -193 48 -348q1 -8 6 -36.5t7 -43.5h1l40 80q100 196 168 348h60q-106 -232 -240 -460h94l-8 -46h-101z" />
    <glyph glyph-name="uni04B2" unicode="&#x4b2;" horiz-adv-x="542" 
d="M485 -173h-53l30 173h-65l-128 316l-236 -316h-69l283 363l-141 335h66l114 -287l214 287h68l-259 -334l133 -314h82z" />
    <glyph glyph-name="uni04B3" unicode="&#x4b3;" horiz-adv-x="472" 
d="M377 -164h-51l30 164h-54l-91 218l-165 -218h-68l212 260l-110 246h64l82 -203l153 203h66l-197 -244l96 -214h70z" />
    <glyph glyph-name="uni04B8" unicode="&#x4b8;" horiz-adv-x="533" 
d="M393 0h-58l52 298q-53 -8 -106 -9l-21 -115h-48l21 116q-147 10 -147 142q0 31 7 65l35 201h57l-34 -196q-6 -33 -6 -60q0 -53 24 -75t73 -26l21 117h48l-21 -119q56 0 106 9l62 350h58z" />
    <glyph glyph-name="uni04B9" unicode="&#x4b9;" horiz-adv-x="454" 
d="M325 0h-57l44 253q-46 -53 -113 -67l-16 -97h-47l16 94q-49 2 -79 32t-30 86q0 26 6 62l26 143h56l-23 -132q-6 -34 -6 -63q0 -74 59 -80l19 108h46l-18 -103q44 12 80.5 49t46.5 93l22 128h57z" />
    <glyph glyph-name="uni04BA" unicode="&#x4ba;" horiz-adv-x="527" 
d="M434 0h-58l35 203q7 40 7 60q0 61 -33.5 82t-107.5 21q-64 0 -117 -8l-62 -358h-58l122 698h58l-51 -292q80 10 121 10q92 0 139 -31.5t47 -112.5q0 -27 -6 -63z" />
    <glyph glyph-name="uni04BB" unicode="&#x4bb;" horiz-adv-x="513" 
d="M385 0h-56l53 303q8 45 8 75q0 89 -70 89q-62 0 -121.5 -83t-76.5 -182l-36 -202h-57l133 750h57l-47 -260q-9 -50 -25 -115q30 61 79 101t104 40q118 0 118 -134q0 -23 -7 -67z" />
    <glyph glyph-name="uni04D8" unicode="&#x4d8;" horiz-adv-x="617" 
d="M73 375h442q5 37 5 77q0 204 -175 204q-82 0 -188 -33l-7 47q108 37 207 37q112 0 169 -67.5t57 -183.5q0 -124 -41.5 -230t-119 -171t-173.5 -65q-99 0 -148.5 59t-49.5 164q0 82 22 162zM507 325h-384q-11 -61 -11 -109q0 -89 35.5 -132t111.5 -43q80 0 147.5 71
t100.5 213z" />
    <glyph glyph-name="uni04D9" unicode="&#x4d9;" horiz-adv-x="478" 
d="M49 279h316q4 27 4 59q0 62 -28.5 95.5t-96.5 33.5t-142 -24l-6 45q84 28 163 28q170 0 170 -177q0 -160 -72 -254.5t-182 -94.5q-78 0 -111 46t-33 116q0 53 18 127zM357 232h-259q-9 -42 -9 -81q0 -112 94 -112q69 0 114 53.5t60 139.5z" />
    <glyph glyph-name="uni04E8" unicode="&#x4e8;" horiz-adv-x="671" 
d="M282 -10q-112 0 -169 69t-57 187q0 55 11.5 115t38.5 122.5t66 112t100.5 81t136.5 31.5q112 0 170 -70t58 -186q0 -57 -11 -117t-38 -123t-66 -111.5t-101.5 -79.5t-138.5 -31zM560 322h-436q-5 -43 -5 -75q0 -96 43 -151.5t134 -55.5t161.5 70.5t102.5 211.5zM133 372
h435q5 40 5 76q0 98 -43 153.5t-133 55.5q-94 0 -164 -72t-100 -213z" />
    <glyph glyph-name="uni04E9" unicode="&#x4e9;" horiz-adv-x="508" 
d="M202 -10q-83 0 -125.5 50t-42.5 139q0 61 17.5 120.5t49.5 108t82.5 78.5t110.5 30q83 0 125.5 -50.5t42.5 -139.5q0 -82 -29 -157.5t-90 -127t-141 -51.5zM107 278h290q2 16 2 42q0 147 -112 147q-59 0 -108.5 -45t-71.5 -144zM390 232h-290q-3 -21 -3 -49
q0 -144 113 -144q57 0 107.5 44t72.5 149z" />
    <glyph glyph-name="uni1E02" unicode="&#x1e02;" horiz-adv-x="505" 
d="M218 0h-120h-58l123 698h58h90q75 0 114 -36.5t39 -98.5q0 -60 -28.5 -112.5t-82.5 -81.5q41 -10 66 -47.5t25 -90.5q0 -91 -59.5 -161t-166.5 -70zM166 387h99q69 0 102.5 51.5t33.5 117.5q0 92 -104 92h-85zM106 50h122q66 0 110 51.5t44 125.5q0 53 -31.5 81.5
t-92.5 28.5h-101zM330 755q-19 0 -31 13t-12 31q0 22 13 35.5t33 13.5q18 0 30.5 -12.5t12.5 -30.5q0 -22 -13.5 -36t-32.5 -14z" />
    <glyph glyph-name="uni1E03" unicode="&#x1e03;" horiz-adv-x="498" 
d="M33 20l129 730h57l-47 -259q-9 -50 -25 -116q31 62 78 101.5t101 39.5q65 0 95.5 -44t30.5 -121q0 -58 -14.5 -117t-43.5 -114.5t-82.5 -90.5t-122.5 -35q-80 0 -156 26zM121 197l-24 -136q47 -21 97 -21q53 0 93.5 31t62 80t31.5 98.5t10 96.5q0 121 -75 121
q-60 0 -118.5 -84t-76.5 -186zM365 755q-19 0 -31 13t-12 31q0 22 13 35.5t33 13.5q18 0 30.5 -12.5t12.5 -30.5q0 -22 -13.5 -36t-32.5 -14z" />
    <glyph glyph-name="uni1E0A" unicode="&#x1e0a;" horiz-adv-x="610" 
d="M212 0h-115h-57l123 698h58h117q117 0 178 -67t61 -185q0 -32 -4 -68t-15.5 -80t-29 -85t-46.5 -80.5t-65.5 -68.5t-89.5 -46.5t-115 -17.5zM106 50h116q59 0 107.5 21t79 56.5t53 77t33.5 88t16 83t5 68.5q0 93 -46 148t-140 55h-118zM353 755q-19 0 -31 13t-12 31
q0 22 13 35.5t33 13.5q18 0 30.5 -12.5t12.5 -30.5q0 -22 -13.5 -36t-32.5 -14z" />
    <glyph glyph-name="uni1E0B" unicode="&#x1e0b;" horiz-adv-x="498" 
d="M369 0h-50l20 130q-31 -62 -77.5 -101t-100.5 -39q-65 0 -95.5 44t-30.5 120q0 46 8.5 93t28.5 95t49.5 85t75 60.5t101.5 23.5q59 0 102 -12l44 251h57zM366 309l24 135q-46 22 -97 22q-53 0 -93.5 -31t-62 -80t-31.5 -98.5t-10 -96.5q0 -122 75 -122q60 0 118.5 84
t76.5 187zM334 755q-19 0 -31 13t-12 31q0 22 13 35.5t33 13.5q18 0 30.5 -12.5t12.5 -30.5q0 -22 -13.5 -36t-32.5 -14z" />
    <glyph glyph-name="uni1E1E" unicode="&#x1e1e;" horiz-adv-x="443" 
d="M98 0h-58l123 698h58h255l-9 -51h-255l-49 -274h229l-8 -50h-229zM335 755q-19 0 -31 13t-12 31q0 22 13 35.5t33 13.5q18 0 30.5 -12.5t12.5 -30.5q0 -22 -13.5 -36t-32.5 -14z" />
    <glyph glyph-name="uni1E1F" unicode="&#x1e1f;" horiz-adv-x="293" 
d="M-125 -215l8 44h44q32 0 53.5 10.5t33.5 34t17.5 44t12.5 57.5l86 485h-75l8 46h75l12 69q16 89 54 136.5t118 47.5q26 0 51 -5l-8 -44h-44q-32 0 -53 -10.5t-33.5 -35t-18 -43.5t-12.5 -57l-10 -58h116l-8 -46h-116l-88 -496q-16 -89 -54 -136.5t-118 -47.5q-32 0 -51 5
zM322 825q-19 0 -31 13t-12 31q0 22 13 35.5t33 13.5q18 0 30.5 -12.5t12.5 -30.5q0 -22 -13.5 -36t-32.5 -14z" />
    <glyph glyph-name="uni1E40" unicode="&#x1e40;" horiz-adv-x="796" 
d="M665 0h-59q55 341 69 621h-1l-299 -621h-58l-80 621h-2q-87 -311 -145 -621h-59q69 363 176 698h81l76 -601h2l286 601h86q-15 -332 -73 -698zM487 755q-19 0 -31 13t-12 31q0 22 13 35.5t33 13.5q18 0 30.5 -12.5t12.5 -30.5q0 -22 -13.5 -36t-32.5 -14z" />
    <glyph glyph-name="uni1E41" unicode="&#x1e41;" horiz-adv-x="778" 
d="M650 0h-57l54 303q8 54 8 75q0 44 -13.5 66.5t-47.5 22.5q-57 0 -115 -83.5t-75 -180.5l-36 -203h-57l54 303q8 54 8 75q0 44 -13.5 66.5t-47.5 22.5q-57 0 -115 -83.5t-75 -180.5l-36 -203h-57l89 506h48l-18 -131q30 61 77 101t97 40q59 0 85 -38.5t23 -102.5
q30 61 77 101t97 40q109 0 109 -134q0 -27 -8 -67zM453 625q-19 0 -31 13t-12 31q0 22 13 35.5t33 13.5q18 0 30.5 -12.5t12.5 -30.5q0 -22 -13.5 -36t-32.5 -14z" />
    <glyph glyph-name="uni1E56" unicode="&#x1e56;" horiz-adv-x="494" 
d="M98 0h-58l123 698h58h88q41 0 73 -9q49 -14 76 -53t27 -99q0 -104 -66 -179t-171 -75h-101zM157 334h100q78 0 121.5 62t43.5 136q0 88 -68 108q-22 7 -52 7h-90zM329 755q-19 0 -31 13t-12 31q0 22 13 35.5t33 13.5q18 0 30.5 -12.5t12.5 -30.5q0 -22 -13.5 -36
t-32.5 -14z" />
    <glyph glyph-name="uni1E57" unicode="&#x1e57;" horiz-adv-x="498" 
d="M49 -211h-57l126 717h45l-15 -131q31 62 77.5 101.5t100.5 39.5q65 0 95.5 -44t30.5 -121q0 -58 -14.5 -117t-43.5 -114.5t-82.5 -90.5t-122.5 -35q-51 0 -102 12zM121 197l-24 -136q47 -21 97 -21q53 0 93.5 31t62 80t31.5 98.5t10 96.5q0 121 -75 121q-60 0 -118.5 -84
t-76.5 -186zM321 625q-19 0 -31 13t-12 31q0 22 13 35.5t33 13.5q18 0 30.5 -12.5t12.5 -30.5q0 -22 -13.5 -36t-32.5 -14z" />
    <glyph glyph-name="uni1E60" unicode="&#x1e60;" horiz-adv-x="423" 
d="M1 9l18 54q61 -22 121 -22q73 0 117.5 48t44.5 115q0 41 -24 70t-78 67q-105 71 -105 163q0 82 56.5 143t161.5 61q57 0 99 -16l-18 -50q-42 15 -90 15q-73 0 -109.5 -43.5t-36.5 -102.5q0 -41 23.5 -70.5t75.5 -64.5q109 -75 109 -164q0 -91 -63 -156.5t-177 -65.5
q-63 0 -125 19zM308 755q-19 0 -31 13t-12 31q0 22 13 35.5t33 13.5q18 0 30.5 -12.5t12.5 -30.5q0 -22 -13.5 -36t-32.5 -14z" />
    <glyph glyph-name="uni1E61" unicode="&#x1e61;" horiz-adv-x="371" 
d="M4 10l16 53q54 -23 109 -23q51 0 81 26.5t30 69.5q0 30 -15.5 51t-63.5 52q-45 29 -65.5 58.5t-20.5 69.5q0 63 46 106t121 43q50 0 95 -16l-15 -49q-43 16 -87 16q-46 0 -73.5 -26.5t-27.5 -66.5q0 -30 15.5 -50.5t60.5 -47.5q50 -32 71 -61t21 -70q0 -68 -51 -111.5
t-131 -43.5q-65 0 -116 20zM256 625q-19 0 -31 13t-12 31q0 22 13 35.5t33 13.5q18 0 30.5 -12.5t12.5 -30.5q0 -22 -13.5 -36t-32.5 -14z" />
    <glyph glyph-name="uni1E6A" unicode="&#x1e6a;" horiz-adv-x="466" 
d="M213 0h-60l115 647h-192l9 51h444l-9 -51h-192zM323 755q-19 0 -31 13t-12 31q0 22 13 35.5t33 13.5q18 0 30.5 -12.5t12.5 -30.5q0 -22 -13.5 -36t-32.5 -14z" />
    <glyph glyph-name="uni1E6B" unicode="&#x1e6b;" horiz-adv-x="307" 
d="M228 43l-8 -42q-28 -7 -60 -7q-56 0 -80.5 28.5t-11.5 99.5l60 338h-74l8 46h73l39 148h44l-26 -148h117l-8 -46h-117l-59 -335q-9 -53 5.5 -67.5t56.5 -14.5h41zM224 735q-19 0 -31 13t-12 31q0 22 13 35.5t33 13.5q18 0 30.5 -12.5t12.5 -30.5q0 -22 -13.5 -36
t-32.5 -14z" />
    <glyph glyph-name="Wgrave" unicode="&#x1e80;" horiz-adv-x="884" 
d="M609 0h-70l-37 537l-2 95h-2l-35 -95l-218 -537h-68q-53 325 -74 698h62q9 -250 45 -554q3 -21 8 -83h1l40 107l213 530h75l37 -530q4 -48 4 -107h2q5 11 17.5 41.5t18.5 43.5q151 329 232 552h64q-144 -359 -313 -698zM552 757l-151 85l32 50l143 -97z" />
    <glyph glyph-name="wgrave" unicode="&#x1e81;" horiz-adv-x="700" 
d="M477 0h-61l-36 369l-5 74h-1l-30 -74l-158 -369h-65q-41 248 -53 506h57q4 -143 26 -360q1 -13 2.5 -28.5l3.5 -35l3 -29.5h1l38 92l158 361h61l35 -362l6 -91h1l18.5 44l20.5 48q89 195 150 361h59q-114 -277 -231 -506zM453 617l-36 -28l-99 124l48 36z" />
    <glyph glyph-name="Wacute" unicode="&#x1e82;" horiz-adv-x="884" 
d="M609 0h-70l-37 537l-2 95h-2l-35 -95l-218 -537h-68q-53 325 -74 698h62q9 -250 45 -554q3 -21 8 -83h1l40 107l213 530h75l37 -530q4 -48 4 -107h2q5 11 17.5 41.5t18.5 43.5q151 329 232 552h64q-144 -359 -313 -698zM658 842l-157 -85l-23 38l149 97z" />
    <glyph glyph-name="wacute" unicode="&#x1e83;" horiz-adv-x="700" 
d="M477 0h-61l-36 369l-5 74h-1l-30 -74l-158 -369h-65q-41 248 -53 506h57q4 -143 26 -360q1 -13 2.5 -28.5l3.5 -35l3 -29.5h1l38 92l158 361h61l35 -362l6 -91h1l18.5 44l20.5 48q89 195 150 361h59q-114 -277 -231 -506zM409 589l-34 28l106 132l47 -36z" />
    <glyph glyph-name="Wdieresis" unicode="&#x1e84;" horiz-adv-x="884" 
d="M609 0h-70l-37 537l-2 95h-2l-35 -95l-218 -537h-68q-53 325 -74 698h62q9 -250 45 -554q3 -21 8 -83h1l40 107l213 530h75l37 -530q4 -48 4 -107h2q5 11 17.5 41.5t18.5 43.5q151 329 232 552h64q-144 -359 -313 -698zM627 763q-16 0 -27 11.5t-11 27.5q0 18 12.5 31
t28.5 13q17 0 27.5 -11.5t10.5 -28.5q0 -18 -12 -30.5t-29 -12.5zM439 763q-16 0 -27 11.5t-11 27.5q0 18 12.5 31t28.5 13q17 0 27.5 -11.5t10.5 -28.5q0 -18 -12 -30.5t-29 -12.5z" />
    <glyph glyph-name="wdieresis" unicode="&#x1e85;" horiz-adv-x="700" 
d="M477 0h-61l-36 369l-5 74h-1l-30 -74l-158 -369h-65q-41 248 -53 506h57q4 -143 26 -360q1 -13 2.5 -28.5l3.5 -35l3 -29.5h1l38 92l158 361h61l35 -362l6 -91h1l18.5 44l20.5 48q89 195 150 361h59q-114 -277 -231 -506zM499 633q-16 0 -27 11.5t-11 27.5q0 18 12 30
t29 12q16 0 26.5 -11t10.5 -27q0 -19 -11.5 -31t-28.5 -12zM335 633q-16 0 -27 11.5t-11 27.5q0 18 12 30t29 12q16 0 26.5 -11t10.5 -27q0 -19 -11.5 -31t-28.5 -12z" />
    <glyph glyph-name="Ygrave" unicode="&#x1ef2;" horiz-adv-x="504" 
d="M232 0h-58l52 304q-82 172 -147 394h61q52 -194 124 -347q140 183 235 347h68q-147 -230 -283 -394zM350 757l-151 85l32 50l143 -97z" />
    <glyph glyph-name="ygrave" unicode="&#x1ef3;" horiz-adv-x="430" 
d="M-59 -212l10 43h44q27 0 58.5 35t90.5 134q-63 300 -78 506h56q15 -174 49 -364q5 -26 12 -79h1l39 79q87 174 160 364h59q-132 -318 -244 -506q-77 -130 -120 -175t-89 -45q-26 0 -48 8zM312 617l-36 -28l-99 124l48 36z" />
    <glyph glyph-name="endash" unicode="&#x2013;" 
d="M499 277h-500l9 53h500z" />
    <glyph glyph-name="emdash" unicode="&#x2014;" horiz-adv-x="950" 
d="M857 277h-767l10 54h767z" />
    <glyph glyph-name="uni2015" unicode="&#x2015;" horiz-adv-x="950" 
d="M857 277h-767l10 54h767z" />
    <glyph glyph-name="quoteleft" unicode="&#x2018;" horiz-adv-x="238" 
d="M252 749l31 -28q-78 -83 -78 -130q0 -7 4.5 -21t4.5 -25q0 -21 -13.5 -37.5t-36.5 -16.5q-20 0 -33 13.5t-13 37.5q0 81 134 207z" />
    <glyph glyph-name="quoteright" unicode="&#x2019;" horiz-adv-x="238" 
d="M98 462l-30 27q77 85 77 130q0 8 -4 22t-4 24q0 21 13.5 37.5t35.5 16.5q21 0 34 -13t13 -37q0 -80 -135 -207z" />
    <glyph glyph-name="quotesinglbase" unicode="&#x201a;" horiz-adv-x="238" 
d="M-10 -158l-31 27q78 84 78 130q0 8 -4.5 22t-4.5 24q0 21 13.5 37.5t36.5 16.5q20 0 33 -13t13 -37q0 -81 -134 -207z" />
    <glyph glyph-name="quotedblleft" unicode="&#x201c;" horiz-adv-x="399" 
d="M413 744l30 -27q-78 -82 -78 -127q0 -8 4.5 -21.5t4.5 -23.5q0 -21 -13.5 -37t-35.5 -16q-20 0 -32.5 13t-12.5 37q0 80 133 202zM253 748l30 -27q-80 -85 -80 -131q0 -8 4 -21.5t4 -23.5q0 -21 -13.5 -37t-34.5 -16t-33.5 13t-12.5 37q0 78 136 206z" />
    <glyph glyph-name="quotedblright" unicode="&#x201d;" horiz-adv-x="399" 
d="M258 464l-30 27q80 84 80 131q0 7 -4 21t-4 24q0 20 13.5 36t34.5 16q46 0 46 -49q0 -79 -136 -206zM98 468l-30 27q78 81 78 127q0 7 -4.5 21t-4.5 24q0 20 13.5 36t35.5 16q20 0 32.5 -12.5t12.5 -36.5q0 -81 -133 -202z" />
    <glyph glyph-name="quotedblbase" unicode="&#x201e;" horiz-adv-x="399" 
d="M149 -156l-30 27q80 85 80 130q0 8 -4.5 21.5t-4.5 23.5q0 21 13.5 37t35.5 16q20 0 32.5 -13t12.5 -37q0 -79 -135 -205zM-11 -153l-30 27q77 81 77 127q0 8 -4 21.5t-4 23.5q0 21 13.5 37t34.5 16t33.5 -13t12.5 -37q0 -79 -133 -202z" />
    <glyph glyph-name="dagger" unicode="&#x2020;" 
d="M233 107h-29q16 207 30 273l37 139h-162l8 43h162q5 62 21 188h64q-18 -87 -44 -188l161 -1l-8 -42h-161l-13 -139q-9 -63 -66 -273z" />
    <glyph glyph-name="daggerdbl" unicode="&#x2021;" 
d="M231 0h-64q29 130 45 188h-161l7 42h162q-2 38 7 83q12 116 43 206h-161l8 43h161q10 105 22 188h64q-20 -97 -45 -188h162l-8 -43h-161q1 -28 -7 -80q-18 -139 -44 -209h161l-7 -42h-162q-7 -82 -22 -188z" />
    <glyph glyph-name="bullet" unicode="&#x2022;" 
d="M257 199q-59 0 -100.5 42t-41.5 101q0 64 44.5 108.5t105.5 44.5q59 0 100 -42t41 -100q0 -65 -44 -109.5t-105 -44.5z" />
    <glyph glyph-name="ellipsis" unicode="&#x2026;" horiz-adv-x="668" 
d="M500 -8q-21 0 -34.5 15t-13.5 36q0 23 15.5 39t36.5 16t35 -15t14 -35q0 -24 -15.5 -40t-37.5 -16zM289 -8q-21 0 -35 15t-14 36q0 23 15.5 39t37.5 16q21 0 34.5 -15t13.5 -35q0 -24 -15 -40t-37 -16zM77 -8q-21 0 -34.5 15t-13.5 36q0 23 15.5 39t36.5 16t35 -15
t14 -35q0 -24 -15.5 -40t-37.5 -16z" />
    <glyph glyph-name="perthousand" unicode="&#x2030;" horiz-adv-x="1044" 
d="M814 -10q-109 0 -109 120q0 35 7.5 73t25 79.5t54 68.5t85.5 27q108 0 108 -121q0 -35 -7.5 -72.5t-24.5 -79.5t-53 -68.5t-86 -26.5zM187 340q-109 0 -109 120q0 27 4 56.5t16 64.5t30 62.5t50 46t72 18.5q108 0 108 -121q0 -34 -7.5 -72t-25 -79.5t-53.5 -68.5t-85 -27
zM101 -29l-37 27l566 729l37 -27zM487 -10q-108 0 -108 120q0 35 7.5 73t25 79.5t53.5 68.5t85 27q54 0 81.5 -31.5t27.5 -89.5q0 -27 -4 -56t-16 -64.5t-30 -62.5t-50 -45.5t-72 -18.5zM820 34q31 0 54 23t34 57.5t16 65.5t5 57q0 77 -58 77q-31 0 -54.5 -23t-34.5 -57.5
t-16 -66t-5 -57.5q0 -76 59 -76zM193 384q31 0 54 23t34 57.5t16 65.5t5 57q0 77 -58 77q-31 0 -54.5 -23t-34.5 -57.5t-16 -66t-5 -57.5q0 -76 59 -76zM494 34q31 0 54 23t34 57.5t16 65.5t5 57q0 77 -59 77q-31 0 -54 -23t-34 -57.5t-16 -66t-5 -57.5q0 -76 59 -76z" />
    <glyph glyph-name="guilsinglleft" unicode="&#x2039;" horiz-adv-x="331" 
d="M195 84l-48 -21l-90 219l163 214l43 -25l-141 -194z" />
    <glyph glyph-name="guilsinglright" unicode="&#x203a;" horiz-adv-x="331" 
d="M109 63l-43 26l141 193l-73 194l48 20l90 -219z" />
    <glyph glyph-name="exclamdbl" unicode="&#x203c;" horiz-adv-x="635" 
d="M180 171h-48l92 579h66zM131 -11q-20 0 -33.5 14t-13.5 33q0 23 14.5 38t35.5 15q20 0 33 -14t13 -34q0 -22 -14.5 -37t-34.5 -15zM497 171h-48l92 579h66zM448 -11q-20 0 -33.5 14t-13.5 33q0 23 14.5 38t35.5 15q20 0 33 -14t13 -34q0 -22 -14.5 -37t-34.5 -15z" />
    <glyph glyph-name="uni203D" unicode="&#x203d;" horiz-adv-x="413" 
d="M280 632l-56 -291l40.5 46.5t45 53.5t29 52t14.5 66q0 67 -73 73zM192 171h-48l74 464q-45 -2 -99 -17l2 48q54 15 106 20l10 64h66l-12 -65q62 -7 94.5 -37.5t32.5 -82.5q0 -47 -20 -88.5t-50.5 -74l-62 -64.5t-58.5 -75t-35 -92zM143 -11q-20 0 -33 14t-13 33
q0 23 14.5 38t35.5 15q19 0 32 -14t13 -34q0 -22 -14.5 -37t-34.5 -15z" />
    <glyph glyph-name="fraction" unicode="&#x2044;" horiz-adv-x="317" 
d="M-91 -29l-37 27l566 729l36 -27z" />
    <glyph glyph-name="fraction" unicode="&#x2215;" horiz-adv-x="317" 
d="M-91 -29l-37 27l566 729l36 -27z" />
    <glyph glyph-name="zerosuperior" unicode="&#x2070;" horiz-adv-x="394" 
d="M212 377q-122 0 -122 141q0 49 10 98.5t31.5 98t63 78.5t96.5 30q123 0 123 -140q0 -49 -10.5 -99t-32.5 -98t-63.5 -78.5t-95.5 -30.5zM219 421q36 0 64.5 26.5t44 67.5t23.5 83.5t8 80.5q0 100 -75 100q-36 0 -64.5 -26t-44 -67t-23 -82.5t-7.5 -80.5q0 -102 74 -102z
" />
    <glyph glyph-name="foursuperior" unicode="&#x2074;" horiz-adv-x="331" 
d="M268 386h-53l19 106h-183l7 39l205 283h80l-49 -277h63l-8 -45h-63zM242 537l41 234h-1l-167 -234h127z" />
    <glyph glyph-name="fivesuperior" unicode="&#x2075;" horiz-adv-x="330" 
d="M73 388l8 41q34 -8 80 -8q56 0 89 32.5t33 84.5q0 61 -73 61q-52 0 -85 -6l44 221h198l-8 -47h-154l-25 -126q34 2 45 2q57 0 84.5 -27t27.5 -72q0 -71 -49 -119t-125 -48q-57 0 -90 11z" />
    <glyph glyph-name="sixsuperior" unicode="&#x2076;" horiz-adv-x="347" 
d="M379 805l-17 -42q-32 17 -76 17q-49 0 -84 -46t-47 -110l1 -1q40 21 86 21q49 0 76 -25.5t27 -70.5q0 -69 -44.5 -120t-111.5 -51q-100 0 -100 123q0 34 5 73t19.5 84.5t36 81.5t59 60t84.5 24q49 0 86 -18zM147 578q-7 -42 -7 -73q0 -85 57 -85q40 0 67.5 36t27.5 86
q0 58 -64 58q-43 0 -81 -22z" />
    <glyph glyph-name="sevensuperior" unicode="&#x2077;" horiz-adv-x="291" 
d="M109 376l-35 16q49 72 74 117l144 258h-183l8 47h242l-8 -46l-167 -284q-20 -35 -75 -108z" />
    <glyph glyph-name="eightsuperior" unicode="&#x2078;" horiz-adv-x="340" 
d="M272 608q63 -34 63 -94q0 -57 -43.5 -97t-105.5 -40q-50 0 -79.5 24t-29.5 67q0 81 103 136q-28 19 -41.5 40t-13.5 53q0 52 39 89t100 37q46 0 74.5 -23.5t28.5 -61.5q0 -80 -95 -130zM234 629q78 41 78 102q0 23 -14.5 36.5t-39.5 13.5q-36 0 -58 -23.5t-22 -57.5
q0 -41 56 -71zM218 582q-87 -41 -87 -107q0 -26 16.5 -40.5t44.5 -14.5q37 0 63.5 26t26.5 61q0 47 -64 75z" />
    <glyph glyph-name="ninesuperior" unicode="&#x2079;" horiz-adv-x="347" 
d="M301 576l-1 1q-39 -21 -85 -21q-50 0 -77 25.5t-27 70.5q0 69 45 120t112 51q100 0 100 -123q0 -45 -9.5 -94.5t-30.5 -104t-64 -89.5t-101 -35q-51 0 -93 13l12 43q40 -13 88 -13q49 0 84.5 46.5t46.5 109.5zM310 622q7 44 7 73q0 85 -58 85q-40 0 -67 -35.5t-27 -86.5
q0 -58 63 -58q44 0 82 22z" />
    <glyph glyph-name="minussuperior" unicode="&#x207b;" horiz-adv-x="362" 
d="M379 576h-294l9 47h294z" />
    <glyph glyph-name="parenleftsuperior" unicode="&#x207d;" horiz-adv-x="183" 
d="M154 311l-43 -13q-30 96 -30 191q0 211 137 414l37 -19q-121 -196 -121 -395q0 -99 20 -178z" />
    <glyph glyph-name="parenrightsuperior" unicode="&#x207e;" horiz-adv-x="183" 
d="M76 296l-38 19q122 198 122 395q0 101 -21 178l44 13q29 -97 29 -191q0 -213 -136 -414z" />
    <glyph glyph-name="zeroinferior" unicode="&#x2080;" horiz-adv-x="394" 
d="M124 -126q-122 0 -122 141q0 49 10 98.5t31.5 98t63 78.5t96.5 30q123 0 123 -140q0 -49 -10.5 -99t-32.5 -98t-63.5 -78.5t-95.5 -30.5zM131 -82q36 0 64.5 26.5t44 67.5t23.5 83.5t8 80.5q0 100 -75 100q-36 0 -64.5 -26t-44 -67t-23 -82.5t-7.5 -80.5q0 -102 74 -102z
" />
    <glyph glyph-name="oneinferior" unicode="&#x2081;" horiz-adv-x="266" 
d="M109 -117h-55l65 369l-87 -47l-16 34l118 72h51z" />
    <glyph glyph-name="twoinferior" unicode="&#x2082;" horiz-adv-x="342" 
d="M227 -117h-258l7 39l125 114q57 53 83.5 95.5t26.5 87.5q0 57 -68 57q-48 0 -92 -19v42q48 21 103 21q56 0 85 -25t29 -71q0 -59 -31.5 -106.5t-105.5 -114.5l-80 -74h184z" />
    <glyph glyph-name="threeinferior" unicode="&#x2083;" horiz-adv-x="338" 
d="M-27 -118l7 41q35 -5 85 -5q54 0 86 26t32 73q0 67 -102 67h-32l8 44h35q53 0 85 28t32 69q0 51 -60 51q-50 0 -98 -17v42q55 19 109 19q50 0 77.5 -22t27.5 -64q0 -47 -28.5 -80.5t-70.5 -45.5q33 -5 53 -28t20 -57q0 -68 -51.5 -108.5t-126.5 -40.5q-51 0 -88 8z" />
    <glyph glyph-name="fourinferior" unicode="&#x2084;" horiz-adv-x="331" 
d="M179 -117h-53l19 106h-183l7 39l205 283h80l-49 -277h63l-8 -45h-63zM153 34l41 234h-1l-167 -234h127z" />
    <glyph glyph-name="fiveinferior" unicode="&#x2085;" horiz-adv-x="330" 
d="M-16 -115l8 41q34 -8 80 -8q56 0 89 32.5t33 84.5q0 61 -73 61q-52 0 -85 -6l44 221h198l-8 -47h-154l-25 -126q34 2 45 2q57 0 84.5 -27t27.5 -72q0 -71 -49 -119t-125 -48q-57 0 -90 11z" />
    <glyph glyph-name="sixinferior" unicode="&#x2086;" horiz-adv-x="347" 
d="M291 302l-17 -42q-32 17 -76 17q-49 0 -84 -46t-47 -110l1 -1q40 21 86 21q49 0 76 -25.5t27 -70.5q0 -69 -44.5 -120t-111.5 -51q-100 0 -100 123q0 34 5 73t19.5 84.5t36 81.5t59 60t84.5 24q48 0 86 -18zM59 75q-7 -42 -7 -73q0 -85 57 -85q40 0 67.5 36t27.5 86
q0 58 -64 58q-43 0 -81 -22z" />
    <glyph glyph-name="seveninferior" unicode="&#x2087;" horiz-adv-x="291" 
d="M20 -127l-35 16q49 72 74 117l144 258h-183l8 47h242l-8 -46l-167 -284q-20 -35 -75 -108z" />
    <glyph glyph-name="eightinferior" unicode="&#x2088;" horiz-adv-x="340" 
d="M183 105q63 -34 63 -94q0 -57 -43.5 -97t-105.5 -40q-50 0 -79.5 24t-29.5 67q0 81 103 136q-28 19 -41.5 40t-13.5 53q0 52 39 89t100 37q46 0 74.5 -23.5t28.5 -61.5q0 -80 -95 -130zM145 126q78 41 78 102q0 23 -14.5 36.5t-39.5 13.5q-36 0 -58 -23.5t-22 -57.5
q0 -41 56 -71zM129 79q-87 -41 -87 -107q0 -26 16.5 -40.5t44.5 -14.5q37 0 63.5 26t26.5 61q0 47 -64 75z" />
    <glyph glyph-name="nineinferior" unicode="&#x2089;" horiz-adv-x="347" 
d="M212 73l-1 1q-39 -21 -85 -21q-50 0 -77 25.5t-27 70.5q0 69 45 120t112 51q100 0 100 -123q0 -45 -9.5 -94.5t-30.5 -104t-64 -89.5t-101 -35q-51 0 -93 13l12 43q40 -13 88 -13q49 0 84.5 46.5t46.5 109.5zM221 119q7 44 7 73q0 85 -58 85q-40 0 -67 -35.5t-27 -86.5
q0 -58 63 -58q44 0 82 22z" />
    <glyph glyph-name="minusinferior" unicode="&#x208b;" horiz-adv-x="362" 
d="M290 73h-294l9 47h294z" />
    <glyph glyph-name="parenleftinferior" unicode="&#x208d;" horiz-adv-x="183" 
d="M65 -192l-43 -13q-30 96 -30 191q0 211 137 414l37 -19q-121 -196 -121 -395q0 -99 20 -178z" />
    <glyph glyph-name="parenrightinferior" unicode="&#x208e;" horiz-adv-x="183" 
d="M-13 -205l-38 19q122 198 122 395q0 101 -21 178l44 13q29 -97 29 -191q0 -213 -136 -414z" />
    <glyph glyph-name="Euro" unicode="&#x20ac;" 
d="M394 69l12 -45q-58 -34 -143 -34q-84 0 -131.5 58.5t-46.5 176.5h-74l8 46h68q2 16 10 70q9 47 16 74h-68l8 46h74q41 124 111 185t153 61q66 0 117 -34l-27 -43q-50 27 -101 27q-59 0 -108 -48.5t-83 -147.5h189l-8 -46h-194q-9 -36 -14 -67q-8 -42 -11 -77h193l-8 -46
h-187q1 -183 134 -183q60 0 111 27z" />
    <glyph glyph-name="uni20B4" unicode="&#x20b4;" 
d="M362 76l8 -54q-68 -32 -144 -32q-65 0 -103.5 33.5t-38.5 90.5q0 54 29 108h-56l9 46h78q21 27 45 52l52.5 52.5t42.5 42.5h-192l7 46h228q58 70 58 129q0 66 -77 66q-48 0 -104 -25l-10 50q69 27 133 27q58 0 91 -29.5t33 -78.5q0 -68 -54 -139h58l-7 -46h-91
q-19 -20 -71 -71t-73 -76h209l-9 -46h-232q-32 -49 -32 -99q0 -38 21 -59.5t62 -21.5q64 0 130 34z" />
    <glyph glyph-name="uni20B8" unicode="&#x20b8;" horiz-adv-x="625" 
d="M291 0h-58l92 522h-194l9 51h445l-9 -51h-193zM598 647h-445l9 51h445z" />
    <glyph glyph-name="uni2105" unicode="&#x2105;" horiz-adv-x="649" 
d="M252 419l6 -43q-42 -17 -86 -17q-110 2 -110 117q0 104 51 166.5t123 62.5q43 0 73 -18l-21 -43q-32 16 -63 16q-42 0 -75.5 -49t-33.5 -128t67 -79q33 0 69 15zM60 -20l-37 26l550 710l37 -27zM424 -10q-55 0 -85 33.5t-30 92.5q0 100 52 166.5t129 66.5q55 0 86 -34
t31 -93q0 -100 -52.5 -166t-130.5 -66zM434 34q51 0 85 50t34 129q0 92 -72 92q-51 0 -85 -51t-34 -130q0 -90 72 -90z" />
    <glyph glyph-name="uni2116" unicode="&#x2116;" horiz-adv-x="993" 
d="M474 0h-73l-194 624h-1l-110 -624h-56l123 698h83l187 -605h1l107 605h56zM763 137q-63 0 -95.5 36t-32.5 100q0 58 19.5 110.5t64.5 89.5t108 37q62 0 94.5 -35.5t32.5 -100.5q0 -94 -51.5 -165.5t-139.5 -71.5zM871 0h-260l9 48h260zM771 185q55 0 90 56t35 127
q0 96 -76 96q-44 0 -74 -32.5t-41.5 -72.5t-11.5 -81q0 -93 78 -93z" />
    <glyph glyph-name="uni2117" unicode="&#x2117;" horiz-adv-x="666" 
d="M268 161h-53l61 349h103q57 0 84.5 -24t27.5 -62q0 -61 -42.5 -100t-107.5 -39h-52zM297 329h53q38 0 61 25.5t23 64.5q0 47 -66 47h-47zM325 1q-122 0 -202 90t-80 223q0 146 91 249.5t221 103.5q121 0 201.5 -89.5t80.5 -222.5q0 -145 -91 -249.5t-221 -104.5zM327 44
q110 0 186.5 91t76.5 216q0 114 -67.5 194t-168.5 80q-111 0 -187.5 -91t-76.5 -216q0 -114 68 -194t169 -80z" />
    <glyph glyph-name="servicemark" unicode="&#x2120;" horiz-adv-x="616" 
d="M75 413l12 40q27 -11 57 -11t45.5 13t15.5 34q0 22 -45 52q-52 33 -52 72q0 40 29 63.5t78 23.5q31 0 53 -9l-12 -36q-26 8 -49 8q-55 0 -55 -41q0 -20 42 -49q56 -35 56 -75q0 -44 -31.5 -69.5t-85.5 -25.5q-28 0 -58 10zM571 406h-45q22 124 39 242l-115 -242h-50
l-30 243q-39 -199 -47 -243h-42q29 155 63 292h66l26 -241l109 241h71q-22 -169 -45 -292z" />
    <glyph glyph-name="trademark" unicode="&#x2122;" horiz-adv-x="617" 
d="M573 406h-45q22 124 39 242l-115 -242h-50l-30 243q-39 -199 -47 -243h-42q29 155 63 292h66l26 -241l109 241h71q-22 -169 -45 -292zM172 406h-41l45 253h-76l7 39h192l-7 -39h-75z" />
    <glyph glyph-name="onethird" unicode="&#x2153;" horiz-adv-x="672" 
d="M190 349h-55l51 290l-87 -46l-14 35l116 71h51zM48 -29l-37 27l566 729l36 -27zM352 -1l7 40q21 -4 77 -4q45 0 71 18.5t26 55.5q0 51 -78 51h-36l8 44h35q41 0 66 21.5t25 50.5q0 38 -49 38q-46 0 -88 -17v43q56 18 99 18q44 0 68.5 -20t24.5 -54q0 -39 -22 -65t-61 -35
q33 -4 48.5 -23t15.5 -46q0 -56 -41.5 -90.5t-113.5 -34.5q-44 0 -82 9z" />
    <glyph glyph-name="twothirds" unicode="&#x2154;" horiz-adv-x="746" 
d="M288 349h-238l7 38l114 95q89 73 89 135q0 46 -57 46q-41 0 -85 -19v42q48 21 96 21q47 0 74.5 -21.5t27.5 -61.5q0 -48 -25.5 -87t-97.5 -94l-61 -48h164zM128 -29l-37 27l566 729l36 -27zM427 -1l7 40q21 -4 77 -4q45 0 71 18.5t26 55.5q0 51 -78 51h-36l8 44h35
q41 0 66 21.5t25 50.5q0 38 -49 38q-46 0 -88 -17v43q56 18 99 18q44 0 68.5 -20t24.5 -54q0 -39 -22 -65t-61 -35q33 -4 48.5 -23t15.5 -46q0 -56 -41.5 -90.5t-113.5 -34.5q-44 0 -82 9z" />
    <glyph glyph-name="onefifth" unicode="&#x2155;" horiz-adv-x="654" 
d="M190 349h-55l51 290l-87 -46l-14 35l116 71h51zM48 -29l-37 27l566 729l36 -27zM353 2l7 40q35 -8 70 -8q47 0 75.5 22.5t28.5 59.5q0 48 -69 48q-41 0 -73 -6l38 191h179l-8 -47h-135l-20 -96q22 2 42 2q44 0 71.5 -21.5t27.5 -63.5q0 -56 -41.5 -94.5t-115.5 -38.5
q-41 0 -77 12z" />
    <glyph glyph-name="twofifths" unicode="&#x2156;" horiz-adv-x="733" 
d="M288 349h-238l7 38l114 95q89 73 89 135q0 46 -57 46q-41 0 -85 -19v42q48 21 96 21q47 0 74.5 -21.5t27.5 -61.5q0 -48 -25.5 -87t-97.5 -94l-61 -48h164zM128 -29l-37 27l566 729l36 -27zM431 2l7 40q35 -8 70 -8q47 0 75.5 22.5t28.5 59.5q0 48 -69 48q-41 0 -73 -6
l38 191h179l-8 -47h-135l-20 -96q22 2 42 2q44 0 71.5 -21.5t27.5 -63.5q0 -56 -41.5 -94.5t-115.5 -38.5q-41 0 -77 12z" />
    <glyph glyph-name="threefifths" unicode="&#x2157;" horiz-adv-x="697" 
d="M53 348l7 40q21 -4 77 -4q45 0 71 18.5t26 55.5q0 51 -78 51h-36l8 44h35q41 0 66 21.5t25 50.5q0 38 -49 38q-46 0 -88 -17v43q56 18 99 18q44 0 68.5 -20t24.5 -54q0 -39 -22 -65t-61 -35q33 -4 48.5 -23t15.5 -46q0 -56 -41.5 -90.5t-113.5 -34.5q-44 0 -82 9zM92 -29
l-37 27l566 729l36 -27zM395 2l7 40q35 -8 70 -8q47 0 75.5 22.5t28.5 59.5q0 48 -69 48q-41 0 -73 -6l38 191h179l-8 -47h-135l-20 -96q22 2 42 2q44 0 71.5 -21.5t27.5 -63.5q0 -56 -41.5 -94.5t-115.5 -38.5q-41 0 -77 12z" />
    <glyph glyph-name="fourfifths" unicode="&#x2158;" horiz-adv-x="739" 
d="M241 349h-53l13 73h-164l7 41l178 235h80l-41 -231h61l-8 -45h-61zM209 467l33 188h-1l-141 -188h109zM135 -29l-37 27l566 729l36 -27zM437 2l7 40q35 -8 70 -8q47 0 75.5 22.5t28.5 59.5q0 48 -69 48q-41 0 -73 -6l38 191h179l-8 -47h-135l-20 -96q22 2 42 2
q44 0 71.5 -21.5t27.5 -63.5q0 -56 -41.5 -94.5t-115.5 -38.5q-41 0 -77 12z" />
    <glyph glyph-name="onesixth" unicode="&#x2159;" horiz-adv-x="663" 
d="M190 349h-55l51 290l-87 -46l-14 35l116 71h51zM48 -29l-37 27l566 729l36 -27zM615 340l-16 -41q-30 16 -71 16t-69 -33t-37 -86q40 20 74 20q41 0 67.5 -22t26.5 -62q0 -58 -38.5 -100t-96.5 -42q-46 0 -71 28t-25 82q0 43 8.5 84.5t27.5 82.5t55.5 66t85.5 25
q42 0 79 -18zM414 150q-3 -29 -3 -48q0 -68 50 -68q33 0 54.5 27.5t21.5 63.5q0 47 -54 47q-30 0 -69 -22z" />
    <glyph glyph-name="fivesixths" unicode="&#x215a;" horiz-adv-x="731" 
d="M65 351l7 40q35 -8 70 -8q47 0 75.5 22.5t28.5 59.5q0 48 -69 48q-41 0 -73 -6l38 191h179l-8 -47h-135l-20 -96q22 2 42 2q44 0 71.5 -21.5t27.5 -63.5q0 -56 -41.5 -94.5t-115.5 -38.5q-41 0 -77 12zM116 -29l-37 27l566 729l36 -27zM681 340l-16 -41q-30 16 -71 16
t-69 -33t-37 -86q40 20 74 20q41 0 67.5 -22t26.5 -62q0 -58 -38.5 -100t-96.5 -42q-46 0 -71 28t-25 82q0 43 8.5 84.5t27.5 82.5t55.5 66t85.5 25q42 0 79 -18zM480 150q-3 -29 -3 -48q0 -68 50 -68q33 0 54.5 27.5t21.5 63.5q0 47 -54 47q-30 0 -69 -22z" />
    <glyph glyph-name="oneeighth" unicode="&#x215b;" horiz-adv-x="669" 
d="M190 349h-55l51 290l-87 -46l-14 35l116 71h51zM48 -29l-37 27l566 729l36 -27zM533 182q60 -25 60 -74q0 -50 -37.5 -84t-98.5 -34q-46 0 -74 21t-28 59q0 66 88 110q-49 27 -49 73q0 43 33.5 74.5t90.5 31.5q45 0 70.5 -19.5t25.5 -52.5q0 -66 -81 -105zM495 201
q67 31 67 75q0 19 -13.5 29.5t-36.5 10.5q-29 0 -47.5 -17.5t-18.5 -40.5q0 -33 49 -57zM480 159q-71 -30 -71 -81q0 -19 15 -32t38 -13q35 0 56 19.5t21 48.5q0 35 -59 58z" />
    <glyph glyph-name="fiveeights" unicode="&#x215d;" horiz-adv-x="736" 
d="M65 351l7 40q35 -8 70 -8q47 0 75.5 22.5t28.5 59.5q0 48 -69 48q-41 0 -73 -6l38 191h179l-8 -47h-135l-20 -96q22 2 42 2q44 0 71.5 -21.5t27.5 -63.5q0 -56 -41.5 -94.5t-115.5 -38.5q-41 0 -77 12zM116 -29l-37 27l566 729l36 -27zM600 182q60 -25 60 -74
q0 -50 -37.5 -84t-98.5 -34q-46 0 -74 21t-28 59q0 66 88 110q-49 27 -49 73q0 43 33.5 74.5t90.5 31.5q45 0 70.5 -19.5t25.5 -52.5q0 -66 -81 -105zM562 201q67 31 67 75q0 19 -13.5 29.5t-36.5 10.5q-29 0 -47.5 -17.5t-18.5 -40.5q0 -33 49 -57zM547 159
q-71 -30 -71 -81q0 -19 15 -32t38 -13q35 0 56 19.5t21 48.5q0 35 -59 58z" />
    <glyph glyph-name="seveneights" unicode="&#x215e;" horiz-adv-x="663" 
d="M120 339l-38 20q34 50 68 111l100 181h-164l9 47h221l-8 -46l-123 -216q-28 -50 -65 -97zM43 -29l-37 27l566 729l36 -27zM526 182q60 -25 60 -74q0 -50 -37.5 -84t-98.5 -34q-46 0 -74 21t-28 59q0 66 88 110q-49 27 -49 73q0 43 33.5 74.5t90.5 31.5q45 0 70.5 -19.5
t25.5 -52.5q0 -66 -81 -105zM488 201q67 31 67 75q0 19 -13.5 29.5t-36.5 10.5q-29 0 -47.5 -17.5t-18.5 -40.5q0 -33 49 -57zM473 159q-71 -30 -71 -81q0 -19 15 -32t38 -13q35 0 56 19.5t21 48.5q0 35 -59 58z" />
    <glyph glyph-name="partialdiff" unicode="&#x2202;" horiz-adv-x="505" 
d="M264 706l14 51q202 0 202 -257q0 -47 -5.5 -102.5t-24 -131t-47.5 -134.5t-82.5 -100.5t-122.5 -41.5q-83 0 -124.5 50.5t-41.5 131.5q0 52 16 109t47 110.5t85.5 88.5t122.5 35q71 0 117 -33q3 123 -33.5 173.5t-122.5 50.5zM417 430q-64 36 -116 36q-54 0 -96.5 -32
t-65 -81t-34 -96.5t-11.5 -88.5q0 -131 111 -131q167 0 212 393z" />
    <glyph glyph-name="Delta" unicode="&#x2206;" horiz-adv-x="557" 
d="M470 0h-484l10 51q166 361 325 647h58q66 -324 100 -647zM58 51h359q-25 261 -79 579h-1q-152 -295 -279 -579z" />
    <glyph glyph-name="product" unicode="&#x220f;" horiz-adv-x="771" 
d="M509 -211h-58l150 857h-314l-151 -857h-58l150 857h-107l9 52h646l-9 -52h-107z" />
    <glyph glyph-name="summation" unicode="&#x2211;" horiz-adv-x="522" 
d="M400 -211h-446l7 43l354 420l-192 404l7 42h416l-9 -51h-349l193 -398l-346 -408h374z" />
    <glyph glyph-name="minus" unicode="&#x2212;" 
d="M453 283h-407l10 55h407z" />
    <glyph glyph-name="radical" unicode="&#x221a;" 
d="M237 0h-74l-54 457h-65l9 48h110l38 -344q7 -62 7 -110l1 1q8 27 38 100l224 546h65z" />
    <glyph glyph-name="infinity" unicode="&#x221e;" horiz-adv-x="839" 
d="M425 315q-80 -57 -136.5 -87.5t-102.5 -30.5q-61 0 -92.5 33.5t-31.5 84.5q0 72 48 127.5t123 55.5q45 0 93 -30.5t108 -86.5q80 56 137 86.5t104 30.5q61 0 93 -33.5t32 -83.5q0 -72 -48 -128t-125 -56q-47 0 -94.5 31t-107.5 87zM471 348q53 -50 89.5 -75.5t71.5 -25.5
q51 0 80 40t29 90q0 72 -74 72q-56 0 -196 -101zM389 349l-57 51t-49.5 33t-53.5 16q-47 0 -78.5 -39.5t-31.5 -90.5q0 -72 75 -72q33 0 78.5 25.5t116.5 76.5z" />
    <glyph glyph-name="integral" unicode="&#x222b;" horiz-adv-x="351" 
d="M-88 -215l8 45h42q32 0 54 10.5t34 34t17.5 44t12.5 57.5l98 556q18 101 57.5 151t123.5 50q25 0 45 -5l-8 -44h-42q-32 0 -54 -11t-34.5 -34.5t-18 -44t-12.5 -57.5l-97 -556q-17 -100 -57 -150.5t-124 -50.5q-26 0 -45 5z" />
    <glyph glyph-name="approxequal" unicode="&#x2248;" 
d="M456 444l23 -42q-54 -56 -113 -56q-47 0 -99.5 34.5t-88.5 34.5q-37 0 -85 -43l-24 42q57 53 115 53q49 0 98 -34.5t87 -34.5q41 0 87 46zM422 249l23 -43q-53 -55 -113 -55q-47 0 -99.5 34.5t-88.5 34.5t-85 -43l-23 42q55 53 114 53q49 0 98.5 -34.5t87.5 -34.5
q40 0 86 46z" />
    <glyph glyph-name="notequal" unicode="&#x2260;" 
d="M427 182h-232l-100 -146l-41 22l85 124h-103l10 55h131l101 148h-206l10 54h233l100 146l40 -22l-84 -124h102l-10 -54h-130l-100 -148h204z" />
    <glyph glyph-name="lessequal" unicode="&#x2264;" 
d="M422 114l-364 230l10 54l445 229l-11 -65l-380 -194l312 -192zM402 0h-405l10 54h405z" />
    <glyph glyph-name="greaterequal" unicode="&#x2265;" 
d="M463 344l-446 -230l11 65l381 193l-312 193l11 62l365 -229zM402 0h-405l10 54h405z" />
    <glyph glyph-name="diamondrhombsolid" unicode="&#x25c6;" 
d="M411 347l-156 -156l-156 156l156 156z" />
    <glyph glyph-name="lozenge" unicode="&#x25ca;" horiz-adv-x="490" 
d="M218 0h-52l-120 351l240 347h53l119 -352zM202 61l196 287l-95 288l-196 -287z" />
    <glyph glyph-name="apple" unicode="&#xf8ff;" horiz-adv-x="960" 
d="M691 562l-33 -1q0 1 -1 2t-1 2q2 2 8 3h6h38q5 4 5 17q1 3 3 14.5t6 15.5q4 1 5.5 0.5t4.5 -3.5l4 -4q4 -5 3.5 -17t1.5 -19q0 -5 10.5 -4.5t11.5 0.5q4 0 43.5 1t69.5 5q3 -2 4 -3q0 -4 -2 -4q-5 1 -42 -2q-67 -3 -90 -7q-6 -5 -7 -17t-3 -16q0 -3 2 -8.5t2 -6.5
q4 -5 14 -7q17 2 23 13q0 7 -7 12q-3 2 -10 2.5t-10 4.5q2 3 5 4t9 0t8 -1q10 -3 15 -16q-1 -15 -18 -27q-4 -1 -11 -2.5t-10 -2.5q-35 9 -45 24q-4 1 -1 22l4 22q-1 3 -3.5 3.5t-5.5 0t-6 0.5zM651 504l-3 -2q-35 0 -51 -5q-11 5 -13 8q6 37 1 56q-2 2 -14 -4
q-39 -24 -41 -48q-10 -10 -19 -5q-4 3 -3 15t0 16l-1 31q-2 2 -8 1.5t-10 0.5q-1 1 -4 1t-5 0.5t-2 3.5q7 0 26 1.5t26 -0.5q4 -3 3 -14.5t6 -12.5q8 4 25 14t27 14q2 -1 12 -1t12 -8t2 -23.5v-19.5q1 -1 1.5 -5.5t2.5 -6.5q9 -2 13 0q2 0 7.5 -1t9.5 -1q3 -3 0 -5zM398 502
q-4 1 -6.5 -3.5t-6.5 -1.5q-1 3 -12 2t-13 -1q-14 0 -21 3q-24 21 -18 36q7 21 24 30q32 16 47 13q45 -2 55 -21q3 -19 -7 -31q-4 -3 -12.5 -10t-15 -11t-14.5 -5zM280 485l-4 -2q-12 4 -39 0.5t-46 -2.5q-37 -3 -46 -2q-45 -2 -64 3l-2 3q3 3 9 5q4 -2 39 -7q24 3 26 4
q-1 19 4.5 49.5t6.5 43.5q-1 2 -3 4q-6 0 -18.5 -0.5t-21 0.5t-16.5 5q-2 5 3 5q18 -5 56 -3l2 3q6 47 15 66v3q47 55 119 62q31 4 70 -13q2 -1 9.5 -1.5t10.5 -2.5q43 -9 62 -35q2 -2 0 -9q-12 -13 -29 -8q-13 18 -14 24q-6 9 -16 16t-18 9l-23 5.5t-21 5.5l-31 2
q-2 -2 -6.5 -1.5t-6.5 -0.5q-33 -10 -55 -21q-1 -2 -13.5 -11.5t-13.5 -18.5q-9 -22 -11 -70q0 -3 10.5 -2.5t11.5 0.5q19 2 86 2q1 -1 1.5 -3.5t-0.5 -3.5q-5 -5 -15.5 -0.5t-15.5 2.5q-6 0 -20.5 -1t-20.5 0q-4 -1 -12 -1.5t-14 -1.5t-10 -4l-3 -4q-2 -25 1 -63v-14t4 -14
q19 -1 38 1t31 2q2 2 13 -1q1 -1 1 -2v-2zM771 -58l-4 -4q-13 1 -47.5 -2.5t-49.5 -1.5q-31 1 -104 -3.5t-113 -0.5q-24 -4 -96 3q-13 1 -121 1q-68 0 -100 -8q-12 -2 -15 4q0 4 -1 19.5t0 26t4 19.5q1 10 1 37.5t2 42.5q-3 15 -1 44.5t0 44.5q0 25 3 71.5t4 59.5
q2 26 1 71.5t0 71.5q2 5 7 6t9.5 0t9.5 1q2 -4 18.5 -2.5t18.5 1.5q12 12 13 1q1 -1 0.5 -6t2.5 -6q-1 -37 -1 -54.5t3.5 -74l4.5 -72.5q22 7 59 28t57 28q3 1 9.5 5.5t11.5 6.5q8 4 10 3q3 -1 4 -3.5t0 -7.5t-1 -6q-10 -29 -5 -61q1 -2 3 -2.5t3.5 0t4 1t3.5 0.5
q6 5 17.5 12l16.5 10q25 15 41 21q36 25 48 29l20 16q1 4 6 7q3 0 11 -6q0 -9 3 -28t3 -29q1 -2 3.5 -2.5t2.5 -1.5q3 -4 -2 -20l2 -2q23 5 61 32t60 32q3 3 10.5 6t11.5 7q3 0 16 9.5t22 2.5q6 0 7 -4q-1 -3 4 -12q-1 -4 0 -14t-2 -13q0 -5 -0.5 -16t0.5 -18.5t5 -13.5
q-1 -4 2.5 -12.5t-0.5 -10.5q2 -25 4 -27q2 -14 -1 -18q1 -5 2.5 -21t4.5 -25q-1 -2 -1 -5t0.5 -6t0.5 -5q0 -26 6 -74.5t6 -72.5l1 -4q1 -4 0 -5zM425 539q-7 31 -26 34q-1 -3 -3.5 -3.5t-6 0t-4.5 0.5q-15 7 -26 -6q-2 -3 -3.5 -6.5t-1.5 -7t-0.5 -6t1 -6.5t2 -6t3.5 -6.5
t3.5 -6t3.5 -6t4 -5.5q1 -2 3 -2.5t4 0t5 -0.5h9t8 3l8 4q2 2 7 5.5t6.5 5.5t4 7t-0.5 9zM632 1h24q1 0 6 -1.5t6 1.5q0 18 -1 28q0 3 -1 8t-1.5 8.5t1 7t6.5 4.5q4 -2 6 -7.5t3 -7.5q-1 -5 4 -12.5t6 -10.5q7 -4 15 -16.5t14 -16.5q2 0 6 -1.5t7 -0.5q6 0 6 6
q-11 24 -18 32q-2 4 -8 12.5t-9.5 15.5t-4.5 15q-7 14 -6 17q5 6 17 13.5t16 12.5l-9 17q-7 -1 -18 -5.5t-13 -4.5q-1 -1 -4 -3t-5 -3.5t-5 -1t-5 2.5q2 53 1 78l-2 3q-6 0 -27 7q-5 -35 -3 -48q-2 -5 -0.5 -19.5t-1.5 -19.5q1 -18 -1 -51.5t0 -51.5zM608 179q-4 11 -12 15
q-7 7 -10 0q-13 -18 -4 -30q3 -11 19 -4q9 6 7 19zM608 2q2 4 2 13q0 13 -1 38.5t-1 37.5v26q-2 5 -13.5 2.5t-14.5 -2.5q-5 0 -5 -24v-26l-3 -26q1 -3 1 -19.5t5 -24.5q15 0 30 5zM491 -2l3 -4q3 -3 11.5 -1.5t11.5 0.5q-2 7 -0.5 21t-1.5 20q6 31 16 44q4 3 13 6t13 7
q0 4 1.5 11t2 10.5t-0.5 10.5q-24 -2 -30 -13q-2 -2 -3 -5.5t-2 -6t-3.5 -4.5t-6.5 -1q-2 7 -2 29q-3 2 -8 0t-7 0q-7 -4 -11 -13q0 -73 4 -111zM380 179l-2 7h-8q-4 -1 -6 -4.5t-2 -6.5v-7.5t-1 -6.5q-2 -11 -2 -34t-2 -34q1 -11 0 -32.5t0 -31.5q0 -5 -1.5 -17t-0.5 -19
q9 -5 31 5q8 2 10.5 0.5t6.5 -7t7 -7.5q8 0 13 1q12 7 24 20.5t11 24.5q3 5 4.5 10t1.5 10.5t0.5 9.5t-0.5 11t-1.5 10t-2.5 11.5t-2 10.5q1 4 -4.5 7.5t-12.5 7t-8 4.5q-6 6 -8 -1q-11 1 -19 -4q-4 -2 -8 -8t-6 -7q-5 -3 -9 3q5 24 -3 74zM332 -5l1 39q-4 12 -3 44t-7 41
q-11 7 -23 12l-8 5h-14t-19 -5q-6 -3 -8 -26q8 -3 15.5 -1t16.5 0.5t13 -8.5q0 -2 2 -6t-1 -6q-3 -6 1 -8q5 -7 -3 -9q-5 -2 -14.5 -2t-13.5 -1q-19 -7 -25 -37q-2 -3 -0.5 -10.5t-1.5 -10.5q0 -11 15 -17q5 5 8 2q5 -1 9.5 1.5t10.5 7.5t9 7q6 1 7 -2.5t-0.5 -9t2.5 -8.5
q2 -2 8 0t8 2zM234 77l-1 28q-3 4 -21 4q-4 -4 -7 -4q-3 1 -5 3.5t-2 5.5t-0.5 7t-1.5 6q-2 4 4 10q13 4 39 8l6 4q-1 7 1 17.5t2 14.5q-12 2 -52 0q-18 -2 -27 -8q-1 -12 -3.5 -35.5t-3.5 -29.5q2 -19 1.5 -54.5t0.5 -55.5q1 0 7 1t7 0q3 1 11.5 -0.5t11.5 0.5q1 10 1 31
t1 32q2 5 16 12q2 1 8 0.5t7 2.5zM420 98l3 -3q-2 -5 2.5 -10.5t4.5 -7.5q14 -30 -9 -55q-1 -1 -12 -7q-6 1 -9.5 5t-4.5 7.5t-2 11t-2 9.5q1 2 2.5 14.5t5.5 17.5q3 2 9 10t12 8zM264 15q-4 1 -5 3.5t1 8.5l2 6q0 6 9 10q6 0 10 4q13 -3 14 -5q0 -11 -14 -23l-7 -3
q-6 -3 -10 -1z" />
    <glyph glyph-name="fi" unicode="&#xfb01;" 
d="M453 625q-18 0 -30.5 13t-12.5 31q0 21 13.5 35t32.5 14t31 -12.5t12 -30.5q0 -22 -13 -36t-33 -14zM370 0h-57l81 460h-208l-88 -496q-16 -89 -54 -136.5t-118 -47.5q-32 0 -51 5l8 44h44q32 0 53.5 10.5t33.5 34t17.5 44t12.5 57.5l86 485h-75l8 46h75l12 69
q17 90 55 137t117 47q26 0 51 -5l-8 -44h-44q-32 0 -53 -10.5t-33.5 -35t-18 -43.5t-12.5 -57l-10 -58h265z" />
    <glyph glyph-name="fl" unicode="&#xfb02;" horiz-adv-x="521" 
d="M456 44l-8 -45q-22 -4 -43 -4q-90 0 -73 98l107 609q-48 8 -93 8q-67 0 -99 -40.5t-44 -112.5l-9 -51h115l-8 -46h-115l-87 -492q-17 -92 -55 -140t-118 -48q-32 0 -51 5l8 44h44q32 0 53.5 10.5t33.5 34t17.5 44t12.5 57.5l86 485h-75l8 46h75l9 53q18 96 68 148t145 52
q64 0 144 -13l-114 -643q-10 -59 28 -59h38z" />
    </font>
</defs>
</svg>
