<svg width="24" height="24" viewBox="0 0 24 24" fill="none" xmlns="http://www.w3.org/2000/svg">
<path fill-rule="evenodd" clip-rule="evenodd" d="M6.71757 4.30352C6.33291 3.90721 5.69982 3.89777 5.30352 4.28243C4.90721 4.66709 4.89777 5.30018 5.28243 5.69649L11.1057 11.6961C11.3459 11.9436 11.683 12.0402 11.9988 11.9842C12.3152 12.041 12.6533 11.9445 12.8941 11.6965L18.7174 5.69688C19.1021 5.30058 19.0926 4.66748 18.6963 4.28282C18.3 3.89817 17.6669 3.90761 17.2823 4.30391L12.0001 9.74597L6.71757 4.30352Z" fill="#969FA8"/>
<path fill-rule="evenodd" clip-rule="evenodd" d="M6.71757 12.6473C6.33291 12.251 5.69982 12.2415 5.30352 12.6262C4.90721 13.0108 4.89777 13.6439 5.28243 14.0402L11.1057 20.0398C11.3459 20.2873 11.683 20.3839 11.9988 20.3279C12.3152 20.3848 12.6533 20.2883 12.8941 20.0402L18.7174 14.0406C19.1021 13.6443 19.0926 13.0112 18.6963 12.6266C18.3 12.2419 17.6669 12.2514 17.2823 12.6477L12.0001 18.0897L6.71757 12.6473Z" fill="#969FA8"/>
</svg>
