<svg width="32" height="32" viewBox="0 0 32 32" fill="none" xmlns="http://www.w3.org/2000/svg">
<path d="M10.2761 5.37658C9.75544 4.87447 8.91122 4.87447 8.39052 5.37658C7.86983 5.87868 7.86983 6.69275 8.39052 7.19485L15.0572 13.6234C15.5779 14.1255 16.4221 14.1255 16.9428 13.6234L23.6095 7.19485C24.1302 6.69275 24.1302 5.87868 23.6095 5.37658C23.0888 4.87447 22.2446 4.87447 21.7239 5.37658L16 10.896L10.2761 5.37658Z" fill="black"/>
<path d="M10.2761 18.3766C9.75544 17.8745 8.91122 17.8745 8.39052 18.3766C7.86983 18.8787 7.86983 19.6927 8.39052 20.1949L15.0572 26.6234C15.5779 27.1255 16.4221 27.1255 16.9428 26.6234L23.6095 20.1949C24.1302 19.6927 24.1302 18.8787 23.6095 18.3766C23.0888 17.8745 22.2446 17.8745 21.7239 18.3766L16 23.896L10.2761 18.3766Z" fill="black"/>
</svg>
