<svg xmlns="http://www.w3.org/2000/svg" xmlns:xlink="http://www.w3.org/1999/xlink" x="0px" y="0px" viewBox="0 0 19.947 22.035" enable-background="new 0 0 19.947 22.035" xml:space="preserve">
	<path fill="#adb8c1" d="M16.093,10.766l-5.988,6.164l-5.988-6.164c-0.346-0.355-0.904-0.355-1.248,0
			c-0.344,0.354-0.344,0.928,0,1.283l7.236,7.449l7.234-7.449c0.344-0.355,0.344-0.93,0-1.283
			C16.996,10.41,16.437,10.41,16.093,10.766z M10.105,12.496l7.234-7.446c0.344-0.355,0.344-0.931,0-1.284
			c-0.344-0.354-0.902-0.354-1.246,0L10.105,9.93L4.117,3.766c-0.346-0.354-0.904-0.354-1.248,0c-0.344,0.354-0.344,0.929,0,1.284
			L10.105,12.496z"/>
</svg>
