<?xml version="1.0" encoding="utf-8"?>
<!-- Generator: Adobe Illustrator 21.0.0, SVG Export Plug-In . SVG Version: 6.00 Build 0)  -->
<svg version="1.1" id="Layer_1" xmlns="http://www.w3.org/2000/svg" xmlns:xlink="http://www.w3.org/1999/xlink" x="0px" y="0px"
	 viewBox="0 0 2307 2500" style="enable-background:new 0 0 2307 2500;" xml:space="preserve">
<style type="text/css">
	.st0{fill:#3277BC;}
</style>
<path class="st0" d="M731.4,1007.6h884.4c0-314-137-528.1-510.6-528.1c-441.5,0-890.4,287.4-1103.8,645.7
	C67.5,503.3,513.5,1.2,1184.9,1.2c575.5,0,1120.7,440,1120.7,1171.4v278.1H736.1c0,378.5,330.2,528.4,676,528.4
	c420.8,0,681.4-189.1,681.4-189.1v530.2c0,0-294.2,178.7-763.1,178.7c-609.4,0-1039.5-436.7-1039.5-979.8
	c0-426.3,257.8-766.6,615-907C732,803,731.4,1007.6,731.4,1007.6L731.4,1007.6z"/>
</svg>
