<svg xmlns="http://www.w3.org/2000/svg" xmlns:xlink="http://www.w3.org/1999/xlink" x="0px" y="0px" viewBox="0 0 420.234 421.773" enable-background="new 0 0 420.234 421.773" xml:space="preserve">
<g fill="#fff">
	<path d="M300.7,128.248L77.181,8.574C65.562,2.359,52.968,2.04,42.069,6.02l190.43,190.429L300.7,128.248z"/>
	<path d="M384.05,172.875l-64.376-34.473l-72.616,72.606l72.616,72.615l64.376-34.473
		C414.511,232.846,414.511,189.178,384.05,172.875z"/>
	<path d="M24.636,17.713C17.807,25.214,13.5,35.236,13.5,46.716v328.584c0,11.488,4.307,21.51,11.136,29.013L217.94,211.008
		L24.636,17.713z"/>
	<path d="M42.069,416.006c10.898,3.97,23.492,3.658,35.111-2.564L300.7,293.776l-68.201-68.201L42.069,416.006z"/>
</g>
</svg>
