<?xml version="1.0" encoding="UTF-8" standalone="no"?>
<svg width="20px" height="20px" viewBox="0 0 20 20" version="1.1" xmlns="http://www.w3.org/2000/svg" xmlns:xlink="http://www.w3.org/1999/xlink">
    <g id="icons" stroke="none" stroke-width="1" fill="none" fill-rule="evenodd">
        <g id="help_22" fill="#FFFFFF">
            <path d="M10,0 C4.4,0 0,4.6 0,10 C0,15.3999999 4.6,20 10,20 C15.3999999,20 20,15.3999999 20,10 C20,4.6 15.5999999,0 10,0 L10,0 L10,0 L10,0 L10,0 Z M10,14.8 C9.40000004,14.8 8.8,14.2 8.8,13.6 C8.8,13 9.40000004,12.4 10,12.4 C10.6,12.4 10.9999999,13 10.9999999,13.3999999 C10.9999999,14.4 10.6,14.8 10,14.8 L10,14.8 L10,14.8 L10,14.8 L10,14.8 Z M10.7999999,12 L9.2,12 C8.6,9.2 10.6,9.2 10.6,7.80000001 C10.6,7.20000001 10.2,6.80000001 9.40000004,6.80000001 L8.4,6.80000001 L8.4,5.2 C8.8,5.2 9.40000004,5 10,5 C12,5 12.8,6.00000001 12.8,7.20000001 C12.6,9.60000003 10.6,9.60000003 10.7999999,12 L10.7999999,12 L10.7999999,12 L10.7999999,12 L10.7999999,12 Z"></path>
        </g>
    </g>
</svg>