<?xml version="1.0" encoding="UTF-8" standalone="no"?>
<svg width="20px" height="20px" viewBox="0 0 20 20" version="1.1" xmlns="http://www.w3.org/2000/svg" xmlns:xlink="http://www.w3.org/1999/xlink">
    <g id="icons" stroke="none" stroke-width="1" fill="none" fill-rule="evenodd">
        <g id="help_11" fill="#FFFFFF">
            <path d="M10,0 C4.5,0 0,4.5 0,10 C0,15.5 4.5,20 10,20 C15.5,20 20,15.5 20,10 C20,4.5 15.5,0 10,0 L10,0 L10,0 Z M10,19 C5,19 1,15 1,10 C1,5 5,1 10,1 C15,1 19,5 19,10 C19,15 15,19 10,19 L10,19 L10,19 Z M9.9,12.5 C9.3,12.5 8.8,13 8.8,13.7 C8.8,14.4 9.3,14.9 9.9,14.9 C10.6,14.9 11,14.4 11,13.7 C11,13 10.5,12.5 9.9,12.5 L9.9,12.5 L9.9,12.5 Z M9.7,5.1 C9.1,5.1 8.5,5.2 8.1,5.3 L8.1,6.8 C8.4,6.7 8.8,6.7 9.2,6.7 C10,6.7 10.4,7.1 10.4,7.7 C10.4,9.1 8.5,9.3 9,11.9 L10.7,11.9 C10.5,9.6 12.5,9.5 12.5,7.3 C12.5,6 11.6,5.1 9.7,5.1 L9.7,5.1 L9.7,5.1 Z" id="Shape"></path>
        </g>
    </g>
</svg>