<?xml version="1.0" encoding="utf-8"?>
<!-- Generator: Adobe Illustrator 23.0.1, SVG Export Plug-In . SVG Version: 6.00 Build 0)  -->
<svg version="1.1" id="Layer_1" xmlns="http://www.w3.org/2000/svg" xmlns:xlink="http://www.w3.org/1999/xlink" x="0px" y="0px"
	 viewBox="0 0 66.5 35.8" style="enable-background:new 0 0 66.5 35.8;" xml:space="preserve">
<style type="text/css">
	.st0{fill:#EC174F;}
	.st1{fill:#FFFFFF;}
</style>
<rect x="0.1" class="st0" width="66.5" height="36"/>
<g>
	<g id="logo">
		<path class="st1" d="M15.5,26.8v-7.8L9,22.9L15.5,26.8z"/>
		<path class="st1" d="M8.3,31.8l6.6-3.9l-6.6-3.9C8.3,24.1,8.3,31.8,8.3,31.8z"/>
		<path class="st1" d="M19.6,14.8l3.8,6.7l3.8-6.7C27.2,14.8,19.6,14.8,19.6,14.8z"/>
		<path class="st1" d="M24.5,23.4l3.8,6.7l3.8-6.7H24.5z"/>
		<path class="st1" d="M29.3,30.8h7.6l-3.8-6.7L29.3,30.8z"/>
		<path class="st1" d="M8.3,21.8L8.3,21.8l6.6-3.9l-6.6-3.9L8.3,21.8C8.3,21.8,8.3,21.8,8.3,21.8z"/>
		<path class="st1" d="M8.3,11.9L8.3,11.9L14.9,8v0L8.3,4.1L8.3,11.9L8.3,11.9C8.3,11.9,8.3,11.9,8.3,11.9z"/>
		<path class="st1" d="M51.1,21.8L51.1,21.8l6.6-3.9l-6.6-3.9V21.8L51.1,21.8z"/>
		<path class="st1" d="M51.1,11.9L51.1,11.9L57.6,8v0l-6.6-3.9V11.9L51.1,11.9L51.1,11.9z"/>
		<path class="st1" d="M42.9,21.5l3.8-6.7h-7.6L42.9,21.5C42.9,21.5,42.9,21.5,42.9,21.5z"/>
		<path class="st1" d="M38,15.4l-3.8,6.7h7.6L38,15.4L38,15.4z"/>
		<path class="st1" d="M38,30.2l3.8-6.7h-7.6L38,30.2C38,30.2,38,30.2,38,30.2z"/>
		<path class="st1" d="M51.7,22.9l6.6,3.9v-7.8L51.7,22.9z"/>
		<path class="st1" d="M51.1,31.8l6.6-3.9l-6.6-3.9C51.1,24.1,51.1,31.8,51.1,31.8z"/>
		<path class="st1" d="M32.1,22.1l-3.8-6.7l-3.8,6.7H32.1z"/>
	</g>
</g>
</svg>
