<svg version="1.1" id="Слой_1" xmlns="http://www.w3.org/2000/svg" xmlns:xlink="http://www.w3.org/1999/xlink" x="0px" y="0px" viewBox="0 0 29 29" enable-background="new 0 0 29 29" xml:space="preserve">
<path fill-rule="evenodd" clip-rule="evenodd" fill="#3fb34f" d="M14.5,0C22.5,0,29,6.5,29,14.5c0,8-6.5,14.5-14.5,14.5
	S0,22.5,0,14.5C0,6.5,6.5,0,14.5,0z"/>
<path fill-rule="evenodd" clip-rule="evenodd" fill="#FFFFFF" d="M9.4,15.9l3.3,2.8c0.4,0.4,0.4,1,0,1.4c-0.4,0.4-1,0.4-1.4,0
	l-2.8-3.8C8,16,9.4,15.9,9.4,15.9z"/>
<path fill-rule="evenodd" clip-rule="evenodd" fill="#FFFFFF" d="M19.2,9c0,0,1.6-0.1,1.3,0.4l-7.7,10.5c-0.3,0.5-0.9,0.6-1.3,0.4
	c-0.5-0.3-0.6-0.9-0.4-1.3L19.2,9z"/>
</svg>
