<?xml version="1.0" encoding="utf-8"?>
<!-- Generator: Adobe Illustrator 20.0.0, SVG Export Plug-In . SVG Version: 6.00 Build 0)  -->
<svg version="1.1" id="Layer_1" xmlns="http://www.w3.org/2000/svg" xmlns:xlink="http://www.w3.org/1999/xlink" x="0px" y="0px"
	 viewBox="0 0 21 29" style="enable-background:new 0 0 21 29;" xml:space="preserve">
<style type="text/css">
	.st0{fill:#ACB8C1;}
</style>
<g>
	<g>
		<path class="st0" d="M5.7,13c-0.8,0-1.4,0.3-1.9,1l-0.1-0.8H2.6v8.7H4v-2.5c0.3,0.1,0.7,0.1,1,0.1c2,0,2.9-1.5,2.9-3.5
			C8,14.4,7.3,13,5.7,13z M5,18.4c-0.4,0-0.7-0.1-1-0.2v-3c0.5-0.7,0.9-0.9,1.3-0.9c0.8,0,1.1,0.9,1.1,2C6.4,17.6,5.9,18.4,5,18.4z
			 M12.8,13.2c-0.3-0.1-0.7-0.1-1-0.1c-2,0-2.9,1.5-2.9,3.5c0,1.7,0.7,3.1,2.3,3.1c0.8,0,1.4-0.3,1.9-1l0.1,0.8h1.1v-9.1h-1.5V13.2z
			 M12.8,17.5c-0.5,0.7-0.9,0.9-1.3,0.9c-0.8,0-1.1-0.9-1.1-2c0-1.4,0.5-2.2,1.4-2.2c0.4,0,0.7,0.1,1,0.2
			C12.8,14.4,12.8,17.5,12.8,17.5z M16,19.4h1.4v-5.1h1.2v-1.1h-1.2v-0.6c0-0.7,0.1-1.3,0.8-1.3h0.5v-1c-0.2,0-0.5-0.1-0.9-0.1
			c-1.5,0-1.9,0.9-1.9,2.4v0.6h-0.8v1.1H16V19.4z M14,0H2C0.9,0,0,0.9,0,2v25c0,1.1,0.9,2,2,2h17c1.1,0,2-0.9,2-2V7L14,0z M14,1.4
			L19.6,7H15c-0.6,0-1-0.4-1-1V1.4z M20,27c0,0.6-0.4,1-1,1H2c-0.6,0-1-0.4-1-1V2c0-0.6,0.4-1,1-1h11v5c0,1.1,0.9,2,2,2h5V27z"/>
	</g>
</g>
</svg>
