<?xml version="1.0" encoding="utf-8"?>
<!-- Generator: Adobe Illustrator 23.0.1, SVG Export Plug-In . SVG Version: 6.00 Build 0)  -->
<svg version="1.1" id="Layer_1" xmlns="http://www.w3.org/2000/svg" xmlns:xlink="http://www.w3.org/1999/xlink" x="0px" y="0px"
	 viewBox="0 0 32 32" style="enable-background:new 0 0 32 32;" xml:space="preserve">
<style type="text/css">
	.st0{opacity:0.14;}
	.st1{fill-rule:evenodd;clip-rule:evenodd;fill:#BBBBBB;}
	.st2{fill-rule:evenodd;clip-rule:evenodd;fill:#B1B1B1;}
</style>
<g class="st0">
	<g>
		<circle class="st1" cx="16" cy="16" r="16"/>
	</g>
</g>
<path class="st2" d="M17.4,16l5.7-5.7c0.4-0.4,0.4-1,0-1.4c-0.4-0.4-1-0.4-1.4,0L16,14.6l-5.7-5.7c-0.4-0.4-1-0.4-1.4,0
	c-0.4,0.4-0.4,1,0,1.4l5.7,5.7l-5.7,5.7c-0.4,0.4-0.4,1,0,1.4c0.4,0.4,1,0.4,1.4,0l5.7-5.7l5.7,5.7c0.4,0.4,1,0.4,1.4,0
	c0.4-0.4,0.4-1,0-1.4L17.4,16z"/>
</svg>
