<svg xmlns="http://www.w3.org/2000/svg"  viewBox="0 0 20 20">
<defs>
    <style>
      .cls-1 {
        fill: #e30613;
      }
      .cls-2 {
        fill: #fff;
      }
    </style>
  </defs>
  <path class="cls-1" d="M2.5,0h15A2.5,2.5,0,0,1,20,2.5v15A2.5,2.5,0,0,1,17.5,20H2.5A2.5,2.5,0,0,1,0,17.5V2.5A2.5,2.5,0,0,1,2.5,0Z"/>
  <path class="cls-2" d="M5.343,10.38L9.6,14.033a1.3,1.3,0,0,1-1.844,1.84L4.088,10.962C3.581,10.459,5.343,10.38,5.343,10.38ZM15.619,3.92s2.06-.127,1.715.476L9.842,15.628a1.249,1.249,0,0,1-1.713.455,1.273,1.273,0,0,1-.465-1.727Z"/>
</svg>
