<svg xmlns="http://www.w3.org/2000/svg" xmlns:xlink="http://www.w3.org/1999/xlink" x="0px" y="0px" viewBox="0 0 15 17.003" enable-background="new 0 0 15 17.003" xml:space="preserve">
	<path fill="#ADB4BA" d="M0.878,16.113c-1.209-1.228-1.164-3.271,0.103-4.555l7.345-7.454C8.69,3.731,9.174,3.517,9.685,3.504
	c1.02-0.027,1.891,0.857,1.864,1.893c-0.013,0.517-0.224,1.008-0.596,1.381l-6.424,6.52c-0.254,0.257-0.655,0.267-0.897,0.02
	c-0.242-0.245-0.233-0.652,0.021-0.91l6.427-6.521c0.125-0.126,0.194-0.29,0.2-0.463c0.009-0.345-0.281-0.638-0.622-0.63
	c-0.169,0.005-0.33,0.076-0.453,0.201l-7.347,7.455c-0.759,0.771-0.787,1.997-0.062,2.732c0.725,0.736,1.934,0.708,2.692-0.062
	l8.263-8.385c1.266-1.284,1.312-3.327,0.103-4.555C11.646,0.952,9.632,1,8.366,2.283L1.939,8.806
	C1.687,9.062,1.284,9.072,1.042,8.826S0.809,8.173,1.062,7.915l6.427-6.521c1.771-1.798,4.59-1.863,6.283-0.146
	c1.691,1.717,1.627,4.579-0.145,6.376l-8.263,8.385C4.099,17.293,2.087,17.34,0.878,16.113z"/>
</svg>