<?xml version="1.0" encoding="utf-8"?>
<!-- Generator: Adobe Illustrator 22.0.1, SVG Export Plug-In . SVG Version: 6.00 Build 0)  -->
<svg version="1.1" id="artwork" xmlns="http://www.w3.org/2000/svg" xmlns:xlink="http://www.w3.org/1999/xlink" x="0px" y="0px"
	 viewBox="0 0 24 26" style="enable-background:new 0 0 24 26;" xml:space="preserve" preserveAspectRatio="xMinYMin meet">
<style type="text/css">
	.st0{fill:url(#SVGID_1_);}
	.st1{fill:url(#SVGID_2_);}
	.st2{fill:url(#SVGID_3_);}
	.st3{fill:url(#SVGID_4_);}
	.st4{opacity:0.2;enable-background:new    ;}
	.st5{opacity:0.12;enable-background:new    ;}
	.st6{opacity:0.25;fill:#FFFFFF;enable-background:new    ;}
</style>
<g>
	<g>
		
			<linearGradient id="SVGID_1_" gradientUnits="userSpaceOnUse" x1="11.86007" y1="633.828" x2="-4.92233" y2="650.61041" gradientTransform="matrix(1 0 0 1 0 -632.23657)">
			<stop  offset="0" style="stop-color:#00A0FF"/>
			<stop  offset="0.00657" style="stop-color:#00A1FF"/>
			<stop  offset="0.2601" style="stop-color:#00BEFF"/>
			<stop  offset="0.5122" style="stop-color:#00D2FF"/>
			<stop  offset="0.7604" style="stop-color:#00DFFF"/>
			<stop  offset="1" style="stop-color:#00E3FF"/>
		</linearGradient>
		<path class="st0" d="M0.49573,0.41971c-0.2908,0.3078-0.4628,0.7857-0.4628,1.4049v22.1161c0,0.6197,0.172,1.0971,0.4628,1.4049
			l0.074,0.0721l12.389-12.3889v-0.1461v-0.1462l-12.389-12.3894L0.49573,0.41971z"/>
		
			<linearGradient id="SVGID_2_" gradientUnits="userSpaceOnUse" x1="23.89471" y1="645.11975" x2="-0.30219" y2="645.11975" gradientTransform="matrix(1 0 0 1 0 -632.23657)">
			<stop  offset="0" style="stop-color:#FFE000"/>
			<stop  offset="0.4087" style="stop-color:#FFBD00"/>
			<stop  offset="0.7754" style="stop-color:#FFA500"/>
			<stop  offset="1" style="stop-color:#FF9C00"/>
		</linearGradient>
		<path class="st1" d="M17.08813,17.16021l-4.1294-4.1314v-0.1461v-0.1462l4.1304-4.1304l0.0931,0.0531l4.8928,2.7801
			c1.3976,0.794,1.3976,2.0932,0,2.8877l-4.8928,2.7801L17.08813,17.16021z"/>
		
			<linearGradient id="SVGID_3_" gradientUnits="userSpaceOnUse" x1="14.88729" y1="647.41437" x2="-7.87099" y2="670.17267" gradientTransform="matrix(1 0 0 1 0 -632.23657)">
			<stop  offset="0" style="stop-color:#FF3A44"/>
			<stop  offset="1" style="stop-color:#C31162"/>
		</linearGradient>
		<path class="st2" d="M17.18223,17.10661l-4.2235-4.2239l-12.463,12.4629c0.4608,0.4877,1.2212,0.5481,2.0781,0.0614
			L17.18223,17.10661"/>
		
			<linearGradient id="SVGID_4_" gradientUnits="userSpaceOnUse" x1="-2.64234" y1="625.29443" x2="7.52019" y2="635.45697" gradientTransform="matrix(1 0 0 1 0 -632.23657)">
			<stop  offset="0" style="stop-color:#32A071"/>
			<stop  offset="0.0685" style="stop-color:#2DA771"/>
			<stop  offset="0.4762" style="stop-color:#15CF74"/>
			<stop  offset="0.8009" style="stop-color:#06E775"/>
			<stop  offset="1" style="stop-color:#00F076"/>
		</linearGradient>
		<path class="st3" d="M17.18223,8.65871l-14.6084-8.3004c-0.8569-0.4867-1.6173-0.4263-2.0781,0.0614l12.463,12.463
			L17.18223,8.65871z"/>
		<g>
			<path class="st4" d="M17.08913,17.01361l-14.5153,8.2473c-0.812,0.4613-1.5379,0.4306-2.0036,0.0107l0,0l-0.0745,0.0745l0,0
				l0.074,0.0721l0.0005-0.0005c0.4657,0.4199,1.1916,0.4511,2.0036-0.0107l14.6084-8.3004L17.08913,17.01361z"/>
			<path class="st5" d="M0.49573,25.20001c-0.2908-0.3079-0.4628-0.7858-0.4628-1.4049v0.1461c0,0.6192,0.172,1.097,0.4628,1.4049
				l0.0745-0.0745L0.49573,25.20001z"/>
		</g>
		<path class="st5" d="M22.07503,14.18041l-4.9859,2.8332l0.0931,0.093l4.8928-2.7801c0.6986-0.397,1.0483-0.9202,1.0483-1.4434l0,0
			C23.06443,13.35621,22.70883,13.82041,22.07503,14.18041z"/>
		<path class="st6" d="M2.57383,0.50491l19.5012,11.08c0.6338,0.36,0.9894,0.8238,1.0483,1.2978l0,0
			c0.0005-0.5232-0.3493-1.0469-1.0483-1.4439l-19.5012-11.08c-1.3976-0.7941-2.5409-0.1345-2.5409,1.4663v0.1461
			C0.03293,0.37051,1.17623-0.28909,2.57383,0.50491z"/>
	</g>
</g>
</svg>
