<svg width="42" height="52" viewBox="0 0 42 52" fill="none" xmlns="http://www.w3.org/2000/svg">
<path d="M18.9105 13.0586C17.1824 13.0586 15.7628 14.4799 15.7628 16.2063C15.7628 18.3539 16.9553 21.0198 18.212 23.5279C17.2309 26.6028 16.1164 29.8962 14.6898 32.6799C11.7709 33.8239 9.16917 34.6732 7.6057 35.9368C7.58143 35.9611 7.5589 35.9889 7.5381 36.0149C6.9661 36.599 6.6333 37.3963 6.6333 38.2509C6.6333 39.9755 8.05463 41.3969 9.78103 41.3969C10.6234 41.3969 11.4381 41.0814 12.024 40.4816C12.0448 40.4678 12.0621 40.4505 12.0829 40.4332C13.2356 39.0604 14.5928 36.5643 15.8026 34.2833C18.5916 33.1861 21.514 32.0733 24.3341 31.4008C26.3933 33.0613 29.3712 34.1567 31.8221 34.1567C33.5485 34.1567 34.9698 32.7372 34.9698 31.009C34.9698 29.2792 33.5485 27.8612 31.8221 27.8612C29.8565 27.8612 26.9982 28.5615 24.816 29.2964C23.0462 27.6359 21.4186 25.5594 20.2504 23.3529C21.0858 20.7806 22.0617 18.2049 22.0617 16.2081C22.06 14.48 20.6386 13.0586 18.9105 13.0586ZM18.9105 14.948C19.6177 14.948 20.1706 15.5008 20.1706 16.2063C20.1706 17.151 19.6645 18.8913 19.0786 20.7633C18.2952 18.9433 17.6521 17.196 17.6521 16.2063C17.6521 15.5008 18.2033 14.948 18.9105 14.948ZM19.453 25.7224C20.3994 27.2304 21.5088 28.6309 22.7204 29.8754C20.8518 30.3868 19.0301 31.0402 17.2292 31.7248C18.0976 29.7627 18.7926 27.7278 19.453 25.7224ZM31.8204 29.7471C32.5276 29.7471 33.0788 30.3 33.0788 31.0072C33.0788 31.7144 32.5293 32.2657 31.8204 32.2657C30.4025 32.2657 28.3832 31.626 26.7712 30.7316C28.6224 30.2082 30.6434 29.7471 31.8204 29.7471ZM13.0276 35.3856C12.1418 36.9647 11.2613 38.4415 10.646 39.1816C10.4345 39.3827 10.1554 39.5058 9.7793 39.5058C9.07383 39.5058 8.51917 38.9564 8.51917 38.2492C8.51917 37.9164 8.65957 37.5835 8.8537 37.372C9.59383 36.8018 11.1989 36.1171 13.0276 35.3856Z" fill="#ADB8C1"/>
</svg>
