<svg version="1.1" xmlns="http://www.w3.org/2000/svg" xmlns:xlink="http://www.w3.org/1999/xlink" x="0px" y="0px" viewBox="0 0 24 30" enable-background="new 0 0 24 30" xml:space="preserve">
<g fill="#adb8c1">
	<path d="M18.752,1L23,5.248V29H1V1H18.752 M19.166,0H0v30h24V4.833L19.166,0L19.166,0z"/>
	<polygon points="18.166,5.833 24,5.833 18.166,0 "/>
</g>
<g fill="#adb8c1" transform="translate(0,-952.36218)">
	<path d="M10.91,959.896c-0.997,0-1.816,0.82-1.816,1.816c0,1.239,0.688,2.777,1.413,4.224c-0.566,1.774-1.209,3.674-2.032,5.28
		c-1.684,0.66-3.185,1.15-4.087,1.879c-0.014,0.014-0.027,0.03-0.039,0.045c-0.33,0.337-0.522,0.797-0.522,1.29
		c0,0.995,0.82,1.815,1.816,1.815c0.486,0,0.956-0.182,1.294-0.528c0.012-0.008,0.022-0.018,0.034-0.028
		c0.665-0.792,1.448-2.232,2.146-3.548c1.609-0.633,3.295-1.275,4.922-1.663c1.188,0.958,2.906,1.59,4.32,1.59
		c0.996,0,1.816-0.819,1.816-1.816c0-0.998-0.82-1.816-1.816-1.816c-1.134,0-2.783,0.404-4.042,0.828
		c-1.021-0.958-1.96-2.156-2.634-3.429c0.482-1.484,1.045-2.97,1.045-4.122C12.727,960.716,11.907,959.896,10.91,959.896z
		 M10.91,960.986c0.408,0,0.727,0.319,0.727,0.726c0,0.545-0.292,1.549-0.63,2.629c-0.452-1.05-0.823-2.058-0.823-2.629
		C10.184,961.305,10.502,960.986,10.91,960.986z M11.223,967.202c0.546,0.87,1.186,1.678,1.885,2.396
		c-1.078,0.295-2.129,0.672-3.168,1.067C10.441,969.533,10.842,968.359,11.223,967.202z M18.358,969.524
		c0.408,0,0.726,0.319,0.726,0.727c0,0.408-0.317,0.726-0.726,0.726c-0.818,0-1.983-0.369-2.913-0.885
		C16.513,969.79,17.679,969.524,18.358,969.524z M7.516,972.777c-0.511,0.911-1.019,1.763-1.374,2.19
		c-0.122,0.116-0.283,0.187-0.5,0.187c-0.407,0-0.727-0.317-0.727-0.725c0-0.192,0.081-0.384,0.193-0.506
		C5.535,973.594,6.461,973.199,7.516,972.777z"/>
</g>
</svg>
