<?xml version="1.0" encoding="utf-8"?>
<!-- Generator: Adobe Illustrator 24.0.0, SVG Export Plug-In . SVG Version: 6.00 Build 0)  -->
<svg version="1.1" id="Layer_1" xmlns="http://www.w3.org/2000/svg" xmlns:xlink="http://www.w3.org/1999/xlink" x="0px" y="0px"
	 viewBox="0 0 24 24" style="enable-background:new 0 0 24 24;" xml:space="preserve">
<style type="text/css">
	.st0{fill:none;stroke:#E30512;stroke-linecap:round;stroke-miterlimit:10;}
</style>
<path class="st0" d="M4.9,4.9c0.9-0.9,2-1.6,3.2-2.2s2.5-0.8,3.9-0.8s2.7,0.3,3.9,0.8s2.3,1.2,3.2,2.2s1.6,2,2.2,3.2
	s0.8,2.5,0.8,3.9s-0.3,2.7-0.8,3.9s-1.2,2.3-2.2,3.2s-2,1.6-3.2,2.2s-2.5,0.8-3.9,0.8s-2.7-0.3-3.9-0.8S5.8,20,4.9,19.1
	s-1.6-2-2.2-3.2S1.9,13.4,1.9,12"/>
<path class="st0" d="M10.1,17.5V7.8h3.1c1.4,0,2.6,1.2,2.6,2.6l0,0c0,1.4-1.2,2.6-2.6,2.6h-5"/>
<path class="st0" d="M13.4,15H8.2"/>
<polyline class="st0" points="7.4,5.7 4.1,5.8 4,2.5 "/>
</svg>
