<svg version="1.1" xmlns="http://www.w3.org/2000/svg" xmlns:xlink="http://www.w3.org/1999/xlink" x="0px" y="0px" viewBox="0 0 85.8 61.5" enable-background="new 0 0 85.8 61.5" xml:space="preserve">
	<path fill="#b3b3b3" d="M43.1,26c-1.9,0-3.6,0.4-5.2,1.2c0.7,0.7,1.2,1.7,1.2,2.8c0,2.2-1.8,4-4,4 c-1.1,0-2.1-0.4-2.8-1.2c-0.7,1.6-1.2,3.3-1.2,5.2c0,6.6,5.4,12,12,12c6.6,0,12-5.4,12-12S49.7,26,43.1,26"/>
	<path fill="#b3b3b3" d="M44.6,10.1V0c-0.6,0-1.2,0-1.8,0c-0.4,0-0.8,0-1.2,0v10c0.4,0,0.8,0,1.2,0 C43.3,10,43.9,10,44.6,10.1"/>
	<path fill="#b3b3b3" d="M9.2,23l-7.1-7.1C1.4,16.6,0.7,17.3,0,18l7.1,7.1C7.8,24.4,8.5,23.7,9.2,23"/>
	<path fill="#b3b3b3" d="M25.5,13.1l-3.8-9.3c-0.9,0.4-1.9,0.7-2.8,1.1l3.8,9.3C23.6,13.9,24.5,13.5,25.5,13.1"/>
	<path fill="#b3b3b3" d="M76.5,23.3c0.7,0.7,1.4,1.4,2.1,2.1l7.1-7.1c-0.7-0.7-1.4-1.4-2.1-2.1L76.5,23.3z"/>
	<path fill="#b3b3b3" d="M67.2,5.3c-0.9-0.4-1.8-0.8-2.8-1.2l-3.8,9.3c0.9,0.4,1.9,0.7,2.8,1.2L67.2,5.3z"/>
	<path fill="#b3b3b3" d="M43.1,14.5c-16.1,0-31.2,8.7-39.3,22.8L3.3,38l0.4,0.8c8.1,14,23.2,22.8,39.3,22.8 c16.1,0,31.2-8.7,39.3-22.8l0.4-0.8l-0.4-0.8C74.3,23.2,59.2,14.5,43.1,14.5 M24.6,38c0-10.2,8.3-18.5,18.5-18.5 S61.6,27.8,61.6,38s-8.3,18.5-18.5,18.5S24.6,48.2,24.6,38 M6.8,38c6.1-10,16-17,27.3-19.5C26.7,21.9,21.6,29.4,21.6,38 c0,8.6,5.1,16.1,12.5,19.5C22.8,55,12.9,48,6.8,38 M52,57.5c7.4-3.4,12.5-10.9,12.5-19.5c0-8.6-5.1-16.1-12.5-19.5 C63.3,21,73.2,27.9,79.3,38C73.2,48,63.3,55,52,57.5"/>
</svg>