<?xml version="1.0" encoding="utf-8"?>
<!-- Generator: Adobe Illustrator 22.0.1, SVG Export Plug-In . SVG Version: 6.00 Build 0)  -->
<svg version="1.1" id="Layer_1" xmlns="http://www.w3.org/2000/svg" xmlns:xlink="http://www.w3.org/1999/xlink" x="0px" y="0px"
	 viewBox="0 0 42 52" style="enable-background:new 0 0 42 52;" xml:space="preserve" preserveAspectRatio="xMinYMin meet">
<style type="text/css">
	.st0{fill:#333333;}
</style>
<path id="_" class="st0" d="M34.91863,27.61854c0.05127-3.97485,2.1344-7.64673,5.52002-9.72998
	c-2.14917-3.05994-5.61267-4.93054-9.34998-5.05005c-3.93994-0.42004-7.75,2.34998-9.76001,2.34998
	c-2.04004,0-5.13-2.31006-8.44995-2.23999c-4.37512,0.13513-8.3562,2.56262-10.47998,6.39002
	c-4.54004,7.83997-1.16003,19.36999,3.18994,25.71997c2.17004,3.09998,4.70996,6.56995,8.03003,6.44995
	c3.25-0.14001,4.45996-2.06995,8.38-2.06995c3.89001,0,5.03003,2.06995,8.42004,1.98999c3.48999-0.06006,5.68006-3.12,7.78003-6.25
	c1.5614-2.21387,2.76294-4.66077,3.56006-7.25C37.61285,36.18019,34.9179,32.11805,34.91863,27.61854z M28.51861,8.66859
	c1.89697-2.28552,2.83264-5.21826,2.60999-8.18005c-2.90686,0.3042-5.59216,1.69336-7.52002,3.89001
	c-1.90161,2.16418-2.8656,4.99512-2.68005,7.87C23.87273,12.27821,26.66887,10.95936,28.51861,8.66859z"/>
</svg>
