<svg viewBox="0 0 25 14" version="1.1" xmlns="http://www.w3.org/2000/svg" xmlns:xlink="http://www.w3.org/1999/xlink">
    <g stroke="none" stroke-width="1" fill="none" fill-rule="evenodd">
        <g transform="translate(-1444.000000, -916.000000)" fill="#E01021">
            <g transform="translate(1260.000000, 470.000000)">
                <g transform="translate(184.000000, 446.000000)">
                    <polygon points="0.3159 9.41695 3.5919 11.36245 3.5919 7.48595"></polygon>
                    <polygon points="0 13.8526 3.276 11.9221 0 9.9766"></polygon>
                    <polygon points="5.64655 5.3346 7.54305 8.6946 9.42555 5.3346"></polygon>
                    <polygon points="8.0748 9.66735 9.9713 13.02735 11.8533 9.66735"></polygon>
                    <polygon points="10.50275 13.35145 14.29575 13.35145 12.39925 9.99145"></polygon>
                    <polygon points="0 8.8567 0 8.8717 3.276 6.9262 0 4.9807"></polygon>
                    <polygon points="0 -0.0002 0 3.8758 3.276 1.9453 3.276 1.9308"></polygon>
                    <polygon points="21.3795 8.8567 21.3795 8.8717 24.6555 6.9262 21.3795 4.9807"></polygon>
                    <polygon points="21.3795 -0.0002 21.3795 3.8758 24.6555 1.9453 24.6555 1.9308"></polygon>
                    <polygon points="17.2701 8.6947 19.1666 5.3347 15.3736 5.3347"></polygon>
                    <polygon points="14.8277 5.6588 12.9452 9.0188 16.7242 9.0188"></polygon>
                    <polygon points="14.84185 13.02745 16.72435 9.66745 12.94535 9.66745"></polygon>
                    <polygon points="21.6954 9.41695 24.9714 11.36245 24.9714 7.48595"></polygon>
                    <polygon points="21.3795 13.8526 24.6555 11.9221 21.3795 9.9766"></polygon>
                    <polygon points="11.86775 9.0189 9.97125 5.6589 8.08925 9.0189"></polygon>
                </g>
            </g>
        </g>
    </g>
</svg>