<svg version="1.1" xmlns="http://www.w3.org/2000/svg" xmlns:xlink="http://www.w3.org/1999/xlink" x="0px" y="0px" viewBox="0 0 85.8 61.5" enable-background="new 0 0 85.8 61.5" xml:space="preserve">
	<path fill="#b3b3b3" d="M41.3,51.4v10c0.6,0,1.2,0,1.8,0c0.4,0,0.8,0,1.2,0v-10c-0.4,0-0.8,0-1.2,0C42.5,51.5,41.9,51.5,41.3,51.4z"/>
	<path fill="#b3b3b3" d="M78.8,36.4c-0.7,0.7-1.4,1.4-2.2,2.1l7.1,7.1c0.7-0.7,1.5-1.4,2.2-2.1L78.8,36.4z"/>
	<path fill="#b3b3b3" d="M60.4,48.4l3.8,9.3c0.9-0.4,1.9-0.7,2.8-1.1l-3.8-9.3C62.3,47.6,61.4,48,60.4,48.4z"/>
	<path fill="#b3b3b3" d="M0.1,43.2c0.7,0.7,1.4,1.4,2.1,2.1l7.1-7.1c-0.7-0.7-1.4-1.4-2.1-2.1L0.1,43.2z"/>
	<path fill="#b3b3b3" d="M18.7,56.2c0.9,0.4,1.8,0.8,2.8,1.2l3.8-9.3c-0.9-0.4-1.9-0.7-2.8-1.2L18.7,56.2z"/>
	<path fill="#b3b3b3" d="M79.5,22.8C72,35.9,57.9,44,42.8,44S13.7,35.9,6.1,22.8l-2.6,1.5C11.6,38.3,26.7,47,42.8,47S74,38.3,82.1,24.3L79.5,22.8z"/>
</svg>
