<svg xmlns="http://www.w3.org/2000/svg" xmlns:xlink="http://www.w3.org/1999/xlink" x="0px" y="0px" viewBox="0 0 42 42" enable-background="new 0 0 42 42" xml:space="preserve">
	<line fill="none" stroke="#ADB8C1" stroke-width="2" stroke-miterlimit="10" x1="16.3" y1="22.9" x2="25.4" y2="28.1"/>
	<line fill="none" stroke="#ADB8C1" stroke-width="2" stroke-miterlimit="10" x1="25.4" y1="14.2" x2="16.3" y2="19.4"/>
	<path fill="none" stroke="#ADB8C1" stroke-width="2" stroke-miterlimit="10" d="M16.8,21.2c0,1.9-1.5,3.4-3.4,3.4
		c-1.9,0-3.4-1.5-3.4-3.4c0-1.9,1.5-3.4,3.4-3.4C15.3,17.7,16.8,19.3,16.8,21.2z"/>
	<path fill="none" stroke="#ADB8C1" stroke-width="2" stroke-miterlimit="10" d="M31.8,12.5c0,1.9-1.5,3.4-3.4,3.4
		c-1.9,0-3.4-1.5-3.4-3.4c0-1.9,1.5-3.4,3.4-3.4C30.3,9.1,31.8,10.6,31.8,12.5z"/>
	<path fill="none" stroke="#ADB8C1" stroke-width="2" stroke-miterlimit="10" d="M31.8,29.8c0,1.9-1.5,3.4-3.4,3.4
		c-1.9,0-3.4-1.5-3.4-3.4c0-1.9,1.5-3.4,3.4-3.4C30.3,26.4,31.8,27.9,31.8,29.8z"/>
</svg>