<?xml version="1.0" encoding="UTF-8"?>
<!-- Generator: Adobe Illustrator 16.0.0, SVG Export Plug-In . SVG Version: 6.00 Build 0)  -->
<!DOCTYPE svg PUBLIC "-//W3C//DTD SVG 1.1//EN" "http://www.w3.org/Graphics/SVG/1.1/DTD/svg11.dtd">
<svg version="1.1" id="Layer_1" xmlns="http://www.w3.org/2000/svg" xmlns:xlink="http://www.w3.org/1999/xlink" x="0px" y="0px" width="50px" height="50.181px" viewBox="0 0 50 50.181" enable-background="new 0 0 50 50.181" xml:space="preserve">
<path fill="#ADB8C1" d="M36.972,25.843v8.12h-4.717v-7.577c0-1.902-0.683-3.201-2.39-3.201c-1.303,0-2.078,0.875-2.42,1.721  c-0.124,0.303-0.156,0.725-0.156,1.148v7.909h-4.718c0,0,0.063-12.833,0-14.161h4.718v2.006c-0.01,0.016-0.022,0.031-0.031,0.047  h0.031v-0.047c0.627-0.963,1.746-2.34,4.252-2.34C34.645,19.468,36.972,21.492,36.972,25.843z M17.636,12.974  c-1.614,0-2.67,1.057-2.67,2.447c0,1.359,1.024,2.447,2.606,2.447h0.032c1.646,0,2.669-1.088,2.669-2.447  C20.242,14.031,19.25,12.974,17.636,12.974z M15.246,33.963h4.717V19.802h-4.717V33.963z"/>
</svg>