<?xml version="1.0" encoding="utf-8"?>
<!-- Generator: Adobe Illustrator 22.0.1, SVG Export Plug-In . SVG Version: 6.00 Build 0)  -->
<svg version="1.1" id="Layer_2_1_" xmlns="http://www.w3.org/2000/svg" xmlns:xlink="http://www.w3.org/1999/xlink" x="0px" y="0px"
	 viewBox="0 0 24 26" style="enable-background:new 0 0 24 26;" xml:space="preserve" preserveAspectRatio="xMinYMin meet">
<style type="text/css">
	.st0{fill:#CCCCCC;}
</style>
<path class="st0" d="M22.07501,11.43884l-4.89288-2.78003l0.00012-0.00012L2.57385,0.35833
	C2.5675,0.35473,2.56177,0.354,2.55542,0.35046C2.36505,0.24395,2.18115,0.16918,2.00269,0.11535
	c-0.0603-0.01819-0.11615-0.02454-0.1748-0.03687c-0.12305-0.026-0.24225-0.04327-0.35657-0.04431
	C1.4115,0.03362,1.3548,0.03771,1.29773,0.04382C1.18964,0.05529,1.08844,0.07928,0.99127,0.11376
	c-0.04749,0.01691-0.09558,0.0307-0.1402,0.05298c-0.09924,0.04938-0.18774,0.11548-0.2713,0.19043L0.5697,0.3471L0.49573,0.41973
	C0.49133,0.42437,0.48834,0.43084,0.48401,0.43554C0.46222,0.45922,0.44543,0.48913,0.42511,0.5147
	c-0.05872,0.07391-0.1123,0.15405-0.15869,0.24371C0.24487,0.8001,0.22632,0.84417,0.20764,0.88915
	c-0.03778,0.0907-0.06866,0.18829-0.09418,0.29205c-0.01147,0.04675-0.0246,0.09113-0.03345,0.14038
	c-0.0282,0.15637-0.04706,0.32159-0.04706,0.50299v0.00055v0.14606V23.7951v0.14563v0.00049c0,0.6192,0.172,1.09698,0.46277,1.40491
	l0.07397,0.07208l0.00055-0.00049c0.05408,0.04877,0.1228,0.07355,0.18359,0.11163c0.05945,0.03729,0.11346,0.08197,0.17883,0.10876
	c0.08691,0.03564,0.18463,0.04773,0.28101,0.06421c0.06757,0.01154,0.12958,0.034,0.20129,0.03583
	c0.11584,0.00299,0.24139-0.0224,0.36664-0.04559c0.06299-0.01166,0.12085-0.00909,0.18579-0.02759
	c0.1947-0.0553,0.39734-0.13904,0.60645-0.25793l14.51422-8.24689l0.00006,0.00006l0.09412-0.0531l2.1568-1.22552l3.0498-1.76068
	c0.28979-0.2196,0.48737-0.46631,0.60419-0.72272c0.07721-0.16925,0.13031-0.34125,0.13031-0.51508
	c-0.00006,0.00043-0.00031,0.00079-0.00037,0.00122c0.00006-0.00104,0-0.00214-0.00006-0.00317
	c0.00006,0.00049,0.00037,0.00104,0.00043,0.00153C23.12384,12.35949,22.77405,11.83581,22.07501,11.43884z M16.38251,9.43798
	l-2.61157,2.58954l-8.68646-8.6134L3.87866,2.2185L16.38251,9.43798z M1.10156,24.59002V1.09795l11.84589,11.74615l-5.61658,5.56927
	L1.10156,24.59002z M3.88,23.46813l5.30542-5.26074l4.58557-4.54675l1.62018,1.60632l0.99109,0.98267L3.88,23.46813z
	 M17.42316,15.64886l-2.82874-2.80475l2.82898-2.80511l4.85846,2.80487L17.42316,15.64886z"/>
</svg>
