<svg width="22" height="21" viewBox="0 0 22 21" fill="none" xmlns="http://www.w3.org/2000/svg">
<path fill-rule="evenodd" clip-rule="evenodd" d="M7.49172 19.6098C6.5781 19.6098 5.83453 18.866 5.83453 17.9519C5.83453 17.038 6.5781 16.2944 7.49172 16.2944C8.40583 16.2944 9.1494 17.038 9.1494 17.9519C9.1494 18.866 8.40583 19.6098 7.49172 19.6098Z" stroke="#333333"/>
<path fill-rule="evenodd" clip-rule="evenodd" d="M17.9646 19.6098C17.0509 19.6098 16.3074 18.866 16.3074 17.9519C16.3074 17.038 17.0509 16.2944 17.9646 16.2944C18.8787 16.2944 19.6222 17.038 19.6222 17.9519C19.6222 18.866 18.8787 19.6098 17.9646 19.6098Z" stroke="#333333"/>
<path d="M1 1H2.53081C3.58262 1 4.43534 1.85222 4.43534 2.90403V12.7046C4.43534 13.6142 5.1723 14.3512 6.08141 14.3512H20.0139" stroke="#333333" stroke-linecap="round" stroke-linejoin="round"/>
<path d="M4.43518 10.2125C4.43518 11.1216 5.17214 11.859 6.08125 11.859H18.8716C19.7807 11.859 20.5177 11.1216 20.5177 10.2125V5.24881L6.30179 3.05139" stroke="#333333" stroke-linecap="round"/>
</svg>
