<svg version="1.1" xmlns="http://www.w3.org/2000/svg" xmlns:xlink="http://www.w3.org/1999/xlink" x="0px" y="0px"
	 viewBox="0 0 379 215" width="379" height="215" style="enable-background:new 0 0 379 215;" xml:space="preserve">
<style type="text/css">
	.st0{fill:#FFFFFF;}
</style>
<path class="st0" d="M256.2,166.7L256.2,166.7c0.2,0,0.4,0,0.6-0.1C256.6,166.7,256.4,166.7,256.2,166.7z"/>
<path class="st0" d="M262,167.9c0.3,0,0.6-0.1,0.9-0.1C262.2,167.8,261.5,167.6,262,167.9z"/>
<path class="st0" d="M263.5,166.8c0.4,0.5,0.4,0.8,0.2,0.9c0.8-0.1,1.5-0.1,1.9-0.1c0.2,0.2,0.2,0.6,0.6,0.6
	c-0.1-0.3-0.2-0.6-0.4-0.9c-1.8-0.4-3.6-0.7-5.4-0.8c0.2,0.2,0.3,0.4,0.5,0.6C261.6,166.8,262.4,166.6,263.5,166.8z"/>
<path class="st0" d="M241.1,172c0.1,0,0.3,0,0.4-0.1c0.3-0.1,0.6-0.2,0.9-0.2c0,0,0,0,0.1,0c3.6-0.7,6.8-1.7,10-1.8
	c0.5-0.1,0.1-0.6,0.4-0.7c0.6,1.2,1.8-0.6,3,0.3c1.1-0.8,3.7-1.3,6-1.7c-0.3-0.3-0.7-0.6-1-0.9c-1.1,0.4-2.1,1-3.4,0.9
	c-0.3,0.3-0.8-0.5-1.3-1.2c-0.1,0-0.2,0-0.2,0c-0.1,0-0.2,0-0.3,0.1c0.6,0.9,0,0.3-0.5,0.1c-0.1,0-0.1,0-0.2,0
	c0.3,0.5,1.4,1.4,0.7,1.4c-1-0.4-3.3,1.2-4.3,0.8c-0.1-1.1,1-0.5,2.1-0.7c-1.4-1.2,2-0.4,1.3-1.3c-1.1-0.3-2.8,1.1-4.1,0.9
	c-0.1,0-0.1,0-0.2,0.1c0.3,0.6,0.7,1.1,0.8,1.6c-0.2,0-0.4,0-0.5,0s-0.2,0-0.2,0c-0.5,0-1,0-1.7,0.1c-0.4-0.4-0.8-0.7-1.3-0.5
	c-0.5,0.3,0.2,0.3,0.7,0.6c-0.4,0.1-0.8,0.2-1.2,0.3c-0.2-0.3-0.2-0.5-0.2-0.7h-0.1c-0.3,0.1-0.5,0.2-0.8,0.3l0.4,0.5
	c0.1,0,0.3,0,0.4,0c-0.4,0.1-0.9,0.2-1.2,0.4c-0.2-0.2-0.4-0.4-0.7-0.4c0.2,0.4,0,0.3-0.3,0.1c-1,0.4-2,0.7-2.9,1
	c-0.1,0.1-0.3,0.1-0.4,0.1c-0.2,0.1-0.5,0.1-0.8,0.2C240.6,171.7,240.8,171.8,241.1,172L241.1,172z"/>
<path class="st0" d="M240.1,172.6c0.3-0.1,0.4-0.1,0.3-0.3C240.3,172.4,240.1,172.5,240.1,172.6C240,172.6,240.1,172.6,240.1,172.6z
	"/>
<path class="st0" d="M111.1,193.7c-1.1-0.1-0.6-0.7-1.6-0.9c0.3,0.7,1.7,1.9,1.9,2.5C113.1,195.1,109.7,194.2,111.1,193.7z"/>
<path class="st0" d="M240.4,172.1c-0.1-0.2-0.2-0.3-0.3-0.4c-0.2,0-0.3,0.1-0.5,0.1v0.1c0,0-0.1,0-0.1-0.1h-0.1
	c0.1,0.1,0.2,0.2,0.3,0.3C239.9,172.2,240.1,172.2,240.4,172.1z"/>
<path class="st0" d="M280.8,168.2c0.1,0,0.2,0,0.3-0.1c0-0.1-0.2-0.2-0.4-0.4c-0.1,0-0.2,0-0.3,0c0.1,0,0.2,0.1,0.4,0.1
	C280.8,168,280.8,168.2,280.8,168.2z"/>
<path class="st0" d="M377.5,166.3c-0.7,0.2-1.4,0.4-2.1,0.4c-0.2,0-0.2,0.1-0.3,0.2c-1.5,0.2-3.4,0.6-4.4,1.1
	c-0.3,0.1-0.5,0.1-0.8,0.2c-7.9,2.9-16.3,5.5-25,7.6c-12.2,2.9-24.5,5.6-37.3,7.5c-0.8,0.1-1.6,0.2-2.3,0.3
	c-0.1,0.1-0.6,0.1-1.3,0.3c-0.3,0.1-0.5,0-0.7,0c-2.4,0.3-4.8,0.7-7.3,1c0.1,0,0.2,0.1,0.3,0.1c0.5,0.1,1.5,0.1,1.8,0.4
	c0.2,0.4-1.4,0.3-2.2,0.2c-0.7-0.1-2.6,0.2-3.2,0.4c-0.7,0.2-1-0.2-1.8-0.2s-2.5,0.5-3.2,0.3c-0.1,0-0.1-0.1-0.2-0.1
	c-2,0.2-4.1,0.5-6.1,0.7c-0.4,0.1-0.8,0.1-1.1,0.2c-0.1,0-0.1,0-0.2,0c-0.7,0.1-1.4,0.2-2,0.2c-0.1,0.1-0.2,0.3-0.2,0.4
	c-0.1,0.2-1,0.1-1.6,0.2c-0.4,0.1-0.9-0.1-1.3-0.3c-0.5,0.1-1,0.1-1.5,0.2c-0.2,0-0.7-0.2-0.7-0.2c0.6-0.1,1.1-0.2,1.7-0.3
	c0,0-0.1,0-0.1-0.1c-0.4-0.3-2.7,0-3.7,0s-0.3,0.4-0.4,0.8c-0.1,0.4-0.8,0.3-1.4,0s-1.2,0.2-2.2,0.2s-1.1-0.3-0.8-0.6
	c0.3-0.3,1.2,0.1,2,0.1c0.7,0,0.3-0.6,0.5-0.8s0.2-0.3-0.3-0.6s-0.8-0.1-1.4-0.1c-0.3,0-0.1-0.1,0.2-0.3c-0.6,0.1-1.2,0.1-1.7,0.2
	l-0.1-0.1c-0.5-0.3-0.6-0.5-0.7-0.5c0.1,0,0.1,0,0.2,0s0.2,0,0.4,0l0.4-0.1l-0.3-0.1c-0.6-0.3-1.3-0.4-2-0.5c-0.2,0-0.5,0-0.7-0.1
	c0.7-0.1,1.4-0.2,2.1-0.3c-0.2,0-0.4-0.1-0.3-0.2c0.1-0.4,0.3-0.5-0.3-0.7c-0.2-0.1-0.2-0.1-0.1-0.2c-0.2,0-0.5,0-0.7,0.1
	c0.3,0,0.5,0.1,0.5,0.3c-0.1,0.4,0,1-0.6,0.8c-0.7-0.2-1.4-0.6-1.1-0.8c0.1-0.1,0.2-0.2,0.2-0.3c-0.2,0-0.4,0-0.6,0.1l0,0l0,0
	c-0.5,0-1,0.1-1.4,0.1c0.2-0.1,0.3-0.1,0.3-0.2c0.1-0.1,0-0.3-0.2-0.4l-0.1-0.1l-0.2,0.1c-0.1,0-0.1,0-0.2,0s-0.3,0-0.5-0.3
	c-0.1-0.3-0.1-0.5,0.2-0.8c0.3-0.2,0.9-0.4,1.5-0.4h0.6l-0.4-0.2c-0.6-0.3-1.1-0.5-1.6-0.5c-0.6,0-1.1,0.2-1.5,0.4
	c-0.3,0.1-0.5,0.2-0.8,0.3c-0.1-0.1-0.3-0.1-0.4-0.2c2-0.4,2-0.5-1.3-0.3c-1,0.1-2,0.2-3,0.2c0.4-0.4,0.8-0.8,1.7-1.2h0.1v-0.1
	c-0.1-0.3-0.5-0.4-0.9-0.5s-0.9-0.2-1.3-0.6c0.4-0.1,0.6-0.4,0.5-0.7c0-0.1,0.2-0.2,0.7-0.2c0.3,0,0.6,0,0.7-0.2
	c0.1-0.1-0.1-0.3-0.5-0.5l-0.1-0.1l-0.2,0.1c-0.2,0.1-0.4,0.2-0.6,0.3c-0.3,0.2-0.6,0.3-1,0.3c-0.3,0-0.6-0.1-1-0.3
	c-0.1-0.2,0.2-0.4,0.6-0.6c0.5-0.2,1.1-0.5,0.5-1.1l-0.2-0.3l-0.1,0.3l0,0c-0.1,0-0.4-0.1-0.6-0.1c-0.2-0.1-0.5-0.1-0.6-0.1
	c-0.2,0-0.3,0.1-0.3,0.1c-0.1,0.1-0.1,0.2,0.2,0.5l0.1,0.2l0.2-0.1h0.1c0,0,0,0,0,0.1l0,0c0,0.3-0.5,0.4-1.3,0.4c-0.1,0-0.2,0-0.3,0
	c-0.2-0.1-0.4-0.3-0.7-0.4c-0.2-0.2-0.5-0.3-0.7-0.4c1.4-0.2,0.9-0.3-2-0.2l0,0c0-0.1-0.1-0.1-0.1-0.2l-0.1-0.1
	c0.1,0,0.2,0.1,0.3,0.1l0.1,0.1l1.5-0.7c0,0,0.1,0,0.2,0c0.1,0,0.2,0,0.3,0c0.2,0,0.3-0.1,0.4-0.1l0,0c0-0.1,0.2-0.1,0.4-0.2
	c0.3-0.1,0.6-0.2,0.6-0.3c0.1-0.1,0-0.3-0.2-0.4l-0.2-0.1l-0.2,0.1c-0.3,0.2-0.7,0.2-1.1,0.3c-0.5,0.1-1,0.2-1.4,0.5
	c-0.2,0-0.3-0.1-0.5-0.1c-0.4-0.1-0.8-0.2-1.2-0.4h-0.1c1.5-0.2,3-0.3,4.5-0.5c8-0.9,18-2.4,25.3-3.7c0.1,0,0.1,0,0.2,0l0,0
	c0.6-0.1,1.1-0.2,1.7-0.3v-0.1c0-0.1,0.2,0,0.4,0c0.6-0.1,1.1-0.2,1.6-0.3c0.1-0.1,0.2-0.1,0.3-0.1l0,0c0.1,0,0.3-0.1,0.4-0.1
	c0.1-0.1,0.2-0.2,0.4-0.3c-0.1-0.1-0.2-0.3-0.3-0.4c-0.4,0.1-0.9,0.1-1.3,0.2c-0.1,0-0.2,0.1-0.4,0.1c-0.2,0.1-0.3,0.2-0.5,0.1
	c-0.5,0.1-1.1,0.2-1.7,0.1c-0.2,0.1-0.3,0.1-0.4-0.1c-0.4,0-0.8,0-1.3-0.1c0.1,0.2,0.1,0.4-0.2,0.4c-0.8-0.4-3.7,0.9-4.5,0.5
	c0.3-1.1,1.2-0.5,2.3-0.6c-0.3-0.4-0.2-0.5,0-0.6c-0.3,0-0.6-0.1-0.9-0.1c-0.7,0.2-1.4,0.3-1.9,0.1c0.1,0.6,0.3,1.3,0.3,1.8
	c-0.2,0-0.3-0.1-0.5-0.1c-0.1,0-0.1-0.1-0.2,0c-0.5-0.1-1-0.1-1.7-0.1c-0.2-0.4-0.5-0.7-1.1-0.6c-0.6,0.3,0.1,0.3,0.5,0.6
	c-0.4,0.1-0.9,0.1-1.3,0.2c-0.1-0.3,0-0.5,0-0.7l-1,0.1l0.2,0.6c0.2,0,0.3,0,0.4,0.1c-0.5,0.1-0.9,0.2-1.4,0.2
	c-0.1-0.2-0.3-0.4-0.5-0.5c0.1,0.7-0.5-0.2-0.8-0.2s-0.6,0.7-1.6,0.5c-0.5,0.1-0.5-0.5-0.9-0.5c1.3,1.8-2.7,0.3-1.1,1.7
	c-0.7,0.7,0.5-0.3,1.4-0.2c0,0,0,0,0,0.1c-0.7,0.2-1.3,0.5-1.9,0.8c0-0.1-0.1-0.1-0.3-0.1c0.1-0.5-0.3-1.5-0.8-0.7
	c-0.9-0.6,0.1,0.1,0.3,0.7c-0.5,0-1.2,0.1-1.7,0.2c-0.1,0-0.2,0.1-0.4,0.1c0-0.2-0.1-0.6,0-0.8c-0.4,0.5-2.1,0-1.2,0.5
	c0.3,0,0.5,0.2,0.6,0.5c-2,0.5-5.3,1.4-5.6,0.5c0.3,0,0.6-0.2-0.1-0.2c-0.4,0.3-1.8,0.4-3.4,0.5c-0.1-0.1-0.3-0.1-0.5-0.2
	c-0.3,0.1,0,0.2,0.1,0.2c-0.5,0-1.1,0.1-1.6,0.1c-0.1,0-0.2,0-0.4,0c0.2-0.1,0.1-0.2,0.1-0.2c-0.1,0-0.2,0.1-0.4,0.1
	c-0.2,0.1,0,0.1,0.1,0.2h-0.1c-0.1,0-0.1,0.1-0.2,0.1c-0.1,0-0.1-0.1-0.3-0.1c0-0.2-0.7-0.3-0.8-0.4c-0.5,0.1-1.1,0.2-1.6,0.3
	c-0.1,0-0.2,0.1-0.3,0.1c0-0.2-0.2-0.5-0.2-0.7c0,0,0,0-0.1,0c-0.1,0.2-0.5,0.2-0.8,0.2c-0.2,0-0.3,0.1-0.5,0.1
	c0.1,0,0.1,0.1,0.2,0.1c0.3,0,0.5,0.1,0.7,0.4c-1.8,0.7-4.8,1.8-5.4,0.9c0.1,0,0.2-0.1,0.2-0.1c-2.2,0.7-4,1.3-4.2,1.3
	c-0.1,0,0-0.2,0.2-0.3c0.4-0.1,0.7-0.3,1.1-0.4c-0.2,0-0.4,0.1-0.7,0.1c-0.2-0.1-0.4-0.1-0.5-0.2c-0.3,0.1,0,0.2,0.2,0.2
	c-0.5,0.1-1,0.2-1.6,0.2c-0.1,0-0.2,0-0.4,0c0.1-0.1,0.1-0.2,0-0.2h-0.1c-0.1,0-0.1,0.1-0.2,0.1l0,0c-0.2,0.1,0,0.1,0.2,0.2h-0.1
	c-0.1,0-0.1,0.1-0.1,0.1c-0.1,0-0.2,0-0.3,0l-0.1-0.1c-0.1,0-0.3,0.1-0.4,0.1c-0.4,0.2-0.9,0.3-1.3,0.5l-1,0.4
	c-1.8,0.7-3.7,1.5-5.6,2l-0.2,0.1l0.1,0.1c0.1,0.1,0.2,0.2,0.3,0.3h-0.1c-0.2,0-0.4,0.1-0.5,0.2c0,0-0.1,0.1-0.2,0.1
	c0,0-0.1,0-0.2-0.1l-0.2-0.1l-0.2,0.1c-0.2,0.1-0.3,0.2-0.4,0.4c-0.2,0.3-0.3,0.4-0.6,0.4c-0.2,0-0.5-0.1-0.8-0.2l-0.7-0.2l0.4,0.4
	c0.2,0.2,0.3,0.3,0.2,0.4c-0.1,0.1-0.3,0.2-0.5,0.2c-0.3,0.1-0.8,0.2-0.8,0.5c-0.1,0-0.2-0.1-0.3-0.1c-0.2-0.1-0.4-0.1-0.6-0.1
	c-0.1,0-0.4,0-0.5,0.2c-0.7,0.7-2,0.9-3,1c-0.4,0.1-0.8,0.1-1,0.2c-1,0.3-1.7,0.7-2.3,1.2c-0.5,0.3-1,0.6-1.5,0.9
	c-0.1,0-0.4,0-0.6,0c-0.3,0-0.7,0-0.9,0c-0.3,0.1-0.3,0.3-0.4,0.4c0,0.1-0.1,0.2-0.1,0.3c-0.7,0.3-1.5,0.4-2.3,0.6
	c-0.9,0.2-1.7,0.3-2.3,0.6l0,0c-0.3,0.3-0.7,0.6-1.1,0.9c-0.1,0.1-0.2,0.2-0.3,0.2c-5.3,1.6-11.5,3.2-16.6,5.5
	c-14.4,5.8-29.1,14.1-46.1,18c-1.5-0.4,2.1-0.4,1.3-1.1c-1.4-0.6-1.4,1.2-3,0.6c-0.7,0.2,0.3,1-0.5,1.2c-0.3-0.8-1.7-0.8-1.1-1.7
	c-1,0.7-3,0.2-1.6,1.5c-1.1-0.6-1.1-0.7-2.4-0.3c-2.7,0.7-4.9,1.9-7.5,2.6c-0.8,0.2-1.9,0.1-2.2,0.7c-0.9-1.2-0.7,0.6-1.9-0.1
	c-0.4,0.5-0.5,0.3-1.4,0.8c-0.8,0.1-1.6,1-2.4-0.3c0.5-0.3,0.9,0.4,1.3,0.3c0.3-0.1-0.1-0.3-0.3-0.3c-0.1-0.6,2-0.2,1.6-1.2
	c1.2,0.7,1-1,1.9,0.1c0.2-0.2-0.3-0.6,0-0.7c1.3-0.3,1.9-0.3,2.4-1.1c0.4-0.2,0.7,0.1,1.1,0c4.9-2.2,6.8-2.4,11.8-4.3
	c-0.8-1-2.9-0.6-2.1,0.3c-1-0.5-0.7,0-1.3-0.3c-0.3,0.1,0.1,0.4,0.3,0.6c-0.6-0.4-1.3,0.4-1.9-0.1c-0.1,0.2-0.4,0.9-1.1,0
	c1.4-0.2-0.7-0.5,0-0.7c0.4,0.2,0.9,0.3,1.3,0.3c-0.7-0.5,0.1-0.5-0.3-1c-0.8-0.3-1.5,0.2-1.6,0.5c-0.7,0-1.5-0.2-1.1,0.7
	c-2-0.9-1.7,0.7-3.2,0.3c-0.3,0.1,0.3,0.6,0.5,0.9c-0.4-0.1-0.9-0.4-1.3-0.6c-0.6,0.4-1.8,0.8-3.2,1.3c-2.3,0.8-5.6,1.2-6.7,2.4
	c-0.4-0.2-0.9,0.1-1.3-0.3c-0.2,0.7-1,1-1.6,0.8c-2.1-1.6,2.1-0.2,0.8-1.6c-0.3-0.3-0.7-0.1-1.1,0c0.1-0.5,0.9-1.2,1.9-0.9
	c-0.7-1-1.4-0.1-2.1,0l-1.9,0.6c-3.6,1.1-7.2,2.5-11.9,3.2c-0.9,0.4-0.7,0.7-1.9,0.6c0.8-1.3,2.3-1.3,4.9-2.1
	c0.4,0.1,0.4-0.1,0.3-0.3s-0.3-0.4-0.3-0.4c0.3-0.1,0.7,0.4,1.1,0.4c0.6,0,0.4-0.5,0.5-0.5c0.2-0.1,0.7,0.2,1.1,0
	c1.6-0.6,3.5-1.2,5.4-2.3c2.1-0.4,3.5-0.5,4.6-1.7c-1.6-0.2-2.1,0.5-3,0.9c-2.8,0.5-6,1.7-9.2,2.7c-0.8-0.9,1.1-0.9,1.9-1.3
	c1.4-0.2,1.3-0.9,2.4-0.7c0.5-0.1,0.2-0.5,0.8-0.6c0.5-0.3,0.9,0,1.3-0.1c0.7-0.1,0.6-1.3,1.4-0.7c-0.3-0.9,1.8,0.2,0.5-0.9
	c0.4,0,0.9,0.3,1.3,0.3c-0.2-0.4,1-0.4,0.5-0.9c0.4-0.3,1.6,0.5,0.5-0.5c0.7,0.3,2.1,0,1.3-0.8c-0.9-0.3-0.4,1-1.3,0.1
	c-1.4-0.1,0.2,0.9-0.8,0.9l-0.5-0.5c0.3,0.9-0.4,0.3-1.3,0.1c-0.4,0.6-0.8,0.2-1.6,0.8c-1.3,0.3-2.8,0.5-3.5,1.4
	c-1.1-0.3-2.1,0.4-3.2,0.6c-1,0-2,1.3-2.9,0.2c2.8-0.6,3.7-1,6.2-1.9c-1.6-1.2-2.2,0-3.2,0.3c-1.1-0.8-0.4-0.9-0.8-1.5
	c-0.8,0.1-0.1-0.7,0.3-0.8c0.9,0.7,0,0.7,0.5,1.2c1.3-0.3,1.1-1.1,2.4-1.1c-1.1-1.4-0.6,0.8-1.6-0.5l2.1-0.6
	c0.5,0.4,0.2,0.5,0.5,0.9c0.5-0.2,0.2-0.7,0.3-1.1c2.2-1,2.6-0.9,4.8-1.8c-0.1,0-0.1-0.1-0.2-0.1c-0.9,0.3-1.9,0.5-2.9,0.7
	c-0.1,0-0.1-0.1-0.1-0.1c-2,0.4-3.1,1-5.1,1.6c-0.8-1.2,1.9-0.9,1.6-1.5c-0.4-0.2-0.9-0.1-1.3-0.6c1.2,0.1,1-0.8,2.7-0.8
	c1,1-1.7,0.3-1.3,1.1c1.5,1,0.9-0.2,2.4-0.4c1-0.6,1.5-0.5,2.2-0.9c-0.6-0.1-0.3-0.2,0.1-0.1c0,0,0.1,0,0.1-0.1
	c-1-0.9-0.5,0-1.6-0.2c-0.3-0.7,1.6-0.6,2.1-1c0.4-0.1,0.2-0.5-0.2-0.9c-0.2,0-0.4,0.1-0.4,0.3c-0.3-0.3-0.2-0.5,0.1-0.7
	c-0.2-0.2-0.3-0.3-0.5-0.5c0.4,0.1,0.7,0.2,0.9,0.3c0.4-0.1,0.9-0.2,1.2-0.3c0.5,0.7-0.2,0.7-0.8,0.8c0.1,0.1,0.2,0.3,0.3,0.4
	c0.8,0.3,1.3-1,2.7-0.5c0-0.7,1.5,0,1.1-1c-1.6-1.3-1.2,1-2.4-0.3c0.3-0.1-0.3-0.6-0.5-0.9c0.4,0,0.9,0.2,1.3,0.6
	c0-0.4-0.3-0.9,0.8-0.9c0.3,0.7,0.5,0.5,1.1,1.4c1.1,0.3,0.8,0.3,1.1,1.1c1.7,0-0.4-1.3-1.1-2.1c0.7,0.8,2.8,0.7,2.7-0.1
	c-1.2-0.9-0.7,1.1-1.9,0.2c-1.5-1.2,1.5,0.2,0-1c0.4-0.2,0.7,0.1,1.1,0.4c0.6-0.1-0.8-1-1.1-1.4c-0.6,0-0.3,0.4,0,0.7
	c-0.7-0.3-1.9-0.5-1.1,0.3c-0.3,0-0.7-0.3-1-0.6c-0.1,0-0.2,0.1-0.3,0.1c-0.3,0.1,0.1,0.4,0.3,0.6c-1-0.3-0.8-0.8-0.2-1.1
	c-0.1-0.2,0-0.4,0.2-0.4c0.1,0.1,0.2,0.2,0.3,0.3c0.1,0,0.3,0,0.4,0c0-0.2,0-0.4,0.1-0.5c0.4-0.2,0.7,0.1,1.1,0.4
	c0.5-0.5,0.6-0.7,0.8-0.9c1.5,0.2,0.3,0.9,1.1,1.4c1.7,0.1-0.7-1.2,0.5-1.2c1.1-1.8,2.8-1.5,5.3-2.3c0.4-0.7,0.8-0.5,1.1-1
	c-0.6-1-2.6,0-2.4,0.4c-1.2-0.1-1,0.4-1.9,0.2c-0.4,0.4-0.5,0.4-1.3,0.4c1,1.3-1-0.2-0.5,0.5c-0.5,0.1-1.6-1.5-0.8-1.5
	c0.2,0.2,0,0.3,0.3,0.6c0.6,0.4,0.5-0.9,1.1-1c1.1,0.7,0.4-0.7,1.3-0.8c0.5,0.8,1.1,0.3,1.6,0.5c-0.2-0.1-0.4-0.2-0.7-0.4
	c-0.5-0.1-0.8-0.1-0.8-0.1c0.1-0.1,0.3-0.2,0.4-0.2l0,0c0.1-0.1,0.2-0.1,0.3-0.1c0.2-0.1,0.5-0.2,0.8-0.2l-0.1-0.1
	c-1.1-0.2-2-0.3-2.1-0.3c0.2-0.1,0.5-0.2,0.8-0.3c-0.2-0.2-0.3-0.3-0.5-0.5c0.3-0.2,0.7,0,1,0.3c0.6-0.1,1.2-0.3,1.6-0.3
	c0.1,0,0.2,0,0.3-0.1c-0.4-0.1-0.8-0.1-1.1-0.2c-0.4-0.1-0.8-0.1-1.3-0.2c0.6-0.3,1.7-0.5,2.5-0.6c-0.2-0.2-0.4-0.4-0.4-0.5l0,0
	c-0.4-0.1-0.8-0.1-1.1-0.2c0.8-0.3,2.1-0.5,3-0.7l0,0c-0.6-0.1-1.2-0.2-1.8-0.4c-0.3-0.1-0.6-0.1-1-0.2c0.3-0.1,0.6-0.1,0.9-0.2
	c-0.1-0.1-0.1-0.2-0.2-0.3c0.4,0.1,1.1,0.2,0.8-0.2c0.4,0,0.6,0.1,0.6,0.3c0.3-0.1,0.6-0.1,0.8-0.2c0-0.1-0.1-0.1-0.1-0.2l0,0
	c-0.2-0.2-0.4-0.5-0.7-0.7c0.3,0.1,0.7,0.1,1,0.2c-0.1,0-0.2,0.1-0.3,0.1c0.1,0,0.3-0.1,0.4-0.1c0.1-0.1,0.2-0.2,0.4-0.3
	c-0.3-0.1-0.6-0.1-0.9-0.2c-0.1,0-0.1,0-0.2,0c-4.7,1.2-12.3,2.7-12.9,1.9c-1.2-0.8-1.5,1.1-3,0.2c-0.7,0.1-2.3,0.1-1.5-0.8
	c-1.1,0.7-2.9-0.2-1.8,1.4c-1-0.8-0.9-0.9-2.3-0.6c-2.7,0.5-8.8,0.7-8.2-0.1c0.4-0.2,0.7,0.2,1,0.1c5.1-1.7,6.9-1.8,12.2-3.2
	c-0.6-1.1-2.7-1-2.1,0.1c-0.9-0.7-0.7-0.1-1.2-0.5c-0.3,0.1,0,0.4,0.1,0.7c-0.5-0.5-1.3,0.3-1.8-0.3c-0.1,0.2-0.5,0.9-1-0.1
	c1.4,0-0.6-0.6,0.1-0.7c0.4,0.3,0.8,0.4,1.2,0.5c-0.6-0.7,0.2-0.6-0.1-1.1c-0.8-0.4-1.5,0-1.6,0.3c-0.7-0.1-1.4-0.3-1.2,0.6
	c-1.8-1.2-1.8,0.6-3.2-0.1c-0.3,0.1,0.2,0.6,0.4,1c-0.4-0.2-0.8-0.5-1.2-0.8c-0.6,0.3-1.8,0.7-3.3,1c-2.4,0.6-5.6,0.7-6.9,1.8
	c-0.4-0.2-0.9,0-1.2-0.5c-0.3,0.7-1.1,0.9-1.7,0.7c-1.8-2,2.1,0.1,1.1-1.6c-0.3-0.4-0.7-0.2-1-0.1c0.2-0.5,1-1.2,2-0.8
	c-0.5-1.2-1.4-0.2-2.1-0.3l-1.9,0.4c-3.6,0.7-7.3,1.9-12,2.1c-1,0.3-0.8,0.6-1.9,0.4c0.9-1.3,2.4-1.2,5.1-1.8c0.4,0.2,0.4,0,0.3-0.2
	c0,0,0,0,0-0.1c-31.1,2.7-37.9,2.1-37.1-1.9c0.5-2.8-5.2-3-4.7-4.9c-0.2-0.2-0.2-0.4-0.3-0.6c-0.3,0.5-0.4,0.4-0.1-0.2
	c-0.3-0.4-0.6-0.8-0.8-1.2c-0.1,0-0.1,0-0.2,0c-0.1,0.1-0.1,0.2-0.2,0.4v0.1l-0.1,0.1c-0.1,0.3-0.4,0.3-0.2-0.2
	c-0.1-0.1-0.1-0.2-0.2-0.2c-0.2,0.1-0.4,0.1-0.6,0.2c0,0.2-0.3,0.3-0.4,0.1c-1.7,0.5,3-1.2,1.4-0.8c-1-0.2-2.2,0.1-3.4,0.4
	c-0.5-0.3-1.6,0.4-2-0.2c-0.8,0.3-1.6,0.4-2.3,0.4c-0.4,0-0.7,0.1-1.1,0.1c-0.3,0.1-0.7,0.1-1,0.3c-1,0.1-1.9-0.1-2.9-0.1
	c-0.4,0-0.8,0-1.3,0.1c-0.2,0-0.4,0-0.6,0c-0.1,0-0.2,0-0.3,0c-0.1,0-0.2,0-0.2,0c-0.5-0.1-1.1-0.2-1.6-0.3s-1.1-0.2-1.9-0.2
	C1.2,173,0.3,173-0.5,173v42h379.7v-49C378.6,166.1,378,166.2,377.5,166.3z M107.8,188.3l1.4-0.4
	C110.4,188.6,108.2,189.2,107.8,188.3z M111.1,188.1l-0.6,0.2c-0.2-0.2-0.4-0.2-0.5-0.2C109.3,187.6,110.8,187.3,111.1,188.1z
	 M110,183.5l0.8,0.8c-1-0.3-0.3,0.1-1.1,0.3C108.9,183.9,109.6,183.7,110,183.5z M108.3,184.2c0.6-0.5,1.3,0.7,1.9,1.1
	c-1,0.7-2.8,0.2-2.5,1.4c-1.3-0.1-0.1-0.8-1.1-1.3C107.7,186,109.8,185.3,108.3,184.2z M99.2,195c-1.2,0-0.2-0.6-0.5-0.8
	C99.8,194.1,98.8,194.7,99.2,195z M103,194.6c0.7,0.1,1.4,0.5,1.4,0.9C103.9,195.5,103.5,194.9,103,194.6z M103.6,190.1
	c-0.7-0.7,0.7-0.8,1.4-0.1C104,189.8,104.7,190.4,103.6,190.1z M104.5,187.3c-0.4-0.1-1.2-0.2-0.8,0.2c-0.9,0.2-1.7-2-1.4-0.9
	c-0.7,0.2-1-0.8-1.1-1C102.9,186.1,103.1,186.7,104.5,187.3z M101.7,190.4c0.3,0.5,0,0.9-0.6,1.1
	C100.1,190.7,100.8,190.5,101.7,190.4z M100.8,195.8c0.6,0,0.3-0.3,0-0.7c0.4-0.2,1.2,0.2,0.8-0.2c0.4-0.1,1.6,0.9,0.6-0.2
	c0.7-0.2,1,0.8,1.1,1c-1.1,0.4-1.4,0-1.9,0.5c-0.5-0.2-0.9-0.5-1.4-0.9C100.3,195.3,100.5,195.7,100.8,195.8z M100.3,191.1
	c0.7,1-2.2,0.4-1.9,1.2c-0.4-0.1-0.7-0.1-1.1,0C97.2,191.3,99.3,191.4,100.3,191.1z M97.6,190.2c1.6,0-0.2,1.4-0.8,0.2
	C97.1,190.2,97.9,190.7,97.6,190.2z M97.8,195.4c-0.5,0.3-0.9,0-1.4,0.1C95.8,195,97.5,194.5,97.8,195.4z M93.1,195l-0.6,0.2
	c-0.2-0.2-0.4-0.2-0.5-0.2C91.4,194.6,92.9,194.3,93.1,195z M96.1,195.5c0.3,0.3-0.5,0.6-0.8,0.2c0.3,0.5-1.3,0.3-0.8,0.9
	c-0.6,0-1.3,0.1-1.9,0.2c-0.3,0.1-0.4,1.1-1.4,0.1C92.5,196.3,93.4,195.8,96.1,195.5z"/>
<path class="st0" d="M258.7,166.5c-0.2,0-0.3,0-0.5,0c0.1,0.1,0.3,0.2,0.5,0.3C258.8,166.8,258.8,166.6,258.7,166.5z"/>
<path class="st0" d="M116.1,182.8c0,0,0.1-0.1,0.2-0.2c-0.1,0-0.2,0-0.2,0C116,182.6,116,182.7,116.1,182.8z"/>
<path class="st0" d="M350.6,16.9c2.2-0.2,4.4-0.4,6.6-0.5c1,0.6,2.7,0.5,4.2,0.5c0.5,0.6,2.1,0,2.2,0.9c2.4-0.2,4,0.5,6.4,0.3
	c1.5,0.2,2.5,0.9,4.1,1.2c1.2,0.3,3.4,0.4,4.5,0.8c0.2,0.1,0.3,0.1,0.4,0.2V9c0,0-1-0.1-1.4-0.2c-0.4,0.1-0.1,0.6-0.6,0.7
	c-3.2,0.3-5.2,0.5-6.5,0.4c-0.5,0.1-0.2,0.6-0.1,0.9c-1.8,0-1.6,0.2-3-0.3c-0.5,0.1-0.3,1.3-0.8,0.1c-0.6,0.9-1.8,1-3.4,0.9
	c-1.3-0.1-0.5,0.9-1.8,0.8c-0.7-0.4-2.4,0.3-3.8,0.5l0,0c-0.1,0-0.1,0-0.1,0c-0.4,0-0.7,0.1-1.1,0V13c-0.2,0-0.3-0.1-0.4-0.2
	c-0.8,0-0.4,0.7-1.2,0.7c-6.3,0.8-21.6,4.1-23.3,4.3C330.4,18.1,348.4,17.1,350.6,16.9z"/>
<path class="st0" d="M367.2,9.5C367.1,9.5,367.1,9.5,367.2,9.5C367.1,9.5,367.1,9.6,367.2,9.5C367.2,9.6,367.2,9.6,367.2,9.5z"/>
<g>
	<path class="st0" d="M371,7.3c-1.2,0.3-2.6,0.7-3.3,0.4c-0.2-0.5,1.1-0.4,1.8-0.4h-2.4c0.1,0.3,0.3,0.6,0.3,0.8
		c-0.6,0-1.1-1.1-0.8,0.1c-1.7-0.3-2.5,0.8-3.4-0.2c-0.6,0.1,0.2,0.9-0.5,0.9c-0.6,0.2-0.8-0.1-1-0.5c-0.5,0.8-1.8,1.1-3,0.9
		c2.3,1.6-2.4-0.7-1.6,1.3c1.3,0.3,2.4,0.1,3.5-0.2l-0.1-0.1l-0.2-0.5c0.4,0.2,1.3,0.3,1.2-0.1c0.3,0,0.5,0.2,0.6,0.4
		c0.7-0.2,1.5-0.3,2.2-0.2c1-0.5,1.5,0.1,1.8-0.7l0,0C365.9,9,366.2,9,366.4,9l0.8-0.1c0.1,0.1,0.1,0.3,0.2,0.4
		c0.8-0.7,2.1,0.2,3-0.9c1,0,1.7,0.3,2.9,0c0.5-0.4,0.9-0.4,1.6-0.2c-0.1-0.3-0.2-0.6-0.3-0.9C374.7,7.3,371,7.3,371,7.3z"/>
	<path class="st0" d="M375,7.3c0.1,0.1,0.1,0.2,0.2,0.3c0.6,0,1.8-0.1,3.1-0.3C378.3,7.3,375,7.3,375,7.3z"/>
</g>
<path class="st0" d="M0,104c0.9,0.7,2,1.6,2.7,1.6c-2.2-1-1-0.8,0.1-0.7c2.9,1.2,5.7,2.2,6.8,2c-0.2,0.4,0.5,1.1-0.6,1.2
	c-1.7,0.2-3,0.5-2.8,1.9c-1.6-1.7-0.3,0-0.8,0.3c-1.9-0.5-1.5-0.2-3.4,0c0-0.4-0.9-3.3-1.3-3.1c-0.2,0-0.5,0-0.7,0"/>
</svg>
