<?xml version="1.0" encoding="utf-8"?>
<!-- Generator: Adobe Illustrator 21.0.0, SVG Export Plug-In . SVG Version: 6.00 Build 0)  -->
<svg version="1.1" id="Layer_1" xmlns="http://www.w3.org/2000/svg" xmlns:xlink="http://www.w3.org/1999/xlink" x="0px" y="0px"
	 viewBox="0 0 22 16.6" style="enable-background:new 0 0 22 16.6;" xml:space="preserve">
<style type="text/css">
	.st0{fill:#B1B1B1;}
</style>
<g>
	<path class="st0" d="M21.6,8.8c-0.2-0.3-0.5-0.6-0.9-1.1l0.8-1.5c0.2-0.3,0-0.7-0.3-0.9s-0.7,0-0.9,0.3l-0.6,1.2
		c-0.5-0.4-1.1-0.9-1.8-1.3l0.8-2c0.1-0.3,0-0.7-0.4-0.9c-0.3-0.1-0.7,0-0.9,0.4l-0.7,1.8c-0.6-0.3-1.2-0.6-1.9-0.8l0.5-2.5
		c0.1-0.4-0.2-0.7-0.5-0.8c-0.4-0.1-0.7,0.2-0.8,0.5l-0.5,2.4c-0.6-0.1-1.1-0.2-1.8-0.2V0.7C11.7,0.3,11.4,0,11,0
		c-0.4,0-0.7,0.3-0.7,0.7v2.8c-0.6,0-1.2,0.1-1.8,0.2L8.1,1.3C8,0.9,7.7,0.7,7.3,0.8C6.9,0.8,6.7,1.2,6.8,1.6L7.3,4
		C6.6,4.2,6,4.5,5.4,4.8L4.7,3C4.5,2.6,4.1,2.5,3.8,2.6C3.4,2.7,3.3,3.1,3.4,3.4l0.8,2C3.5,5.9,2.9,6.3,2.4,6.7L1.8,5.6
		C1.6,5.3,1.2,5.2,0.9,5.3C0.6,5.5,0.5,5.9,0.6,6.3l0.8,1.4C1,8.2,0.6,8.6,0.4,8.8c-0.6,0.7-0.6,1.7,0,2.4c1,1.2,4.6,5.3,10.4,5.4
		c0,0,0.1,0,0.2,0s0.1,0,0.2,0c5.8-0.1,9.4-4.1,10.4-5.4C22.1,10.5,22.1,9.5,21.6,8.8z M1.5,10.4c-0.2-0.2-0.2-0.6,0-0.8
		c0.6-0.7,2-2.4,4.2-3.5C4.9,7.2,4.4,8.6,4.4,10c0,1.5,0.5,2.8,1.3,3.9C3.5,12.8,2.1,11.2,1.5,10.4z M11.2,15.3c0,0-0.1,0-0.2,0
		s-0.1,0-0.2,0c-2.8-0.1-5.1-2.4-5.1-5.2S8,4.9,10.8,4.8c0.1,0,0.1,0,0.2,0s0.1,0,0.2,0c2.8,0.1,5.1,2.4,5.1,5.2
		C16.3,12.9,14,15.2,11.2,15.3z M20.5,10.4c-0.6,0.7-2,2.4-4.2,3.5c0.8-1.1,1.3-2.5,1.3-3.9c0-1.5-0.5-2.8-1.3-3.9
		c2.2,1.2,3.6,2.8,4.2,3.5C20.7,9.9,20.7,10.2,20.5,10.4z"/>
	<path class="st0" d="M11,6.8c-0.4,0-0.9,0.1-1.2,0.3c0.4,0.2,0.6,0.6,0.6,1.1c0,0.7-0.6,1.3-1.3,1.3C8.7,9.4,8.3,9.2,8,8.8
		C7.9,9.2,7.8,9.6,7.8,10c0,1.8,1.5,3.2,3.2,3.2s3.2-1.5,3.2-3.2S12.8,6.8,11,6.8z"/>
</g>
</svg>
