<?xml version="1.0" encoding="utf-8"?>
<!-- Generator: Adobe Illustrator 21.0.0, SVG Export Plug-In . SVG Version: 6.00 Build 0)  -->
<svg version="1.1" id="Layer_1" xmlns="http://www.w3.org/2000/svg" xmlns:xlink="http://www.w3.org/1999/xlink" x="0px" y="0px"
	 viewBox="0 0 22 16.6" style="enable-background:new 0 0 22 16.6;" xml:space="preserve">
<style type="text/css">
	.st0{fill:#B1B1B1;}
</style>
<path class="st0" d="M21.6,8.6l-1-1.4c0.3-0.2,0.5-0.4,0.6-0.6c0.3-0.3,0.3-0.7,0-1c-0.3-0.3-0.7-0.3-1,0c-0.9,0.9-4,3.6-9.3,3.6
	S2.6,6.5,1.8,5.6c-0.3-0.3-0.7-0.3-1,0c-0.3,0.3-0.3,0.7,0,1c0.1,0.1,0.3,0.3,0.6,0.6l-1,1.5C0.1,9,0.2,9.4,0.5,9.6
	c0.1,0.1,0.3,0.1,0.4,0.1c0.2,0,0.4-0.1,0.6-0.3l1-1.4c0.5,0.3,1,0.7,1.7,1l-1,1.9c-0.2,0.3,0,0.8,0.3,0.9c0.1,0,0.2,0.1,0.3,0.1
	c0.3,0,0.5-0.1,0.6-0.4l1-1.9C6,9.8,6.6,10,7.3,10.2l-0.6,2.2c-0.1,0.4,0.1,0.7,0.5,0.9c0.1,0,0.1,0,0.2,0c0.3,0,0.6-0.2,0.7-0.5
	l0.6-2.3c0.5,0.1,1.1,0.1,1.7,0.2v2.5c0,0.4,0.3,0.7,0.7,0.7c0.4,0,0.7-0.3,0.7-0.7v-2.5c0.6,0,1.2-0.1,1.7-0.2l0.6,2.3
	c0.1,0.3,0.4,0.5,0.7,0.5c0.1,0,0.1,0,0.2,0c0.4-0.1,0.6-0.5,0.5-0.9l-0.6-2.2c0.6-0.2,1.3-0.4,1.8-0.6l1,1.9
	c0.1,0.2,0.4,0.4,0.6,0.4c0.1,0,0.2,0,0.3-0.1c0.3-0.2,0.5-0.6,0.3-0.9L17.9,9c0.6-0.3,1.2-0.6,1.7-1l1,1.4c0.1,0.2,0.3,0.3,0.6,0.3
	c0.1,0,0.3,0,0.4-0.1C21.8,9.4,21.8,8.9,21.6,8.6z"/>
</svg>
