<?xml version="1.0" encoding="utf-8"?>
<!-- Generator: Adobe Illustrator 17.0.0, SVG Export Plug-In . SVG Version: 6.00 Build 0)  -->
<!DOCTYPE svg PUBLIC "-//W3C//DTD SVG 1.1//EN" "http://www.w3.org/Graphics/SVG/1.1/DTD/svg11.dtd">
<svg version="1.1" xmlns="http://www.w3.org/2000/svg" xmlns:xlink="http://www.w3.org/1999/xlink" x="0px" y="0px" width="180px"
	 height="63.859px" viewBox="0 0 180 63.859" enable-background="new 0 0 180 63.859" xml:space="preserve">
<g id="Grid" display="none">
</g>
<g id="Layer_1">
</g>
<g id="Desktop">
</g>
<g id="Guides">
</g>
<g id="Page_1">
	<g id="Layer_1_1_">
		<g>
			<g>
				<path fill-rule="evenodd" clip-rule="evenodd" fill="#ffffff" d="M169.055,25.127c0-1.968,1.525-3.56,3.39-3.56
					c1.872,0,3.382,1.592,3.382,3.56c0,1.971-1.51,3.563-3.382,3.563C170.58,28.69,169.055,27.098,169.055,25.127L169.055,25.127z
					 M172.445,27.847c1.423,0,2.586-1.222,2.586-2.719c0-1.49-1.163-2.701-2.586-2.701c-1.419,0-2.585,1.211-2.585,2.701
					C169.859,26.625,171.026,27.847,172.445,27.847L172.445,27.847z M171.984,26.688h-0.694v-3.137h1.257
					c0.256,0,0.544,0.016,0.765,0.173c0.24,0.176,0.378,0.473,0.378,0.788c0,0.347-0.197,0.673-0.512,0.791l0.544,1.385h-0.773
					l-0.457-1.23h-0.508V26.688L171.984,26.688z M171.984,24.925h0.386c0.142,0,0.307,0.005,0.426-0.066
					c0.118-0.076,0.17-0.229,0.17-0.363c0-0.118-0.067-0.26-0.17-0.315c-0.102-0.071-0.311-0.055-0.434-0.055h-0.378V24.925
					L171.984,24.925z"/>
			</g>
			<path fill-rule="evenodd" clip-rule="evenodd" fill="#ffffff" d="M120.608,1.45l-0.926,6.038
				c-2.014-1.072-3.496-1.492-5.077-1.492c-4.221,0-7.205,4.291-7.205,10.416c0,4.23,2.002,6.779,5.297,6.779
				c1.399,0,2.936-0.449,4.816-1.435l-0.989,6.353c-2.081,0.599-3.437,0.812-5.009,0.812c-6.113,0-9.917-4.611-9.917-12.013
				c0-9.956,5.254-16.908,12.77-16.908c0.969,0,1.837,0.095,2.542,0.3l2.337,0.612C119.941,1.188,120.099,1.23,120.608,1.45
				L120.608,1.45z"/>
			<path fill-rule="evenodd" clip-rule="evenodd" fill="#ffffff" d="M101.791,5.589c-0.177-0.034-0.374-0.058-0.579-0.058
				c-1.868,0-2.924,0.988-4.659,3.684l0.504-3.439h-5.136l-3.481,22.634h5.697c2.038-13.834,2.558-16.223,5.289-16.223
				c0.166,0,0.181,0,0.414,0.024c0.505-2.727,1.194-4.732,2.144-6.561L101.791,5.589L101.791,5.589z"/>
			<path fill-rule="evenodd" clip-rule="evenodd" fill="#ffffff" d="M67.851,28.133c-1.541,0.512-2.759,0.746-4.068,0.746
				c-2.893,0-4.474-1.763-4.474-4.979c0-0.631,0.047-1.311,0.162-2.028l0.351-2.207l0.26-1.803l2.459-15.445h5.636l-0.646,3.358
				h2.901l-0.796,5.502h-2.893l-1.498,9.446c-0.051,0.418-0.095,0.725-0.095,0.938c0,1.159,0.591,1.676,1.931,1.676
				c0.654,0,1.147-0.068,1.525-0.21L67.851,28.133L67.851,28.133z"/>
			<path fill-rule="evenodd" clip-rule="evenodd" fill="#ffffff" d="M45.503,12.933c0,2.856,1.316,4.832,4.296,6.309
				c2.282,1.135,2.645,1.466,2.645,2.496c0,1.406-1.013,2.057-3.244,2.057c-1.683,0-3.256-0.281-5.069-0.906l-0.784,5.221
				l0.256,0.055l1.041,0.221c0.335,0.071,0.828,0.134,1.478,0.205c1.352,0.126,2.389,0.187,3.122,0.187
				c5.948,0,8.699-2.402,8.699-7.557c0-3.098-1.147-4.929-3.981-6.301c-2.365-1.127-2.633-1.393-2.633-2.444
				c0-1.227,0.938-1.858,2.759-1.858c1.111,0,2.617,0.131,4.056,0.336l0.808-5.226c-1.478-0.252-3.673-0.447-4.974-0.447
				C47.667,5.281,45.48,8.755,45.503,12.933L45.503,12.933z"/>
			<path fill-rule="evenodd" clip-rule="evenodd" fill="#ffffff" d="M165.764,28.409H160.4l0.28-2.218
				c-1.561,1.753-3.165,2.517-5.238,2.517c-4.146,0-6.862-3.736-6.862-9.396c0-7.528,4.221-13.884,9.235-13.884
				c2.203,0,3.87,0.954,5.439,3.098l1.234-7.951h5.589L165.764,28.409L165.764,28.409z M157.396,23.08
				c2.649,0,4.501-3.145,4.501-7.625c0-2.877-1.056-4.443-3.015-4.443c-2.57,0-4.395,3.158-4.395,7.612
				C154.488,21.588,155.469,23.08,157.396,23.08L157.396,23.08z"/>
			<path fill-rule="evenodd" clip-rule="evenodd" fill="#ffffff" d="M85.808,27.934c-1.939,0.61-3.815,0.917-5.825,0.909
				c-6.322,0-9.625-3.479-9.625-10.132c0-7.778,4.201-13.503,9.913-13.503c4.659,0,7.65,3.208,7.65,8.237
				c0,1.666-0.201,3.29-0.706,5.584H75.943c-0.047,0.344-0.055,0.502-0.055,0.702c0,2.646,1.687,3.978,4.986,3.978
				c2.022,0,3.843-0.439,5.881-1.44L85.808,27.934L85.808,27.934z M82.627,14.457c0.031-0.473,0.039-0.859,0.039-1.146
				c0-1.85-0.997-2.93-2.684-2.93c-1.797,0-3.086,1.443-3.614,4.06L82.627,14.457L82.627,14.457z"/>
			<polygon fill-rule="evenodd" clip-rule="evenodd" fill="#ffffff" points="22.742,28.409 17.078,28.409 20.322,7.021 
				13.074,28.409 9.191,28.409 8.722,7.147 5.305,28.409 0,28.409 4.426,0.575 12.589,0.575 12.813,17.799 18.323,0.575 
				27.132,0.575 22.742,28.409 			"/>
			<path fill-rule="evenodd" clip-rule="evenodd" fill="#ffffff" d="M37.337,18.327c-0.599-0.071-0.863-0.097-1.269-0.097
				c-3.212,0-4.84,1.169-4.84,3.455c0,1.408,0.8,2.307,2.038,2.307C35.571,23.992,37.242,21.685,37.337,18.327L37.337,18.327z
				 M41.459,28.409h-4.694l0.102-2.349c-1.431,1.873-3.342,2.743-5.94,2.743c-3.082,0-5.187-2.522-5.187-6.167
				c0-5.526,3.677-8.734,9.964-8.734c0.642,0,1.462,0.05,2.306,0.168c0.177-0.749,0.225-1.072,0.225-1.469
				c0-1.495-0.985-2.063-3.642-2.063c-1.604,0-3.445,0.244-4.714,0.646l-0.788,0.229l-0.497,0.147l0.78-5.076
				c2.83-0.88,4.694-1.219,6.795-1.219c4.871,0,7.453,2.299,7.453,6.637c0,1.127-0.083,1.963-0.469,4.49l-1.186,8.019l-0.193,1.448
				l-0.146,1.153l-0.099,0.788L41.459,28.409L41.459,28.409z"/>
			<path fill-rule="evenodd" clip-rule="evenodd" fill="#ffffff" d="M130.374,18.327c-0.591-0.071-0.863-0.097-1.261-0.097
				c-3.224,0-4.856,1.169-4.856,3.455c0,1.408,0.808,2.307,2.046,2.307C128.62,23.992,130.272,21.685,130.374,18.327L130.374,18.327
				z M134.501,28.409h-4.702l0.11-2.349c-1.431,1.873-3.346,2.743-5.94,2.743c-3.082,0-5.195-2.522-5.195-6.167
				c0-5.526,3.673-8.734,9.972-8.734c0.639,0,1.466,0.05,2.306,0.168c0.173-0.749,0.225-1.072,0.225-1.469
				c0-1.495-0.985-2.063-3.642-2.063c-1.612,0-3.449,0.244-4.706,0.646l-0.808,0.229l-0.489,0.147l0.788-5.076
				c2.834-0.88,4.694-1.219,6.779-1.219c4.88,0,7.461,2.299,7.461,6.637c0,1.127-0.098,1.963-0.465,4.49l-1.194,8.019l-0.177,1.448
				l-0.158,1.153l-0.102,0.788L134.501,28.409L134.501,28.409z"/>
			<path fill-rule="evenodd" clip-rule="evenodd" fill="#ffffff" d="M150.337,5.589c-0.17-0.034-0.355-0.058-0.572-0.058
				c-1.86,0-2.924,0.988-4.667,3.684l0.504-3.439h-5.128l-3.468,22.634h5.68c2.038-13.834,2.574-16.223,5.285-16.223
				c0.177,0,0.166-0.016,0.398,0.024c0.512-2.727,1.206-4.732,2.16-6.561L150.337,5.589L150.337,5.589z"/>
		</g>
		<g>
			<path fill-rule="evenodd" clip-rule="evenodd" fill="#ffffff" d="M127.639,50.361c0,5.132-1.588,8.153-4.091,8.153
				c-1.829,0.055-2.936-1.981-2.936-5.029c0-3.602,1.62-7.686,4.217-7.686C126.918,45.8,127.639,48.012,127.639,50.361
				L127.639,50.361z M133.216,50.456c0-5.704-2.818-10.142-8.115-10.142c-6.097,0-10.047,5.397-10.047,13.345
				c0,5.689,2.333,10.342,8.107,10.342C128.987,64.001,133.216,59.875,133.216,50.456L133.216,50.456z"/>
			<path fill-rule="evenodd" clip-rule="evenodd" fill="#ffffff" d="M116.875,36.309l-0.867,6.03
				c-1.884-1.064-3.256-1.506-4.738-1.506c-3.961,0-6.728,4.309-6.728,10.434c0,4.228,1.852,6.787,4.939,6.787
				c1.316,0,2.755-0.449,4.505-1.435l-0.918,6.348c-1.959,0.604-3.24,0.812-4.694,0.812c-5.707,0-9.262-4.614-9.262-12.016
				c0-9.961,4.907-16.914,11.935-16.914c0.91,0,1.714,0.116,2.38,0.3l2.168,0.615C116.264,36.03,116.402,36.078,116.875,36.309
				L116.875,36.309z"/>
			<path fill-rule="evenodd" clip-rule="evenodd" fill="#ffffff" d="M81.819,40.453c-0.162-0.045-0.347-0.063-0.544-0.063
				c-1.718,0-2.727,0.993-4.339,3.681l0.469-3.434h-4.793l-3.236,22.636h5.293c1.904-13.847,2.408-16.23,4.947-16.23
				c0.15,0,0.166,0,0.386,0.026c0.477-2.738,1.119-4.745,2.01-6.577L81.819,40.453L81.819,40.453z"/>
			<path fill-rule="evenodd" clip-rule="evenodd" fill="#ffffff" d="M150.968,63.031h-5.002l0.256-2.21
				c-1.454,1.742-2.968,2.515-4.903,2.515c-3.859,0-6.405-3.741-6.405-9.401c0-7.515,3.953-13.889,8.628-13.889
				c2.061,0,3.626,0.975,5.073,3.119l1.167-7.959h5.211L150.968,63.031L150.968,63.031z M143.141,57.708
				c2.495,0,4.213-3.143,4.213-7.628c0-2.885-0.981-4.433-2.802-4.433c-2.408,0-4.119,3.145-4.119,7.615
				C140.433,56.21,141.351,57.708,143.141,57.708L143.141,57.708z"/>
			<path fill-rule="evenodd" clip-rule="evenodd" fill="#ffffff" d="M32.177,62.936c-1.801,0.623-3.555,0.922-5.423,0.922
				c-5.912,0-8.998-3.487-8.998-10.137c0-7.767,3.926-13.498,9.254-13.498c4.363,0,7.146,3.203,7.146,8.232
				c0,1.663-0.189,3.292-0.642,5.586H22.962c-0.032,0.339-0.043,0.507-0.043,0.704c0,2.638,1.581,3.97,4.651,3.97
				c1.892,0,3.602-0.441,5.498-1.435L32.177,62.936L32.177,62.936z M29.217,49.47c0.024-0.478,0.039-0.859,0.039-1.151
				c0-1.845-0.93-2.924-2.503-2.924c-1.691,0-2.893,1.453-3.378,4.052L29.217,49.47L29.217,49.47z"/>
			<path fill-rule="evenodd" clip-rule="evenodd" fill="#ffffff" d="M95.15,62.936c-1.805,0.623-3.563,0.922-5.425,0.922
				c-5.924,0-9.006-3.487-9.006-10.137c0-7.767,3.93-13.498,9.254-13.498c4.364,0,7.155,3.203,7.155,8.232
				c0,1.663-0.197,3.292-0.666,5.586H85.934c-0.032,0.339-0.051,0.507-0.051,0.704c0,2.638,1.577,3.97,4.648,3.97
				c1.892,0,3.606-0.441,5.502-1.435L95.15,62.936L95.15,62.936z M92.174,49.47c0.035-0.478,0.055-0.859,0.055-1.151
				c0-1.845-0.938-2.924-2.504-2.924c-1.691,0-2.893,1.453-3.382,4.052L92.174,49.47L92.174,49.47z"/>
			<path fill-rule="evenodd" clip-rule="evenodd" fill="#ffffff" d="M169.031,62.936c-1.829,0.623-3.563,0.922-5.439,0.922
				c-5.912,0-9.006-3.487-9.006-10.137c0-7.767,3.937-13.498,9.262-13.498c4.363,0,7.142,3.203,7.142,8.232
				c0,1.663-0.181,3.292-0.65,5.586h-10.539c-0.035,0.339-0.043,0.507-0.043,0.704c0,2.638,1.581,3.97,4.651,3.97
				c1.896,0,3.602-0.441,5.502-1.435L169.031,62.936L169.031,62.936z M166.056,49.47c0.024-0.478,0.039-0.859,0.039-1.151
				c0-1.845-0.926-2.924-2.503-2.924c-1.691,0-2.889,1.453-3.378,4.052L166.056,49.47L166.056,49.47z"/>
			<path fill-rule="evenodd" clip-rule="evenodd" fill="#ffffff" d="M16.506,41.477c-1.037-0.694-2.44-1.301-4.422-1.301
				c-2.14,0-3.863,0.444-3.863,2.722c0,4.02,7.804,2.52,7.804,11.13c0,7.843-5.151,9.877-9.81,9.877
				c-2.073,0-4.458-0.686-6.215-1.466l1.265-5.765c1.06,0.964,3.2,1.624,4.95,1.624c1.667,0,4.28-0.455,4.28-3.366
				c0-4.556-7.8-2.861-7.8-10.86c0-7.315,4.556-9.507,8.951-9.507c2.475,0,4.801,0.363,6.164,1.269L16.506,41.477L16.506,41.477z"/>
			<path fill-rule="evenodd" clip-rule="evenodd" fill="#ffffff" d="M47.679,62.929c-1.092,0.525-2.55,0.872-4.702,0.872
				c-4.627,0-7.497-4.624-7.497-10.255c0-7.37,4.15-13.248,10.259-13.248c1.332,0,3.366,0.575,4.97,1.506l-1.171,5.405
				c-1.135-0.746-2.317-1.219-3.535-1.219c-2.83,0-4.852,2.593-4.852,7.242c0,2.675,1.466,4.871,3.784,4.871
				c1.379,0,2.349-0.292,3.535-0.985L47.679,62.929L47.679,62.929z"/>
			<path fill-rule="evenodd" clip-rule="evenodd" fill="#ffffff" d="M67.48,57.261c-0.272,1.947-0.524,3.839-0.674,5.87H61.71
				l0.43-3.658h-0.051c-1.596,2.486-3.248,4.178-6.133,4.178c-3.2,0-4.935-3.366-4.935-7.762c0-1.516,0.095-2.373,0.434-4.74
				l1.443-10.476h5.672l-1.521,10.508c-0.154,1.13-0.37,2.249-0.37,3.416c0,1.324,0.603,2.664,2.132,2.583
				c2.325,0,3.697-2.843,4.087-6.162l1.565-10.345h5.49L67.48,57.261L67.48,57.261z"/>
			<g>
				<polygon fill-rule="evenodd" clip-rule="evenodd" fill="#ffffff" points="174.315,62.856 173.458,62.856 173.458,59.104 
					172.218,59.104 172.218,58.298 175.555,58.298 175.555,59.104 174.315,59.104 174.315,62.856 				"/>
				<polygon fill-rule="evenodd" clip-rule="evenodd" fill="#ffffff" points="180,62.856 179.201,62.856 179.201,59.047 
					179.189,59.047 178.423,62.856 177.583,62.856 176.835,59.047 176.823,59.047 176.823,62.856 176.024,62.856 176.024,58.298 
					177.274,58.298 178.017,61.892 178.029,61.892 178.761,58.298 180,58.298 180,62.856 				"/>
			</g>
		</g>
	</g>
</g>
</svg>
