<svg xmlns="http://www.w3.org/2000/svg" width="31" height="31" viewBox="0 0 31 31">
	<g fill="none">
		<g transform="translate(-781 -1078)translate(211 990)translate(555 72)translate(15 16)">
			<polygon points="12 6 12 6 12 6" fill="#fff" />
			<path d="M15.5 0C7 0 0 7 0 15.5 0 24 7 31 15.5 31 24 31 31 24 31 15.5 31 7 24 0 15.5 0ZM29.7 15.5C29.7 15.8 29.6 16 29.6 16.3 29.5 16.1 29.4 15.7 29.3 15.6 29.3 15.4 29 14.6 29 14.6 29 14.6 28.6 14.2 28.4 14.1 28.2 14 28.1 13.7 27.7 13.5 27.3 13.3 27.1 13.2 26.8 13.2 26.5 13.2 26.2 12.8 25.8 12.5 25.4 12.3 25.4 12.4 25.4 12.4 25.4 12.4 25.8 13.1 25.8 13.2 25.8 13.4 26.3 13.7 26.8 13.6 26.8 13.6 27.1 14.1 27.3 14.3 27.4 14.5 27.2 14.6 26.9 14.8 26.6 15 26.6 15 26.4 15.2 26.3 15.3 25.8 15.6 25.6 15.7 25.4 15.8 24.8 16.1 24.5 15.8 24.3 15.6 24.4 15.3 24.3 15.1 24.2 14.9 23 13.2 22.5 12.5 22.4 12.4 22.2 11.9 22 11.8 21.9 11.7 22.4 11.7 22.4 11.7 22.4 11.7 22.4 11.4 22.3 11.1 22.3 10.8 22.4 10.5 22.4 10.5 22.4 10.5 21.9 10.8 21.7 10.9 21.5 11 21.4 10.7 21.2 10.4 21 10.1 20.7 9.8 20.7 9.5 20.6 9.3 21 9.2 21 9.2L21.4 8.9C21.4 8.9 22 8.8 22.4 8.9 22.8 8.9 23.4 9 23.4 9 23.4 9 23.5 8.6 23.3 8.4 23.1 8.3 22.6 8 22.4 8.1 22.2 8.1 22.5 7.8 22.8 7.6L22.2 7.5C22.2 7.5 21.6 7.7 21.5 7.8 21.3 7.8 21 7.9 20.8 8.2 20.6 8.5 20.9 8.9 20.7 9 20.5 9.1 20.3 9.1 20.2 9.2 20 9.2 19.5 9.2 19.5 9.2 19 9.2 19.3 9.7 19.5 9.9L19 9.3 18.7 8.6C18.7 8.6 18.3 8.3 18 8.2 17.8 8.1 17.2 7.7 17.2 7.7L17.2 8.2 17.8 8.8 17.9 8.8 18.2 9.2 17.5 9.3 17.5 8.9C16.8 8.7 17 8.5 16.9 8.5 16.8 8.4 16.4 8.1 16.4 8.1 16.4 8.1 15.8 8.2 15.6 8.3 15.5 8.3 15.4 8.5 15.1 8.6 14.8 8.7 14.6 8.9 14.5 9 14.4 9.2 14.1 9.7 13.9 9.9 13.6 10.1 13.2 10 13.1 10 12.9 10 12.2 9.8 12.2 9.8L12.2 8.9C12.2 8.9 12.3 8.4 12.2 8.2L12.7 8.2 13.5 8 13.7 7.8 14 7.4C14 7.4 13.6 7.1 13.9 6.8 14 6.6 14.5 6.6 14.7 6.4 14.9 6.2 15.2 6.1 15.2 6.1 15.2 6.1 15.6 5.8 16 5.4 16 5.4 16.3 5.3 16.6 5.2 16.6 5.2 17.5 6 17.6 6 17.8 6 18.4 5.6 18.4 5.6 18.4 5.6 18.6 5.1 18.5 5 18.4 4.8 18.2 4.3 18.2 4.3 18.2 4.3 18 4.5 17.9 4.7 17.7 5 17.6 5.2 17.6 5.2 17.6 5.2 16.8 5.2 16.8 5 16.7 4.9 16.6 4.6 16.6 4.4 16.5 4.3 16.1 4.3 15.8 4.4 15.5 4.5 15.8 3.8 15.8 3.8 15.8 3.8 16.2 3.4 16.4 3.4 16.6 3.4 17.1 3.1 17.3 3.1 17.5 3 18.1 2.8 18.4 2.8 18.7 2.8 19 2.9 19.1 2.9 19.3 2.9 19.9 2.9 19.9 2.9L21.1 2.8C21.1 2.8 22 3.2 21.7 3.4 21.7 3.4 22.1 3.6 22.2 3.8 22.4 3.9 22.8 3.6 23 3.5 27 6 29.7 10.4 29.7 15.5ZM4.2 7.1C4.2 7.4 3.9 7.4 4.2 8 4.6 8.6 4.3 9 4.3 9 4.3 9 3.3 9.6 3.2 9.7 3 9.8 2.6 10.4 2.9 10.2 3.1 10.1 3.5 9.9 3.2 10.4 2.9 10.8 2.4 11.5 2.3 11.7 2.2 12 1.7 12.6 1.7 13 1.7 13.3 1.5 13.9 1.5 14.2 1.6 14.4 1.4 14.9 1.4 15.2 1.4 12.2 2.4 9.4 4.1 7.1 4.2 7.1 4.2 7.1 4.2 7.1ZM5.9 5.1C7.2 3.9 8.7 2.9 10.4 2.3 10.3 2.5 10.1 2.7 10.1 2.7 10.1 2.7 9.7 2.7 9 3.5 8.3 4.2 8.5 4 8.3 4.2 8.1 4.4 8.2 4.5 7.8 4.7 7.5 5 7.3 5.3 7.3 5.3L6.7 5.5 6.2 5.3C6.2 5.3 5.8 5.5 5.9 5.3 5.9 5.2 5.9 5.2 5.9 5.1ZM12.3 6.3L12.1 6 12.3 5.5 12.8 5.8 12.8 4.8 13.3 4.5 13.7 5.1 14.4 5.8 13.9 6.1 12.8 6.4 12.8 5.8 12.3 6.3ZM19.2 11.4C19.4 11.3 19.8 11.5 19.8 11.5 19.8 11.5 21.1 11.8 21.3 12 21.5 12.1 21.9 12.2 22 12.4 22.1 12.5 22.5 13 22.6 13.2 22.6 13.3 22.9 13.9 22.9 14.1 23 14.4 23.1 14.9 23.3 15.2 23.5 15.4 24.4 16.6 24.7 17.1L25.7 17C25.7 17 25.5 17.4 25.4 17.6 25.3 17.8 25 18.2 24.9 18.4 24.7 18.6 24.5 18.9 24.2 19.2 23.8 19.5 23.8 19.7 23.7 20 23.5 20.2 23.3 20.7 23.3 20.7 23.3 20.7 23.4 21.7 23.5 21.9 23.5 22.1 23.1 22.7 23.1 22.7L22.6 23.2 22 24.1 22 24.9C22 24.9 21.5 25.2 21.3 25.5 21 25.7 21 25.8 20.8 26 20.6 26.3 19.8 26.6 19.6 26.7 19.4 26.7 18.2 26.9 18.2 26.9L18.2 26.4 18.2 25.9C18.2 25.9 18 25.2 17.8 25 17.7 24.8 17.7 24.5 17.5 24.2 17.2 24 17.1 23.7 17.1 23.6 17 23.4 17.1 22.9 17.1 22.9 17.1 22.9 17.3 22.4 17.4 22.1 17.5 21.9 17.4 21.6 17.3 21.4 17.2 21.2 17.2 20.6 17.2 20.5 17.2 20.3 16.7 20.1 16.6 19.9 16.4 19.7 16.5 19.5 16.5 19.3 16.5 19.1 16.3 18.6 16.4 18.2 16.4 17.9 15.9 18.1 15.6 18.2 15.2 18.4 15 18.1 15 17.8 15 17.5 14.4 17.8 14.1 18 13.7 18.2 13.3 18.2 12.8 18.4 12.4 18.5 12.2 18.2 12.2 18.2 12.2 18.2 11.8 17.9 11.6 17.7 11.3 17.6 11 17.2 10.8 17 10.6 16.7 10.1 15.9 10 15.6 10 15.3 10 15 10 14.7 10 14.3 10 14.1 10.1 13.8 10.1 13.6 10.3 13.2 10.4 13 10.6 12.7 11.2 12.4 11.4 12.3 11.5 12.2 11.9 11.8 11.9 11.6 11.9 11.4 12.1 11.3 12.2 11.1 12.3 10.9 12.7 10.4 13.2 10.6 13.2 10.6 13.6 10.5 13.8 10.5 13.9 10.4 14.3 10.2 14.5 10.1 14.8 10 15.3 10 15.3 10 15.3 10 15.7 10.1 15.9 10.1 16 10.1 16.6 10.1 16.6 10.1 16.6 10.1 16.8 10.8 16.8 11 16.8 11.2 17 11.3 17.2 11.4 17.5 11.5 18.7 11.8 19.2 11.4ZM25.4 21.8C25.4 22 25.3 22.4 25.3 22.6 25.2 22.8 25.1 23.2 25.1 23.4 25 23.6 24.7 24.1 24.6 24.2 24.4 24.3 24.2 24.6 24 24.7 23.8 24.7 23.7 24.3 23.8 24.1 23.8 23.9 24.1 23.3 24.1 23.3 24.1 23.3 24.2 22.9 24.2 22.7 24.3 22.5 24.9 22.3 24.9 22.3L25.3 21.5C25.3 21.5 25.4 21.7 25.4 21.8ZM1.7 18.6C1.8 18.7 1.9 18.7 2 18.8 2.2 19 2.3 19.1 2.6 19.2 2.9 19.3 3 19.5 3.3 19.6 3.6 19.8 3.5 19.7 3.9 20.2 4.4 20.7 4.3 20.7 4.4 20.9 4.5 21.2 4.7 21.5 4.8 21.6 4.9 21.8 5.2 21.9 5.4 22 5.5 22.1 5.8 22.2 6 22.2 6.1 22.2 6.6 22.7 6.9 22.7 7.1 22.8 7.1 23.3 7.1 23.3L6.9 24.1 6.7 24.9 6.9 25.5C6.9 25.5 6.5 25.8 6.3 25.8 6.1 25.8 6.1 25.9 5.9 25.8 3.8 23.9 2.3 21.5 1.7 18.6Z" fill="#fff" />
		</g>
	</g>
</svg>