<svg width="22" height="22" viewBox="0 0 22 22" fill="none" xmlns="http://www.w3.org/2000/svg">
<path d="M14.8571 13.5977C13.87 12.6106 12.5063 12 11 12C9.49369 12 8.12999 12.6106 7.14286 13.5977M4.57143 10.6628C6.21664 9.01759 8.48949 8 11 8C13.5105 8 15.7834 9.01759 17.4286 10.6628M20 7.72792C17.6967 5.42462 14.5147 4 11 4C7.48528 4 4.3033 5.42462 2 7.72792" stroke="#333333" stroke-width="0.6" stroke-linecap="round" stroke-linejoin="round"/>
<path d="M12.5 17.5C12.5 18.3284 11.8284 19 11 19C10.1716 19 9.5 18.3284 9.5 17.5C9.5 16.6716 10.1716 16 11 16C11.8284 16 12.5 16.6716 12.5 17.5Z" stroke="#333333" stroke-width="0.6"/>
</svg>
