<svg width="22" height="22" viewBox="0 0 22 22" fill="none" xmlns="http://www.w3.org/2000/svg">
<path fill-rule="evenodd" clip-rule="evenodd" d="M15.4019 18.3929H6.95084C6.09035 18.3929 5.39015 17.732 5.39015 16.9197V3.67489C5.39015 2.8622 6.09035 2.2011 6.95084 2.2011H15.4019C16.2628 2.2011 16.963 2.8622 16.963 3.67489V16.9197C16.963 17.732 16.2628 18.3929 15.4019 18.3929Z" stroke="#333333" stroke-width="0.6"/>
<path d="M7.81208 6.60101C7.75725 6.60101 7.70243 6.58124 7.66057 6.54172C7.57687 6.46266 7.57687 6.33459 7.66057 6.25554L9.66134 4.36592C9.74505 4.28687 9.88065 4.28687 9.96435 4.36592C10.0481 4.44498 10.0481 4.57305 9.96435 4.6521L7.96359 6.54172C7.92173 6.58124 7.86691 6.60101 7.81208 6.60101Z" fill="#333333"/>
<path d="M8.09145 8.74913C8.03663 8.74913 7.9818 8.72937 7.93995 8.68984C7.85624 8.61079 7.85624 8.48272 7.93995 8.40366L11.9358 4.62977C12.0195 4.55072 12.1551 4.55072 12.2388 4.62977C12.3225 4.70883 12.3225 4.8369 12.2388 4.91595L8.24296 8.68984C8.20111 8.72937 8.14628 8.74913 8.09145 8.74913Z" fill="#333333"/>
<path fill-rule="evenodd" clip-rule="evenodd" d="M10.9946 16.4493C10.4748 16.4493 10.052 16.0501 10.052 15.5591C10.052 15.0682 10.4748 14.669 10.9946 14.669C11.514 14.669 11.9367 15.0682 11.9367 15.5591C11.9367 16.0501 11.514 16.4493 10.9946 16.4493Z" stroke="#333333" stroke-width="0.6"/>
</svg>
