<svg width="22" height="22" viewBox="0 0 22 22" fill="none" xmlns="http://www.w3.org/2000/svg">
<path d="M16.9522 13.8096C16.9522 14.6138 16.6454 15.4181 16.0318 16.0318C15.4181 16.6454 14.6138 16.9523 13.8095 16.9523M19.0474 13.8096C19.0474 15.15 18.536 16.4905 17.5132 17.5133C16.4905 18.536 15.15 19.0474 13.8095 19.0474M14.8571 13.8096C14.8571 14.0777 14.7548 14.3457 14.5503 14.5503C14.3457 14.7548 14.0776 14.8571 13.8095 14.8571M17.2963 1L21 4.7037L16.5556 9.14815L15.8148 8.40741L14.3333 9.88889L12.1111 7.66667L13.5926 6.18519L12.8519 5.44444L17.2963 1ZM1 17.2963L4.7037 21L9.14815 16.5556L8.40741 15.8148L9.88889 14.3333L7.66667 12.1111L6.18519 13.5926L5.44444 12.8519L1 17.2963ZM8.03704 10.2593L11.7407 13.963C11.9453 14.1675 12.2769 14.1675 12.4815 13.963L13.963 12.4815C14.1675 12.2769 14.1675 11.9453 13.963 11.7407L10.2593 8.03704C10.0547 7.83249 9.72307 7.83249 9.51852 8.03704L8.03704 9.51852C7.83249 9.72307 7.83249 10.0547 8.03704 10.2593Z" stroke="#333333" stroke-width="0.6" stroke-linecap="round" stroke-linejoin="round"/>
</svg>
