<svg width="22" height="22" viewBox="0 0 22 22" fill="none" xmlns="http://www.w3.org/2000/svg">
<path d="M11.9 2H10.1C9.76863 2 9.5 2.26863 9.5 2.6V3.93816C9.5 4.21837 9.30509 4.45851 9.03695 4.53989C8.61221 4.66879 8.2052 4.83842 7.82046 5.04425C7.57338 5.17643 7.26575 5.14443 7.06761 4.94629L6.12096 3.99964C5.88664 3.76532 5.50674 3.76532 5.27243 3.99964L3.99963 5.27243C3.76532 5.50674 3.76532 5.88664 3.99963 6.12096L4.94629 7.06761C5.14443 7.26575 5.17643 7.57338 5.04425 7.82047C4.83842 8.20521 4.66879 8.61222 4.53989 9.03695C4.45851 9.30509 4.21837 9.5 3.93816 9.5H2.6C2.26863 9.5 2 9.76863 2 10.1V11.9C2 12.2314 2.26863 12.5 2.6 12.5H3.93816C4.21837 12.5 4.45851 12.6949 4.53989 12.9631C4.66879 13.3878 4.83842 13.7948 5.04425 14.1795C5.17643 14.4266 5.14443 14.7342 4.94629 14.9324L3.99965 15.879C3.76533 16.1133 3.76533 16.4932 3.99965 16.7276L5.27244 18.0003C5.50676 18.2347 5.88665 18.2347 6.12097 18.0003L7.06761 17.0537C7.26575 16.8556 7.57338 16.8236 7.82046 16.9558C8.2052 17.1616 8.61221 17.3312 9.03695 17.4601C9.30509 17.5415 9.5 17.7816 9.5 18.0618V19.4C9.5 19.7314 9.76863 20 10.1 20H11.9C12.2314 20 12.5 19.7314 12.5 19.4V18.0618C12.5 17.7816 12.6949 17.5415 12.9631 17.4601C13.3878 17.3312 13.7948 17.1616 14.1795 16.9558C14.4266 16.8236 14.7342 16.8556 14.9324 17.0537L15.879 18.0004C16.1133 18.2347 16.4932 18.2347 16.7276 18.0004L18.0003 16.7276C18.2347 16.4932 18.2347 16.1133 18.0003 15.879L17.0537 14.9324C16.8556 14.7342 16.8236 14.4266 16.9558 14.1795C17.1616 13.7948 17.3312 13.3878 17.4601 12.9631C17.5415 12.6949 17.7816 12.5 18.0618 12.5H19.4C19.7314 12.5 20 12.2314 20 11.9V10.1C20 9.76863 19.7314 9.5 19.4 9.5H18.0618C17.7816 9.5 17.5415 9.30509 17.4601 9.03695C17.3312 8.61221 17.1616 8.2052 16.9558 7.82046C16.8236 7.57338 16.8556 7.26575 17.0537 7.06761L18.0004 6.12095C18.2347 5.88664 18.2347 5.50674 18.0004 5.27243L16.7276 3.99964C16.4933 3.76532 16.1134 3.76532 15.879 3.99964L14.9324 4.94629C14.7342 5.14443 14.4266 5.17643 14.1795 5.04425C13.7948 4.83842 13.3878 4.66879 12.9631 4.53989C12.6949 4.45851 12.5 4.21837 12.5 3.93816V2.6C12.5 2.26863 12.2314 2 11.9 2Z" stroke="#333333" stroke-width="0.6" stroke-linecap="round" stroke-linejoin="round"/>
<path d="M14.75 11C14.75 13.0711 13.0711 14.75 11 14.75C8.92893 14.75 7.25 13.0711 7.25 11C7.25 8.92893 8.92893 7.25 11 7.25C13.0711 7.25 14.75 8.92893 14.75 11Z" stroke="#333333" stroke-width="0.6" stroke-linecap="round" stroke-linejoin="round"/>
</svg>
