<svg width="22" height="22" viewBox="0 0 22 22" fill="none" xmlns="http://www.w3.org/2000/svg">
<path d="M17.2832 5.49359V4.28465C17.2832 3.61974 16.7465 3.16276 16.09 3.26874L3.53597 5.30057C2.87952 5.40655 2.34235 6.03762 2.34235 6.70253V16.777C2.34235 17.4419 2.88597 17.986 3.55129 17.986H17.2526C17.9175 17.986 18.4615 17.4419 18.4615 16.777V15.089" stroke="#333333" stroke-width="0.6"/>
<path d="M19.8699 11.6398V13.477C19.8699 13.9199 19.5072 14.283 19.064 14.283H17.2268C16.7839 14.283 16.4208 13.9199 16.4208 13.477V11.6398C16.4208 11.1966 16.7839 10.8339 17.2268 10.8339H18.4615V7.91147C18.4615 7.24656 17.9175 6.70253 17.2526 6.70253H5.16316" stroke="#333333" stroke-width="0.6"/>
<path fill-rule="evenodd" clip-rule="evenodd" d="M18.7023 12.5584C18.7023 12.8658 18.4529 13.1149 18.1454 13.1149C17.8379 13.1149 17.5889 12.8658 17.5889 12.5584C17.5889 12.2509 17.8379 12.0018 18.1454 12.0018C18.4529 12.0018 18.7023 12.2509 18.7023 12.5584Z" stroke="#333333" stroke-width="0.6"/>
</svg>
