<?xml version="1.0" encoding="utf-8"?>
<!-- Generator: Adobe Illustrator 22.0.0, SVG Export Plug-In . SVG Version: 6.00 Build 0)  -->
<svg version="1.1" id="Layer_1" xmlns="http://www.w3.org/2000/svg" xmlns:xlink="http://www.w3.org/1999/xlink" x="0px" y="0px"
	 viewBox="0 0 171.8 124.3" style="enable-background:new 0 0 171.8 124.3;" xml:space="preserve">
<style type="text/css">
	.st0{fill:none;stroke:#999999;stroke-miterlimit:10;}
	.st1{fill:none;stroke:#E9222D;stroke-linecap:round;stroke-miterlimit:10;}
</style>
<g>
	<path class="st0" d="M53.9,111.4c0,4.8-3.9,8.7-8.7,8.7s-8.7-3.9-8.7-8.7s3.9-8.7,8.7-8.7S53.9,106.6,53.9,111.4z"/>
	<path class="st0" d="M26.6,74.4"/>
	<path class="st0" d="M118,111.4c0,4.8-3.9,8.7-8.7,8.7c-4.8,0-8.7-3.9-8.7-8.7s3.9-8.7,8.7-8.7C114.1,102.7,118,106.6,118,111.4z"
		/>
	<path class="st0" d="M25.1,18.5"/>
	<line class="st0" x1="87.4" y1="27.2" x2="36.2" y2="19.6"/>
	<path class="st0" d="M25.1,18.5v49c0.5,3.9,3.9,7,7.9,7h84.3c4.1,0,7.4-3,7.9-7v-7.7"/>
	<path class="st0" d="M25.1,65.4v19.1c0.5,3.9,3.9,7,7.9,7h89.2"/>
	<path class="st0" d="M3.5,6.8h9.9c6.4,0,11.6,5.2,11.6,11.6"/>
</g>
<g>
	<path class="st1" d="M137.6,10.7c-11.6-11.6-30.3-11.6-41.8,0s-11.6,30.3,0,41.8c10.5,10.5,27.1,11.5,38.7,2.8l21.8,21.8
		c1.6,1.6,4.3,1.6,5.9,0c1.6-1.6,1.6-4.3,0-5.9l-21.8-21.8C149,37.8,148.1,21.3,137.6,10.7z"/>
	<circle class="st1" cx="116.7" cy="31.7" r="23.7"/>
</g>
</svg>
