<svg version="1.1" xmlns="http://www.w3.org/2000/svg" xmlns:xlink="http://www.w3.org/1999/xlink" x="0px" y="0px" viewBox="0 0 206.6 64.8" enable-background="new 0 0 206.6 64.8" xml:space="preserve">
	<path fill="#adb8c1" d="M194,4.8c4.1,0,7.5,3.4,7.5,7.5v40c0,4.1-3.4,7.5-7.5,7.5H14c-4.1,0-7.5-3.4-7.5-7.5v-40 c0-4.1,3.4-7.5,7.5-7.5L194,4.8 M194,2.3H14c-5.5,0-10,4.5-10,10v40c0,5.5,4.5,10,10,10h180c5.5,0,10-4.5,10-10v-40 C204,6.8,199.6,2.3,194,2.3L194,2.3z"/>
	<path fill="none" stroke="#adb8c1" stroke-miterlimit="10" d="M193,9.3H15c-2.2,0-4,1.8-4,4v38c0,2.2,1.8,4,4,4h178c2.2,0,4-1.8,4-4
	v-38C197,11.1,195.3,9.3,193,9.3z"/>
	<path fill="#adb8c1" d="M46.5,31.8c0-5.3,2.6-8.8,7.3-8.8c4.7,0,7.2,3.1,7.2,8.5c0,5.4-2.5,8.8-7.4,8.8C49,40.5,46.5,37.5,46.5,31.8 z M57.9,31.9c0-3.7-1.1-6.3-4.2-6.3c-3,0-4,2.9-4,6.1c0,3.9,1.2,6.4,4.2,6.4C56.9,38,57.9,35.2,57.9,31.9z"/>
	<path fill="#adb8c1" d="M72.7,40.1V25.8h-5.8v14.3h-3V23.4h11.8v16.8H72.7z"/>
	<path fill="#adb8c1" d="M87.7,40.1V25.8h-3.5c-1.2,12.6-2.4,14.7-6.6,14.4v-2.8c2,0,2.7-0.8,4-14.1h9.1v16.8H87.7z"/>
	<path fill="#adb8c1" d="M103.7,40.1c-0.3-1.2-0.6-2.7-1-4H97c-0.4,1.3-0.7,2.7-1,4h-3c1.5-5.8,3.2-11.3,5.2-16.8h3.6 c2,5.6,3.8,11.3,5.2,16.8H103.7z M102.2,33.8c-0.6-1.9-1.2-4-1.8-6c-0.2-0.5-0.3-1.1-0.5-1.6h0c-0.2,0.5-0.3,1.1-0.5,1.6 c-0.6,2-1.2,4.1-1.8,6H102.2z"/>
	<path fill="#adb8c1" d="M115.5,40.1V34c-0.6,0.1-1.5,0.2-2.4,0.2c-3.6,0-5.7-1.3-5.7-5.5v-5.3h3v5c0,2.7,1.1,3.2,3,3.2 c0.8,0,1.5,0,2.1-0.1v-8.1h3v16.8H115.5z"/>
	<path fill="#adb8c1" d="M121.8,40.1V23.4h8.8v2.4h-5.9v4.6h5v2.3h-5v5.2h5.9v2.4H121.8z"/>
	<path fill="#adb8c1" d="M142.2,40.1v-7.4h-5.8v7.4h-3V23.4h3v6.8h5.8v-6.8h3v16.8H142.2z"/>
	<path fill="#adb8c1" d="M147.9,31.8c0-5.3,2.6-8.8,7.3-8.8c4.7,0,7.2,3.1,7.2,8.5c0,5.4-2.5,8.8-7.4,8.8 C150.4,40.5,147.9,37.5,147.9,31.8z M159.3,31.9c0-3.7-1.1-6.3-4.2-6.3c-3,0-4,2.9-4,6.1c0,3.9,1.2,6.4,4.2,6.4 C158.2,38,159.3,35.2,159.3,31.9z"/>
</svg>
