<?xml version="1.0" encoding="UTF-8" standalone="no"?>
<svg width="446px" height="173px" viewBox="0 0 446 173" version="1.1" xmlns="http://www.w3.org/2000/svg" xmlns:xlink="http://www.w3.org/1999/xlink">
    <!-- Generator: Sketch 40.3 (33839) - http://www.bohemiancoding.com/sketch -->
    <title>PCI</title>
    <desc>Created with Sketch.</desc>
    <defs></defs>
    <g id="Page-1" stroke="none" stroke-width="1" fill="none" fill-rule="evenodd">
        <g id="PCI" fill="#ffffff">
            <path d="M304.433333,97.816786 L308.844444,99.1501194 C308.548147,100.387163 308.081485,101.420486 307.444444,102.250119 C306.807404,103.079753 306.016671,103.705673 305.072222,104.127897 C304.127773,104.550121 302.925933,104.76123 301.466667,104.76123 C299.696287,104.76123 298.250006,104.503826 297.127778,103.989008 C296.00555,103.474191 295.037041,102.568644 294.222222,101.272342 C293.407403,99.9760388 293,98.3167961 293,96.2945638 C293,93.598254 293.716659,91.5260525 295.15,90.0778971 C296.583341,88.6297417 298.611098,87.9056749 301.233333,87.9056749 C303.285195,87.9056749 304.898142,88.3204856 306.072222,89.1501194 C307.246302,89.9797531 308.118516,91.2538145 308.688889,92.9723416 L304.244444,93.9612305 C304.088888,93.4649317 303.925927,93.1019724 303.755556,92.8723416 C303.474073,92.4871545 303.129632,92.1908611 302.722222,91.9834527 C302.314813,91.7760442 301.859262,91.6723416 301.355556,91.6723416 C300.214809,91.6723416 299.340744,92.1315962 298.733333,93.0501194 C298.274072,93.7316042 298.044444,94.8019639 298.044444,96.2612305 C298.044444,98.0686469 298.318516,99.3075234 298.866667,99.9778971 C299.414818,100.648271 300.18518,100.983453 301.177778,100.983453 C302.140746,100.983453 302.868516,100.713085 303.361111,100.172342 C303.853706,99.6315981 304.21111,98.8464208 304.433333,97.816786 L304.433333,97.816786 Z M310.655556,96.3390082 C310.655556,93.6797357 311.396289,91.609386 312.877778,90.1278971 C314.359267,88.6464082 316.422209,87.9056749 319.066667,87.9056749 C321.777791,87.9056749 323.866659,88.6334454 325.333333,90.0890082 C326.800007,91.5445711 327.533333,93.5834396 327.533333,96.2056749 C327.533333,98.1093881 327.212966,99.6704836 326.572222,100.889008 C325.931478,102.107533 325.005562,103.055672 323.794444,103.733453 C322.583327,104.411234 321.074083,104.750119 319.266667,104.750119 C317.42962,104.750119 315.909265,104.45753 314.705556,103.872342 C313.501846,103.287153 312.52593,102.361237 311.777778,101.094564 C311.029626,99.8278908 310.655556,98.2427215 310.655556,96.3390082 L310.655556,96.3390082 Z M315.688889,96.3612305 C315.688889,98.0056831 315.994441,99.1871528 316.605556,99.9056749 C317.21667,100.624197 318.048143,100.983453 319.1,100.983453 C320.181487,100.983453 321.018516,100.631604 321.611111,99.9278971 C322.203707,99.2241899 322.5,97.9612396 322.5,96.1390082 C322.5,94.6056672 322.190744,93.4853081 321.572222,92.7778971 C320.953701,92.0704862 320.11482,91.716786 319.055556,91.716786 C318.040736,91.716786 317.225929,92.0760417 316.611111,92.7945638 C315.996293,93.5130859 315.688889,94.7019629 315.688889,96.3612305 L315.688889,96.3612305 Z M330.188889,88.1834527 L336.811111,88.1834527 L339.366667,98.0945638 L341.911111,88.1834527 L348.511111,88.1834527 L348.511111,104.472342 L344.4,104.472342 L344.4,92.0501194 L341.211111,104.472342 L337.488889,104.472342 L334.311111,92.0501194 L334.311111,104.472342 L330.188889,104.472342 L330.188889,88.1834527 Z M351.7,88.1834527 L360.066667,88.1834527 C361.888898,88.1834527 363.253699,88.6167817 364.161111,89.4834527 C365.068523,90.3501237 365.522222,91.5834447 365.522222,93.1834527 C365.522222,94.8279054 365.027783,96.1130777 364.038889,97.0390082 C363.049995,97.9649388 361.540751,98.4278971 359.511111,98.4278971 L356.755556,98.4278971 L356.755556,104.472342 L351.7,104.472342 L351.7,88.1834527 Z M356.755556,95.1278971 L357.988889,95.1278971 C358.959264,95.1278971 359.640739,94.9593803 360.033333,94.6223416 C360.425928,94.2853029 360.622222,93.8538257 360.622222,93.3278971 C360.622222,92.8167835 360.451854,92.3834545 360.111111,92.0278971 C359.770369,91.6723398 359.129634,91.4945638 358.188889,91.4945638 L356.755556,91.4945638 L356.755556,95.1278971 Z M368.155556,88.1834527 L373.188889,88.1834527 L373.188889,100.46123 L381.044444,100.46123 L381.044444,104.472342 L368.155556,104.472342 L368.155556,88.1834527 Z M383.533333,88.1834527 L388.577778,88.1834527 L388.577778,104.472342 L383.533333,104.472342 L383.533333,88.1834527 Z M402.211111,101.783453 L396.477778,101.783453 L395.688889,104.472342 L390.544444,104.472342 L396.666667,88.1834527 L402.155556,88.1834527 L408.277778,104.472342 L403.011111,104.472342 L402.211111,101.783453 Z M401.155556,98.2612305 L399.355556,92.4056749 L397.566667,98.2612305 L401.155556,98.2612305 Z M409.922222,88.1834527 L414.622222,88.1834527 L420.755556,97.1945638 L420.755556,88.1834527 L425.5,88.1834527 L425.5,104.472342 L420.755556,104.472342 L414.655556,95.5278971 L414.655556,104.472342 L409.922222,104.472342 L409.922222,88.1834527 Z M427.7,88.1834527 L443,88.1834527 L443,92.2056749 L437.866667,92.2056749 L437.866667,104.472342 L432.833333,104.472342 L432.833333,92.2056749 L427.7,92.2056749 L427.7,88.1834527 Z" id="COMPLIANT"></path>
            <path d="M217.468501,94.7075195 L217.468501,53.3266251 L191.481484,53.3266251 L191.481484,110.109278 C186.690207,107.267908 183.004953,105.626039 180.8569,104.83587 L180.850556,102.057865 C177.487268,103.310869 174.333465,104.261449 171.37763,104.918987 C168.419635,105.573638 165.383893,105.902046 162.2956,105.902046 C159.287214,105.902046 156.486873,105.507957 153.875861,104.714002 C151.265569,103.940258 148.995782,102.773146 147.045622,101.224213 C145.109139,99.6832208 143.558514,97.7474165 142.400224,95.4124697 C141.262091,93.0847408 140.686185,90.3816881 140.686185,87.285989 C140.686185,81.3154545 142.518284,76.7242347 146.181763,73.4964506 C149.85892,70.2895979 154.601502,68.6757059 160.444064,68.6757059 C164.06219,68.6757059 167.470831,69.1614614 170.64407,70.1055449 C173.81731,71.0633422 176.702597,72.2571604 179.253858,73.7007133 L179.299931,55.4722498 C176.035266,54.28998 175.94888,54.1658345 171.841234,53.2672229 C167.753025,52.3816032 163.080991,52.2300301 158.043978,52.2300301 C151.513929,52.2300301 145.520912,53.0759521 140.097322,54.7425339 C134.653575,56.4221076 129.962824,58.8039698 126.038028,61.8859551 C122.105313,64.9758799 119.057333,68.6757059 116.891928,73.0121386 C114.732283,77.3471278 113.65318,82.1368361 113.65318,87.3906466 C113.65318,92.7029211 114.666773,97.5243876 116.695401,101.874534 C118.723308,106.196531 121.680583,109.863155 125.572984,112.893173 C129.466106,115.918138 134.215886,118.24731 139.816568,119.88069 C145.442445,121.526341 151.821318,122.347 158.972625,122.347 C160.719466,122.347 162.401211,122.301296 164.018637,122.209978 C164.296605,123.197895 164.722168,124.370137 164.722168,125.527344 C164.722168,128.10498 171.651573,135.817734 171.651573,135.817734 L60.038319,171 L2,12.760625 L210.873735,1 L239.572754,64.456543 M253.585474,96.2139443 L243.877329,113.051031 L259,108.284125 L253.585474,96.2139443 M220.261211,32.0397062 C220.261211,36.6121598 218.74442,40.2073282 215.728115,42.8107757 C212.704611,45.414945 208.962664,46.7141426 204.513794,46.7141426 C200.065644,46.7141426 196.322978,45.414945 193.300194,42.8107757 C190.271651,40.2073282 188.766378,36.6121598 188.766378,32.0397062 C188.766378,27.3698128 190.271651,23.7233983 193.300194,21.1250032 C196.322978,18.5143379 200.065644,17.2086443 204.513794,17.2086443 C208.962664,17.2086443 212.704611,18.5143379 215.728115,21.1250032 C218.74442,23.7233983 220.261211,27.3698128 220.261211,32.0397062 L220.261211,32.0397062 L220.261211,32.0397062 L220.261211,32.0397062 L220.261211,32.0397062 L220.261211,32.0397062 L220.261211,32.0397062 Z M108.569446,76.5610411 C108.569446,80.5683437 107.692629,84.0841167 105.900124,87.1480576 C104.140012,90.2047807 101.647781,92.7432684 98.4349482,94.7700166 C95.2228351,96.8155309 91.3628283,98.3384792 86.835491,99.3554621 C82.3146327,100.371002 77.3100136,100.876967 71.8079562,100.876967 L67.7643796,100.876967 L67.7643796,121.257768 L41.8954233,121.257768 L41.8954233,53.3270581 L72.1938129,53.3270581 C83.5182752,53.3270581 92.4232144,55.248427 98.8733562,59.0853904 C105.343655,62.9223538 108.569446,68.7543073 108.569446,76.5610411 L108.569446,76.5610411 L108.569446,76.5610411 L108.569446,76.5610411 L108.569446,76.5610411 L108.569446,76.5610411 L108.569446,76.5610411 Z M83,76.7470768 C83,70.9180705 78.7048075,68 70.1215185,68 L67,68 L67,86 L69.8759979,86 C74.1193897,86 77.3693454,85.2544294 79.6265744,83.7625748 C81.8781267,82.2593048 83,79.9305561 83,76.7470768 L83,76.7470768 L83,76.7470768 L83,76.7470768 L83,76.7470768 L83,76.7470768 L83,76.7470768 Z" id="Combined-Shape"></path>
            <path d="M177.629883,112.62207 C177.629883,112.62207 170.036377,118.523926 170.533203,122.379883 C171.030029,126.23584 192.504883,150.64209 192.504883,150.64209 C192.504883,150.64209 199.848145,155.770996 206.145508,154.424316 C208.629267,153.893169 211.376708,153.025273 213.341797,151.28418 C216.359027,148.610877 218.038086,144.870605 218.038086,144.870605 L250.254883,86.3618164 C250.254883,86.3618164 262.456543,69.4423828 267.782227,64.2294922 C273.10791,59.0166016 285.123535,47.6425781 285.123535,47.6425781 C285.123535,47.6425781 284.875977,46.0083008 283.959473,46.0083008 C283.042969,46.0083008 280.052734,44.9633789 271.984863,47.3769531 C263.916992,49.7905273 254.181152,59.2070312 253.623535,59.2070312 C253.065918,59.2070312 227.084473,93.6166992 227.084473,93.6166992 C227.084473,93.6166992 205.953613,129.906982 204.333496,129.906982 C202.713379,129.906982 188.797852,117.12207 188.797852,117.12207 C188.797852,117.12207 182.79248,112.064209 180.711914,112.064209 C178.631348,112.064209 177.629883,112.62207 177.629883,112.62207 Z" id="Path-2"></path>
            <path d="M293,26.8791317 L316.666226,26.8791317 C321.331508,26.8791317 325.100015,27.5121002 327.971859,28.7780562 C330.843704,30.0440122 333.217336,31.8608662 335.092826,34.2286728 C336.968317,36.5964794 338.328027,39.3510645 339.171997,42.4925109 C340.015968,45.6339572 340.437947,48.9629027 340.437947,52.4794471 C340.437947,57.9887 339.810839,62.2612374 338.556605,65.2971874 C337.302371,68.3331374 335.561708,70.8767331 333.334563,72.9280507 C331.107418,74.9793682 328.716204,76.3449392 326.160848,77.0248044 C322.667747,77.9625496 319.502905,78.4314152 316.666226,78.4314152 L293,78.4314152 L293,26.8791317 Z M308.929867,38.5540008 L308.929867,66.7213808 L312.833211,66.7213808 C316.162207,66.7213808 318.529978,66.3521492 319.936596,65.6136748 C321.343213,64.8752005 322.445047,63.5858202 323.242131,61.7454953 C324.039214,59.9051704 324.43775,56.9220133 324.43775,52.7959345 C324.43775,47.3335688 323.546905,43.594366 321.76519,41.5782139 C319.983474,39.5620618 317.029621,38.5540008 312.903542,38.5540008 L308.929867,38.5540008 Z M346.029225,61.37626 L361.185455,60.4267978 C361.513666,62.8883788 362.1818,64.7638411 363.189876,66.0532407 C364.83093,68.1397237 367.175258,69.1829496 370.222929,69.1829496 C372.496961,69.1829496 374.249346,68.649615 375.480137,67.5829299 C376.710928,66.5162447 377.326314,65.2796118 377.326314,63.8729941 C377.326314,62.5367072 376.740232,61.3411 375.56805,60.2861367 C374.395869,59.2311734 371.676448,58.234834 367.409708,57.2970889 C360.423506,55.7263657 355.44181,53.639914 352.464469,51.0376711 C349.463684,48.4354282 347.963314,45.1182044 347.963314,41.0859001 C347.963314,38.43677 348.731082,35.9342001 350.26664,33.5781153 C351.802197,31.2220306 354.11136,29.3700116 357.194197,28.0220029 C360.277035,26.6739942 364.502686,26 369.871277,26 C376.458937,26 381.481659,27.2249113 384.939594,29.6747705 C388.39753,32.1246298 390.454677,36.0220748 391.111099,41.3672223 L376.095529,42.246354 C375.696987,39.9254347 374.85889,38.2375187 373.581213,37.1825553 C372.303535,36.127592 370.539428,35.6001183 368.28884,35.6001183 C366.436793,35.6001183 365.041918,35.9927932 364.104173,36.7781548 C363.166427,37.5635163 362.697562,38.5188299 362.697562,39.6441241 C362.697562,40.4646512 363.084376,41.2031144 363.858016,41.859536 C364.608212,42.5394013 366.389901,43.1723698 369.203137,43.7584605 C376.165895,45.2588528 381.153452,46.7768051 384.165958,48.3123628 C387.178465,49.8479205 389.370411,51.7526868 390.741863,54.0267189 C392.113316,56.300751 392.799032,58.8443466 392.799032,61.6575821 C392.799032,64.9631339 391.884744,68.01076 390.056141,70.8005519 C388.227538,73.5903438 385.67222,75.7060997 382.390112,77.1478829 C379.108004,78.5896661 374.970266,79.3105469 369.976772,79.3105469 C361.208855,79.3105469 355.137046,77.6226309 351.761163,74.2467482 C348.385281,70.8708656 346.474654,66.5807457 346.029225,61.37626 L346.029225,61.37626 Z M398.038657,61.37626 L413.194887,60.4267978 C413.523098,62.8883788 414.191232,64.7638411 415.199308,66.0532407 C416.840362,68.1397237 419.184689,69.1829496 422.232361,69.1829496 C424.506393,69.1829496 426.258778,68.649615 427.489569,67.5829299 C428.720359,66.5162447 429.335746,65.2796118 429.335746,63.8729941 C429.335746,62.5367072 428.749664,61.3411 427.577482,60.2861367 C426.405301,59.2311734 423.68588,58.234834 419.41914,57.2970889 C412.432938,55.7263657 407.451242,53.639914 404.473901,51.0376711 C401.473116,48.4354282 399.972746,45.1182044 399.972746,41.0859001 C399.972746,38.43677 400.740514,35.9342001 402.276072,33.5781153 C403.811629,31.2220306 406.120792,29.3700116 409.203629,28.0220029 C412.286467,26.6739942 416.512117,26 421.880709,26 C428.468369,26 433.491091,27.2249113 436.949026,29.6747705 C440.406961,32.1246298 442.464109,36.0220748 443.120531,41.3672223 L428.104961,42.246354 C427.706419,39.9254347 426.868322,38.2375187 425.590644,37.1825553 C424.312967,36.127592 422.54886,35.6001183 420.298272,35.6001183 C418.446225,35.6001183 417.05135,35.9927932 416.113605,36.7781548 C415.175859,37.5635163 414.706994,38.5188299 414.706994,39.6441241 C414.706994,40.4646512 415.093808,41.2031144 415.867448,41.859536 C416.617644,42.5394013 418.399333,43.1723698 421.212569,43.7584605 C428.175326,45.2588528 433.162884,46.7768051 436.17539,48.3123628 C439.187897,49.8479205 441.379843,51.7526868 442.751295,54.0267189 C444.122748,56.300751 444.808464,58.8443466 444.808464,61.6575821 C444.808464,64.9631339 443.894176,68.01076 442.065573,70.8005519 C440.23697,73.5903438 437.681652,75.7060997 434.399544,77.1478829 C431.117436,78.5896661 426.979698,79.3105469 421.986204,79.3105469 C413.218287,79.3105469 407.146478,77.6226309 403.770595,74.2467482 C400.394713,70.8708656 398.484086,66.5807457 398.038657,61.37626 L398.038657,61.37626 Z" id="DSS"></path>
        </g>
    </g>
</svg>