<svg width="16" height="13" viewBox="0 0 16 13" fill="none" xmlns="http://www.w3.org/2000/svg">
    <path fill-rule="evenodd" clip-rule="evenodd" d="M6.27002 0C5.84137 0 5.43065 0.171994 5.12991 0.477433L4.47009 1.14757C4.16935 1.45301 3.75863 1.625 3.32998 1.625H1.6C0.71875 1.625 0 2.35498 0 3.25V11.375C0 12.27 0.71875 13 1.6 13H14.4C15.2812 13 16 12.27 16 11.375V3.25C16 2.35498 15.2812 1.625 14.4 1.625H12.67C12.2414 1.625 11.8307 1.45301 11.5299 1.14757L10.8701 0.477433C10.5693 0.171994 10.1586 0 9.72998 0H6.27002ZM8 4.0625C9.7925 4.0625 11.2 5.49199 11.2 7.3125C11.2 9.13301 9.7925 10.5625 8 10.5625C6.2075 10.5625 4.8 9.13301 4.8 7.3125C4.8 5.49199 6.2075 4.0625 8 4.0625Z" fill="#1D2023"/>
</svg>
