<svg width="36" height="36" viewBox="0 0 36 36" fill="none" xmlns="http://www.w3.org/2000/svg">
<g clip-path="url(#clip0)">
<path fill-rule="evenodd" clip-rule="evenodd" d="M10.1392 0H25.8608C33.2658 0 36 2.73418 36 10.1392V25.8608C36 33.2658 33.2658 36 25.8608 36H10.1392C2.73418 36 0 33.2658 0 25.8608V10.1392C0 2.73418 2.73418 0 10.1392 0ZM10.481 20.5063C10.481 21.3038 10.9367 21.7595 11.6203 21.7595C12.3038 21.7595 12.7595 21.3163 12.7595 20.5063V17.8861H13.6709V20.5063C13.6709 21.8734 12.8734 22.6709 11.6203 22.6709C10.2532 22.6709 9.56963 21.9873 9.56963 20.6203V17.8861H10.481V20.5063ZM7.17722 18H8.08861V22.6709H7.17722V20.7342H5.01267V22.6709H4.10127V18H5.01267V19.8228H7.17722V18ZM14.9241 22.6709L15.3798 21.6456H17.4304L17.8861 22.6709H18.9114L16.8608 18H15.9494L13.8987 22.6709H14.9241ZM15.7215 20.8481H17.2025L16.519 19.1392L15.7215 20.8481ZM22.557 18H21.7595L20.7342 21.1899L19.7089 18H18.6836L20.2785 22.6709H21.076L22.1013 19.5949L23.1266 22.6709H23.9241L25.519 18H24.4937L23.5823 21.1899L22.557 18ZM28.9367 20.6203H27.2279V21.7595H29.8481V22.6709H26.3165V18H29.7342V18.9114H27.2279V19.8228H28.9367V20.6203ZM30.9874 22.6709H31.8987V18H30.9874V22.6709ZM12.076 6.03796C12.076 9.22783 14.6962 11.962 18 11.962C21.3038 11.962 24.038 9.34176 23.9241 6.03796H23.1266C23.1266 8.88606 20.8481 11.1645 18 11.1645C15.1519 11.1645 12.8734 8.88606 12.8734 6.03796H12.076Z" fill="#333333"/>
</g>
<defs>
<clipPath id="clip0">
<rect width="36" height="36" fill="white"/>
</clipPath>
</defs>
</svg>
