<svg width="16" height="16" viewBox="0 0 16 16" fill="none" xmlns="http://www.w3.org/2000/svg">
<path fill-rule="evenodd" clip-rule="evenodd" d="M8 16C12.4183 16 16 12.4183 16 8C16 3.58172 12.4183 0 8 0C3.58172 0 0 3.58172 0 8C0 12.4183 3.58172 16 8 16ZM8.20046 4.81462C7.81659 4.75036 7.42323 4.82131 7.09137 5.01163C6.76008 5.20164 6.51472 5.49609 6.39165 5.83748C6.18096 6.42199 5.53632 6.72502 4.95181 6.51432C4.36731 6.30362 4.06428 5.65898 4.27498 5.07448C4.58206 4.22258 5.18573 3.51079 5.97197 3.05986C6.75765 2.60925 7.67821 2.4459 8.57192 2.59549C9.46585 2.74513 10.2822 3.19951 10.8736 3.88513C11.4654 4.57115 11.7928 5.44393 11.7916 6.34949C11.7913 7.70658 10.8596 8.62148 10.1602 9.12739C9.80339 9.3855 9.43603 9.58986 9.12244 9.74268C9.08327 10.3285 8.5957 10.7915 7.99998 10.7915C7.37866 10.7915 6.87498 10.2878 6.87498 9.6665V8.99983C6.87498 8.52605 7.17181 8.10305 7.61734 7.94191C7.80226 7.87502 8.3553 7.65604 8.84147 7.30436C9.36361 6.92666 9.54165 6.59704 9.54165 6.34872L9.54165 6.347C9.54219 5.98793 9.41272 5.63625 9.16992 5.35477C8.92656 5.07265 8.58412 4.87884 8.20046 4.81462ZM9 12.6665C9 13.2188 8.55228 13.6665 8 13.6665C7.44772 13.6665 7 13.2188 7 12.6665C7 12.1142 7.44772 11.6665 8 11.6665C8.55228 11.6665 9 12.1142 9 12.6665Z" fill="#969FA8"/>
</svg>
