<svg width="18" height="18" viewBox="0 0 18 18" fill="none" xmlns="http://www.w3.org/2000/svg">
    <path fill-rule="evenodd" clip-rule="evenodd" d="M13.4275 12.0957C14.4131 10.8262 15 9.23164 15 7.5C15 3.35786 11.6421 0 7.5 0C3.35786 0 0 3.35786 0 7.5C0 11.6421 3.35786 15 7.5 15C9.23164 15 10.8262 14.4131 12.0957 13.4275C12.1435 13.5286 12.2092 13.6234 12.2929 13.7071L16.2929 17.7071C16.6834 18.0976 17.3166 18.0976 17.7071 17.7071C18.0976 17.3166 18.0976 16.6834 17.7071 16.2929L13.7071 12.2929C13.6234 12.2092 13.5286 12.1435 13.4275 12.0957ZM7.5 13C4.46243 13 2 10.5376 2 7.5C2 4.46243 4.46243 2 7.5 2C10.5376 2 13 4.46243 13 7.5C13 10.5376 10.5376 13 7.5 13Z" fill="#969FA8"/>
</svg>
