<svg width="16" height="16" viewBox="0 0 16 16" fill="none" xmlns="http://www.w3.org/2000/svg">
    <path fill-rule="evenodd" clip-rule="evenodd" d="M10.9923 12.5115L14.1658 15.6851C14.3608 15.8801 14.6489 16 14.9245 16C15.1875 16 15.5025 15.8837 15.6832 15.6851C15.8711 15.4811 16.0106 15.2127 15.9981 14.9264C15.9856 14.6418 15.889 14.3734 15.6832 14.1677L12.5142 10.9987C12.587 10.8994 12.6574 10.7985 12.7254 10.6962C12.8936 10.4439 13.0421 10.1773 13.1674 9.90175C13.3284 9.54924 13.4751 9.18957 13.5807 8.81559C13.7668 8.16246 13.8563 7.46639 13.842 6.78821C13.8259 6.11361 13.7185 5.4229 13.5038 4.7823C13.2837 4.12201 12.9759 3.48141 12.5625 2.91954C12.3332 2.6084 12.0932 2.30785 11.8216 2.03546C11.8196 2.03341 11.8175 2.03136 11.8155 2.02931C11.8129 2.02675 11.8104 2.0242 11.8078 2.02167C11.3101 1.52702 10.7291 1.09292 10.1021 0.775849C9.49553 0.468073 8.84598 0.231873 8.17317 0.119142C7.79561 0.056513 7.41268 0.00819943 7.02975 0.00104186C6.68439 -0.00611571 6.34441 0.024304 6.00263 0.0708282C5.66086 0.117352 5.32267 0.176402 4.98984 0.273029C4.62122 0.380393 4.26513 0.527123 3.91799 0.686379C3.28634 0.97805 2.70657 1.3914 2.1966 1.86201C1.67588 2.34157 1.22317 2.91954 0.879604 3.53867C0.550355 4.13096 0.294472 4.78409 0.158479 5.44974C0.0206954 6.11719 -0.0383546 6.80789 0.0260636 7.48607C0.0922711 8.1732 0.230054 8.84422 0.496674 9.48124C0.646983 9.83912 0.804449 10.1898 1.00844 10.5209C1.21601 10.8573 1.45758 11.1758 1.71346 11.4764C2.17333 12.0132 2.73699 12.4785 3.34181 12.8453C3.92157 13.1996 4.57291 13.4698 5.2332 13.6326C5.60897 13.7257 5.99727 13.7812 6.38199 13.8169C6.68081 13.8438 6.97964 13.8492 7.27847 13.8313C7.95665 13.7901 8.63841 13.6684 9.27364 13.4286C9.63689 13.2909 9.99835 13.1352 10.3365 12.9437C10.5661 12.8139 10.782 12.6671 10.9923 12.5115ZM10.7049 3.99831C10.5765 3.84126 10.4409 3.68951 10.2972 3.54583C10.1566 3.40526 10.0094 3.27131 9.85559 3.14573C9.51721 2.89522 9.15402 2.68283 8.77132 2.5107C8.37588 2.35641 7.96571 2.24601 7.54659 2.1795C7.13021 2.13613 6.71098 2.13613 6.2946 2.1795C5.87782 2.24564 5.46989 2.35518 5.0765 2.50811C4.69281 2.68139 4.32867 2.89383 3.98943 3.14328C3.67951 3.39683 3.39412 3.68127 3.14041 3.99215C2.89142 4.32917 2.68022 4.69076 2.50888 5.07167C2.3546 5.46711 2.24419 5.87729 2.17768 6.29641C2.13431 6.7128 2.13431 7.13203 2.17768 7.54841C2.24382 7.96519 2.35336 8.37311 2.50629 8.7665C2.67957 9.1502 2.89201 9.51433 3.14146 9.85357C3.39501 10.1635 3.67945 10.4489 3.99032 10.7026C4.32734 10.9516 4.68893 11.1628 5.06985 11.3341C5.46529 11.4884 5.87548 11.5988 6.2946 11.6653C6.71098 11.7087 7.13021 11.7087 7.54658 11.6653C7.96336 11.5992 8.37129 11.4896 8.76468 11.3367C9.14837 11.1634 9.51251 10.951 9.85175 10.7015C10.0072 10.5744 10.1565 10.4394 10.2987 10.2973C10.3114 10.2834 10.3248 10.2699 10.3388 10.2568C10.4654 10.1278 10.5863 9.99291 10.7008 9.85269C10.9498 9.51566 11.161 9.15407 11.3323 8.77315C11.4866 8.37772 11.597 7.96755 11.6635 7.54843C11.7069 7.13203 11.7069 6.71279 11.6635 6.29639C11.5974 5.87963 11.4878 5.47171 11.3349 5.07833C11.1628 4.69729 10.9521 4.33554 10.7049 3.99831Z" fill="#BBC1C7"/>
</svg>
