<svg width="205" height="97" viewBox="0 0 205 97" fill="none" xmlns="http://www.w3.org/2000/svg">
<path fill-rule="evenodd" clip-rule="evenodd" d="M20.6034 30.5971L25.1442 11.1082H39.9422V45.1574H30.0727V19.4016L24.8952 41.1045H14.3865L9.20911 19.4016V45.1574H0.0776367V11.1082H16.1128L20.6034 30.5971Z" fill="#E30611"/>
<path fill-rule="evenodd" clip-rule="evenodd" d="M56.5166 31.2354H64.1094L60.3067 18.6515L56.5166 31.2354ZM68.2136 11.1086L78.7198 45.1453H68.3137L66.3373 38.6281H54.3025L52.3761 45.1453H43.396L53.9022 11.1086H68.2136Z" fill="#E30611"/>
<path fill-rule="evenodd" clip-rule="evenodd" d="M103.738 45.1575V19.5018H95.3579V25.1683C95.3579 41.3548 91.8541 45.145 82.9228 45.145H80.7087V36.0135H81.5981C85.4996 36.0135 86.2389 32.8613 86.2389 25.2559V11.0959H113.62V45.1325H103.738V45.1575Z" fill="#E30611"/>
<path fill-rule="evenodd" clip-rule="evenodd" d="M152.573 45.1451H162.443V11.1085H152.573V45.1451ZM136.048 28.5709H129.394V37.0144H136.048C138.075 37.0144 139.401 35.3382 139.401 33.712V31.8357C139.401 29.9093 138.225 28.5709 136.048 28.5709ZM137.287 45.1576H119.524V11.121H129.394V20.4401H137.287C145.58 20.4401 149.52 24.8808 149.52 32.7739C149.52 40.6169 145.568 45.1576 137.287 45.1576Z" fill="#E30611"/>
<path fill-rule="evenodd" clip-rule="evenodd" d="M195.153 0.0632782C195.153 6.03001 191.7 8.89454 184.195 8.89454C176.689 8.89454 173.237 6.03001 173.237 0.0632782H181.569C181.569 2.52753 182.407 3.46569 184.182 3.46569C186.009 3.46569 186.797 2.52753 186.797 0.0632782H195.153ZM168.371 45.1578V11.1211H178.241V31.1478L189.048 11.1211H200.094V45.1578H190.225V25.1311L179.416 45.1578H168.371Z" fill="#E30611"/>
<path fill-rule="evenodd" clip-rule="evenodd" d="M16.9011 81.9091H9.69595V88.5626H16.9011C18.7274 88.5626 19.8156 87.6244 19.8156 85.8982V84.6598C19.8156 82.8973 18.8775 81.9091 16.9011 81.9091ZM18.7274 96.218H0.0778809V62.1814H27.5086V70.3246H9.69595V74.7665H18.7274C26.2702 74.7665 29.9228 78.5192 29.9228 85.1226C29.9228 92.0663 26.2702 96.218 18.7274 96.218Z" fill="#E30611"/>
<path fill-rule="evenodd" clip-rule="evenodd" d="M34.3633 96.2186V62.1695H44.234V82.2087L55.0404 62.1695H66.0858V96.2186H56.2288V76.1794L45.4224 96.2186H34.3633Z" fill="#E30611"/>
<path fill-rule="evenodd" clip-rule="evenodd" d="M91.7918 85.9488V85.2108C91.7918 83.1343 90.1657 82.3963 87.9891 82.3963H82.2238V75.0411H87.9891C90.1657 75.0411 91.0038 73.9528 91.0038 72.4768V71.8889C91.0038 69.8136 89.4777 69.0744 86.363 69.0744C83.1119 69.0744 81.4845 70.0626 80.9341 72.6782H70.8145C71.8039 64.9339 76.8312 61.4314 86.3505 61.4314C96.1699 61.4314 101.098 64.4974 101.098 70.8018C101.098 74.3531 98.9219 76.8674 94.8315 78.1933C99.5724 79.3817 101.886 82.3838 101.886 85.6486C101.886 93.4917 96.5089 96.9441 86.7883 96.9441C77.219 96.9441 71.3523 93.5918 70.6018 85.3997H80.7215C80.8728 88.4131 83.0857 89.3025 86.7883 89.3025C90.1657 89.3025 91.7918 88.5132 91.7918 85.9488Z" fill="#E30611"/>
<path fill-rule="evenodd" clip-rule="evenodd" d="M127.23 96.2186V83.048H116.222V96.2186H106.354V62.1695H116.222V74.6533H127.23V62.1695H137.087V96.2186H127.23Z" fill="#E30611"/>
<path fill-rule="evenodd" clip-rule="evenodd" d="M143.016 96.2186V62.1695H168.872V70.3127H152.885V74.7534H164.769V82.6465H152.885V88.0753H168.909V96.2186H143.016Z" fill="#E30611"/>
<path fill-rule="evenodd" clip-rule="evenodd" d="M172.123 79.0446C172.123 65.7226 178.191 61.4321 188.31 61.4321C197.58 61.4321 203.309 64.6844 204.147 73.9647H194.028C193.639 70.112 191.463 69.3239 188.31 69.3239C184.859 69.3239 182.244 70.162 182.244 76.13V82.1455C182.244 88.1135 184.759 89.0517 188.31 89.0517C191.426 89.0517 193.538 88.1135 194.078 84.3108H204.185C203.197 93.4798 197.58 96.9448 188.299 96.9448C178.191 96.956 172.123 92.9044 172.123 79.0446Z" fill="#E30611"/>
</svg>
