<svg version="1.1" xmlns="http://www.w3.org/2000/svg" xmlns:xlink="http://www.w3.org/1999/xlink" x="0px" y="0px" viewBox="0 0 36 26" style="enable-background:new 0 0 36 26;" xml:space="preserve">
	<style type="text/css">
		.st0{fill:#efefef;}
	</style>
	<g transform="translate(-922.000000, -2049.000000)">
		<g transform="translate(905.000000, 2027.000000)">
			<g  transform="translate(15.000000, 15.000000)">
				<path class="st0" d="M2,7v23.1111107h36V7H2z M16.8500004,13.9288197
					c0.0787487,0,0.177187,0.0282116,0.2474995,0.067708l7.9200001,4.604167
					c0.140625,0.0818138,0.2250004,0.2200527,0.2250004,0.3836803c0,0.1636295-0.0843754,0.3244362-0.2250004,0.40625
					l-7.9200001,4.604166c-0.0703125,0.0423183-0.1687508,0.0451393-0.2474995,0.0451393
					c-0.0787506,0-0.1546879-0.002821-0.2250004-0.0451393c-0.140625-0.0818138-0.2250004-0.2426205-0.2250004-0.40625v-9.1857634
					c0-0.1636276,0.081562-0.3244362,0.2250004-0.40625C16.6953125,13.9570312,16.7712498,13.9288197,16.8500004,13.9288197z
					 M9.9200001,31.5555553c-0.3965626,0-0.7200003,0.3216152-0.7200003,0.7222233S9.5234375,33,9.9200001,33h20.1599998
					c0.3993759,0,0.7199993-0.3216133,0.7199993-0.7222214s-0.3206234-0.7222233-0.7199993-0.7222233H9.9200001z"/>
			</g>
		</g>
	</g>
</svg>
