<svg width="24" height="24" viewBox="0 0 24 24" fill="none" xmlns="http://www.w3.org/2000/svg">
<path fill-rule="evenodd" clip-rule="evenodd" d="M12 21C16.9706 21 21 16.9706 21 12C21 7.02944 16.9706 3 12 3C7.02944 3 3 7.02944 3 12C3 16.9706 7.02944 21 12 21Z" fill="#E30611"/>
<path d="M11.2363 7.48928C11.54 6.83819 12.4602 6.83821 12.7638 7.48932L13.6337 9.35451C13.7532 9.61084 13.9919 9.79033 14.27 9.83311L16.2828 10.1427C16.9617 10.2471 17.2389 11.0804 16.7593 11.575L15.2503 13.1312C15.0633 13.3241 14.9784 13.5949 15.0215 13.8609L15.3703 16.0132C15.4837 16.7127 14.7458 17.2359 14.1294 16.893L12.4083 15.9355C12.1543 15.7942 11.8459 15.7942 11.5919 15.9355L9.87054 16.8931C9.25415 17.2359 8.51628 16.7128 8.62966 16.0132L8.97851 13.8609C9.02162 13.5949 8.93669 13.3241 8.74966 13.1312L7.24075 11.575C6.76115 11.0804 7.03831 10.2471 7.71716 10.1427L9.73002 9.8331C10.0081 9.79033 10.2468 9.61085 10.3663 9.35454L11.2363 7.48928Z" fill="white"/>
</svg>
