<svg width="15" height="8" viewBox="0 0 15 8" fill="none" xmlns="http://www.w3.org/2000/svg">
<path d="M14.1328 3.73828C14.1328 4.78516 13.8047 5.66797 13.1484 6.38672C12.4922 7.10547 11.6602 7.46484 10.6523 7.46484C9.20703 7.46484 8 6.61719 7.03125 4.92188C6.05469 6.57812 4.88672 7.40625 3.52734 7.40625C2.46484 7.40625 1.60938 7.0625 0.960938 6.375C0.320312 5.6875 0 4.79297 0 3.69141C0 2.62109 0.328125 1.73828 0.984375 1.04297C1.64844 0.347656 2.49609 0 3.52734 0C4.93359 0 6.10938 0.839844 7.05469 2.51953C8.02344 0.871094 9.22266 0.046875 10.6523 0.046875C11.6836 0.046875 12.5195 0.386719 13.1602 1.06641C13.8086 1.74609 14.1328 2.63672 14.1328 3.73828ZM3.62109 5.84766C4.11328 5.84766 4.57031 5.67969 4.99219 5.34375C5.41406 5 5.82812 4.44922 6.23438 3.69141C5.85156 2.95703 5.44922 2.41406 5.02734 2.0625C4.61328 1.71094 4.13672 1.53516 3.59766 1.53516C2.99609 1.53516 2.50781 1.74219 2.13281 2.15625C1.76562 2.5625 1.58203 3.08203 1.58203 3.71484C1.58203 4.34766 1.76562 4.86328 2.13281 5.26172C2.5 5.65234 2.99609 5.84766 3.62109 5.84766ZM10.5117 1.58203C10.0195 1.58203 9.5625 1.75781 9.14062 2.10938C8.72656 2.45312 8.3125 2.99609 7.89844 3.73828C8.28125 4.47266 8.68359 5.01562 9.10547 5.36719C9.52734 5.71875 10.0039 5.89453 10.5352 5.89453C11.1289 5.89453 11.6133 5.69141 11.9883 5.28516C12.3633 4.87891 12.5508 4.36328 12.5508 3.73828C12.5508 3.12891 12.3633 2.61719 11.9883 2.20312C11.6211 1.78906 11.1289 1.58203 10.5117 1.58203Z" fill="#626C77"/>
</svg>
