<svg viewBox="0 0 18 18" fill="none" xmlns="http://www.w3.org/2000/svg">
<path fill-rule="evenodd" clip-rule="evenodd" d="M13 0C13.5523 0 14 0.447715 14 1C14 1.55228 13.5523 2 13 2H3C2.44772 2 2 2.44772 2 3C2 3.55228 2.44772 4 3 4H14C15.1046 4 16 4.89543 16 6L16.0005 6.67408C15.0911 6.24187 14.0737 6 13 6C9.1346 6 6 9.1346 6 13C6 14.0737 6.24187 15.0911 6.67408 16.0005L2 16C0.89543 16 0 15.1046 0 14V3C0 0.790861 0.790861 0 3 0H13ZM13 8C10.239 8 8 10.239 8 13C8 15.761 10.239 18 13 18C15.761 18 18 15.761 18 13C18 10.239 15.761 8 13 8ZM13 10C13.552 10 14 10.448 14 11V12H15C15.552 12 16 12.448 16 13C16 13.552 15.552 14 15 14H14V15C14 15.552 13.552 16 13 16C12.448 16 12 15.552 12 15V14H11C10.448 14 10 13.552 10 13C10 12.448 10.448 12 11 12H12V11C12 10.448 12.448 10 13 10Z" fill="#9198A0"/>
</svg>
