<svg width="17" height="16" viewBox="0 0 17 16" fill="none" xmlns="http://www.w3.org/2000/svg">
<path d="M8.5 16C12.9183 16 16.5 12.4183 16.5 8C16.5 3.58172 12.9183 0 8.5 0C4.08172 0 0.5 3.58172 0.5 8C0.5 12.4183 4.08172 16 8.5 16Z" fill="#FAC031"/>
<path fill-rule="evenodd" clip-rule="evenodd" d="M7.44386 4.15855C7.40206 3.53156 7.89937 3 8.52775 3C9.16021 3 9.65895 3.53818 9.6109 4.16882L9.21356 9.38398C9.18708 9.73152 8.89736 10 8.54882 10H8.45699C8.10602 10 7.81515 9.72788 7.7918 9.37768L7.44386 4.15855Z" fill="white"/>
<path fill-rule="evenodd" clip-rule="evenodd" d="M8.49996 13C9.05224 13 9.49996 12.5523 9.49996 12C9.49996 11.4477 9.05224 11 8.49996 11C7.94767 11 7.49996 11.4477 7.49996 12C7.49996 12.5523 7.94767 13 8.49996 13Z" fill="white"/>
</svg>